<svg width="80" height="80" viewBox="0 0 80 80" fill="none" xmlns="http://www.w3.org/2000/svg">
<path d="M7.10547 17.0391H13.7288V23.6624H7.10547V17.0391ZM20.3522 30.2858H13.7288V23.6624H20.3522V30.2858ZM26.9756 30.2858H20.3522V36.9092H13.7288V43.5326H7.10547V63.4027H73.3392V43.5326H66.7159V36.9092H60.0925V30.2858H66.7159V23.6624H73.3392V17.0391H66.7159V23.6624H60.0925V30.2858H53.4691V23.6624H26.9756V30.2858ZM26.9756 30.2858H53.4691V36.9092H60.0925V43.5326H66.7159V56.7793H13.7288V43.5326H20.3522V36.9092H26.9756V30.2858ZM33.599 43.5326H26.9756V50.1559H33.599V43.5326ZM46.8457 43.5326H53.4691V50.1559H46.8457V43.5326Z" />
</svg>
