<svg width="80" height="80" viewBox="0 0 80 80" fill="none" xmlns="http://www.w3.org/2000/svg">
<path d="M26.8193 6.62329H33.4427V19.87H46.6895V6.62329H53.3129V19.87H59.9362V29.8051H66.5596V36.4285H59.9362V43.0519H73.183V49.6752H59.9362V56.2986H66.5596V62.922H59.9362V72.8571H20.196V62.922H13.5726V56.2986H20.196V49.6752H6.94922V43.0519H20.196V36.4285H13.5726V29.8051H20.196V19.87H26.8193V6.62329ZM53.3129 26.4934H26.8193V36.4285H53.3129V26.4934ZM36.7544 43.0519H26.8193V66.2337H36.7544V43.0519ZM43.3778 66.2337H53.3129V43.0519H43.3778V66.2337ZM13.5726 29.8051H6.94922V23.1817H13.5726V29.8051ZM13.5726 62.922V69.5454H6.94922V62.922H13.5726ZM66.5596 62.922H73.183V69.5454H66.5596V62.922ZM66.5596 29.8051V23.1817H73.183V29.8051H66.5596Z" />
</svg>
