<svg width="80" height="80" viewBox="0 0 80 80" fill="none" xmlns="http://www.w3.org/2000/svg">
<g clip-path="url(#clip0_1971_3191)">
<path d="M0.441406 23.6625H7.06478V30.2859H0.441406V23.6625ZM13.6882 36.9092H7.06478V30.2859H13.6882V36.9092ZM26.9349 43.5326V36.9092H13.6882V43.5326H7.06478V50.156H13.6882V43.5326H26.9349ZM53.4284 43.5326H26.9349V50.156H20.3115V56.7794H26.9349V50.156H53.4284V56.7794H60.0518V50.156H53.4284V43.5326ZM66.6752 36.9092H53.4284V43.5326H66.6752V50.156H73.2985V43.5326H66.6752V36.9092ZM73.2985 30.2859V36.9092H66.6752V30.2859H73.2985ZM73.2985 30.2859V23.6625H79.9219V30.2859H73.2985Z" fill="white"/>
</g>
<defs>
<clipPath id="clip0_1971_3191">
<rect width="79.4805" height="79.4805" fill="white" transform="translate(0.441406 0.480469)"/>
</clipPath>
</defs>
</svg>
