<svg width="80" height="80" viewBox="0 0 80 80" fill="none" xmlns="http://www.w3.org/2000/svg">
<g clip-path="url(#clip0_2086_720)">
<path d="M0.480469 36.3831H7.10385V43.0065H0.480469V36.3831ZM13.7272 49.6299H7.10385V43.0065H13.7272V49.6299ZM26.974 56.2532V49.6299H13.7272V56.2532H7.10385V62.8766H13.7272V56.2532H26.974ZM53.4675 56.2532H26.974V62.8766H20.3506V69.5H26.974V62.8766H53.4675V69.5H60.0909V62.8766H53.4675V56.2532ZM66.7142 49.6299H53.4675V56.2532H66.7142V62.8766H73.3376V56.2532H66.7142V49.6299ZM73.3376 43.0065V49.6299H66.7142V43.0065H73.3376ZM73.3376 43.0065V36.3831H79.961V43.0065H73.3376Z" />
</g>
<defs>
<clipPath id="clip0_2086_720">
<rect width="79.48" height="79.48" fill="white" transform="translate(0.480469)"/>
</clipPath>
</defs>
</svg>
