<svg width="81" height="80" viewBox="0 0 81 80" fill="none" xmlns="http://www.w3.org/2000/svg">
<g clip-path="url(#clip0_2086_719)">
<path d="M0.960938 0H7.58431V6.62338H0.960938V0ZM7.58431 6.62338H14.2077V13.2468H7.58431V6.62338ZM67.1947 6.62338H73.8181V13.2468H67.1947V6.62338ZM73.8181 0H80.4415V6.62338H73.8181V0ZM7.58431 66.2338H14.2077V72.8571H7.58431V66.2338ZM0.960938 72.8571H7.58431V79.4805H0.960938V72.8571ZM67.1947 66.2338H73.8181V72.8571H67.1947V66.2338ZM73.8181 72.8571H80.4415V79.4805H73.8181V72.8571ZM27.4544 56.2987H53.9479V62.9221H27.4544V56.2987ZM53.9479 49.6753H67.1947V56.2987H53.9479V49.6753ZM27.4544 49.6753H14.2077V56.2987H27.4544V49.6753ZM53.9479 23.1818H67.1947V29.8052H53.9479V23.1818ZM27.4544 23.1818H14.2077V29.8052H27.4544V23.1818ZM67.1947 29.8052H73.8181V36.4286H67.1947V29.8052ZM14.2077 29.8052H7.58431V36.4286H14.2077V29.8052ZM73.8181 36.4286H80.4415V43.0519H73.8181V36.4286ZM7.58431 36.4286H0.960938V43.0519H7.58431V36.4286ZM67.1947 43.0519H73.8181V49.6753H67.1947V43.0519ZM14.2077 43.0519H7.58431V49.6753H14.2077V43.0519ZM27.4544 16.5584H53.9479V23.1818H27.4544V16.5584ZM34.0778 33.1169H47.3246V46.3636H34.0778V33.1169Z" />
</g>
<defs>
<clipPath id="clip0_2086_719">
<rect width="79.48" height="79.48" fill="white" transform="translate(0.960938)"/>
</clipPath>
</defs>
</svg>
