<svg width="81" height="80" viewBox="0 0 81 80" fill="none" xmlns="http://www.w3.org/2000/svg">
<g clip-path="url(#clip0_1971_3152)">
<path d="M27.4544 20.3506H53.9479V26.974H27.4544V20.3506ZM14.2077 33.5973V26.974H27.4544V33.5973H14.2077ZM7.58431 40.2207V33.5973H14.2077V40.2207H7.58431ZM7.58431 46.8441V40.2207H0.960938V46.8441H7.58431ZM14.2077 53.4675H7.58431V46.8441H14.2077V53.4675ZM27.4544 60.0908H14.2077V53.4675H27.4544V60.0908ZM53.9479 60.0908V66.7142H27.4544V60.0908H53.9479ZM67.1947 53.4675V60.0908H53.9479V53.4675H67.1947ZM73.8181 46.8441V53.4675H67.1947V46.8441H73.8181ZM73.8181 40.2207H80.4415V46.8441H73.8181V40.2207ZM67.1947 33.5973H73.8181V40.2207H67.1947V33.5973ZM67.1947 33.5973V26.974H53.9479V33.5973H67.1947ZM34.0778 36.909H47.3246V50.1558H34.0778V36.909Z" fill="white"/>
</g>
<defs>
<clipPath id="clip0_1971_3152">
<rect width="79.4805" height="79.4805" fill="white" transform="translate(0.960938 0.480469)"/>
</clipPath>
</defs>
</svg>
