<svg width="80" height="80" viewBox="0 0 80 80" fill="none" xmlns="http://www.w3.org/2000/svg">
<g clip-path="url(#clip0_2086_721)">
<path d="M26.4935 16.5H52.987V23.1234H26.4935V16.5ZM13.2468 29.7468V23.1234H26.4935V29.7468H13.2468ZM6.62338 36.3701V29.7468H13.2468V36.3701H6.62338ZM6.62338 42.9935V36.3701H0V42.9935H6.62338ZM13.2468 49.6169H6.62338V42.9935H13.2468V49.6169ZM26.4935 56.2403H13.2468V49.6169H26.4935V56.2403ZM52.987 56.2403V62.8636H26.4935V56.2403H52.987ZM66.2338 49.6169V56.2403H52.987V49.6169H66.2338ZM72.8571 42.9935V49.6169H66.2338V42.9935H72.8571ZM72.8571 36.3701H79.4805V42.9935H72.8571V36.3701ZM66.2338 29.7468H72.8571V36.3701H66.2338V29.7468ZM66.2338 29.7468V23.1234H52.987V29.7468H66.2338ZM33.1169 33.0584H46.3636V46.3052H33.1169V33.0584Z" />
</g>
<defs>
<clipPath id="clip0_2086_721">
<rect width="79.48" height="79.48" />
</clipPath>
</defs>
</svg>
