<svg width="80" height="80" viewBox="0 0 80 80" fill="white" xmlns="http://www.w3.org/2000/svg">
<path d="M30.2044 7.104H16.9577V13.7274H10.3343V20.3508H3.71094V40.2209H10.3343V46.8443H16.9577V53.4676H23.5811V60.091H30.2044V66.7144H36.8278V73.3378H43.4512V66.7144H50.0746V60.091H56.6979V53.4676H63.3213V46.8443H69.9447V40.2209H76.5681V20.3508H69.9447V13.7274H63.3213V7.104H50.0746V13.7274H43.4512V20.3508H36.8278V13.7274H30.2044V7.104ZM30.2044 13.7274V20.3508H36.8278V26.9741H43.4512V20.3508H50.0746V13.7274H63.3213V20.3508H69.9447V40.2209H63.3213V46.8443H56.6979V53.4676H50.0746V60.091H43.4512V66.7144H36.8278V60.091H30.2044V53.4676H23.5811V46.8443H16.9577V40.2209H10.3343V20.3508H16.9577V13.7274H30.2044Z"/>
</svg>
