<svg width="80" height="80" viewBox="0 0 80 80" fill="none" xmlns="http://www.w3.org/2000/svg">
<path d="M43.0516 7.10376H36.4282V20.3505H29.8049V13.7271H23.1815V20.3505H29.8049V26.9739H36.4282V36.909H26.4932V30.2856H19.8698V23.6622H13.2464V30.2856H19.8698V36.909H6.62305V43.5323H19.8698V50.1557H13.2464V56.7791H19.8698V50.1557H26.4932V43.5323H36.4282V53.4674H29.8049V60.0908H23.1815V66.7141H29.8049V60.0908H36.4282V73.3375H43.0516V60.0908H49.675V66.7141H56.2984V60.0908H49.675V53.4674H43.0516V43.5323H52.9867V50.1557H59.6101V56.7791H66.2334V50.1557H59.6101V43.5323H72.8568V36.909H59.6101V30.2856H66.2334V23.6622H59.6101V30.2856H52.9867V36.909H43.0516V26.9739H49.675V20.3505H56.2984V13.7271H49.675V20.3505H43.0516V7.10376Z" />
</svg>
