<svg width="81" height="80" viewBox="0 0 81 80" fill="none" xmlns="http://www.w3.org/2000/svg">
<g clip-path="url(#clip0_1971_3193)">
<path d="M0.921875 0.480469H7.54525V7.10385H0.921875V0.480469ZM7.54525 7.10385H14.1686V13.7272H7.54525V7.10385ZM67.1556 7.10385H73.779V13.7272H67.1556V7.10385ZM73.779 0.480469H80.4024V7.10385H73.779V0.480469ZM7.54525 66.7142H14.1686V73.3376H7.54525V66.7142ZM0.921875 73.3376H7.54525V79.961H0.921875V73.3376ZM67.1556 66.7142H73.779V73.3376H67.1556V66.7142ZM73.779 73.3376H80.4024V79.961H73.779V73.3376ZM27.4154 56.7792H53.9089V63.4025H27.4154V56.7792ZM53.9089 50.1558H67.1556V56.7792H53.9089V50.1558ZM27.4154 50.1558H14.1686V56.7792H27.4154V50.1558ZM53.9089 23.6623H67.1556V30.2857H53.9089V23.6623ZM27.4154 23.6623H14.1686V30.2857H27.4154V23.6623ZM67.1556 30.2857H73.779V36.909H67.1556V30.2857ZM14.1686 30.2857H7.54525V36.909H14.1686V30.2857ZM73.779 36.909H80.4024V43.5324H73.779V36.909ZM7.54525 36.909H0.921875V43.5324H7.54525V36.909ZM67.1556 43.5324H73.779V50.1558H67.1556V43.5324ZM14.1686 43.5324H7.54525V50.1558H14.1686V43.5324ZM27.4154 17.0389H53.9089V23.6623H27.4154V17.0389ZM34.0388 33.5974H47.2855V46.8441H34.0388V33.5974Z" fill="white"/>
</g>
<defs>
<clipPath id="clip0_1971_3193">
<rect width="79.4805" height="79.4805" fill="white" transform="translate(0.921875 0.480469)"/>
</clipPath>
</defs>
</svg>
