<svg width="80" height="80" viewBox="0 0 80 80" fill="none" xmlns="http://www.w3.org/2000/svg">
<path d="M40.1813 3.31152H46.8047V29.805H73.2982V43.0518H66.6748V36.4284H40.1813V16.5583H33.558V9.9349H40.1813V3.31152ZM26.9346 23.1817V16.5583H33.558V23.1817H26.9346ZM20.3112 29.805V23.1817H26.9346V29.805H20.3112ZM13.6878 36.4284V29.805H20.3112V36.4284H13.6878ZM46.8047 62.9219V69.5453H40.1813V76.1687H33.558V49.6752H7.06445V36.4284H13.6878V43.0518H40.1813V62.9219H46.8047ZM53.4281 56.2985V62.9219H46.8047V56.2985H53.4281ZM60.0515 49.6752V56.2985H53.4281V49.6752H60.0515ZM60.0515 49.6752H66.6748V43.0518H60.0515V49.6752Z" fill="white"/>
</svg>
