<svg width="242" height="240" viewBox="0 0 242 240" fill="none" xmlns="http://www.w3.org/2000/svg">
<path d="M113.68 20.52C113.68 17.4533 114.307 15.0667 115.56 13.36C116.84 11.6267 118.693 10.76 121.12 10.76C123.547 10.76 125.347 11.56 126.52 13.16C127.72 14.76 128.32 16.8933 128.32 19.56L128.2 21.56H115.96C116.093 23.56 116.627 25.1867 117.56 26.44C118.493 27.6667 119.773 28.28 121.4 28.28C123.053 28.28 124.987 27.8933 127.2 27.12L127.8 29.12C125.64 29.9467 123.613 30.36 121.72 30.36C119.107 30.36 117.107 29.4933 115.72 27.76C114.36 26 113.68 23.5867 113.68 20.52ZM121.28 12.8C117.92 12.8 116.147 15.0533 115.96 19.56H126.04C126.04 15.0533 124.453 12.8 121.28 12.8Z" fill="white"/>
<path d="M132.084 20.8688C132.647 17.8544 133.702 15.6235 135.247 14.1762C136.824 12.7075 138.805 12.1962 141.19 12.6421C143.576 13.088 145.198 14.2051 146.057 15.9935C146.943 17.7867 147.141 19.994 146.651 22.6153L146.165 24.5591L134.134 22.31C133.897 24.3005 134.123 25.9975 134.81 27.401C135.502 28.7782 136.647 29.6163 138.246 29.9152C139.871 30.219 141.843 30.1942 144.161 29.8407L144.383 31.9169C142.108 32.3326 140.04 32.3665 138.179 32.0186C135.61 31.5384 133.803 30.319 132.758 28.3604C131.745 26.3804 131.52 23.8833 132.084 20.8688ZM140.973 14.6768C137.67 14.0594 135.513 15.9485 134.501 20.3441L144.409 22.1963C145.238 17.7664 144.092 15.2599 140.973 14.6768Z" fill="white"/>
<path d="M144.284 40.7391L152.679 19.0684L153.601 15.6934L155.552 16.1921L155.108 18.3363C157.433 17.7216 159.417 17.7321 161.058 18.3679C163.271 19.2253 164.674 20.6981 165.266 22.7864C165.858 24.8747 165.605 27.3362 164.507 30.1709C163.409 33.0056 161.871 34.9835 159.892 36.1044C157.914 37.2254 155.731 37.3235 153.344 36.3987C151.951 35.8593 150.602 34.9504 149.295 33.6722L146.261 41.5049L144.284 40.7391ZM162.352 29.4219C163.21 27.2088 163.466 25.292 163.121 23.6715C162.787 22.026 161.823 20.8951 160.232 20.2786C158.665 19.6717 156.725 19.7349 154.41 20.4683L150.075 31.658C150.501 32.109 151.114 32.6322 151.913 33.2276C152.746 33.8078 153.448 34.2087 154.02 34.4303C155.786 35.1142 157.404 34.9975 158.875 34.0802C160.345 33.1629 161.505 31.6101 162.352 29.4219Z" fill="white"/>
<path d="M177.167 48.1743L178.952 46.9875C180.311 49.4164 181.522 51.1159 182.586 52.086C183.65 53.0561 184.675 53.5751 185.659 53.6428C186.682 53.7088 187.543 53.3575 188.244 52.5889C188.944 51.8203 189.22 51.0431 189.07 50.2572C188.958 49.4696 188.326 48.2435 187.173 46.5791C186.02 44.9147 185.367 43.4348 185.212 42.1394C185.022 40.8835 185.466 39.6644 186.544 38.4819C187.622 37.2995 188.883 36.8071 190.326 37.0046C191.808 37.2004 193.258 37.945 194.677 39.2385C196.096 40.532 197.345 42.2486 198.426 44.3883L196.745 45.4003C195.573 43.3215 194.475 41.815 193.45 40.8808C192.425 39.9466 191.456 39.3874 190.541 39.2032C189.591 39.0584 188.81 39.321 188.199 39.991C187.588 40.6611 187.369 41.4168 187.54 42.2584C187.73 43.1179 188.404 44.4175 189.56 46.1573C190.717 47.8971 191.341 49.35 191.432 50.5161C191.542 51.6625 191.031 52.8564 189.899 54.098C188.767 55.3395 187.445 55.9386 185.933 55.8953C184.441 55.8699 182.926 55.1566 181.389 53.7553C179.852 52.354 178.444 50.4937 177.167 48.1743Z" fill="white"/>
<path d="M211.282 59.742L209.333 60.6124C208.805 58.9395 208.115 57.5391 207.263 56.4112C206.106 54.879 204.696 54.1397 203.032 54.1932C201.406 54.2519 199.635 55.0044 197.719 56.4507C195.804 57.897 194.572 59.4291 194.023 61.0469C193.495 62.6486 193.801 64.205 194.942 65.7159C195.713 66.7374 196.954 67.8053 198.665 68.9196L197.454 70.6356C195.685 69.5321 194.303 68.3207 193.306 67.0013C191.731 64.9158 191.218 62.7975 191.765 60.6463C192.334 58.4791 193.863 56.4554 196.353 54.5752C198.843 52.695 201.157 51.7993 203.296 51.8883C205.457 51.9611 207.332 53.051 208.923 55.1577C209.936 56.4984 210.722 58.0265 211.282 59.742Z" fill="white"/>
<path d="M198.552 73.8322L200.342 72.9408L202.375 77.0227L215.803 70.3366L213.77 66.2547L215.56 65.3632L218.538 71.3429L216.497 72.4486C217.354 72.9748 218.367 73.8113 219.534 74.9581C220.7 76.1048 221.593 77.1796 222.212 78.1824L222.408 78.5763L220.295 79.6282L220.099 79.2344C219.54 78.2913 218.695 77.1927 217.564 75.9387C216.445 74.7085 215.493 73.8423 214.706 73.3401L203.356 78.9921L206.208 84.7211L204.418 85.6126L198.552 73.8322Z" fill="white"/>
<path d="M214.553 85.4386C220.837 83.6507 224.676 85.2061 226.07 90.105C227.464 95.0039 225.019 98.3474 218.735 100.135C212.451 101.923 208.612 100.368 207.218 95.4688C205.824 90.5699 208.269 87.2265 214.553 85.4386ZM224.069 90.6743C223.092 87.2373 220.127 86.2231 215.177 87.6316C210.227 89.04 208.241 91.4627 209.219 94.8996C210.197 98.3365 213.161 99.3508 218.111 97.9423C223.061 96.5339 225.047 94.1112 224.069 90.6743Z" fill="white"/>
<path d="M210.044 105.522L212.035 105.338L212.6 111.432L235.144 109.343L234.554 103.412L236.502 103.191L237.291 111.273L212.796 113.543L213.379 119.836L211.387 120.02L210.044 105.522Z" fill="white"/>
<path d="M211.188 122.131L213.18 122.315L212.615 128.409L235.159 130.498L235.669 124.56L237.624 124.701L236.915 132.79L212.42 130.52L211.837 136.813L209.845 136.628L211.188 122.131Z" fill="white"/>
<path d="M209.393 138.205L211.317 138.752L209.718 144.369L224.146 148.474L225.744 142.857L227.668 143.404L225.489 151.06L209.138 146.408L207.54 152.025L205.616 151.478L209.393 138.205ZM231.724 149.757C232.237 149.903 232.594 150.157 232.796 150.519C232.991 150.907 233.015 151.358 232.869 151.871C232.57 152.923 231.856 153.288 230.728 152.967C229.599 152.646 229.197 151.963 229.522 150.919C229.836 149.816 230.57 149.428 231.724 149.757Z" fill="white"/>
<path d="M220.767 164.181L219.299 163.54C219.244 166.402 218.836 168.597 218.075 170.125C217.315 171.652 216.195 172.584 214.717 172.921C213.227 173.281 211.575 173.01 209.761 172.106L198.41 166.454L199.355 164.556L210.705 170.208C211.875 170.791 212.985 170.986 214.034 170.793C215.059 170.589 215.857 169.914 216.427 168.768C216.998 167.622 217.358 165.582 217.509 162.648L203.723 155.784L204.668 153.886L221.676 162.355L220.767 164.181Z" fill="white"/>
<path d="M193.087 173.886C194.534 171.971 196.302 171.001 198.393 170.975C200.484 170.95 202.731 171.846 205.136 173.662C207.562 175.494 209.041 177.496 209.572 179.668C210.088 181.862 209.574 183.98 208.031 186.023C207.18 187.151 205.851 188.136 204.046 188.978L204.923 189.741L203.694 191.369L192.202 182.691C189.429 181.098 187.84 180.149 187.436 179.843C185.563 178.429 184.633 176.741 184.644 174.778C184.635 172.799 185.273 170.959 186.559 169.256C187.828 167.575 189.7 165.981 192.174 164.475L193.337 166.255C190.937 167.751 189.263 169.127 188.315 170.382C187.351 171.659 186.845 173.015 186.797 174.449C186.734 175.905 187.362 177.131 188.681 178.127L191.42 179.745C191.519 177.179 192.075 175.227 193.087 173.886ZM206.387 184.882C207.528 183.371 207.856 181.764 207.371 180.061C206.907 178.374 205.739 176.824 203.866 175.41C202.015 174.011 200.265 173.275 198.618 173.2C196.991 173.142 195.672 173.783 194.659 175.123C193.647 176.464 193.201 178.382 193.32 180.879L202.258 187.628C204.175 186.904 205.552 185.988 206.387 184.882Z" fill="white"/>
<path d="M173.64 204.789C174.66 204.157 175.57 204.487 176.37 205.779C177.171 207.072 177.061 208.034 176.04 208.666C174.997 209.311 174.062 208.965 173.233 207.628C172.826 206.97 172.656 206.417 172.723 205.968C172.767 205.533 173.073 205.139 173.64 204.789Z" fill="white"/>
<path d="M143.553 207.343L148.441 233.49L146.357 233.88L143.381 217.955L140.112 218.973C138.859 221.269 137.7 223.846 136.633 226.704L136.114 228.063L133.755 228.504C135.128 224.53 136.567 221.196 138.07 218.501C135.799 216.511 133.476 214.096 131.101 211.258L129.949 209.886L132.387 209.43C134.797 212.452 137.173 215.006 139.516 217.091L143.028 216.068L141.47 207.733L143.553 207.343Z" fill="white"/>
<path d="M128.32 219.48C128.32 222.547 127.693 224.933 126.44 226.64C125.16 228.373 123.307 229.24 120.88 229.24C118.453 229.24 116.653 228.44 115.48 226.84C114.28 225.24 113.68 223.107 113.68 220.44L113.8 218.44H126.04C125.907 216.44 125.373 214.813 124.44 213.56C123.507 212.333 122.227 211.72 120.6 211.72C118.947 211.72 117.013 212.107 114.8 212.88L114.2 210.88C116.36 210.053 118.387 209.64 120.28 209.64C122.893 209.64 124.893 210.507 126.28 212.24C127.64 214 128.32 216.413 128.32 219.48ZM120.72 227.2C124.08 227.2 125.853 224.947 126.04 220.44H115.96C115.96 224.947 117.547 227.2 120.72 227.2Z" fill="white"/>
<path d="M109.915 219.131C109.352 222.146 108.297 224.377 106.752 225.824C105.175 227.292 103.194 227.804 100.809 227.358C98.4234 226.912 96.8011 225.795 95.9417 224.007C95.0561 222.213 94.8584 220.006 95.3484 217.385L95.8338 215.441L107.865 217.69C108.102 215.7 107.876 214.003 107.189 212.599C106.497 211.222 105.352 210.384 103.753 210.085C102.128 209.781 100.156 209.806 97.8384 210.159L97.6161 208.083C99.8913 207.667 101.959 207.634 103.82 207.981C106.389 208.462 108.196 209.681 109.241 211.64C110.254 213.62 110.479 216.117 109.915 219.131ZM101.026 225.323C104.329 225.941 106.486 224.052 107.498 219.656L97.5895 217.804C96.7614 222.234 97.907 224.74 101.026 225.323Z" fill="white"/>
<path d="M97.7151 199.261L89.3199 220.932L88.3985 224.307L86.4468 223.808L86.8914 221.664C84.5656 222.278 82.5822 222.268 80.941 221.632C78.728 220.775 77.3253 219.302 76.733 217.214C76.1407 215.125 76.3937 212.664 77.4918 209.829C78.59 206.994 80.1284 205.016 82.1069 203.896C84.0854 202.775 86.2683 202.676 88.6554 203.601C90.0479 204.141 91.3974 205.05 92.7038 206.328L95.7383 198.495L97.7151 199.261ZM79.6468 210.578C78.7894 212.791 78.533 214.708 78.8775 216.329C79.2124 217.974 80.1756 219.105 81.767 219.721C83.3336 220.328 85.2741 220.265 87.5887 219.532L91.9236 208.342C91.4977 207.891 90.8854 207.368 90.0865 206.772C89.2532 206.192 88.5506 205.791 87.9786 205.57C86.2132 204.886 84.5951 205.002 83.1244 205.92C81.6537 206.837 80.4945 208.39 79.6468 210.578Z" fill="white"/>
<path d="M64.8322 191.826L63.0466 193.012C61.6885 190.584 60.4773 188.884 59.4131 187.914C58.3489 186.944 57.3245 186.425 56.3398 186.357C55.3174 186.291 54.4559 186.643 53.7553 187.411C53.0546 188.18 52.7791 188.957 52.9287 189.743C53.0406 190.53 53.6731 191.756 54.826 193.421C55.9789 195.085 56.6325 196.565 56.7867 197.861C56.9769 199.116 56.5331 200.336 55.4552 201.518C54.3773 202.7 53.1164 203.193 51.6727 202.995C50.1913 202.8 48.7412 202.055 47.3222 200.762C45.9033 199.468 44.6536 197.751 43.5731 195.612L45.2535 194.6C46.4256 196.678 47.524 198.185 48.5488 199.119C49.5735 200.053 50.5432 200.613 51.4578 200.797C52.4083 200.942 53.189 200.679 53.7998 200.009C54.4106 199.339 54.6305 198.583 54.4594 197.742C54.2687 196.882 53.5951 195.583 52.4387 193.843C51.2823 192.103 50.6583 190.65 50.5666 189.484C50.457 188.338 50.9681 187.144 52.0999 185.902C53.2317 184.66 54.5537 184.061 56.0658 184.105C57.5582 184.13 59.073 184.843 60.6101 186.245C62.1472 187.646 63.5546 189.506 64.8322 191.826Z" fill="white"/>
<path d="M30.7186 180.258L32.6677 179.388C33.1959 181.061 33.8859 182.461 34.7376 183.589C35.8946 185.121 37.3051 185.86 38.9689 185.807C40.5954 185.748 42.3663 184.996 44.2815 183.549C46.1967 182.103 47.429 180.571 47.9784 178.953C48.5064 177.351 48.2 175.795 47.059 174.284C46.2876 173.263 45.0467 172.195 43.3364 171.08L44.5467 169.364C46.3157 170.468 47.6984 171.679 48.6947 172.999C50.2696 175.084 50.7833 177.203 50.2357 179.354C49.6668 181.521 48.1375 183.545 45.6477 185.425C43.1579 187.305 40.8435 188.201 38.7045 188.112C36.5443 188.039 34.6687 186.949 33.0777 184.842C32.0653 183.502 31.2789 181.974 30.7186 180.258Z" fill="white"/>
<path d="M43.4488 166.168L41.6585 167.059L39.6259 162.977L26.1985 169.663L28.231 173.745L26.4407 174.637L23.4632 168.657L25.5043 167.551C24.6465 167.025 23.6342 166.189 22.4674 165.042C21.3006 163.895 20.4079 162.82 19.7894 161.818L19.5933 161.424L21.7059 160.372L21.902 160.766C22.461 161.709 23.3059 162.807 24.4367 164.061C25.5557 165.291 26.5084 166.158 27.2946 166.66L38.6453 161.008L35.7926 155.279L37.5829 154.387L43.4488 166.168Z" fill="white"/>
<path d="M27.4477 154.561C21.1637 156.349 17.3248 154.794 15.931 149.895C14.5371 144.996 16.9822 141.653 23.2661 139.865C29.55 138.077 33.3889 139.632 34.7828 144.531C36.1766 149.43 33.7316 152.773 27.4477 154.561ZM17.9316 149.326C18.9095 152.763 21.8735 153.777 26.8237 152.368C31.7739 150.96 33.76 148.537 32.7822 145.1C31.8043 141.663 28.8402 140.649 23.89 142.058C18.9398 143.466 16.9537 145.889 17.9316 149.326Z" fill="white"/>
<path d="M31.957 134.478L29.9655 134.662L29.4008 128.568L6.85738 130.657L7.44713 136.588L5.49918 136.809L4.71013 128.727L29.2052 126.457L28.6221 120.164L30.6135 119.98L31.957 134.478Z" fill="white"/>
<path d="M30.8125 117.869L28.821 117.685L29.3857 111.591L6.84228 109.502L6.33219 115.44L4.37686 115.299L5.08625 107.21L29.5813 109.48L30.1645 103.187L32.1559 103.372L30.8125 117.869Z" fill="white"/>
<path d="M32.6081 101.795L30.6844 101.248L32.2826 95.6309L17.8552 91.526L16.257 97.143L14.3334 96.5957L16.5117 88.9396L32.8628 93.5919L34.461 87.9748L36.3846 88.5221L32.6081 101.795ZM10.277 90.2431C9.76401 90.0972 9.4066 89.843 9.20473 89.4806C9.01017 89.0925 8.98587 88.642 9.13182 88.129C9.43102 87.0774 10.1449 86.7122 11.2734 87.0333C12.402 87.3544 12.8038 88.0371 12.479 89.0814C12.1652 90.1843 11.4312 90.5715 10.277 90.2431Z" fill="white"/>
<path d="M21.2342 75.8187L22.7021 76.4603C22.757 73.5981 23.1648 71.403 23.9256 69.8753C24.6863 68.3476 25.8058 67.4155 27.284 67.0791C28.7741 66.7189 30.4263 66.9905 32.2405 67.8938L43.5912 73.5458L42.6462 75.4435L31.2955 69.7916C30.1258 69.2092 29.0164 69.0142 27.9673 69.2068C26.942 69.4112 26.1441 70.0863 25.5735 71.2321C25.003 72.3779 24.6426 74.4178 24.4924 77.3518L38.278 84.2161L37.333 86.1139L20.3249 77.6449L21.2342 75.8187Z" fill="white"/>
<path d="M48.9136 66.114C47.4673 68.0293 45.6988 68.9994 43.608 69.0245C41.5172 69.0496 39.2695 68.1542 36.8648 66.3383C34.4388 64.5063 32.9601 62.5041 32.4286 60.3316C31.9132 58.1379 32.4268 56.0196 33.9696 53.9767C34.8213 52.8488 36.1499 51.8639 37.9553 51.0218L37.0778 50.2589L38.3072 48.631L49.7987 57.3089C52.5721 58.902 54.161 59.8513 54.5653 60.1566C56.438 61.5708 57.3684 63.2592 57.3566 65.2219C57.3661 67.2006 56.728 69.0411 55.4424 70.7436C54.1728 72.4247 52.3009 74.0186 49.8266 75.5251L48.6645 73.7452C51.0641 72.2491 52.7379 70.8733 53.6861 69.6178C54.6503 68.3409 55.1561 66.9853 55.2035 65.5508C55.267 64.095 54.639 62.8689 53.3196 61.8725L50.5809 60.2555C50.4818 62.8205 49.926 64.7733 48.9136 66.114ZM35.6138 55.1181C34.4728 56.629 34.1448 58.2359 34.6299 59.9389C35.0937 61.6258 36.2619 63.1763 38.1346 64.5905C39.986 65.9886 41.7356 66.725 43.3833 66.7998C45.0098 66.8585 46.3293 66.2175 47.3417 64.8768C48.3541 63.5362 48.8004 61.6176 48.6807 59.1212L39.7429 52.3717C37.8258 53.0961 36.4495 54.0115 35.6138 55.1181Z" fill="white"/>
<path d="M68.3593 35.2115C67.339 35.8432 66.4288 35.5129 65.6286 34.2206C64.8285 32.9283 64.9385 31.9662 65.9588 31.3345C67.0017 30.6888 67.9373 31.0347 68.7655 32.3724C69.1727 33.0299 69.3428 33.5832 69.2759 34.0324C69.2316 34.4675 68.9261 34.8605 68.3593 35.2115Z" fill="white"/>
<path d="M98.4466 32.657L93.5588 6.50989L95.6427 6.12034L98.6195 22.0445L101.888 21.0266C103.141 18.7306 104.3 16.1537 105.367 13.2957L105.886 11.9372L108.245 11.4962C106.872 15.4695 105.433 18.8039 103.93 21.4995C106.201 23.4894 108.524 25.9036 110.899 28.7421L112.051 30.1139L109.613 30.5696C107.203 27.5476 104.827 24.9941 102.484 22.9091L98.9723 23.9318L100.53 32.2674L98.4466 32.657Z" fill="white"/>
<path d="M109.501 91H98.1944" stroke="white" stroke-width="3.76931" stroke-linecap="round"/>
<path d="M143.425 91H132.118" stroke="white" stroke-width="3.76931" stroke-linecap="round"/>
<path d="M154.732 112.359L86.8855 112.359" stroke="white" stroke-width="3.76931" stroke-linecap="round"/>
<mask id="path-32-inside-1_1058_431" fill="white">
<path d="M88.3869 112.359C88.3869 111.434 87.6287 110.684 86.6934 110.684C85.7582 110.684 85 111.434 85 112.359C85 133.639 100.553 149.005 122.065 149.005C143.576 149.005 156.616 133.639 156.616 112.359C156.616 111.434 155.858 110.684 154.923 110.684C153.988 110.684 153.229 111.434 153.229 112.359C153.229 131.789 141.705 145.655 122.065 145.655C102.424 145.655 88.3869 131.789 88.3869 112.359Z"/>
</mask>
<path d="M86.6934 114.454C85.5855 114.454 84.6176 113.554 84.6176 112.359H92.1562C92.1562 109.314 89.6719 106.915 86.6934 106.915V114.454ZM88.7693 112.359C88.7693 113.554 87.8014 114.454 86.6934 114.454V106.915C83.715 106.915 81.2307 109.314 81.2307 112.359H88.7693ZM122.065 145.236C102.594 145.236 88.7693 131.516 88.7693 112.359H81.2307C81.2307 135.762 98.5131 152.774 122.065 152.774V145.236ZM152.847 112.359C152.847 122.24 149.826 130.435 144.626 136.118C139.462 141.762 131.871 145.236 122.065 145.236V152.774C133.769 152.774 143.454 148.566 150.188 141.207C156.886 133.887 160.386 123.759 160.386 112.359H152.847ZM154.923 114.454C153.815 114.454 152.847 113.554 152.847 112.359H160.386C160.386 109.314 157.901 106.915 154.923 106.915V114.454ZM156.999 112.359C156.999 113.554 156.031 114.454 154.923 114.454V106.915C151.944 106.915 149.46 109.314 149.46 112.359H156.999ZM122.065 149.424C132.824 149.424 141.676 145.595 147.807 138.823C153.896 132.096 156.999 122.803 156.999 112.359H149.46C149.46 121.345 146.801 128.7 142.218 133.764C137.676 138.781 130.945 141.885 122.065 141.885V149.424ZM84.6176 112.359C84.6176 133.912 100.384 149.424 122.065 149.424V141.885C104.464 141.885 92.1562 129.666 92.1562 112.359H84.6176Z" fill="white" mask="url(#path-32-inside-1_1058_431)"/>
</svg>
