<svg width="203" height="203" viewBox="0 0 203 203" fill="none" xmlns="http://www.w3.org/2000/svg">
<path d="M109.258 25.1228C108.104 24.9961 107.123 24.6208 106.315 23.9967C105.523 23.3743 104.94 22.5558 104.564 21.541C104.207 20.512 104.102 19.3241 104.25 17.9774C104.398 16.6306 104.766 15.4946 105.354 14.5694C105.944 13.6282 106.709 12.9414 107.649 12.5091C108.605 12.0785 109.692 11.9301 110.91 12.0638C111.952 12.1782 112.828 12.4771 113.538 12.9607C114.249 13.4281 114.76 14.1007 115.069 14.9784C115.378 15.8561 115.454 16.9434 115.295 18.2403L106.156 17.2374L106.174 16.6309L112.764 17.354C112.887 16.5239 112.897 15.7704 112.793 15.0937C112.69 14.401 112.468 13.8411 112.125 13.4141C111.8 12.9728 111.333 12.7187 110.724 12.6519C109.971 12.5692 109.265 12.8649 108.607 13.5391C107.95 14.1972 107.48 15.3057 107.195 16.8646L107.235 16.942C107.2 17.1166 107.163 17.3073 107.124 17.5139C107.103 17.7063 107.081 17.9068 107.058 18.1152C106.866 19.8627 107.045 21.2616 107.595 22.3117C108.163 23.3476 109.064 23.9333 110.299 24.0688C111.1 24.1567 111.845 24.0275 112.532 23.681C113.235 23.3363 113.836 22.737 114.335 21.8832L114.852 22.2806C114.317 23.309 113.559 24.0777 112.578 24.5867C111.615 25.0813 110.509 25.2601 109.258 25.1228Z" fill="white"/>
<path d="M125.615 28.6603C124.515 28.2859 123.639 27.7064 122.986 26.9218C122.349 26.1424 121.957 25.2166 121.811 24.1446C121.685 23.0624 121.841 21.8801 122.278 20.5976C122.715 19.3151 123.321 18.2862 124.096 17.5108C124.876 16.7202 125.772 16.216 126.783 15.9982C127.81 15.7855 128.903 15.8768 130.064 16.272C131.056 16.61 131.846 17.092 132.434 17.7181C133.027 18.3289 133.379 19.0963 133.49 20.0202C133.601 20.9442 133.439 22.0219 133.002 23.2534L124.3 20.2894L124.449 19.7013L130.724 21.8384C131.025 21.0549 131.198 20.3216 131.243 19.6384C131.294 18.9399 131.198 18.3451 130.956 17.8539C130.735 17.3526 130.335 17.0031 129.754 16.8055C129.037 16.5611 128.284 16.6965 127.495 17.2116C126.711 17.7115 126.011 18.6913 125.395 20.1512L125.417 20.2355C125.344 20.3982 125.267 20.5762 125.184 20.7695C125.122 20.9527 125.057 21.1436 124.989 21.3421C124.422 23.0063 124.293 24.4106 124.602 25.5552C124.931 26.6896 125.684 27.4571 126.859 27.8575C127.623 28.1174 128.377 28.153 129.123 27.964C129.884 27.7802 130.601 27.3258 131.274 26.6008L131.692 27.1009C130.947 27.9886 130.04 28.5744 128.972 28.8582C127.925 29.1319 126.805 29.0659 125.615 28.6603Z" fill="white"/>
<path d="M132.34 36.5347L132.663 36.023C133.43 36.4688 134.019 36.6686 134.43 36.6223C134.845 36.5983 135.221 36.3202 135.556 35.7881L142.472 24.8184C142.885 24.1635 143.023 23.6118 142.886 23.1633C142.763 22.7235 142.349 22.2619 141.643 21.7788L141.978 21.2467C142.229 21.4237 142.48 21.6008 142.73 21.7779C142.981 21.955 143.249 22.1338 143.536 22.3145C144.518 22.9338 145.445 23.3845 146.316 23.6666L137.89 37.0308C137.529 37.6038 137.462 38.1336 137.689 38.62C137.93 39.115 138.506 39.6687 139.416 40.2809L139.094 40.7925C138.871 40.6326 138.559 40.4168 138.158 40.1452C137.762 39.8957 137.33 39.6136 136.861 39.2989C136.406 38.9928 135.953 38.6978 135.503 38.414C134.861 38.0097 134.25 37.6338 133.668 37.2861C133.078 36.9521 132.635 36.7017 132.34 36.5347ZM142.078 36.4675C141.355 36.0116 140.813 35.4795 140.453 34.8712C140.115 34.2578 140.001 33.6521 140.111 33.0542L140.477 32.6555C140.405 33.163 140.494 33.6575 140.743 34.1389C141.006 34.6289 141.397 35.0373 141.916 35.3641C142.857 35.9577 143.842 35.9974 144.872 35.4834C145.924 34.9643 146.953 33.9066 147.959 32.3103C148.897 30.8231 149.387 29.5308 149.431 28.4334C149.497 27.3309 149.107 26.513 148.261 25.9797C147.715 25.6356 147.085 25.4861 146.37 25.5312C145.655 25.5763 145.023 25.8072 144.475 26.2239L144.659 25.7963C145.316 25.2381 146.098 24.9497 147.006 24.931C147.936 24.9073 148.817 25.1578 149.65 25.6825C150.509 26.2244 151.104 26.914 151.434 27.7513C151.786 28.5836 151.868 29.5123 151.68 30.5374C151.513 31.5574 151.086 32.6132 150.398 33.7047C149.658 34.8781 148.819 35.7698 147.882 36.3799C146.958 36.9986 145.995 37.3163 144.993 37.3329C144.005 37.3581 143.033 37.0697 142.078 36.4675Z" fill="white"/>
<path d="M160.816 53.0903C160.383 52.5488 160.077 52.0501 159.898 51.5942C159.729 51.1509 159.599 50.7693 159.509 50.4494C159.43 50.1195 159.316 49.8601 159.165 49.6712C158.913 49.3563 158.525 49.2846 158.001 49.456L157.623 48.9838C157.993 48.7495 158.372 48.4874 158.76 48.1977C159.148 47.9079 159.569 47.5816 160.022 47.2188C160.475 46.856 160.98 46.4415 161.537 45.9754L161.915 46.4477C160.907 47.5637 160.343 48.6142 160.223 49.5992C160.112 50.5967 160.419 51.5488 161.145 52.4555C161.679 53.1229 162.237 53.5233 162.819 53.6567C163.424 53.7926 163.99 53.6489 164.519 53.2256C165.01 52.8325 165.262 52.3212 165.275 51.6914C165.31 51.0642 165.102 50.1977 164.651 49.092C164.106 47.6891 163.886 46.5228 163.989 45.5933C164.102 44.6764 164.536 43.9156 165.292 43.3109C166.136 42.6357 167.031 42.3735 167.978 42.5245C168.925 42.6755 169.772 43.2169 170.518 44.1487C170.911 44.6398 171.187 45.1007 171.345 45.5314C171.517 45.9521 171.636 46.3211 171.705 46.6384C171.783 46.9684 171.897 47.2278 172.049 47.4167C172.169 47.5678 172.309 47.6522 172.468 47.6698C172.649 47.6899 172.866 47.6508 173.118 47.5525L173.496 48.0248C173.186 48.2314 172.864 48.4481 172.529 48.6748C172.216 48.9041 171.871 49.1699 171.494 49.4723C171.116 49.7746 170.674 50.1387 170.168 50.5645L169.79 50.0923C170.55 49.2357 170.966 48.3351 171.036 47.3905C171.119 46.4358 170.853 45.5744 170.238 44.8062C169.795 44.2521 169.309 43.9285 168.78 43.8354C168.263 43.7323 167.766 43.8722 167.287 44.2551C166.796 44.6482 166.548 45.1772 166.543 45.8422C166.538 46.5072 166.773 47.4455 167.246 48.657C167.778 49.9667 167.985 51.0511 167.867 51.9101C167.771 52.7716 167.333 53.5147 166.552 54.1396C165.633 54.8753 164.656 55.1513 163.62 54.9676C162.608 54.7864 161.673 54.1607 160.816 53.0903Z" fill="white"/>
<path d="M169.619 66.6311C169.095 65.5948 168.878 64.5751 168.967 63.5721C169.056 62.569 169.427 61.6405 170.08 60.7864C170.747 59.925 171.663 59.1996 172.829 58.6101C174.038 57.9988 175.198 57.6834 176.309 57.664C177.427 57.659 178.434 57.9358 179.331 58.4944C180.228 59.053 180.95 59.8721 181.496 60.9516C181.889 61.7289 182.116 62.4816 182.176 63.2099C182.245 63.9526 182.157 64.6021 181.915 65.1586C181.694 65.7223 181.317 66.1387 180.784 66.408C180.309 66.6481 179.837 66.6971 179.368 66.555C178.92 66.4199 178.579 66.1221 178.346 65.6615C178.165 65.3017 178.116 64.9557 178.201 64.6235C178.293 64.3057 178.491 64.0704 178.793 63.9175C179.081 63.772 179.369 63.7166 179.658 63.7514C179.947 63.7861 180.217 63.821 180.47 63.8559C180.73 63.9052 180.96 63.879 181.162 63.7771C181.407 63.6534 181.525 63.404 181.516 63.0289C181.521 62.6466 181.404 62.2179 181.164 61.7429C180.625 60.6778 179.76 60.0758 178.57 59.9368C177.401 59.805 176.003 60.1503 174.376 60.9727C172.764 61.7878 171.665 62.7052 171.078 63.7249C170.512 64.7517 170.506 65.8121 171.059 66.906C171.423 67.6257 171.938 68.1608 172.603 68.5112C173.268 68.8617 174.073 69.006 175.018 68.944L174.967 69.5934C173.82 69.7212 172.774 69.5275 171.826 69.0124C170.901 68.5044 170.165 67.7107 169.619 66.6311Z" fill="white"/>
<path d="M174.004 75.3287L174.588 75.1706C174.851 76.0184 175.141 76.5664 175.459 76.8145C175.797 77.074 176.269 77.1215 176.876 76.9571L183.999 75.0283C184.731 74.8301 185.198 74.5198 185.401 74.0971C185.624 73.6859 185.639 73.0635 185.447 72.2299L186.054 72.0655C186.131 72.4122 186.2 72.7278 186.26 73.0123C186.325 73.3123 186.401 73.6258 186.49 73.9527C186.781 75.0269 187.153 75.9704 187.607 76.7832L177.752 79.4519C177.083 79.6332 176.667 79.9798 176.505 80.4916C176.363 81.0147 176.419 81.8098 176.675 82.8769L176.091 83.035C176.035 82.7661 175.944 82.3982 175.817 81.9311C175.71 81.4754 175.593 80.9808 175.465 80.4473C175.338 79.9137 175.204 79.3901 175.065 78.8763C174.867 78.1446 174.662 77.4483 174.449 76.7873C174.257 76.1376 174.108 75.6514 174.004 75.3287ZM184.771 82.1381C184.674 81.78 184.69 81.4667 184.817 81.1982C184.965 80.941 185.195 80.7702 185.506 80.6859C185.724 80.6269 185.929 80.6131 186.121 80.6446C186.318 80.6916 186.504 80.7329 186.681 80.7686C186.858 80.8043 187.032 80.799 187.203 80.7526C187.546 80.6598 187.654 80.3799 187.527 79.9129C187.43 79.5548 187.244 79.2044 186.967 78.8615C186.69 78.5187 186.36 78.2239 185.975 77.977C185.611 77.7416 185.216 77.581 184.792 77.4954L185.41 77.2779C186.22 77.493 186.909 77.8747 187.475 78.4232C188.057 78.9675 188.445 79.5977 188.638 80.3138C188.832 81.0299 188.782 81.6452 188.487 82.1596C188.211 82.6853 187.739 83.0388 187.069 83.2201C186.509 83.3719 186.017 83.3463 185.595 83.1432C185.172 82.9402 184.898 82.6051 184.771 82.1381Z" fill="white"/>
<path d="M177.785 96.6185C177.725 95.4911 177.905 94.464 178.325 93.5374C178.745 92.6269 179.425 91.8884 180.364 91.3219C181.303 90.7555 182.522 90.4327 184.019 90.3536C185.533 90.2737 186.787 90.4659 187.781 90.9302C188.775 91.3946 189.528 92.0574 190.042 92.9186C190.573 93.7951 190.868 94.797 190.928 95.9245C190.989 97.0841 190.801 98.1116 190.364 99.0069C189.943 99.9174 189.264 100.656 188.324 101.222C187.386 101.805 186.16 102.136 184.646 102.216C183.148 102.295 181.902 102.095 180.907 101.614C179.914 101.15 179.16 100.487 178.646 99.6257C178.132 98.7645 177.845 97.7621 177.785 96.6185ZM178.389 96.5866C178.437 97.5047 178.952 98.2286 179.933 98.7582C180.914 99.2879 182.435 99.4983 184.497 99.3894C186.574 99.2797 188.073 98.9098 188.993 98.2798C189.929 97.6489 190.372 96.8744 190.324 95.9564C190.276 95.0544 189.753 94.331 188.755 93.7861C187.775 93.2564 186.245 93.0464 184.167 93.1562C182.106 93.265 180.615 93.6345 179.695 94.2645C178.777 94.9106 178.341 95.6847 178.389 96.5866Z" fill="white"/>
<path d="M178.179 107.282L178.778 107.364C178.695 108.215 178.743 108.824 178.921 109.19C179.113 109.574 179.536 109.811 180.191 109.9L193.664 111.732C194.383 111.83 194.926 111.732 195.291 111.44C195.67 111.166 195.935 110.592 196.087 109.717L196.71 109.802C196.653 110.103 196.596 110.405 196.538 110.706C196.479 111.024 196.428 111.334 196.387 111.638C196.309 112.213 196.259 112.76 196.237 113.278C196.23 113.814 196.252 114.306 196.306 114.752L179.836 112.513C179.181 112.424 178.711 112.531 178.425 112.834C178.154 113.155 177.944 113.737 177.797 114.58L177.198 114.498C177.244 114.276 177.295 113.966 177.349 113.566C177.417 113.185 177.491 112.764 177.57 112.302C177.649 111.841 177.72 111.379 177.783 110.915C177.874 110.244 177.951 109.555 178.015 108.847C178.093 108.158 178.147 107.636 178.179 107.282Z" fill="white"/>
<path d="M176.495 118.505L177.075 118.674C176.867 119.503 176.825 120.113 176.947 120.501C177.08 120.909 177.464 121.206 178.099 121.39L191.155 125.189C191.852 125.391 192.402 125.375 192.806 125.14C193.222 124.925 193.569 124.396 193.848 123.553L194.452 123.729C194.351 124.019 194.249 124.308 194.148 124.598C194.043 124.903 193.947 125.203 193.862 125.497C193.699 126.055 193.569 126.588 193.472 127.097C193.385 127.626 193.335 128.116 193.322 128.565L177.362 123.922C176.727 123.738 176.247 123.774 175.92 124.032C175.604 124.309 175.311 124.854 175.041 125.666L174.46 125.497C174.539 125.285 174.634 124.985 174.747 124.598C174.871 124.231 175.006 123.825 175.152 123.38C175.298 122.936 175.436 122.489 175.567 122.04C175.756 121.389 175.934 120.719 176.102 120.028C176.28 119.358 176.411 118.85 176.495 118.505Z" fill="white"/>
<path d="M173.102 129.51L173.651 129.763C173.323 130.553 173.19 131.149 173.253 131.551C173.324 131.974 173.66 132.325 174.26 132.602L180.961 135.692C181.635 136.002 182.189 136.072 182.624 135.899C183.052 135.741 183.466 135.266 183.867 134.474L184.438 134.738C184.295 135.009 184.153 135.281 184.01 135.552C183.86 135.838 183.721 136.121 183.592 136.399C183.349 136.926 183.142 137.434 182.969 137.923C182.805 138.434 182.683 138.91 182.603 139.353L173.156 134.996C172.556 134.719 172.075 134.684 171.713 134.89C171.359 135.118 170.989 135.613 170.602 136.376L170.052 136.123C170.162 135.924 170.301 135.642 170.469 135.276C170.646 134.931 170.84 134.55 171.05 134.132C171.261 133.714 171.464 133.292 171.66 132.868C171.95 132.238 172.23 131.594 172.498 130.936C172.773 130.299 172.975 129.824 173.102 129.51ZM185.487 139.165C185.677 138.754 185.981 138.46 186.401 138.281C186.815 138.116 187.241 138.135 187.681 138.338C188.12 138.54 188.411 138.852 188.554 139.273C188.691 139.709 188.664 140.132 188.475 140.542C188.286 140.953 187.982 141.247 187.561 141.426C187.141 141.606 186.712 141.594 186.272 141.391C185.847 141.196 185.56 140.876 185.408 140.434C185.272 139.998 185.298 139.575 185.487 139.165Z" fill="white"/>
<path d="M163.126 147.231L163.613 147.59C163.245 148.141 163.092 148.579 163.152 148.905C163.216 149.253 163.5 149.614 164.006 149.988L169.044 153.713C169.887 154.337 170.638 154.651 171.296 154.656C171.954 154.661 172.518 154.346 172.988 153.711C173.343 153.231 173.542 152.676 173.587 152.047C173.634 151.44 173.514 150.79 173.225 150.095L173.775 150.531C174.118 151.287 174.242 152.07 174.144 152.88C174.036 153.704 173.714 154.479 173.177 155.205C172.429 156.216 171.53 156.755 170.478 156.82C169.44 156.895 168.325 156.491 167.131 155.609L162.424 152.128C161.918 151.754 161.466 151.62 161.066 151.725C160.67 151.854 160.196 152.265 159.642 152.959L159.156 152.6C159.303 152.428 159.497 152.18 159.737 151.855C159.989 151.541 160.261 151.2 160.552 150.834C160.843 150.467 161.118 150.109 161.377 149.759C161.732 149.279 162.069 148.796 162.388 148.31C162.721 147.834 162.967 147.474 163.126 147.231ZM168.218 140.345L168.705 140.704C168.213 141.424 167.963 141.991 167.957 142.408C167.95 142.824 168.206 143.224 168.724 143.607L174.657 147.995C175.28 148.455 175.82 148.634 176.277 148.53C176.725 148.44 177.216 148.061 177.75 147.393L178.256 147.767C178.061 148.004 177.866 148.241 177.671 148.477C177.466 148.727 177.267 148.982 177.076 149.241C176.73 149.708 176.429 150.157 176.17 150.588C175.915 151.041 175.699 151.483 175.521 151.913L167.156 145.728C166.638 145.344 166.209 145.178 165.871 145.228C165.523 145.292 165.149 145.567 164.749 146.054L164.263 145.694C164.496 145.405 164.778 145.052 165.107 144.633C165.449 144.225 165.793 143.787 166.139 143.32C166.513 142.814 166.883 142.286 167.25 141.735C167.621 141.207 167.944 140.743 168.218 140.345Z" fill="white"/>
<path d="M148.262 154.933C149.508 153.908 150.677 153.311 151.771 153.142C152.852 152.983 153.684 153.259 154.269 153.968C154.74 154.541 154.936 155.236 154.857 156.054C154.767 156.858 154.416 157.764 153.803 158.77L153.297 158.841C153.505 158.357 153.561 157.841 153.465 157.294C153.346 156.744 153.092 156.232 152.703 155.759C152.129 155.061 151.452 154.709 150.674 154.702C149.895 154.696 149.095 155.031 148.273 155.707C147.613 156.25 147.132 156.845 146.828 157.492C146.515 158.126 146.379 158.76 146.42 159.395C146.462 160.029 146.693 160.601 147.113 161.112C147.513 161.597 147.971 161.837 148.487 161.829C148.981 161.82 149.545 161.554 150.18 161.031L152.048 159.494C152.808 158.868 153.53 158.514 154.214 158.432C154.896 158.372 155.441 158.591 155.851 159.089C156.18 159.488 156.338 159.984 156.326 160.579C156.324 161.186 156.153 161.891 155.811 162.695L155.354 162.977C155.487 162.554 155.544 162.205 155.525 161.928C155.506 161.651 155.414 161.413 155.25 161.214C155.045 160.965 154.78 160.859 154.456 160.896C154.131 160.933 153.776 161.111 153.39 161.429L151.205 163.228C150.184 164.068 149.231 164.497 148.347 164.514C147.473 164.544 146.708 164.161 146.052 163.364C145.417 162.592 145.095 161.718 145.086 160.743C145.055 159.766 145.312 158.771 145.857 157.759C146.39 156.756 147.191 155.814 148.262 154.933ZM154.754 163.314C155.887 162.381 157.009 161.917 158.12 161.922C159.219 161.937 160.168 162.43 160.968 163.401C161.757 164.36 162.053 165.38 161.857 166.461C161.648 167.552 160.983 168.559 159.862 169.482C158.729 170.414 157.613 170.873 156.514 170.858C155.416 170.843 154.472 170.357 153.683 169.398C152.883 168.426 152.582 167.4 152.778 166.319C152.975 165.238 153.633 164.237 154.754 163.314ZM155.139 163.781C154.591 164.232 154.36 164.777 154.447 165.416C154.532 166.077 154.943 166.856 155.681 167.752C156.409 168.637 157.084 169.178 157.707 169.376C158.327 169.596 158.911 169.481 159.459 169.03C160.007 168.579 160.239 168.023 160.154 167.361C160.067 166.723 159.659 165.961 158.932 165.077C158.194 164.181 157.514 163.622 156.894 163.401C156.272 163.203 155.686 163.33 155.139 163.781ZM152.545 171.556C152.794 171.351 153.048 171.278 153.305 171.338C153.561 171.42 153.807 171.541 154.044 171.701C154.29 171.874 154.518 172.011 154.726 172.111C154.921 172.222 155.087 172.221 155.224 172.108C155.299 172.047 155.376 171.9 155.456 171.667C155.534 171.456 155.593 171.199 155.634 170.893C155.663 170.598 155.641 170.292 155.569 169.976L156.054 170.109C156.166 170.727 156.116 171.364 155.903 172.019C155.691 172.675 155.36 173.187 154.912 173.556C154.526 173.874 154.135 174.008 153.739 173.958C153.33 173.918 152.962 173.699 152.634 173.301C152.367 172.977 152.227 172.654 152.212 172.332C152.197 172.009 152.309 171.751 152.545 171.556Z" fill="white"/>
<path d="M133.996 176.508C134.5 176.291 134.978 176.261 135.432 176.416C135.877 176.593 136.201 176.919 136.406 177.393C136.61 177.867 136.621 178.319 136.437 178.749C136.239 179.186 135.888 179.513 135.385 179.73C134.866 179.953 134.388 179.984 133.949 179.822C133.495 179.666 133.166 179.351 132.962 178.877C132.751 178.388 132.745 177.926 132.943 177.489C133.127 177.059 133.478 176.732 133.996 176.508Z" fill="white"/>
<path d="M118.481 176.885L118.552 177.486C117.662 177.656 117.071 177.879 116.779 178.157C116.487 178.435 116.377 178.879 116.449 179.487L118.039 192.991C118.127 193.744 118.366 194.252 118.754 194.515C119.128 194.795 119.742 194.902 120.594 194.834L120.668 195.458C120.33 195.482 120.007 195.504 119.701 195.524C119.379 195.545 119.074 195.573 118.785 195.607C117.696 195.735 116.692 195.967 115.773 196.303L113.83 179.796C113.758 179.187 113.588 178.777 113.319 178.565C113.051 178.353 112.576 178.254 111.896 178.27L111.825 177.669C112.148 177.647 112.598 177.61 113.177 177.558C113.741 177.524 114.303 177.474 114.864 177.408C115.537 177.329 116.224 177.232 116.925 177.117C117.612 177.02 118.13 176.943 118.481 176.885ZM109.735 177.915L109.806 178.516C109.206 178.667 108.847 178.856 108.727 179.081C108.61 179.322 108.691 179.67 108.972 180.124L110.39 182.442C110.791 183.093 111.191 183.525 111.59 183.738C111.974 183.969 112.487 184.047 113.128 183.971L114.617 183.796L114.688 184.396L112.958 184.6C112.43 184.662 111.983 184.804 111.62 185.026C111.24 185.249 110.899 185.598 110.598 186.072L110.091 186.935C109.815 187.357 109.658 187.741 109.617 188.087C109.561 188.435 109.619 188.72 109.791 188.944C109.949 189.185 110.221 189.356 110.607 189.457C110.994 189.574 111.494 189.612 112.106 189.572L112.177 190.173C111.727 190.21 111.212 190.254 110.634 190.306C110.039 190.36 109.405 190.426 108.733 190.506C108.332 190.553 107.964 190.596 107.627 190.636C107.277 190.693 106.941 190.741 106.621 190.779C106.303 190.832 105.992 190.885 105.69 190.937L105.619 190.336C106.163 190.126 106.631 189.9 107.025 189.659C107.419 189.418 107.766 189.125 108.067 188.781C108.353 188.455 108.654 188.046 108.97 187.554L110.622 184.826L110.967 185.273C110.447 185.269 110.015 185.19 109.672 185.036C109.313 184.883 108.976 184.639 108.66 184.302C108.328 183.968 107.98 183.489 107.614 182.866L106.477 181.076C106.141 180.563 105.835 180.169 105.559 179.893C105.284 179.633 104.98 179.465 104.647 179.391C104.313 179.317 103.886 179.278 103.366 179.274L103.296 178.673C103.858 178.623 104.332 178.576 104.716 178.53C105.102 178.501 105.44 178.469 105.728 178.435C106.018 178.418 106.307 178.392 106.596 178.358C107.044 178.305 107.492 178.244 107.939 178.175C108.387 178.122 108.986 178.036 109.735 177.915Z" fill="white"/>
<path d="M92.7612 177.569C93.9147 177.704 94.8932 178.086 95.6967 178.715C96.4842 179.343 97.0622 180.165 97.4308 181.183C97.7815 182.214 97.8784 183.403 97.7216 184.748C97.5648 186.094 97.1891 187.228 96.5946 188.149C95.9982 189.086 95.2287 189.768 94.2859 190.194C93.3271 190.618 92.239 190.759 91.0214 190.617C89.9801 190.496 89.1063 190.191 88.4 189.703C87.6918 189.23 87.186 188.554 86.8826 187.675C86.5792 186.795 86.5111 185.707 86.6783 184.411L95.8101 185.476L95.7881 186.082L89.2036 185.315C89.0745 186.144 89.0598 186.897 89.1595 187.575C89.2573 188.268 89.476 188.829 89.8157 189.259C90.1375 189.702 90.6028 189.959 91.2116 190.03C91.9646 190.118 92.6724 189.827 93.335 189.157C93.9957 188.504 94.4737 187.398 94.7688 185.841L94.7291 185.764C94.7657 185.589 94.8041 185.399 94.8444 185.193C94.8668 185 94.8901 184.8 94.9144 184.592C95.1179 182.845 94.9482 181.445 94.4052 180.392C93.8444 179.352 92.9472 178.76 91.7136 178.617C90.9126 178.523 90.1674 178.647 89.478 178.989C88.7726 179.329 88.1674 179.925 87.6623 180.775L87.1488 180.374C87.6904 179.349 88.4533 178.586 89.4374 178.083C90.4037 177.595 91.5116 177.424 92.7612 177.569Z" fill="white"/>
<path d="M76.4285 173.922C77.5252 174.304 78.3973 174.889 79.0448 175.678C79.6772 176.462 80.0627 177.39 80.2015 178.463C80.3197 179.546 80.1561 180.727 79.7106 182.007C79.2652 183.286 78.6522 184.311 77.8717 185.081C77.086 185.867 76.1867 186.365 75.1739 186.576C74.1459 186.781 73.0531 186.683 71.8954 186.28C70.9053 185.935 70.1186 185.448 69.5353 184.818C68.9466 184.203 68.5998 183.433 68.4948 182.508C68.3897 181.584 68.5596 180.507 69.0044 179.279L77.6868 182.301L77.5336 182.888L71.2731 180.709C70.9669 181.49 70.7888 182.223 70.739 182.905C70.6838 183.603 70.7754 184.199 71.0137 184.692C71.2314 185.195 71.6297 185.547 72.2085 185.748C72.9245 185.997 73.6786 185.867 74.4709 185.357C75.2579 184.863 75.9645 183.888 76.5909 182.432L76.5691 182.348C76.6426 182.185 76.7215 182.008 76.8057 181.815C76.8693 181.632 76.9356 181.442 77.0045 181.244C77.5826 179.584 77.7211 178.18 77.4201 177.034C77.0985 175.897 76.3513 175.125 75.1784 174.716C74.4168 174.451 73.6624 174.41 72.9152 174.594C72.1528 174.773 71.4327 175.222 70.7549 175.943L70.3408 175.44C71.0921 174.557 72.0027 173.978 73.0724 173.701C74.1217 173.435 75.2403 173.508 76.4285 173.922Z" fill="white"/>
<path d="M69.7575 166.002L69.4315 166.511C68.6669 166.06 68.0792 165.857 67.6684 165.9C67.2527 165.921 66.8753 166.197 66.5363 166.727L59.547 177.65C59.1298 178.302 58.988 178.853 59.1217 179.302C59.2418 179.743 59.6532 180.207 60.3559 180.695L60.0169 181.225C59.7674 181.046 59.518 180.867 59.2686 180.689C59.0191 180.51 58.7518 180.329 58.4665 180.147C57.4883 179.521 56.5647 179.064 55.6958 178.776L64.2107 165.469C64.5758 164.898 64.6464 164.369 64.4225 163.881C64.185 163.384 63.613 162.827 62.7065 162.208L63.0325 161.699C63.2548 161.86 63.5654 162.078 63.9642 162.352C64.3582 162.605 64.7886 162.889 65.2554 163.207C65.7087 163.516 66.1594 163.814 66.6078 164.101C67.2463 164.51 67.8552 164.89 68.4345 165.242C69.0225 165.579 69.4635 165.833 69.7575 166.002ZM60.0195 166.004C60.7395 166.464 61.2776 167 61.6336 167.611C61.9673 168.226 62.0771 168.833 61.963 169.43L61.5946 169.826C61.6701 169.319 61.5848 168.824 61.3386 168.341C61.0788 167.849 60.6907 167.438 60.1745 167.108C59.237 166.508 58.2519 166.462 57.2189 166.969C56.1637 167.481 55.1275 168.532 54.1104 170.121C53.1629 171.602 52.6636 172.891 52.6126 173.988C52.5394 175.09 52.9239 175.911 53.7662 176.45C54.3097 176.797 54.9389 176.951 55.654 176.911C56.3692 176.871 57.0025 176.644 57.554 176.231L57.3674 176.657C56.7066 177.211 55.9223 177.494 55.0142 177.507C54.0839 177.524 53.2044 177.268 52.3757 176.738C51.5198 176.19 50.9296 175.496 50.6051 174.657C50.2583 173.822 50.1827 172.893 50.3782 171.869C50.5515 170.85 50.9858 169.797 51.6813 168.711C52.4289 167.542 53.2735 166.656 54.2152 166.052C55.1432 165.44 56.1083 165.129 57.1103 165.119C58.0988 165.1 59.0685 165.395 60.0195 166.004Z" fill="white"/>
<path d="M41.3906 149.254C41.8203 149.799 42.1231 150.299 42.299 150.757C42.4648 151.201 42.5921 151.583 42.6807 151.904C42.7566 152.234 42.8695 152.495 43.0194 152.684C43.2692 153.001 43.6567 153.075 44.1817 152.907L44.5565 153.382C44.1847 153.614 43.8039 153.874 43.4141 154.161C43.0243 154.448 42.6015 154.771 42.1458 155.131C41.69 155.491 41.1823 155.902 40.6225 156.364L40.2478 155.889C41.2626 154.78 41.8337 153.733 41.961 152.749C42.0783 151.753 41.7773 150.798 41.0577 149.887C40.5281 149.216 39.9728 148.812 39.3918 148.675C38.7881 148.535 38.2204 148.674 37.6887 149.094C37.195 149.484 36.9397 149.994 36.923 150.623C36.8837 151.25 37.0859 152.118 37.5295 153.227C38.0645 154.633 38.2773 155.801 38.1679 156.73C38.0486 157.646 37.6091 158.404 36.8495 159.003C36.0013 159.673 35.1041 159.929 34.158 159.772C33.2119 159.615 32.3691 159.067 31.6296 158.131C31.2399 157.637 30.967 157.174 30.8112 156.742C30.6426 156.321 30.5254 155.951 30.4594 155.633C30.3835 155.302 30.2706 155.042 30.1207 154.852C30.0008 154.7 29.8615 154.615 29.7029 154.596C29.5217 154.575 29.3048 154.613 29.0523 154.709L28.6775 154.235C28.9887 154.03 29.3125 153.816 29.649 153.591C29.9629 153.364 30.3097 153.1 30.6895 152.801C31.0693 152.501 31.5137 152.14 32.0228 151.717L32.3975 152.192C31.6313 153.044 31.2098 153.941 31.1331 154.885C31.0437 155.84 31.3039 156.703 31.9135 157.475C32.3532 158.032 32.8372 158.359 33.3656 158.456C33.8813 158.562 34.3797 158.426 34.8607 158.046C35.3545 157.656 35.606 157.129 35.6154 156.464C35.6248 155.799 35.3966 154.859 34.931 153.644C34.408 152.331 34.2086 151.245 34.3326 150.387C34.4339 149.526 34.877 148.786 35.6619 148.167C36.5861 147.437 37.5652 147.168 38.5993 147.358C39.6107 147.546 40.5411 148.178 41.3906 149.254Z" fill="white"/>
<path d="M32.6784 135.653C33.1954 136.693 33.4058 137.715 33.3097 138.717C33.2136 139.719 32.8364 140.645 32.1781 141.495C31.5053 142.352 30.584 143.071 29.4141 143.653C28.2009 144.256 27.0389 144.563 25.928 144.575C24.81 144.572 23.8044 144.289 22.9113 143.724C22.0182 143.16 21.3023 142.336 20.7639 141.252C20.3761 140.472 20.1543 139.718 20.0982 138.99C20.035 138.246 20.1267 137.597 20.3732 137.043C20.5981 136.48 20.9777 136.067 21.5121 135.801C21.9887 135.564 22.4613 135.518 22.9298 135.664C23.3767 135.802 23.715 136.102 23.9448 136.564C24.1243 136.925 24.1704 137.271 24.0831 137.603C23.9886 137.92 23.7897 138.154 23.4864 138.305C23.1975 138.448 22.9089 138.502 22.6204 138.465C22.332 138.428 22.0616 138.392 21.8092 138.355C21.5496 138.304 21.3188 138.329 21.1166 138.429C20.871 138.551 20.7515 138.8 20.7578 139.175C20.7497 139.557 20.8641 139.987 21.1011 140.463C21.6324 141.532 22.493 142.14 23.6828 142.287C24.851 142.427 26.2511 142.091 27.8832 141.28C29.5008 140.475 30.6065 139.565 31.2003 138.55C31.7724 137.527 31.7857 136.467 31.24 135.369C30.881 134.647 30.3701 134.108 29.7073 133.753C29.0445 133.398 28.2406 133.249 27.2956 133.304L27.3512 132.655C28.4983 132.535 29.5438 132.736 30.4875 133.257C31.4096 133.772 32.1399 134.57 32.6784 135.653Z" fill="white"/>
<path d="M28.3521 126.925L27.7672 127.079C27.51 126.229 27.2233 125.679 26.9072 125.429C26.5713 125.167 26.0992 125.117 25.491 125.277L18.3555 127.157C17.6225 127.35 17.153 127.657 16.947 128.079C16.7214 128.488 16.7019 129.111 16.8885 129.945L16.2803 130.106C16.2054 129.758 16.1388 129.442 16.0805 129.158C16.018 128.857 15.9436 128.543 15.8573 128.216C15.5737 127.139 15.2077 126.193 14.7592 125.378L24.6319 122.776C25.3025 122.599 25.7207 122.256 25.8864 121.745C26.0323 121.223 25.9812 120.427 25.7329 119.359L26.3178 119.204C26.3721 119.474 26.4609 119.842 26.5841 120.31C26.6877 120.767 26.8016 121.262 26.9257 121.796C27.0498 122.331 27.1797 122.855 27.3153 123.37C27.5085 124.103 27.709 124.801 27.9169 125.463C28.1051 126.114 28.2502 126.601 28.3521 126.925ZM17.6316 120.042C17.7262 120.401 17.7086 120.714 17.579 120.982C17.4297 121.238 17.199 121.407 16.8871 121.489C16.6687 121.547 16.4635 121.559 16.2714 121.526C16.0752 121.478 15.8888 121.435 15.7123 121.398C15.5358 121.362 15.3617 121.366 15.1902 121.411C14.847 121.501 14.7371 121.781 14.8604 122.248C14.9549 122.607 15.1393 122.959 15.4137 123.304C15.688 123.648 16.0164 123.945 16.3991 124.195C16.762 124.433 17.1553 124.596 17.5789 124.685L16.9596 124.898C16.1509 124.677 15.4653 124.291 14.9028 123.738C14.3246 123.19 13.941 122.557 13.752 121.84C13.563 121.123 13.6178 120.508 13.9164 119.995C14.1954 119.471 14.6702 119.121 15.3409 118.944C15.9023 118.796 16.3937 118.825 16.8149 119.031C17.2361 119.237 17.5083 119.574 17.6316 120.042Z" fill="white"/>
<path d="M24.717 105.608C24.769 106.736 24.5821 107.762 24.1564 108.685C23.73 109.593 23.0453 110.327 22.1023 110.887C21.1593 111.447 19.9386 111.762 18.4402 111.831C16.9257 111.901 15.6732 111.7 14.6827 111.229C13.6923 110.758 12.943 110.09 12.435 109.225C11.91 108.345 11.6216 107.341 11.5697 106.214C11.5162 105.054 11.7111 104.027 12.1544 103.135C12.5809 102.227 13.2656 101.493 14.2085 100.933C15.1508 100.357 16.3791 100.034 17.8936 99.9644C19.3921 99.8954 20.6369 100.104 21.6281 100.592C22.6185 101.063 23.3678 101.731 23.8759 102.595C24.3839 103.46 24.6643 104.464 24.717 105.608ZM24.1128 105.636C24.0705 104.717 23.5607 103.99 22.5834 103.454C21.606 102.918 20.0862 102.697 18.0239 102.792C15.9455 102.888 14.4443 103.248 13.5204 103.871C12.5804 104.496 12.1315 105.267 12.1738 106.186C12.2154 107.088 12.7333 107.815 13.7275 108.367C14.7048 108.903 16.2327 109.123 18.3111 109.027C20.3734 108.932 21.8665 108.573 22.7904 107.949C23.7136 107.309 24.1544 106.538 24.1128 105.636Z" fill="white"/>
<path d="M24.3928 94.9503L23.7941 94.8648C23.883 94.014 23.8396 93.405 23.6639 93.0377C23.4746 92.6522 23.0526 92.4128 22.398 92.3193L8.93773 90.3971C8.21921 90.2945 7.67634 90.3881 7.30912 90.6778C6.92821 90.9492 6.65908 91.5218 6.50174 92.3954L5.87902 92.3065C5.93831 92.0054 5.9976 91.7043 6.05689 91.4032C6.11846 91.0861 6.17091 90.7759 6.21423 90.4725C6.29631 89.8977 6.34989 89.3514 6.37495 88.8336C6.38633 88.2976 6.36691 87.8061 6.31671 87.359L22.7708 89.7087C23.4254 89.8021 23.8964 89.6983 24.1838 89.3972C24.4575 89.0779 24.6708 88.4974 24.8235 87.6557L25.4223 87.7412C25.3744 87.9624 25.322 88.2726 25.265 88.6718C25.1943 89.0527 25.1179 89.4736 25.0358 89.9344C24.9537 90.3951 24.8796 90.857 24.8135 91.3201C24.7177 91.9907 24.6356 92.6796 24.5672 93.3867C24.4852 94.0755 24.427 94.5967 24.3928 94.9503Z" fill="white"/>
<path d="M26.1548 83.7347L25.5752 83.5618C25.7887 82.7334 25.8356 82.1246 25.7161 81.7355C25.5857 81.3263 25.2036 81.0272 24.5699 80.8382L11.5406 76.9512C10.8451 76.7437 10.2943 76.7562 9.88839 76.9885C9.4716 77.2008 9.12095 77.7274 8.83644 78.5683L8.23366 78.3884C8.33672 78.0994 8.43978 77.8103 8.54284 77.5213C8.65052 77.2168 8.74816 76.9177 8.83576 76.624C9.00175 76.0676 9.13534 75.5352 9.23651 75.0268C9.32685 74.4983 9.38017 74.0092 9.39647 73.5597L25.3238 78.3111C25.9575 78.5002 26.4387 78.467 26.7673 78.2116C27.0852 77.9361 27.3817 77.3934 27.657 76.5834L28.2366 76.7563C28.1566 76.9681 28.059 77.2672 27.9437 77.6536C27.8176 78.0199 27.6799 78.4249 27.5308 78.8685C27.3816 79.3121 27.2401 79.758 27.1064 80.2063C26.9128 80.8554 26.73 81.5246 26.558 82.2139C26.3752 82.8831 26.2408 83.3901 26.1548 83.7347Z" fill="white"/>
<path d="M29.6211 72.7519L29.0736 72.4949C29.4077 71.7074 29.5445 71.1123 29.484 70.7098C29.4158 70.2858 29.0824 69.9332 28.4838 69.6522L21.8041 66.5165C21.1325 66.2012 20.5788 66.1284 20.1428 66.2979C19.7137 66.4528 19.2961 66.9249 18.8899 67.7142L18.3205 67.4469C18.4653 67.1764 18.6102 66.9058 18.755 66.6353C18.9067 66.3501 19.0476 66.0688 19.1779 65.7914C19.4246 65.2658 19.6357 64.7591 19.8113 64.2714C19.979 63.7621 20.1044 63.2864 20.1872 62.8443L29.6044 67.2651C30.203 67.5461 30.6838 67.5847 31.0467 67.3809C31.4019 67.1557 31.7757 66.663 32.1682 65.9029L32.7157 66.1599C32.6052 66.3575 32.4642 66.6387 32.2929 67.0037C32.1138 67.3473 31.9175 67.7273 31.7042 68.1439C31.4908 68.5605 31.2847 68.9804 31.086 69.4038C30.7912 70.0317 30.5077 70.6736 30.2353 71.3297C29.9552 71.9644 29.7505 72.4385 29.6211 72.7519ZM17.3017 63.0131C17.1097 63.4219 16.8031 63.7145 16.3818 63.8908C15.9673 64.0526 15.541 64.0307 15.103 63.8251C14.665 63.6195 14.3759 63.3055 14.2355 62.8833C14.1021 62.4465 14.1313 62.0237 14.3232 61.6148C14.5151 61.206 14.8217 60.9134 15.2431 60.7371C15.6644 60.5607 16.0941 60.5753 16.5321 60.7809C16.9555 60.9797 17.2412 61.3009 17.3893 61.7446C17.5228 62.1814 17.4936 62.6043 17.3017 63.0131Z" fill="white"/>
<path d="M39.7165 55.1003L39.2326 54.7375C39.6036 54.189 39.76 53.7519 39.7019 53.4261C39.6406 53.0778 39.3583 52.7149 38.8551 52.3375L33.842 48.578C33.0033 47.9491 32.2549 47.6297 31.5968 47.6201C30.9387 47.6104 30.3726 47.9218 29.8985 48.554C29.5404 49.0315 29.3372 49.5847 29.2889 50.2138C29.2373 50.8202 29.3534 51.4718 29.6373 52.1686L29.0905 51.7283C28.7518 50.9702 28.634 50.1864 28.7372 49.3767C28.8501 48.5541 29.1774 47.7815 29.7193 47.0589C30.4741 46.0524 31.3773 45.5201 32.4289 45.462C33.4677 45.3942 34.5806 45.8054 35.7677 46.6957L40.4518 50.2084C40.955 50.5858 41.4066 50.7228 41.8066 50.6196C42.2034 50.4938 42.6808 50.0857 43.2388 49.3953L43.7227 49.7582C43.5743 49.9292 43.3792 50.176 43.1373 50.4986C42.8824 50.8115 42.6083 51.1502 42.3147 51.5147C42.0212 51.8793 41.7438 52.2357 41.4825 52.5841C41.1245 53.0616 40.7842 53.5422 40.4616 54.0261C40.1262 54.5003 39.8778 54.8584 39.7165 55.1003ZM34.5782 61.9522L34.0943 61.5893C34.591 60.8732 34.8442 60.307 34.8539 59.8909C34.8635 59.4748 34.6103 59.0732 34.0941 58.6861L28.1907 54.259C27.5713 53.7945 27.0326 53.6123 26.5745 53.7123C26.1261 53.7994 25.6326 54.1752 25.0939 54.8398L24.5907 54.4624C24.7874 54.2269 24.9842 53.9914 25.181 53.7559C25.3874 53.5075 25.5874 53.2543 25.7809 52.9962C26.1293 52.5317 26.4341 52.0849 26.6954 51.6558C26.9534 51.2042 27.1728 50.7639 27.3534 50.3348L35.6763 56.5763C36.1924 56.9634 36.6199 57.1327 36.9586 57.0843C37.3069 57.023 37.6827 56.7504 38.0859 56.2665L38.5698 56.6294C38.3344 56.9165 38.0505 57.2682 37.7183 57.6843C37.3731 58.0908 37.0264 58.5263 36.678 58.9908C36.3006 59.4941 35.9264 60.0199 35.5555 60.5683C35.1813 61.0941 34.8556 61.5554 34.5782 61.9522Z" fill="white"/>
<path d="M54.6318 47.4985C53.3796 48.5152 52.2062 49.1043 51.1116 49.2659C50.0296 49.4173 49.1988 49.1361 48.6193 48.4224C48.1516 47.8464 47.9602 47.15 48.045 46.3333C48.1399 45.529 48.4974 44.6259 49.1173 43.6239L49.6232 43.556C49.4125 44.0386 49.3533 44.5542 49.4454 45.1027C49.5603 45.6535 49.8108 46.1668 50.1972 46.6426C50.7665 47.3438 51.4404 47.7004 52.2188 47.7124C52.9973 47.7244 53.7997 47.395 54.6261 46.724C55.2898 46.1851 55.7754 45.5934 56.0831 44.9489C56.401 44.3168 56.5413 43.6835 56.5039 43.049C56.4666 42.4145 56.2395 41.8405 55.8227 41.3272C55.4262 40.8388 54.9697 40.5965 54.4534 40.6003C53.9597 40.6064 53.3936 40.8686 52.755 41.3871L50.8767 42.9121C50.1129 43.5323 49.3887 43.8814 48.7041 43.9594C48.0219 44.0147 47.4774 43.7919 47.0708 43.2911C46.7454 42.8904 46.5907 42.3927 46.6065 41.7981C46.6122 41.191 46.7885 40.487 47.1354 39.6859L47.5943 39.4068C47.4588 39.8284 47.3996 40.1777 47.4168 40.4547C47.4339 40.7317 47.5238 40.9703 47.6864 41.1707C47.8898 41.4211 48.1538 41.5288 48.4785 41.4937C48.8032 41.4586 49.1596 41.2834 49.5478 40.9683L51.7453 39.184C52.772 38.3504 53.7275 37.9278 54.6115 37.9164C55.4855 37.8924 56.2477 38.2811 56.8984 39.0825C57.5287 39.8588 57.8449 40.7344 57.8469 41.7093C57.8716 42.6864 57.608 43.6796 57.0561 44.6887C56.5167 45.6876 55.7086 46.6242 54.6318 47.4985ZM48.1965 39.0737C47.057 39.9988 45.9318 40.4554 44.8208 40.4433C43.7224 40.421 42.7767 39.9215 41.9837 38.9448C41.2009 37.9807 40.9113 36.9588 41.1151 35.8792C41.3314 34.7894 42.003 33.787 43.13 32.872C44.2694 31.9469 45.3884 31.4954 46.4868 31.5177C47.5853 31.54 48.5259 32.0332 49.3087 32.9974C50.1017 33.974 50.3963 35.0022 50.1925 36.0818C49.9888 37.1614 49.3234 38.1587 48.1965 39.0737ZM47.8152 38.6041C48.3662 38.1568 48.6003 37.6135 48.5176 36.9743C48.4372 36.3124 48.031 35.5306 47.299 34.6291C46.5772 33.7401 45.9057 33.1945 45.2846 32.9925C44.6658 32.7677 44.0809 32.879 43.53 33.3263C42.9791 33.7737 42.7438 34.3283 42.8241 34.9902C42.9068 35.6294 43.3091 36.3936 44.0309 37.2826C44.7629 38.1841 45.4383 38.7473 46.0571 38.972C46.6782 39.1741 47.2643 39.0515 47.8152 38.6041ZM50.4607 30.8466C50.2103 31.05 49.9564 31.1211 49.699 31.06C49.444 30.9762 49.1987 30.8532 48.9633 30.6912C48.7177 30.5167 48.4913 30.3785 48.284 30.2767C48.0892 30.1648 47.9229 30.1647 47.7852 30.2765C47.7101 30.3375 47.6318 30.4842 47.5503 30.7165C47.4712 30.9262 47.4101 31.1836 47.367 31.4887C47.3364 31.7836 47.3562 32.0895 47.4265 32.4064L46.9419 32.2701C46.8341 31.6512 46.8887 31.0148 47.1057 30.3608C47.3226 29.7068 47.6565 29.1968 48.1072 28.8308C48.4954 28.5157 48.8874 28.3844 49.2833 28.4369C49.6917 28.4793 50.0585 28.7008 50.3839 29.1015C50.6482 29.4271 50.7866 29.751 50.799 30.0734C50.8114 30.3957 50.6986 30.6535 50.4607 30.8466Z" fill="white"/>
<path d="M69.0464 26.0183C68.5414 26.2319 68.0626 26.2593 67.6101 26.1004C67.1662 25.9204 66.8437 25.5927 66.6427 25.1174C66.4416 24.642 66.4342 24.1898 66.6205 23.7608C66.8217 23.3254 67.1748 23.001 67.6798 22.7873C68.1997 22.5674 68.6785 22.5401 69.1161 22.7052C69.5686 22.8641 69.8954 23.1812 70.0964 23.6565C70.3038 24.1467 70.3069 24.6095 70.1057 25.0448C69.9194 25.4739 69.5663 25.7984 69.0464 26.0183Z" fill="white"/>
<path d="M84.5696 25.7293L84.5042 25.128C85.3951 24.9662 85.9879 24.7477 86.2824 24.4723C86.5769 24.1969 86.6911 23.7545 86.6248 23.1452L85.1549 9.62813C85.0729 8.87451 84.839 8.36455 84.4531 8.09825C84.0815 7.81418 83.4691 7.70232 82.6158 7.76267L82.5478 7.13732C82.8862 7.11674 83.2087 7.0979 83.5151 7.0808C83.8375 7.06196 84.143 7.03685 84.4316 7.00546C85.522 6.88689 86.528 6.66393 87.4496 6.33657L89.2465 22.8601C89.3127 23.4694 89.4792 23.8813 89.7459 24.0956C90.0125 24.31 90.4861 24.4126 91.1665 24.4035L91.2319 25.0048C90.9095 25.0237 90.4588 25.0564 89.8798 25.1032C89.3151 25.1321 88.7521 25.1771 88.1909 25.2382C87.5175 25.3114 86.8297 25.4024 86.1277 25.5112C85.44 25.6022 84.9206 25.6749 84.5696 25.7293ZM93.3244 24.7773L93.259 24.176C93.8596 24.0295 94.2207 23.8443 94.3424 23.6201C94.4623 23.3799 94.3838 23.0315 94.107 22.5749L92.7098 20.2446C92.3141 19.59 91.918 19.1544 91.5213 18.938C91.1389 18.7038 90.627 18.6215 89.9856 18.6913L88.4944 18.8534L88.429 18.2521L90.1607 18.0638C90.6899 18.0063 91.1373 17.8684 91.5029 17.6502C91.8846 17.4302 92.2283 17.0846 92.5339 16.6133L93.0489 15.7542C93.3278 15.3345 93.489 14.9519 93.5325 14.6065C93.5921 14.2593 93.5367 13.9733 93.3662 13.7484C93.21 13.5058 92.9397 13.3324 92.5552 13.2282C92.169 13.108 91.6695 13.065 91.0567 13.0991L90.9913 12.4979C91.442 12.4651 91.9568 12.4253 92.5358 12.3786C93.1308 12.3301 93.7651 12.2692 94.4385 12.196C94.8394 12.1524 95.2082 12.1123 95.5449 12.0757C95.8959 12.0213 96.2318 11.9766 96.5525 11.9418C96.8714 11.8909 97.1823 11.8408 97.4853 11.7917L97.5506 12.393C97.0051 12.5983 96.5344 12.8198 96.1384 13.0576C95.7424 13.2953 95.3927 13.5848 95.0891 13.9261C94.7998 14.2496 94.4951 14.6559 94.1751 15.145L92.499 17.8582L92.158 17.4086C92.6781 17.4169 93.109 17.4998 93.4506 17.6574C93.8082 17.8132 94.1434 18.0607 94.4561 18.3998C94.7848 18.7372 95.1292 19.2189 95.4893 19.845L96.6099 21.6457C96.9418 22.1612 97.2446 22.5582 97.5182 22.8367C97.7901 23.0992 98.0925 23.2691 98.4254 23.3465C98.7583 23.4238 99.1848 23.4667 99.7049 23.475L99.7703 24.0763C99.2073 24.1213 98.7334 24.1647 98.3486 24.2066C97.962 24.2324 97.6244 24.261 97.3358 24.2924C97.0454 24.3077 96.756 24.3311 96.4673 24.3625C96.0184 24.4113 95.5703 24.4681 95.1231 24.533C94.6741 24.5818 94.0745 24.6632 93.3244 24.7773Z" fill="white"/>
<path d="M89.5 72H78.1934" stroke="white" stroke-width="3.76931" stroke-linecap="round"/>
<path d="M123.424 72H112.117" stroke="white" stroke-width="3.76931" stroke-linecap="round"/>
<path d="M134.732 93.3594L66.8855 93.3594" stroke="white" stroke-width="3.76931" stroke-linecap="round"/>
<mask id="path-32-inside-1_1984_3462" fill="white">
<path d="M68.3869 93.3593C68.3869 92.4341 67.6287 91.6841 66.6934 91.6841C65.7582 91.6841 65 92.4341 65 93.3593C65 114.639 80.5535 130.005 102.065 130.005C123.576 130.005 136.616 114.639 136.616 93.3593C136.616 92.4341 135.858 91.6841 134.923 91.6841C133.988 91.6841 133.229 92.4341 133.229 93.3593C133.229 112.789 121.705 126.655 102.065 126.655C82.424 126.655 68.3869 112.789 68.3869 93.3593Z"/>
</mask>
<path d="M66.6934 95.4534C65.5855 95.4534 64.6176 94.5542 64.6176 93.3593H72.1562C72.1562 90.3141 69.6719 87.9148 66.6934 87.9148V95.4534ZM68.7693 93.3593C68.7693 94.5542 67.8014 95.4534 66.6934 95.4534V87.9148C63.715 87.9148 61.2307 90.3141 61.2307 93.3593H68.7693ZM102.065 126.236C82.5939 126.236 68.7693 112.516 68.7693 93.3593H61.2307C61.2307 116.762 78.5131 133.774 102.065 133.774V126.236ZM132.847 93.3593C132.847 103.239 129.826 111.435 124.626 117.118C119.462 122.762 111.871 126.236 102.065 126.236V133.774C113.769 133.774 123.454 129.565 130.188 122.207C136.886 114.887 140.386 104.759 140.386 93.3593H132.847ZM134.923 95.4534C133.815 95.4534 132.847 94.5542 132.847 93.3593H140.386C140.386 90.3141 137.901 87.9148 134.923 87.9148V95.4534ZM136.999 93.3593C136.999 94.5542 136.031 95.4534 134.923 95.4534V87.9148C131.944 87.9148 129.46 90.3141 129.46 93.3593H136.999ZM102.065 130.424C112.824 130.424 121.676 126.595 127.807 119.822C133.896 113.096 136.999 103.803 136.999 93.3593H129.46C129.46 102.345 126.801 109.7 122.218 114.763C117.676 119.781 110.945 122.885 102.065 122.885V130.424ZM64.6176 93.3593C64.6176 114.912 80.3839 130.424 102.065 130.424V122.885C84.4642 122.885 72.1562 110.666 72.1562 93.3593H64.6176Z" fill="white" mask="url(#path-32-inside-1_1984_3462)"/>
</svg>
