<svg width="56" height="105" viewBox="0 0 56 105" fill="none" xmlns="http://www.w3.org/2000/svg">
<path d="M4.83305 92.3569C25.1499 95.3004 47.3321 75.8912 54.5 56.5C57.9538 47.1564 52.8512 12.9092 49.5 3.50001C47.5658 -1.93064 41.7967 -0.0688341 43.319 6.29056C48.9373 29.7615 50.7007 43.9428 48 54C45.2993 64.0572 40 69 33 76C25 82 15.3818 87.1061 6.63019 85.8382C4.82584 85.5768 2.99842 86.2842 2.47228 88.199C2.03582 89.7874 3.01509 92.0935 4.83305 92.3569Z" fill="white"/>
<path d="M24.2182 98.6919C17.8302 94.4556 11.4422 90.2193 5.05419 85.983L5.73828 91.2917C10.7212 85.8102 15.7041 80.3288 20.6871 74.8473C21.9146 73.497 22.0212 71.4012 20.6871 70.0671C19.4411 68.8212 17.1395 68.7112 15.9069 70.0671C10.924 75.5486 5.94105 81.0301 0.958123 86.5115C-0.563806 88.1857 -0.226406 90.581 1.64221 91.8202L20.8062 104.529C22.3281 105.538 24.5463 104.829 25.4308 103.317C26.3983 101.662 25.7437 99.7036 24.2182 98.6919Z" fill="white"/>
</svg>
