<svg width="69" height="58" viewBox="0 0 69 58" fill="none" xmlns="http://www.w3.org/2000/svg">
<path d="M68.6835 50.4274C68.6817 50.4149 68.6793 50.4027 68.6772 50.3903C68.675 50.379 68.6734 50.3677 68.6709 50.3564C68.6669 50.3352 68.6637 50.3135 68.6589 50.2926C68.1736 48.1614 67.7078 46.0258 67.2343 43.8918C67.1055 42.969 66.9323 42.0537 66.6257 41.1779C66.3443 40.3741 65.4986 39.7534 64.6213 40.0378C63.7505 40.3201 63.28 41.1529 63.4833 42.0457C63.6744 42.8852 63.8622 43.7254 64.0489 44.5659C64.0623 44.6642 64.076 44.7625 64.093 44.86C64.0911 44.8492 64.0896 44.8409 64.0879 44.8309C64.1008 44.9314 64.1133 45.0319 64.1257 45.1325C64.1519 45.3448 64.1775 45.5572 64.2035 45.7696C62.5569 44.7562 60.713 44.0347 58.8278 43.5465C56.849 43.034 54.8106 42.7622 52.7766 42.5913C52.6206 42.5781 52.4645 42.5673 52.3085 42.5555C53.8311 40.0893 54.8611 37.3317 54.9605 34.4072C55.1013 30.2649 53.083 26.3701 49.9463 23.7447C48.3423 22.4021 46.5683 21.3777 44.6251 20.6124C42.4809 19.7679 40.1664 19.3747 37.8753 19.22C37.2782 19.1796 36.6804 19.1588 36.0824 19.1547C36.1348 19.0314 36.1883 18.9087 36.2392 18.7846C36.9253 17.1103 37.4388 15.3636 37.752 13.5806C38.1164 11.5056 38.2174 9.38989 37.7652 7.31869C37.2965 5.17203 36.1088 3.28761 34.2986 2.03536C32.4203 0.736152 30.0583 0.35308 27.8367 0.138538C23.8076 -0.25059 19.6719 0.191416 15.7885 1.32106C11.8869 2.45595 8.15276 4.29215 4.92034 6.76229C3.31781 7.98684 1.81783 9.32105 0.466545 10.8214C-0.104298 11.4552 -0.204709 12.5125 0.466545 13.1298C1.08951 13.7026 2.16108 13.8069 2.77093 13.1298C3.40952 12.4208 4.07982 11.7413 4.78255 11.096C5.12102 10.7852 5.46663 10.4822 5.81888 10.187C5.98845 10.045 6.15956 9.90471 6.33215 9.76639C6.41391 9.70088 6.4964 9.6364 6.57846 9.57134C6.61458 9.5435 6.65086 9.51595 6.68713 9.48848C8.19426 8.34857 9.80535 7.34668 11.4911 6.49428C11.9015 6.28683 12.3162 6.08809 12.7351 5.89829C12.9336 5.80834 13.1335 5.72171 13.3335 5.63508C13.3481 5.6288 13.3629 5.62289 13.3776 5.61684C13.5035 5.56499 13.6298 5.51389 13.7565 5.46359C14.6271 5.11789 15.5127 4.81 16.4099 4.54133C17.3232 4.26785 18.2486 4.03485 19.1825 3.84379C19.6492 3.7483 20.1182 3.66329 20.5888 3.589C20.6896 3.57312 20.7905 3.55768 20.8915 3.54269C20.9242 3.53782 21.0127 3.52541 21.0823 3.51559C21.1552 3.50628 21.2439 3.49484 21.2675 3.49196C21.3856 3.47755 21.5039 3.46397 21.6223 3.45089C23.4989 3.24462 25.3945 3.20917 27.277 3.35444C27.5147 3.37276 27.7521 3.3941 27.9892 3.41825C28.2032 3.44004 28.4889 3.52659 28.7007 3.5017C28.8227 3.52002 28.9447 3.53944 29.0663 3.56012C29.3292 3.60488 29.5912 3.65539 29.8514 3.71351C30.3171 3.81757 30.7779 3.94534 31.2273 4.10626C31.329 4.14267 31.4379 4.19968 31.5441 4.22878C31.5675 4.23927 31.5909 4.24968 31.6141 4.26054C31.8344 4.36393 32.0499 4.47729 32.2591 4.60159C32.4391 4.70845 32.6145 4.87543 32.8023 4.96516C32.8222 4.98171 32.8419 4.99825 32.8615 5.01516C32.9611 5.10135 33.0579 5.19071 33.1519 5.28325C33.2969 5.42623 33.4304 5.57829 33.5639 5.7319C33.5658 5.73397 33.5666 5.73493 33.5683 5.73692C33.6301 5.82259 33.6901 5.90966 33.7476 5.99829C33.8648 6.17886 33.9731 6.36533 34.0724 6.55639C34.115 6.63837 34.156 6.72123 34.1954 6.80483C34.2102 6.83614 34.224 6.8693 34.2383 6.90209C34.3848 7.29189 34.5092 7.68751 34.602 8.09407C34.6479 8.29532 34.6873 8.4979 34.7208 8.70158C34.7245 8.7247 34.7282 8.74774 34.7317 8.77085C34.7417 8.87373 34.7559 8.97661 34.7652 9.07926C34.8045 9.51573 34.8199 9.95419 34.8157 10.3924C34.8112 10.8487 34.7854 11.3047 34.7413 11.759C34.7303 11.8721 34.7183 11.985 34.7051 12.0978C34.6633 12.3162 34.6401 12.5404 34.6011 12.7592C34.3007 14.4494 33.8208 16.1066 33.1842 17.7003C33.1481 17.7908 33.111 17.8809 33.0741 17.9711C33.0699 17.9808 33.0663 17.989 33.0613 18.0007C32.9746 18.2009 32.8855 18.4 32.7939 18.598C32.6826 18.8387 32.5665 19.0772 32.4481 19.3145C31.8686 19.3657 31.2901 19.4271 30.7132 19.4969C28.3319 19.7852 25.9558 20.1644 23.6036 20.6358C19.2689 21.5043 14.8878 22.8284 11.1972 25.3388C9.42795 26.5423 8.00951 28.1964 7.26136 30.218C6.90395 31.1837 6.8143 32.23 7.00761 33.2404C7.22435 34.3731 7.94802 35.2991 8.85505 35.9692C10.7022 37.3337 13.2749 36.9414 15.3626 36.5129C17.2458 36.1265 19.056 35.5045 20.8166 34.7373C24.2374 33.2468 27.366 31.0241 29.9711 28.3545C31.7087 26.5739 33.2038 24.5899 34.4397 22.449C35.5642 22.4031 36.6902 22.4072 37.8138 22.4807C38.0793 22.4981 38.3446 22.5192 38.6095 22.5446C38.752 22.5583 38.8944 22.5731 39.0367 22.5892C39.0977 22.596 39.1587 22.6031 39.2196 22.6104C39.2253 22.6111 39.2824 22.6183 39.3392 22.6254C39.362 22.6284 39.384 22.6315 39.3945 22.6331C39.4753 22.6457 39.5563 22.6572 39.6372 22.6699C39.7585 22.6889 39.8795 22.709 40.0005 22.7299C40.3032 22.7824 40.6047 22.8412 40.9049 22.9064C41.8456 23.1106 42.7716 23.3776 43.6695 23.7255C43.7662 23.7631 43.8619 23.8028 43.9584 23.8407C44.1736 23.9348 44.3872 24.0328 44.5985 24.1356C44.9871 24.3247 45.3687 24.5282 45.742 24.7461C46.1283 24.9716 46.5057 25.2124 46.8727 25.4685C47.0364 25.5826 47.1969 25.701 47.3569 25.8204C47.3655 25.8273 47.3732 25.8335 47.384 25.8421C47.4831 25.9215 47.5811 26.002 47.6782 26.0838C48.3403 26.6415 48.9554 27.2557 49.5063 27.9241C49.543 27.9687 49.5788 28.014 49.6147 28.0592C49.6432 28.1026 49.6835 28.1475 49.711 28.1851C49.8396 28.3608 49.9637 28.54 50.083 28.7222C50.3209 29.0857 50.5397 29.4619 50.7365 29.8492C50.8273 30.028 50.9133 30.2092 50.9945 30.3926C51.0336 30.4943 51.0736 30.5954 51.1109 30.6979C51.2611 31.1098 51.3863 31.5308 51.485 31.9582C51.5346 32.173 51.5776 32.3893 51.6142 32.6067C51.622 32.6533 51.6279 32.703 51.6356 32.7514C51.6469 32.8536 51.6589 32.9557 51.6676 33.0583C51.7074 33.5239 51.7177 33.9921 51.6998 34.459C51.6905 34.7001 51.6738 34.9409 51.6498 35.1809C51.6396 35.2836 51.6227 35.3863 51.6151 35.4891C51.6516 34.9929 51.6193 35.4413 51.5983 35.5669C51.5183 36.045 51.4108 36.5185 51.2793 36.9851C51.1464 37.4562 50.9894 37.9204 50.8113 38.3762C50.7807 38.4544 50.7464 38.532 50.7162 38.6107C50.7003 38.6465 50.6846 38.6823 50.6686 38.7182C50.5671 38.9449 50.4606 39.1694 50.3495 39.3916C49.8992 40.2917 49.374 41.1534 48.7938 41.9751C48.6947 42.1155 48.5921 42.2534 48.4899 42.3916C47.5997 42.3829 46.7094 42.3942 45.8197 42.426C41.0811 42.5959 36.3425 43.3173 31.7716 44.5815C29.5152 45.2056 27.2958 45.9646 25.1305 46.8562C23.0578 47.7096 20.9015 48.7558 20.0742 51.0058C19.7568 51.869 19.7421 52.9575 20.0787 53.8185C20.4538 54.778 21.0723 55.4924 21.91 56.0834C23.3068 57.0689 25.1985 57.4175 26.8745 57.4333C27.8376 57.4423 28.7907 57.2833 29.7335 57.1C30.7757 56.8972 31.8086 56.647 32.8285 56.3516C34.9667 55.7325 37.0521 54.9111 39.0514 53.9325C40.9592 52.9987 42.7856 51.8975 44.5006 50.6433C46.2962 49.33 48.0143 47.89 49.5126 46.2403C49.6764 46.06 49.8379 45.8767 49.9977 45.6913C51.005 45.7274 52.0115 45.7881 53.0156 45.8768C53.4953 45.9191 53.9746 45.9671 54.4528 46.0251C54.539 46.0355 54.6251 46.0468 54.7112 46.0575C54.7186 46.0585 54.7261 46.0595 54.7335 46.0606C54.9565 46.0922 55.179 46.1259 55.4013 46.1621C56.2936 46.307 57.1804 46.4889 58.0548 46.7191C58.9055 46.9432 59.745 47.2125 60.5616 47.5405C60.5884 47.5512 60.615 47.5621 60.6418 47.5729C60.7034 47.6 60.7654 47.6262 60.8266 47.6536C61.0414 47.75 61.2542 47.851 61.4646 47.9566C61.8538 48.1519 62.2351 48.3633 62.6055 48.5924C62.9365 48.797 63.2521 49.0206 63.5674 49.2481C63.5764 49.2552 63.5854 49.2624 63.5942 49.2695C63.6657 49.3274 63.7365 49.3861 63.8066 49.4457C63.9701 49.5845 64.13 49.7279 64.2854 49.8758C64.2964 49.8863 64.3066 49.8976 64.3175 49.9081C63.9055 49.9938 63.4902 50.064 63.0743 50.1275C61.6954 50.3381 60.3157 50.5177 58.9574 50.8444C58.1281 51.0439 57.5546 52.0327 57.8194 52.8523C58.0986 53.7167 58.9351 54.2061 59.8238 53.9924C61.2141 53.6579 62.6268 53.4793 64.0377 53.2605C65.248 53.0728 66.3964 52.7853 67.5162 52.3102C67.6517 52.2732 67.7843 52.2174 67.9098 52.1364C68.3046 51.9519 68.5459 51.5701 68.6468 51.1528C68.7134 50.919 68.7271 50.6722 68.6835 50.4274ZM32.7412 4.91332C32.7424 4.91435 32.7437 4.91539 32.7449 4.9165C32.6717 4.85675 32.5963 4.78991 32.7412 4.91332ZM34.2156 6.83991C34.2166 6.84235 34.2174 6.84478 34.2183 6.84729C34.1883 6.77182 34.1676 6.71473 34.2156 6.83991ZM10.1432 32.3344C10.1527 32.3241 10.1599 32.409 10.1651 32.488C10.1449 32.4191 10.1289 32.3501 10.1432 32.3344ZM30.1798 23.0758C30.0614 23.2407 29.9414 23.4044 29.8196 23.5668C29.7814 23.6177 29.7428 23.6683 29.7041 23.719C29.6653 23.7682 29.6267 23.8177 29.5876 23.8668C29.0529 24.5395 28.4877 25.188 27.8947 25.8097C27.3015 26.4316 26.6805 27.0269 26.034 27.593C25.705 27.8811 25.3693 28.1617 25.0274 28.4345C24.9931 28.4619 24.8789 28.5511 24.8363 28.5847C24.8041 28.6092 24.7763 28.6306 24.7653 28.6389C24.5909 28.7706 24.415 28.9003 24.2377 29.0279C22.8333 30.0383 21.3363 30.9202 19.7679 31.6498C19.5845 31.7352 19.4001 31.8185 19.2148 31.8997C19.2008 31.9058 19.1708 31.9187 19.1367 31.9335C19.0836 31.9554 18.9533 32.0098 18.9157 32.0251C18.5118 32.1884 18.1039 32.3417 17.6923 32.4846C16.8686 32.7705 16.0304 33.0148 15.1816 33.2141C14.7716 33.3105 14.3591 33.3963 13.9447 33.4715C13.7428 33.5081 13.5403 33.5427 13.3374 33.5738C13.3216 33.5762 13.3046 33.578 13.2881 33.58C13.1625 33.592 13.0372 33.6074 12.9114 33.6175C12.6901 33.6353 12.4682 33.6458 12.2461 33.6462C12.1274 33.6464 12.0088 33.6436 11.8903 33.6376C11.8434 33.6351 11.6676 33.6165 11.5948 33.6109C11.5669 33.606 11.5426 33.6017 11.5297 33.599C11.4174 33.5762 11.3059 33.5495 11.1958 33.5176C11.1775 33.5122 11.1588 33.5054 11.14 33.4986C11.1414 33.5101 11.1015 33.5082 11.0403 33.4771C11.0135 33.4634 10.9869 33.4495 10.9601 33.436C10.9462 33.4324 10.9324 33.4281 10.9186 33.4258C10.9306 33.4278 10.9412 33.4299 10.952 33.4319C10.924 33.4177 10.8956 33.404 10.8679 33.3888C10.7984 33.3506 10.7326 33.307 10.6665 33.2639C10.6288 33.2316 10.5813 33.196 10.5743 33.1894C10.5127 33.1313 10.4533 33.0704 10.3968 33.0072C10.3967 33.0071 10.3965 33.007 10.3965 33.0069C10.3521 32.9306 10.3028 32.8579 10.2614 32.7796C10.2613 32.7795 10.2613 32.7793 10.2612 32.7792C10.2429 32.7278 10.219 32.6622 10.211 32.634C10.205 32.6126 10.1859 32.5572 10.1687 32.4999C10.1671 32.487 10.1653 32.4742 10.1645 32.4618C10.1579 32.3706 10.1555 32.2792 10.1563 32.1878C10.157 32.1037 10.1638 32.0204 10.1677 31.9366C10.203 31.7599 10.242 31.5854 10.2942 31.4124C10.3191 31.3301 10.3459 31.2486 10.3745 31.1676C10.3811 31.149 10.4007 31.0981 10.421 31.0456C10.4472 30.988 10.4867 30.8994 10.5026 30.8671C10.5426 30.786 10.5841 30.7058 10.6271 30.6262C10.7363 30.4242 10.8549 30.2274 10.9813 30.0357C11.041 29.9452 11.1024 29.8557 11.1655 29.7675C11.1768 29.7518 11.1881 29.7363 11.1996 29.7208C11.3181 29.5793 11.4327 29.4348 11.5569 29.2977C11.846 28.9788 12.1577 28.6799 12.4901 28.4065C12.4943 28.403 12.4987 28.3997 12.503 28.3963C12.5855 28.3386 12.6664 28.2785 12.7494 28.2214C12.9652 28.0727 13.1841 27.9282 13.4053 27.7876C14.2709 27.2377 15.1749 26.7496 16.1041 26.3164C16.3384 26.2071 16.5755 26.1044 16.8115 25.9991C16.8215 25.9949 16.8315 25.9908 16.8415 25.9867C16.9795 25.9297 17.118 25.8738 17.2569 25.819C17.7441 25.6266 18.2362 25.4473 18.7323 25.2792C20.7136 24.608 22.7522 24.119 24.8036 23.718C25.829 23.5176 26.8584 23.3391 27.8897 23.1719C28.461 23.0793 29.033 22.9907 29.6059 22.9083C29.7289 22.8906 29.852 22.8732 29.975 22.8561C29.9941 22.8535 30.0361 22.8476 30.0754 22.8423C30.0842 22.8411 30.0916 22.8402 30.0965 22.8395C30.1873 22.8279 30.2783 22.8172 30.3691 22.8057C30.3059 22.8954 30.2439 22.9863 30.1798 23.0758ZM25.7729 50.0966C25.9148 50.034 25.8151 50.0794 25.7317 50.1147C25.7454 50.1087 25.7592 50.1027 25.7729 50.0966ZM23.0965 52.6543C23.0735 52.6072 23.0505 52.5484 23.0965 52.6543ZM25.7407 54.0914C25.7238 54.0869 25.8146 54.101 25.8962 54.1136C25.8427 54.1096 25.7892 54.1041 25.7407 54.0914ZM44.9283 46.1575C44.5559 46.483 44.1765 46.8007 43.7908 47.1101C43.6908 47.1904 43.59 47.2695 43.4896 47.3492C43.4833 47.3542 43.4794 47.3573 43.4741 47.3616C43.4732 47.3622 43.4727 47.3626 43.4719 47.3632C43.2531 47.5295 43.0335 47.6945 42.8115 47.8564C41.1687 49.054 39.4241 50.1118 37.6038 51.0161C37.161 51.2361 36.7138 51.4471 36.2623 51.6489C36.1453 51.7013 36.0281 51.753 35.9105 51.8041C35.8754 51.8193 35.8403 51.8344 35.8052 51.8495C35.5814 51.9417 35.3576 52.034 35.1323 52.1227C34.1953 52.4915 33.2429 52.8212 32.2784 53.1102C31.2964 53.4045 30.3018 53.6567 29.2981 53.8651C29.0651 53.9135 28.8316 53.9595 28.5976 54.003C28.4716 54.0265 28.3455 54.0494 28.2193 54.0715C28.1968 54.0754 28.1585 54.086 28.1152 54.0975C28.1384 54.0954 28.1421 54.0954 28.1114 54.0985C28.0172 54.1236 27.899 54.153 27.8536 54.1324C27.8483 54.1299 27.8645 54.1263 27.8906 54.1223C27.8308 54.1283 27.771 54.1346 27.7111 54.1394C27.5265 54.1541 27.3415 54.1632 27.1563 54.1668C26.7783 54.1743 26.4 54.1595 26.0237 54.123C25.9971 54.1204 25.9692 54.1185 25.941 54.1166C25.9116 54.112 25.8821 54.1077 25.8529 54.1029C25.6546 54.0705 25.4574 54.0315 25.2618 53.9855C24.9334 53.9083 24.6167 53.8044 24.3001 53.6904C24.2343 53.6589 24.1682 53.6282 24.1033 53.5948C23.955 53.518 23.81 53.4345 23.6704 53.3427C23.6392 53.322 23.6087 53.3003 23.5783 53.2785C23.4744 53.1828 23.3788 53.0825 23.2811 52.9817C23.2576 52.9466 23.2343 52.9114 23.213 52.8749C23.1919 52.8389 23.1731 52.8019 23.1543 52.7648C23.1375 52.7035 23.1181 52.6429 23.1036 52.5808C23.1036 52.5807 23.1036 52.5806 23.1035 52.5806C23.1003 52.5412 23.0973 52.501 23.0968 52.4796C23.0957 52.4083 23.0993 52.3374 23.1025 52.2663C23.1202 52.1905 23.1373 52.1149 23.16 52.0402C23.1633 52.0294 23.1707 52.0115 23.1789 51.9917C23.2214 51.9135 23.2571 51.8294 23.3035 51.7539C23.3342 51.7038 23.3686 51.656 23.4027 51.6081C23.4175 51.5906 23.4326 51.5733 23.4478 51.5565C23.5955 51.3935 23.7595 51.2541 23.922 51.1075C24.0064 51.0469 24.092 50.9879 24.179 50.9311C24.3649 50.81 24.5563 50.6972 24.7511 50.5908C24.946 50.4843 25.1447 50.3845 25.3454 50.2897C25.4306 50.2494 25.5162 50.2101 25.6022 50.1716C25.6364 50.1563 25.6707 50.1414 25.7049 50.1263C26.2168 49.9414 26.7159 49.7103 27.224 49.5147C31.3518 47.9251 35.6598 46.8094 40.0376 46.185C40.0932 46.1771 40.149 46.1694 40.2047 46.1615C40.3221 46.148 40.4394 46.1301 40.5564 46.1155C40.8343 46.0804 41.1126 46.0474 41.3909 46.0163C41.9478 45.9541 42.5054 45.8998 43.0638 45.8536C43.8523 45.7882 44.6421 45.7393 45.4326 45.7058C45.2659 45.8581 45.0982 46.0091 44.9283 46.1575Z" fill="white"/>
</svg>
