<svg width="46" height="33" viewBox="0 0 46 33" fill="none" xmlns="http://www.w3.org/2000/svg">
<g clip-path="url(#clip0_2255_572)">
<path d="M32.8563 21.3368C35.0153 24.2531 37.1743 27.1694 39.3333 30.0856L36.2484 30.0856C37.9671 27.5207 39.6858 24.9558 41.4045 22.3909C41.6499 22.0246 41.8954 21.6583 42.1409 21.2919C42.6405 20.5463 43.7429 20.2668 44.5849 20.7123C45.4096 21.1486 45.7277 22.1738 45.2258 22.9229C43.5071 25.4878 41.7884 28.0527 40.0697 30.6176C39.8242 30.9839 39.5787 31.3503 39.3333 31.7166C38.6087 32.7978 36.9908 32.7195 36.2484 31.7166C34.0894 28.8003 31.9304 25.884 29.7714 22.9677C29.2344 22.2424 29.6156 21.1786 30.4122 20.7572C31.2895 20.2931 32.3181 20.6097 32.8563 21.3368Z" fill="white"/>
<path d="M2.49338 1.12821C9.62787 1.84436 16.2352 5.6609 19.6616 11.4255C21.5048 14.5266 22.6116 18.6126 20.4164 21.8179C18.443 24.6995 14.1404 26.2543 10.8573 24.1264C7.53432 21.9727 6.99353 18.1573 7.87817 14.7789C8.33103 13.0494 9.05906 11.3593 9.79063 9.71221C10.4525 8.22204 11.1737 6.73192 12.1865 5.40532C14.2995 2.63752 17.5028 0.769255 21.3267 0.946431C25.186 1.12525 28.6675 2.98799 31.0908 5.65456C33.9317 8.78065 35.6768 12.6586 37.0589 16.471C38.5763 20.6565 39.4743 25.0093 39.8384 29.3992C39.9106 30.2704 38.9656 31.0149 38.052 31.0149C37.0252 31.0149 36.3381 30.273 36.2657 29.3992C35.7505 23.1868 34.0421 16.83 30.8807 11.2694C29.4895 8.82241 27.6646 6.45786 24.9244 5.12974C22.5425 3.9753 19.5686 3.72837 17.2692 5.17001C15.0927 6.53454 13.9159 8.96887 12.9929 11.129C11.916 13.6494 10.3434 16.7201 11.3149 19.4483C12.0452 21.499 14.317 22.6822 16.3506 21.1916C18.7289 19.4484 18.2319 16.3505 17.1436 14.0945C14.6195 8.86244 8.76171 4.98879 2.49338 4.35958C1.53461 4.26334 0.707036 3.68589 0.707036 2.7439C0.707036 1.94514 1.52832 1.03133 2.49338 1.12821Z" fill="white"/>
</g>
<defs>
<clipPath id="clip0_2255_572">
<rect width="44.7547" height="31.5637" fill="white" transform="matrix(1 1.74846e-07 1.74846e-07 -1 0.708984 32.4987)"/>
</clipPath>
</defs>
</svg>
