<svg width="13" height="37" viewBox="0 0 13 37" fill="none" xmlns="http://www.w3.org/2000/svg">
<path d="M4.45365 1.96762C7.00058 9.09088 7.16696 21.0716 5.48859 28.4048C4.99813 30.5477 4.32869 32.6542 3.50869 34.7166C3.26454 35.3307 3.78616 36.0349 4.46208 36.1989C5.21524 36.3816 5.8962 35.9736 6.14124 35.3573C9.09902 27.918 10.3039 15.5548 8.84623 7.77515C8.43694 5.59064 7.84103 3.43807 7.08619 1.32694C6.55923 -0.146858 3.92269 0.482646 4.45365 1.96762Z" fill="white"/>
<path d="M10.7706 31.4479L7.18662 33.0945L5.82071 33.7355L5.13776 34.056C5.04892 34.0976 4.90664 34.1375 4.83422 34.1984C5.12905 33.9504 6.01012 34.8854 5.83093 34.4457C5.67273 34.0575 5.37102 33.6803 5.15193 33.3156C4.91229 32.9168 4.67263 32.5179 4.43299 32.1191C3.95369 31.3214 3.03696 29.5341 2.55767 28.7364C2.2226 28.1787 1.29202 27.9615 0.690049 28.3041C0.0476595 28.6697 -0.158068 29.3562 0.20034 29.9527C0.759518 30.8834 1.75613 32.8037 2.31531 33.7343C2.58158 34.1775 2.84786 34.6206 3.11413 35.0638C3.44656 35.6171 3.72125 36.1937 4.41649 36.4527C5.12687 36.7173 5.80508 36.4704 6.43979 36.1725L8.03335 35.4247C9.09572 34.9262 11.0861 34.0274 12.1485 33.5289C12.7799 33.2326 13.0266 32.412 12.6382 31.8802C12.2243 31.3136 11.4459 31.131 10.7706 31.4479Z" fill="white"/>
</svg>
