<svg width="40" height="40" viewBox="0 0 40 40" fill="none" xmlns="http://www.w3.org/2000/svg">
<g clip-path="url(#clip0_601_502)">
<path d="M25.6625 3.68029C21.9372 2.81464 18.063 2.81464 14.3376 3.68029C12.186 2.36067 10.5433 1.75419 9.34864 1.49819C8.83875 1.38312 8.31701 1.3289 7.79436 1.33667C7.55654 1.34311 7.31983 1.37168 7.08731 1.422L7.05683 1.4281L7.04464 1.43419H7.0355L7.45302 2.9001L7.0355 1.43724C6.82139 1.49775 6.62313 1.6044 6.45465 1.74972C6.28617 1.89503 6.15155 2.07548 6.06026 2.27838C5.16113 4.29197 4.98983 6.55546 5.57569 8.68143C4.05839 10.5202 3.23153 12.8315 3.23816 15.2155C3.23816 19.9485 4.63397 23.1302 7.01416 25.1751C8.68121 26.6075 10.7048 27.3694 12.7345 27.8052C12.4151 28.7433 12.2947 29.7377 12.381 30.7249V32.5473C11.1406 32.8064 10.2812 32.7241 9.66864 32.523C8.90369 32.27 8.3155 31.761 7.75169 31.0296C7.45696 30.6354 7.18232 30.2264 6.92883 29.8045L6.75512 29.521C6.53577 29.1563 6.30815 28.7966 6.07245 28.4422C5.4934 27.5858 4.63397 26.513 3.24426 26.1473L1.76921 25.7603L0.995117 28.7104L2.47016 29.0974C2.71397 29.1584 3.03093 29.387 3.55207 30.1519C3.75266 30.4539 3.94573 30.7608 4.13112 31.0723L4.33836 31.4075C4.62483 31.8708 4.95397 32.3828 5.33493 32.8826C6.10597 33.8883 7.1574 34.9031 8.71778 35.4182C9.78445 35.7717 10.9974 35.857 12.381 35.6437V41.3336C12.381 41.7378 12.5416 42.1253 12.8273 42.4111C13.1131 42.6969 13.5007 42.8574 13.9048 42.8574H26.0953C26.4994 42.8574 26.887 42.6969 27.1728 42.4111C27.4586 42.1253 27.6191 41.7378 27.6191 41.3336V30.478C27.6191 29.515 27.5765 28.6342 27.3052 27.8144C29.3258 27.3877 31.3342 26.6258 32.9921 25.1934C35.3692 23.1332 36.762 19.921 36.762 15.1607V15.1576C36.7543 12.7932 35.9271 10.5045 34.4214 8.68143C35.0065 6.55641 34.8352 4.29412 33.9368 2.28143C33.8462 2.07829 33.7122 1.89745 33.5443 1.75161C33.3763 1.60577 33.1785 1.49847 32.9646 1.43724L32.5471 2.9001C32.9646 1.43724 32.9616 1.43724 32.9585 1.43724L32.9525 1.43419L32.9403 1.4281L32.9128 1.422C32.8376 1.40243 32.7613 1.38717 32.6843 1.37629C32.5247 1.35299 32.3639 1.33976 32.2027 1.33667C31.6801 1.32895 31.1584 1.38317 30.6485 1.49819C29.4568 1.75419 27.8142 2.36067 25.6625 3.68029Z" fill="white"/>
</g>
<defs>
<clipPath id="clip0_601_502">
<rect width="40" height="40" fill="white"/>
</clipPath>
</defs>
</svg>
