<svg width="40" height="40" viewBox="0 0 40 40" fill="none" xmlns="http://www.w3.org/2000/svg">
<g clip-path="url(#clip0_601_500)">
<path d="M8.4054 5.86646C8.40484 6.99805 7.95477 8.08307 7.15422 8.88282C6.35366 9.68258 5.26819 10.1316 4.1366 10.131C3.00501 10.1304 1.91999 9.68036 1.12024 8.8798C0.320485 8.07925 -0.128495 6.99378 -0.127929 5.86219C-0.127363 4.7306 0.322702 3.64558 1.12326 2.84583C1.92381 2.04607 3.00928 1.59709 4.14087 1.59766C5.27246 1.59822 6.35748 2.04829 7.15723 2.84884C7.95699 3.6494 8.40597 4.73487 8.4054 5.86646ZM8.5334 13.2905H7.07209e-05V39.9998H8.5334V13.2905ZM22.0161 13.2905H13.5254V39.9998H21.9307V25.9838C21.9307 18.1758 32.1067 17.4505 32.1067 25.9838V39.9998H40.5334V23.0825C40.5334 9.91979 25.4721 10.4105 21.9307 16.8745L22.0161 13.2905Z" fill="white"/>
</g>
<defs>
<clipPath id="clip0_601_500">
<rect width="40" height="40" fill="white"/>
</clipPath>
</defs>
</svg>
