<svg width="40" height="40" viewBox="0 0 40 40" fill="none" xmlns="http://www.w3.org/2000/svg">
<rect x="2.55848" y="23.0776" width="28.6843" height="19.0565" rx="1.59951" transform="rotate(-45 2.55848 23.0776)" stroke="white" stroke-width="1.5"/>
<path d="M13.9944 4.66478C13.3818 4.05218 12.6546 3.56625 11.8542 3.23472C11.0538 2.90318 10.196 2.73255 9.32963 2.73255C8.46329 2.73255 7.60544 2.90318 6.80505 3.23472C6.00466 3.56625 5.27741 4.05218 4.66481 4.66478C4.05222 5.27737 3.56629 6.00462 3.23475 6.80501C2.90322 7.6054 2.73258 8.46325 2.73258 9.32959C2.73258 10.1959 2.90322 11.0538 3.23475 11.8542C3.56629 12.6546 4.05222 13.3818 4.66481 13.9944" stroke="white" stroke-width="1.5" stroke-linecap="round"/>
<path d="M25.029 34.3589C25.6416 34.9715 26.3688 35.4574 27.1692 35.789C27.9696 36.1205 28.8275 36.2911 29.6938 36.2911C30.5601 36.2911 31.418 36.1205 32.2184 35.789C33.0188 35.4574 33.746 34.9715 34.3586 34.3589C34.9712 33.7463 35.4572 33.0191 35.7887 32.2187C36.1202 31.4183 36.2909 30.5604 36.2909 29.6941C36.2909 28.8278 36.1202 27.9699 35.7887 27.1695C35.4572 26.3691 34.9712 25.6419 34.3586 25.0293" stroke="white" stroke-width="1.5" stroke-linecap="round"/>
</svg>
