<svg width="48" height="57" viewBox="0 0 48 57" fill="none" xmlns="http://www.w3.org/2000/svg">
<path d="M33.4758 31.3341C31.7028 31.4692 29.9556 32.4529 28.4467 33.304C18.3707 38.6705 18.5222 41.3627 19.4175 53.1099C19.4276 53.2429 19.3596 52.3436 19.3247 52.1569C18.2714 46.5356 19.0686 39.6342 11.0542 35.9168C5.97991 32.1942 2.39529 34.1087 3.89764 33.6023C15.3103 29.7553 15.6302 27.1601 16.3458 12.2619C16.3628 11.9091 17.2038 15.1658 17.2559 15.8487C18.0047 25.6747 25.2128 31.9639 34.1088 31.2858" stroke="white" stroke-width="2" stroke-linecap="round"/>
<path d="M38.7862 14.1613C38.0213 14.0602 37.1916 14.3215 36.475 14.5478C31.934 16.4563 31.5571 17.1375 30.888 22.2017C30.8804 22.259 30.9319 21.8714 30.9337 21.7891C30.9886 19.3099 31.9425 16.3918 28.8718 14.0986C26.3288 12.0437 24.6358 12.5358 25.3189 12.4551C30.5081 11.8425 30.8839 11.181 33.0397 5.91807C33.0978 5.77634 32.9837 7.73912 33.0474 8.02915C33.8461 11.6651 35.2216 13.6903 39.0593 14.1974" stroke="white" stroke-width="2" stroke-linecap="round"/>
</svg>
