<svg width="34" height="41" viewBox="0 0 34 41" fill="none" xmlns="http://www.w3.org/2000/svg">
<path d="M11.1605 17.2884C12.395 17.2884 13.6564 16.6996 14.7458 16.19C22.0038 13.0067 21.9899 9.18839 21.9899 1.00931C21.9899 0.916689 21.9895 1.54282 22.0038 1.6739C22.4364 5.62075 21.5491 12.3125 26.9009 15.3086C31.3656 18.037 33.948 16.9009 32.8813 17.1722C24.7781 19.2331 23.2712 21.1289 21.9899 31.4042C21.9595 31.6475 21.5491 29.3488 21.5491 28.8733C21.5491 22.0319 16.9137 17.2884 10.7197 17.2884" stroke="white" stroke-width="1.38849" stroke-linecap="round"/>
<path d="M1.19122 34.4434C1.72685 34.4434 2.27414 34.1882 2.74681 33.9672C5.69864 32.2407 5.89609 31.7376 5.89609 28.1913C5.89609 28.1511 5.89593 28.4226 5.90216 28.4794C6.08983 30.1907 5.69864 32.286 8.02064 33.585C9.95779 34.768 11.0782 34.2754 10.6154 34.3931C7.09962 35.2866 6.90108 35.776 5.89593 39.5944C5.86886 39.6972 5.76886 38.3359 5.69864 38.1421C4.81834 35.7122 3.68742 34.4434 1 34.4434" stroke="white" stroke-width="1.38849" stroke-linecap="round"/>
</svg>
