<svg width="34" height="41" viewBox="0 0 34 41" fill="none" xmlns="http://www.w3.org/2000/svg">
<path d="M10.3395 18.2834C11.5715 18.362 12.8678 17.8547 13.9874 17.4155C21.4334 14.7007 21.6625 10.8892 22.1832 2.72673C22.1891 2.6343 22.1489 3.25913 22.1549 3.39086C22.3353 7.35724 21.0238 13.9789 26.174 17.3096C30.456 20.3168 33.1055 19.3473 32.0237 19.5502C23.8057 21.091 22.1812 22.8871 20.2483 33.06C20.2025 33.3009 19.9393 30.9807 19.9696 30.5062C20.4051 23.6786 16.081 18.6496 9.89963 18.2553" stroke="white" stroke-width="1.38849" stroke-linecap="round"/>
<path d="M4.18549 32.6943C4.71427 32.6089 5.2139 32.2697 5.64534 31.9763C8.28441 29.8016 8.39919 29.2735 7.8342 25.7724C7.8278 25.7328 7.8709 26.0008 7.8861 26.0559C8.34401 27.7155 8.29161 29.8462 10.7909 30.7588C12.8918 31.6181 13.9195 30.9533 13.4813 31.1431C10.1528 32.5854 10.0347 33.1002 9.65073 37.0299C9.64039 37.1357 9.32479 35.8078 9.22459 35.6276C7.96842 33.369 6.6498 32.2966 3.99671 32.7247" stroke="white" stroke-width="1.38849" stroke-linecap="round"/>
</svg>
