<svg width="48" height="57" viewBox="0 0 48 57" fill="none" xmlns="http://www.w3.org/2000/svg">
<path d="M31.665 34.1239C29.8868 34.1239 28.0698 34.972 26.5006 35.706C16.046 40.2913 15.9925 42.9872 15.9925 54.7685C15.9925 54.9019 15.993 54 15.9723 53.8112C15.3493 48.1261 16.6687 41.3052 8.95995 36.9895C4.18318 32.8921 0.46344 34.5286 1.99992 34.1378C13.6719 31.1693 14.1881 28.6059 16.0338 13.8052C16.0776 13.4547 16.6687 16.7658 16.6687 17.4507C16.6687 27.3052 23.3779 34.1239 32.2998 34.1239" stroke="white" stroke-width="2" stroke-linecap="round"/>
<path d="M45.9921 9.42754C45.2206 9.42754 44.4323 9.79524 43.7514 10.1135C39.4996 12.6003 39.2152 13.325 39.2152 18.4332C39.2152 18.4911 39.2154 18.1 39.2064 18.0181C38.9361 15.5532 39.4996 12.5352 36.1549 10.664C33.3646 8.95997 31.7507 9.66953 32.4174 9.5001C37.4816 8.21299 37.7676 7.50803 39.2154 2.00803C39.2544 1.85993 39.3984 3.82073 39.4996 4.09991C40.7676 7.59991 42.3966 9.42754 46.2676 9.42754" stroke="white" stroke-width="2" stroke-linecap="round"/>
</svg>
