<svg width="65" height="65" viewBox="0 0 65 65" fill="none" xmlns="http://www.w3.org/2000/svg">
<path d="M32.7907 2.09302C16.5817 2.09302 5.79071 13.216 5.79071 30.7C5.79071 54.158 32.7907 62.093 32.7907 62.093C32.7907 62.093 59.7907 54.158 59.7907 30.7C59.7907 13.216 48.9977 2.09302 32.7907 2.09302ZM44.9337 53.089C39.8297 56.832 34.6387 58.823 32.7907 59.462C28.7047 58.047 8.29071 50.002 8.29071 30.7C8.29071 14.841 17.9077 4.59302 32.7907 4.59302C47.6737 4.59302 57.2907 14.841 57.2907 30.7C57.2907 39.541 53.1327 47.074 44.9337 53.089Z" fill="white"/>
<path d="M43.0937 45.545C42.7827 45.545 42.4317 45.721 41.7927 46.039C40.2657 46.804 37.4217 48.226 32.7887 48.226C28.1597 48.226 25.3137 46.804 23.7867 46.039C23.1497 45.721 22.7987 45.545 22.4877 45.545C22.1537 45.545 21.8157 45.774 21.8157 46.288C21.8157 48.813 27.1497 51.201 32.7887 51.201C38.4317 51.201 43.7637 48.813 43.7637 46.288C43.7637 45.775 43.4277 45.545 43.0937 45.545ZM26.8747 37.803C28.5077 36.196 28.5627 33.444 27.3047 30.657L27.3207 30.671C26.7077 29.042 25.6587 27.623 24.4727 26.379C23.2727 25.1303 21.8968 24.0634 20.3887 23.212C18.8887 22.3631 17.2716 21.7403 15.5897 21.364C13.9237 20.989 12.2027 20.862 10.5157 21.093C12.0577 21.669 13.5387 22.195 14.9777 22.792C14.1307 22.98 13.3807 23.354 12.7877 23.938C10.3057 26.381 11.4497 31.462 15.3407 35.292C19.2297 39.118 24.3957 40.243 26.8747 37.803ZM18.9917 28.838C17.0017 27.591 15.9157 25.752 16.5717 24.732C17.2337 23.711 19.3857 23.895 21.3787 25.141C23.3747 26.388 24.4567 28.227 23.7967 29.247C23.1407 30.269 20.9897 30.085 18.9917 28.838ZM50.6007 22.792C52.0407 22.195 53.5217 21.67 55.0627 21.093C53.3747 20.863 51.6587 20.988 49.9907 21.364C48.3207 21.741 46.6917 22.356 45.1917 23.211C43.6835 24.061 42.3082 25.1277 41.1097 26.377C39.9207 27.623 38.8737 29.042 38.2597 30.67L38.2747 30.657C37.0167 33.443 37.0707 36.196 38.7037 37.803C41.1837 40.245 46.3497 39.12 50.2387 35.291C54.1297 31.463 55.2717 26.381 52.7937 23.937C52.1987 23.354 51.4477 22.979 50.6007 22.792ZM46.5837 28.838C44.5897 30.084 42.4377 30.268 41.7767 29.245C41.1207 28.225 42.2027 26.387 44.1967 25.141C46.1927 23.894 48.3427 23.71 49.0057 24.733C49.6617 25.753 48.5777 27.59 46.5837 28.838Z" fill="white"/>
</svg>
