<svg width="67" height="66" viewBox="0 0 67 66" fill="none" xmlns="http://www.w3.org/2000/svg">
<path d="M34.616 46.3549C31.6007 43.9404 26.7114 43.9404 23.696 46.3549C20.6837 48.7704 20.6837 52.685 23.696 55.1005C26.7103 57.516 31.5997 57.516 34.616 55.1005C37.6293 52.685 37.6293 48.7704 34.616 46.3549ZM23.0288 42.8716C25.3656 39.9686 24.5748 36.3014 21.2641 34.6828C17.9535 33.0643 13.3758 34.1065 11.039 37.0095C8.70513 39.9124 9.49396 43.5797 12.8036 45.1982C16.1163 46.8178 20.694 45.7755 23.0288 42.8716ZM19.8581 29.0241C22.0949 26.5248 21.5543 23.1865 18.6493 21.568C15.7454 19.9485 11.5795 20.6617 9.34171 23.161C7.10397 25.6603 7.64552 28.9975 10.5495 30.6161C13.4535 32.2346 17.6214 31.5224 19.8581 29.0241ZM21.9191 20.1242C24.6964 21.7407 28.7335 21.1256 30.9345 18.754C33.1365 16.3813 32.6715 13.1494 29.8953 11.5339C27.1191 9.91745 23.0819 10.5316 20.881 12.9031C18.678 15.2758 19.1429 18.5077 21.9191 20.1242ZM45.3654 15.9992C47.8381 14.7352 48.113 12.2522 45.9785 10.4508C43.846 8.64939 40.1072 8.21308 37.6334 9.47603C35.1586 10.7389 34.8848 13.2229 37.0193 15.0244C39.1538 16.8258 42.8926 17.2621 45.3654 15.9992Z" fill="white"/>
<path d="M54.3861 34.3182C52.1749 33.6683 50.2672 33.1063 49.743 31.8056C49.4395 31.0515 49.5581 29.9438 50.0731 28.5143C55.556 23.3849 63.7591 15.1195 63.5281 11.7609C63.4362 10.4182 61.2965 8.49517 59.8936 8.49517L59.7832 8.49926C58.2648 8.60348 55.9443 10.6123 53.4654 13.3324C53.258 12.7083 52.9907 12.1057 52.6674 11.533C50.0669 7.05239 44.3499 4.48256 36.9838 4.48256C31.2566 4.48256 24.8795 6.06124 18.5453 9.04797C10.4149 12.8818 4.34231 20.8764 3.07528 29.4166C2.13318 35.7579 3.2592 45.3485 13.9656 55.0383C18.7129 59.337 26.1884 61.7035 35.0117 61.7035H35.0148C42.0979 61.7035 49.274 60.1269 54.7059 57.3813C60.7764 54.3108 64.1187 50.0641 64.1187 45.4221C64.1187 37.1802 58.4927 35.5259 54.3861 34.3182ZM59.8936 10.0279C60.5384 10.0279 61.9648 11.3664 61.9985 11.8651C62.1937 14.7088 52.0635 24.7878 45.292 30.7981L44.1374 29.7936L43.3823 29.1346C48.4218 21.6161 57.0397 10.222 59.8936 10.0279ZM40.8891 32.1325L42.4443 30.3495L44.213 31.8924L42.6609 33.6744L40.8891 32.1325ZM53.7842 55.5563C48.6282 58.164 41.7883 59.6599 35.0148 59.6599H35.0127C26.6952 59.6599 19.7082 57.4804 15.3369 53.5229C5.29872 44.4401 4.22685 35.5637 5.09436 29.716C6.26534 21.8338 11.8873 14.4472 19.419 10.8964C25.4813 8.03741 31.556 6.52616 36.9838 6.52616C43.5059 6.52616 48.7069 8.78128 50.8987 12.5589C51.3707 13.3712 51.6875 14.2397 51.8714 15.1492C47.2958 20.5473 42.6486 27.4649 41.7607 28.7994L38.9231 32.0528C37.4334 32.0375 35.9415 32.6884 35.4817 34.2609C33.7876 40.0392 30.0141 43.6227 30.0141 43.6227C30.0141 43.6227 39.5791 41.7324 41.4092 39.5845C42.4003 38.4217 42.8806 37.0321 42.8693 35.765L45.8407 32.3583C46.2372 32.0099 46.8268 31.4857 47.5533 30.8297C47.5492 31.4673 47.6371 32.0498 47.8455 32.5688C48.7396 34.7882 51.2011 35.5116 53.8077 36.278C57.8714 37.4735 62.0741 38.7089 62.0741 45.4221C62.0751 49.2539 59.1293 52.8526 53.7842 55.5563Z" fill="white"/>
<path d="M56.0681 41.0701C53.0538 38.6556 48.1635 38.6556 45.1491 41.0701C42.1348 43.4847 42.1359 47.4002 45.1491 49.8157C48.1624 52.2313 53.0528 52.2303 56.0681 49.8157C59.0835 47.4012 59.0824 43.4847 56.0681 41.0701ZM54.5835 48.6253C52.3896 50.3839 48.8276 50.3839 46.6349 48.6253C44.4421 46.8668 44.441 44.017 46.6349 42.2595C48.8287 40.502 52.3896 40.501 54.5835 42.2595C56.7773 44.018 56.7773 46.8668 54.5835 48.6253Z" fill="white"/>
</svg>
