<svg width="66" height="66" viewBox="0 0 66 66" fill="none" xmlns="http://www.w3.org/2000/svg">
<path d="M59.507 33.278C59.6664 33.0604 59.8299 32.8428 59.9842 32.6251C63.96 26.948 64.7979 21.6775 62.3476 17.7834C60.0823 14.1857 55.2154 12.2044 48.6391 12.2044C47.4916 12.2044 46.3023 12.2718 45.0863 12.3914C42.1302 6.3556 37.8755 2.625 33.0699 2.625C28.2664 2.625 24.0116 6.3556 21.0556 12.3914C19.8753 12.2718 18.69 12.2094 17.5038 12.2044C10.9295 12.2044 6.06058 14.1857 3.79525 17.7834C1.34293 21.6775 2.18182 26.948 6.15663 32.6251C6.3099 32.8428 6.47339 33.0604 6.63381 33.278C6.47237 33.4957 6.30888 33.7123 6.15561 33.932C2.1808 39.6071 1.3419 44.8796 3.79423 48.7737C6.05956 52.3704 10.9285 54.3537 17.5028 54.3537H17.5048C18.6904 54.35 19.8751 54.2872 21.0546 54.1657C24.0106 60.2036 28.2654 63.9331 33.0699 63.9331C37.8765 63.9331 42.1313 60.2036 45.0863 54.1657C46.3012 54.2853 47.4916 54.3537 48.6391 54.3537C55.2154 54.3537 60.0823 52.3725 62.3476 48.7737C64.7979 44.8796 63.96 39.6071 59.9842 33.932C59.8299 33.7123 59.6664 33.4957 59.507 33.278ZM48.6381 13.9619C54.4992 13.9619 58.7785 15.6305 60.6862 18.6622C62.7615 21.9585 61.942 26.5801 58.3708 31.6759L58.3125 31.7525C55.7264 28.638 52.3595 25.6401 48.4337 22.9384C47.835 19.6881 46.9552 16.7065 45.8517 14.0835C46.8019 14.0048 47.7348 13.9619 48.6381 13.9619ZM41.0666 45.9801C38.4859 47.3409 35.8143 48.5219 33.0709 49.5145C30.3268 48.5219 27.6546 47.341 25.0733 45.9801C23.1556 44.9641 21.2914 43.8502 19.4881 42.6429C18.9597 39.5497 18.6961 36.417 18.7003 33.2791C18.7003 30.0001 18.9803 26.8509 19.4881 23.9132C21.2915 22.7066 23.1557 21.5934 25.0733 20.5781C27.6546 19.2175 30.3268 18.0368 33.0709 17.0447C35.8143 18.0369 38.4859 19.2175 41.0666 20.5781C42.9838 21.5931 44.8476 22.706 46.6507 23.9122C47.1792 27.0064 47.4428 30.1401 47.4385 33.2791C47.4385 36.557 47.1596 39.7072 46.6507 42.6449C44.8476 43.8516 42.9838 44.9647 41.0666 45.9801ZM46.1582 45.1197C45.5676 47.7243 44.7869 50.1214 43.855 52.2427C41.2464 51.8932 38.5182 51.273 35.744 50.4127C39.3647 48.9591 42.8497 47.1878 46.1582 45.1197ZM30.3959 50.4127C27.6227 51.273 24.8945 51.8932 22.2868 52.2427C21.3529 50.1214 20.5743 47.7243 19.9827 45.1197C21.3309 45.9633 22.7096 46.7575 24.1159 47.5005C26.1563 48.5814 28.2525 49.5535 30.3959 50.4127ZM17.3025 41.1163C13.9929 38.6711 11.1788 36.0155 8.98907 33.2791C11.1788 30.5437 13.9919 27.885 17.3025 25.4418C16.954 28.04 16.7812 30.6587 16.7855 33.2801C16.7855 35.9971 16.9653 38.6221 17.3025 41.1163ZM19.9817 21.4394C20.5733 18.8359 21.3519 16.4377 22.2858 14.3165C24.8935 14.6649 27.6217 15.2851 30.3959 16.1455C28.2525 17.005 26.1563 17.9774 24.1159 19.0586C22.7093 19.8017 21.3302 20.5958 19.9817 21.4394ZM35.746 16.1445C38.5182 15.2851 41.2464 14.6649 43.855 14.3154C44.7869 16.4367 45.5676 18.8339 46.1582 21.4384C42.8504 19.37 39.3661 17.5985 35.746 16.1445ZM48.8384 25.4408C52.147 27.885 54.9631 30.5427 57.1528 33.2791C54.9631 36.0155 52.15 38.6742 48.8384 41.1163C49.1756 38.6221 49.3554 35.9971 49.3554 33.2801C49.3554 30.5601 49.1756 27.935 48.8384 25.4408ZM33.0699 4.54088C36.9456 4.54088 40.4668 7.63081 43.0529 12.6366C39.8414 13.1077 36.4654 13.9588 33.0709 15.1462C29.6765 13.9588 26.2995 13.1077 23.0879 12.6366C25.6751 7.63081 29.1942 4.54088 33.0699 4.54088ZM7.76802 31.6759C4.19988 26.5801 3.37733 21.9575 5.45261 18.6622C7.36134 15.6305 11.6417 13.9619 17.5028 13.9619C18.406 13.9619 19.3379 14.0048 20.2882 14.0835C19.1826 16.7065 18.3039 19.6881 17.7041 22.9384C13.7793 25.6401 10.4124 28.6391 7.82626 31.7525C7.80889 31.727 7.78641 31.7014 7.76802 31.6759ZM17.5058 52.5952H17.5038C11.6427 52.5952 7.36338 50.9266 5.45363 47.8949C3.37835 44.5996 4.19988 39.978 7.76904 34.8813L7.8283 34.8056C10.4145 37.9191 13.7814 40.9181 17.7061 43.6207C18.3059 46.8701 19.1847 49.8537 20.2902 52.4757C19.3379 52.5547 18.4097 52.5945 17.5058 52.5952ZM33.0699 62.0173C29.1952 62.0173 25.6751 58.9284 23.0879 53.9205C26.2984 53.4494 29.6745 52.5973 33.0689 51.412C36.4633 52.5973 39.8414 53.4494 43.0529 53.9205C40.4657 58.9284 36.9456 62.0173 33.0699 62.0173ZM60.6882 47.896C58.7785 50.9276 54.4992 52.5962 48.6381 52.5962C47.7338 52.5962 46.8019 52.5543 45.8517 52.4767C46.9552 49.8527 47.835 46.8711 48.4337 43.6218C52.3595 40.9191 55.7264 37.9201 58.3125 34.8046C58.3315 34.8305 58.3517 34.8564 58.3728 34.8823C61.942 39.979 62.7645 44.6006 60.6882 47.896Z" fill="#D6FF00"/>
<path d="M33.0698 39.0267C36.2441 39.0267 38.8174 36.4534 38.8174 33.2791C38.8174 30.1047 36.2441 27.5314 33.0698 27.5314C29.8955 27.5314 27.3221 30.1047 27.3221 33.2791C27.3221 36.4534 29.8955 39.0267 33.0698 39.0267Z" fill="#D6FF00"/>
</svg>
