<svg width="67" height="66" viewBox="0 0 67 66" fill="none" xmlns="http://www.w3.org/2000/svg">
<path d="M59.9257 33.278C60.0851 33.0604 60.2486 32.8428 60.4029 32.6251C64.3787 26.948 65.2166 21.6775 62.7663 17.7834C60.501 14.1857 55.6342 12.2044 49.0578 12.2044C47.9103 12.2044 46.721 12.2718 45.505 12.3914C42.5489 6.3556 38.2942 2.625 33.4886 2.625C28.6851 2.625 24.4303 6.3556 21.4743 12.3914C20.294 12.2718 19.1087 12.2094 17.9225 12.2044C11.3482 12.2044 6.47928 14.1857 4.21395 17.7834C1.76163 21.6775 2.60052 26.948 6.57533 32.6251C6.7286 32.8428 6.89209 33.0604 7.05252 33.278C6.89107 33.4957 6.72758 33.7123 6.57431 33.932C2.5995 39.6071 1.76061 44.8796 4.21293 48.7737C6.47826 52.3704 11.3472 54.3537 17.9215 54.3537H17.9235C19.1091 54.35 20.2938 54.2872 21.4733 54.1657C24.4293 60.2036 28.6841 63.9331 33.4886 63.9331C38.2952 63.9331 42.55 60.2036 45.505 54.1657C46.7199 54.2853 47.9103 54.3537 49.0578 54.3537C55.6342 54.3537 60.501 52.3725 62.7663 48.7737C65.2166 44.8796 64.3787 39.6071 60.4029 33.932C60.2486 33.7123 60.0851 33.4957 59.9257 33.278ZM49.0568 13.9619C54.9179 13.9619 59.1972 15.6305 61.1049 18.6622C63.1802 21.9585 62.3607 26.5801 58.7895 31.6759L58.7312 31.7525C56.1451 28.638 52.7782 25.6401 48.8524 22.9384C48.2537 19.6881 47.3739 16.7065 46.2704 14.0835C47.2206 14.0048 48.1535 13.9619 49.0568 13.9619ZM41.4853 45.9801C38.9046 47.3409 36.233 48.5219 33.4896 49.5145C30.7455 48.5219 28.0733 47.341 25.492 45.9801C23.5743 44.9641 21.7101 43.8502 19.9068 42.6429C19.3784 39.5497 19.1148 36.417 19.119 33.2791C19.119 30.0001 19.399 26.8509 19.9068 23.9132C21.7102 22.7066 23.5744 21.5934 25.492 20.5781C28.0733 19.2175 30.7455 18.0368 33.4896 17.0447C36.233 18.0369 38.9046 19.2175 41.4853 20.5781C43.4025 21.5931 45.2663 22.706 47.0694 23.9122C47.5979 27.0064 47.8615 30.1401 47.8572 33.2791C47.8572 36.557 47.5783 39.7072 47.0694 42.6449C45.2663 43.8516 43.4025 44.9647 41.4853 45.9801ZM46.5769 45.1197C45.9863 47.7243 45.2056 50.1214 44.2738 52.2427C41.6651 51.8932 38.9369 51.273 36.1627 50.4127C39.7834 48.9591 43.2684 47.1878 46.5769 45.1197ZM30.8146 50.4127C28.0414 51.273 25.3132 51.8932 22.7055 52.2427C21.7716 50.1214 20.993 47.7243 20.4014 45.1197C21.7496 45.9633 23.1283 46.7575 24.5346 47.5005C26.575 48.5814 28.6712 49.5535 30.8146 50.4127ZM17.7212 41.1163C14.4116 38.6711 11.5975 36.0155 9.40777 33.2791C11.5975 30.5437 14.4106 27.885 17.7212 25.4418C17.3727 28.04 17.1999 30.6587 17.2042 33.2801C17.2042 35.9971 17.384 38.6221 17.7212 41.1163ZM20.4004 21.4394C20.992 18.8359 21.7706 16.4377 22.7045 14.3165C25.3122 14.6649 28.0404 15.2851 30.8146 16.1455C28.6712 17.005 26.575 17.9774 24.5346 19.0586C23.128 19.8017 21.7489 20.5958 20.4004 21.4394ZM36.1647 16.1445C38.9369 15.2851 41.6651 14.6649 44.2738 14.3154C45.2056 16.4367 45.9863 18.8339 46.5769 21.4384C43.2691 19.37 39.7848 17.5985 36.1647 16.1445ZM49.2571 25.4408C52.5657 27.885 55.3818 30.5427 57.5715 33.2791C55.3818 36.0155 52.5687 38.6742 49.2571 41.1163C49.5943 38.6221 49.7741 35.9971 49.7741 33.2801C49.7741 30.5601 49.5943 27.935 49.2571 25.4408ZM33.4886 4.54088C37.3643 4.54088 40.8855 7.63081 43.4716 12.6366C40.2601 13.1077 36.8841 13.9588 33.4896 15.1462C30.0952 13.9588 26.7182 13.1077 23.5066 12.6366C26.0938 7.63081 29.6129 4.54088 33.4886 4.54088ZM8.18672 31.6759C4.61858 26.5801 3.79603 21.9575 5.87131 18.6622C7.78004 15.6305 12.0604 13.9619 17.9215 13.9619C18.8247 13.9619 19.7566 14.0048 20.7069 14.0835C19.6013 16.7065 18.7226 19.6881 18.1228 22.9384C14.198 25.6401 10.8311 28.6391 8.24496 31.7525C8.22759 31.727 8.20511 31.7014 8.18672 31.6759ZM17.9245 52.5952H17.9225C12.0614 52.5952 7.78208 50.9266 5.87233 47.8949C3.79705 44.5996 4.61858 39.978 8.18774 34.8813L8.247 34.8056C10.8332 37.9191 14.2001 40.9181 18.1248 43.6207C18.7246 46.8701 19.6034 49.8537 20.7089 52.4757C19.7566 52.5547 18.8284 52.5945 17.9245 52.5952ZM33.4886 62.0173C29.614 62.0173 26.0938 58.9284 23.5066 53.9205C26.7171 53.4494 30.0932 52.5973 33.4876 51.412C36.882 52.5973 40.2601 53.4494 43.4716 53.9205C40.8844 58.9284 37.3643 62.0173 33.4886 62.0173ZM61.1069 47.896C59.1972 50.9276 54.9179 52.5962 49.0568 52.5962C48.1525 52.5962 47.2206 52.5543 46.2704 52.4767C47.3739 49.8527 48.2537 46.8711 48.8524 43.6218C52.7782 40.9191 56.1451 37.9201 58.7312 34.8046C58.7502 34.8305 58.7704 34.8564 58.7915 34.8823C62.3607 39.979 63.1832 44.6006 61.1069 47.896Z" fill="white"/>
<path d="M33.4884 39.0267C36.6627 39.0267 39.236 36.4534 39.236 33.2791C39.236 30.1047 36.6627 27.5314 33.4884 27.5314C30.314 27.5314 27.7407 30.1047 27.7407 33.2791C27.7407 36.4534 30.314 39.0267 33.4884 39.0267Z" fill="white"/>
</svg>
