<svg width="66" height="66" viewBox="0 0 66 66" fill="none" xmlns="http://www.w3.org/2000/svg">
<path d="M63.0882 4.74104L63.0923 4.76045C62.6908 3.88374 61.4002 3.30642 58.6567 4.01045C57.4745 4.3129 55.952 4.9832 54.7258 6.44234C45.7115 -2.89489 32.5977 5.72707 17.4208 15.7091C16.1518 16.5409 14.8806 17.3787 13.6136 18.2003C2.78356 25.2364 1.86803 35.2746 2.2839 40.6339C2.75291 46.6391 5.31661 52.6289 9.13918 56.6558C12.9617 60.6827 18.5836 63.3169 24.176 63.7011C29.1654 64.0373 38.4832 62.852 44.8113 51.0676C45.5565 49.6793 46.3058 48.2935 47.0592 46.9098C54.9731 32.3471 61.9336 19.5317 57.3805 10.1924L58.2245 9.64875C59.6116 8.84654 61.0575 8.15075 62.5498 7.56734C64.342 6.8623 63.0882 4.74104 63.0882 4.74104ZM36.9945 43.4296C28.3122 59.6037 17.6579 62.3544 10.6596 54.9851C3.66538 47.6128 0.599968 30.4067 15.4671 20.7456C30.3303 11.0865 45.4192 -0.09618 53.3035 8.20903C61.1846 16.5133 45.6737 27.2514 36.9945 43.4296Z" fill="white"/>
<path d="M17.7311 28.0042C11.5921 34.741 12.3472 44.4134 16.1555 46.2751C19.9903 48.1848 25.601 45.2032 29.7791 40.6971C33.8847 36.1143 36.5424 30.0233 34.693 25.9381C32.8854 21.8836 23.8772 21.2685 17.7311 28.0042ZM22.0186 30.8009C21.6558 31.743 20.1507 33.9797 19.32 35.9906C18.4014 37.9883 17.8741 39.7233 16.8513 40.3762C15.805 41.1886 14.4674 38.8762 17.0689 34.7675C19.7195 30.8377 22.5141 29.8537 22.0186 30.8009Z" fill="white"/>
</svg>
