<svg width="66" height="66" viewBox="0 0 66 66" fill="none" xmlns="http://www.w3.org/2000/svg">
<path d="M32.9542 56.5252C36.3671 55.8549 37.5769 52.9152 37.5769 50.6018C37.5769 49.5504 37.3439 48.5858 36.9372 47.8378C40.0312 46.3552 40.4011 43.9519 40.4011 42.8944C40.4011 41.6774 39.9658 40.4533 39.1975 39.4274C40.5023 38.4853 41.2656 36.7155 41.2656 34.4696C41.2656 33.6092 41.1419 32.661 40.8804 31.8344C45.3252 31.9468 52.8804 32.2002 55.6045 32.3207C58.5432 32.4515 60.3385 31.3541 61.3276 30.412C62.6131 29.1869 63.3498 27.4273 63.3498 25.584C63.3498 23.6906 62.5845 21.8953 61.25 20.6548C60.2517 19.727 58.4605 18.6623 55.5912 18.8585C50.8562 19.1824 38.6426 20.0499 31.9559 20.5271C35.9726 18.9556 37.4318 15.8891 37.4318 13.5993C37.4318 11.9215 36.7165 10.4409 35.4168 9.42828C34.2141 8.49027 32.4117 8.29919 31.0333 8.9603C26.6017 11.0846 21.9147 12.5713 19.0904 12.7481C16.1466 12.932 7.06789 19.9334 4.56754 22.5186C2.47795 24.6766 2.0396 28.8916 2.0396 32.0469C2.0396 40.583 5.69561 52.7966 11.9286 55.3246C18.6602 58.0518 24.3905 58.205 32.9542 56.5252ZM11.2839 52.7415C4.7014 47.377 3.64996 31.3562 7.08935 25.7894C9.17893 22.4072 16.2437 16.4419 21.2669 15.6112C30.8728 14.0213 30.4365 9.88911 34.2897 11.1684C36.5704 11.9256 37.7669 17.4913 30.2342 19.2795C28.2969 19.7403 23.524 23.1725 23.524 23.1725C23.524 23.1725 49.159 21.2546 54.5194 21.5274C62.3658 21.9249 62.1808 30.0738 56.1788 30.2628C53.0224 30.363 36.6797 30.2628 36.6797 30.2628C36.6797 30.2628 39.222 31.2397 39.222 34.4716C39.222 38.2952 35.1807 38.5333 35.1807 38.5333C35.1807 38.5333 38.2697 39.4131 38.2697 42.1311C38.2697 45.9352 32.4597 47.188 32.4597 47.188C32.4597 47.188 36.1882 48.1382 36.1882 51.0872C36.1882 53.1308 34.8885 54.6635 32.6947 55.0947C24.5479 56.6928 15.9606 56.5507 11.2839 52.7415Z" fill="white"/>
<path d="M30.5523 48.2206L31.9787 47.1865C31.4086 46.7594 30.6954 46.6481 30.022 46.7155C29.3445 46.7932 28.7447 47.0486 28.2573 47.302C27.7638 47.5595 27.3643 47.8231 26.928 48.098C26.4958 48.3892 26.0165 48.6651 25.4433 49.0943C26.5826 49.9505 28.1736 49.6828 29.2056 49.1045C29.7349 48.8265 30.1436 48.52 30.5523 48.2206ZM32.7655 39.8163L34.192 38.7802C33.6218 38.3531 32.9086 38.2437 32.2352 38.3112C31.5578 38.3888 30.958 38.6443 30.4706 38.8977C29.977 39.1552 29.5775 39.4168 29.1412 39.6937C28.709 39.9849 28.2298 40.2587 27.6565 40.6879C28.7958 41.5442 30.3868 41.2764 31.4188 40.7001C31.9481 40.4212 32.3568 40.1157 32.7655 39.8163ZM34.3289 31.7849L35.7553 30.7488C35.1852 30.3227 34.4719 30.2113 33.7986 30.2798C33.1201 30.3575 32.5213 30.6129 32.0329 30.8663C31.5394 31.1238 31.1409 31.3864 30.7046 31.6623C30.2713 31.9525 29.7921 32.2274 29.2189 32.6575C30.3582 33.5128 31.9501 33.2451 32.9822 32.6688C33.5104 32.3909 33.9181 32.0843 34.3289 31.7849Z" fill="white"/>
</svg>
