<svg width="66" height="66" viewBox="0 0 66 66" fill="none" xmlns="http://www.w3.org/2000/svg">
<path d="M53.7142 23.62C53.7142 12.0246 44.6774 2.625 33.5316 2.625C22.3837 2.625 13.3489 12.0246 13.3489 23.62C13.3489 34.6217 21.4876 47.1562 31.8446 48.4079C31.1181 48.5908 31.1814 49.6718 32.053 49.6718H31.2949C31.0512 49.6941 30.8246 49.8067 30.6597 49.9875C30.4948 50.1681 30.4033 50.404 30.4033 50.6487C30.4033 50.8934 30.4948 51.1292 30.6597 51.3099C30.8246 51.4907 31.0512 51.6033 31.2949 51.6255H32.7928C32.6886 53.2747 32.2339 55.02 30.9178 56.1102C28.7322 57.9168 25.9202 56.8429 23.3779 56.7672C20.2982 56.6732 17.6977 57.9863 15.4692 60.0278C14.6947 60.7359 13.8323 61.7741 13.1282 62.5588C12.3261 63.4529 13.3857 64.5248 14.2103 63.5449C15.7911 61.6606 16.8404 60.3476 18.9464 59.1562C21.5847 57.6634 24.0176 58.4083 26.8776 58.5636C30.1545 58.7393 33.1147 57.179 34.0466 53.8122C34.1958 53.2717 34.2775 52.4082 34.3112 51.6266H35.7315C35.9751 51.6043 36.2017 51.4917 36.3666 51.3109C36.5316 51.1303 36.6229 50.8944 36.6229 50.6497C36.6229 50.405 36.5316 50.1692 36.3666 49.9885C36.2017 49.8077 35.9751 49.6951 35.7315 49.6729H35.0132C35.8858 49.6729 35.9492 48.5908 35.2206 48.4089C45.5745 47.1562 53.7142 34.6207 53.7142 23.62Z" fill="#D6FF00"/>
</svg>
