<svg width="66" height="66" viewBox="0 0 66 66" fill="none" xmlns="http://www.w3.org/2000/svg">
<path d="M53.1329 23.62C53.1329 12.0246 44.096 2.625 32.9502 2.625C21.8024 2.625 12.7676 12.0246 12.7676 23.62C12.7676 34.6217 20.9062 47.1562 31.2632 48.4079C30.5367 48.5908 30.6001 49.6718 31.4717 49.6718H30.7135C30.4698 49.6941 30.2433 49.8067 30.0783 49.9875C29.9134 50.1681 29.822 50.404 29.822 50.6487C29.822 50.8934 29.9134 51.1292 30.0783 51.3099C30.2433 51.4907 30.4698 51.6033 30.7135 51.6255H32.2115C32.1072 53.2747 31.6525 55.02 30.3365 56.1102C28.1508 57.9168 25.3388 56.8429 22.7966 56.7672C19.7169 56.6732 17.1164 57.9863 14.8878 60.0278C14.1133 60.7359 13.2509 61.7741 12.5469 62.5588C11.7448 63.4529 12.8044 64.5248 13.629 63.5449C15.2097 61.6606 16.2591 60.3476 18.365 59.1562C21.0033 57.6634 23.4362 58.4083 26.2962 58.5636C29.5732 58.7393 32.5333 57.179 33.4652 53.8122C33.6144 53.2717 33.6961 52.4082 33.7299 51.6266H35.1502C35.3938 51.6043 35.6203 51.4917 35.7852 51.3109C35.9502 51.1303 36.0416 50.8944 36.0416 50.6497C36.0416 50.405 35.9502 50.1692 35.7852 49.9885C35.6203 49.8077 35.3938 49.6951 35.1502 49.6729H34.4318C35.3045 49.6729 35.3678 48.5908 34.6393 48.4089C44.9932 47.1562 53.1329 34.6207 53.1329 23.62Z" fill="white"/>
</svg>
