<svg width="66" height="67" viewBox="0 0 66 67" fill="none" xmlns="http://www.w3.org/2000/svg">
<path d="M55.119 37.0116C61.6525 24.7193 61.6351 14.1978 58.6504 9.15313C57.4089 7.05537 55.6483 5.89971 53.6936 5.89971C53.5002 5.89971 53.3071 5.91129 53.1143 5.93445C49.9089 6.31865 48.6643 9.95831 46.9395 14.9948C45.7185 18.5619 44.2021 22.9475 41.7038 27.2574C40.3172 25.4437 38.5689 23.9243 36.6857 23.0292L36.7041 23.019C36.6449 22.9955 36.5907 22.9791 36.5314 22.9546C36.0259 22.7167 35.5003 22.5239 34.9609 22.3783C34.779 22.3323 34.6013 22.2966 34.4235 22.2588C21.0348 18.7274 16.7892 35.814 23.9725 33.6621C26.0651 33.0347 27.4783 29.6127 31.7463 26.1733C34.9579 28.1229 37.071 31.594 36.3373 34.1301C33.8983 42.564 26.5321 46.3988 18.1002 46.3988C16.2006 46.3988 14.247 46.2047 12.2841 45.8236C11.5174 45.6714 10.7592 45.4794 10.0126 45.2483C8.47694 44.7899 6.98993 44.1821 5.57287 43.4336L2.04356 46.4489C2.91555 47.822 3.89913 49.121 4.98431 50.3328C8.90905 54.7316 14.1202 57.9003 20.153 59.0702C29.6159 60.9044 38.8295 57.4139 45.0849 50.5985C48.5468 46.2343 51.8779 44.4155 54.7287 43.8668C54.1769 51.2861 48.4722 61.077 52.3091 61.077C52.4555 61.077 52.6163 61.0624 52.7914 61.0331C59.5884 59.8979 63.5694 51.3577 63.3425 45.9462C63.1003 40.1454 58.586 37.8903 55.119 37.0116ZM42.0717 37.8974C38.9143 47.0579 29.1683 51.7102 19.2364 51.7102C16.454 51.7102 13.638 51.2841 10.9026 50.4728C10.2448 50.1787 9.59909 49.8579 8.9673 49.5113C9.59995 48.8961 10.2038 48.252 10.7769 47.5811C11.1652 47.6792 11.5341 47.7609 11.8958 47.8304C13.9925 48.236 16.0811 48.4424 18.1012 48.4424C23.0804 48.4424 27.4272 47.202 30.8645 44.9295C32.1121 45.3699 33.8727 45.1001 35.527 44.061C37.9548 42.5364 39.1912 39.9799 38.29 38.3491C38.0611 37.9363 37.7045 37.641 37.2763 37.4315C37.6759 36.562 38.0243 35.6556 38.3022 34.6972C38.9092 32.5974 38.2705 30.0796 36.5478 27.7908C35.6916 26.668 34.6656 25.6855 33.5069 24.8787C33.778 24.6968 34.059 24.5162 34.3499 24.3371C34.3845 24.3461 34.4197 24.3533 34.4551 24.3586C37.3387 24.6896 44.3636 31.2465 42.0717 37.8974ZM53.0274 36.6059C47.433 35.8222 43.8945 38.8191 43.8945 38.8191C45.2362 35.1631 44.5751 31.6297 42.9647 29.1539C49.1762 19.0084 49.7168 8.40006 53.3585 7.96375C53.4709 7.95013 53.5826 7.94332 53.6936 7.94332C58.4685 7.94332 61.9171 20.3184 53.0274 36.6059ZM53.0714 58.8853C53.2502 57.6663 53.9256 55.5297 54.4487 53.8744C55.8026 49.5889 57.6194 43.8413 56.4086 39.5426C58.8078 40.5174 61.1487 42.3995 61.301 46.033C61.4839 50.4125 58.3101 57.5263 53.0714 58.8853Z" fill="white"/>
</svg>
