<svg width="65" height="65" viewBox="0 0 65 65" fill="none" xmlns="http://www.w3.org/2000/svg">
<path d="M32.186 2.27905C15.618 2.27905 2.18604 15.7111 2.18604 32.2791C2.18604 48.8471 15.618 62.2791 32.186 62.2791C48.754 62.2791 62.186 48.8471 62.186 32.2791C62.186 15.7111 48.754 2.27905 32.186 2.27905ZM32.186 59.7791C17.022 59.7791 4.68604 47.4431 4.68604 32.2791C4.68604 17.1151 17.022 4.77905 32.186 4.77905C47.35 4.77905 59.686 17.1151 59.686 32.2791C59.686 47.4431 47.35 59.7791 32.186 59.7791Z" fill="white"/>
<path d="M15.045 29.1331C16.847 27.2321 19.002 26.4741 21.251 26.4741C23.5 26.4741 25.656 27.2321 27.458 29.1331C27.937 29.6371 28.896 28.7101 28.712 28.1951C26.853 23.0831 24.052 20.5261 21.251 20.5261C18.45 20.5261 15.648 23.0841 13.791 28.1951C13.607 28.7101 14.565 29.6361 15.045 29.1331ZM36.915 29.1331C38.718 27.2321 40.872 26.4741 43.122 26.4741C45.372 26.4741 47.525 27.2321 49.329 29.1331C49.807 29.6371 50.766 28.7101 50.583 28.1951C48.724 23.0831 45.923 20.5261 43.122 20.5261C40.321 20.5261 37.519 23.0841 35.661 28.1951C35.476 28.7101 36.435 29.6361 36.915 29.1331ZM51.829 35.6231C47.345 34.9611 40.721 34.2791 32.185 34.2791H32.184C23.649 34.2791 17.025 34.9611 12.543 35.6231C10.797 35.8811 10.186 36.8861 10.186 37.6891C10.186 47.2791 13.678 50.2791 27.997 50.2791H36.378C50.694 50.2791 54.186 47.2791 54.186 37.6891C54.186 36.8861 53.573 35.8811 51.829 35.6231ZM32.186 48.2791C25.81 48.2791 16.719 48.2791 16.963 46.2261C17.007 45.8591 17.115 45.4231 17.252 44.9501C17.41 44.4241 17.532 44.2791 18.63 44.2791H45.742C46.84 44.2791 46.965 44.4241 47.119 44.9501C47.26 45.4241 47.365 45.8591 47.408 46.2261C47.653 48.2791 38.562 48.2791 32.186 48.2791ZM49.12 38.4481L48.007 41.3571C47.812 41.8641 47.245 42.2791 46.743 42.2791H17.629C17.129 42.2791 16.561 41.8641 16.367 41.3571L15.252 38.4481C15.058 37.9411 15.305 37.4651 15.801 37.3901C15.801 37.3901 23.193 36.2791 32.186 36.2791C41.178 36.2791 48.571 37.3901 48.571 37.3901C49.066 37.4671 49.313 37.9411 49.12 38.4481Z" fill="white"/>
</svg>
