<svg width="64" height="65" viewBox="0 0 64 65" fill="none" xmlns="http://www.w3.org/2000/svg">
<path d="M32 2.67444C15.432 2.67444 2 16.1064 2 32.6744C2 49.2424 15.432 62.6744 32 62.6744C48.568 62.6744 62 49.2424 62 32.6744C62 16.1064 48.568 2.67444 32 2.67444ZM32 60.1744C16.836 60.1744 4.5 47.8384 4.5 32.6744C4.5 17.5104 16.836 5.17444 32 5.17444C47.164 5.17444 59.5 17.5104 59.5 32.6744C59.5 47.8384 47.164 60.1744 32 60.1744Z" fill="#D6FF00"/>
<path d="M14.859 29.5284C16.661 27.6274 18.816 26.8694 21.065 26.8694C23.314 26.8694 25.47 27.6274 27.272 29.5284C27.751 30.0324 28.71 29.1054 28.526 28.5904C26.667 23.4784 23.866 20.9214 21.065 20.9214C18.264 20.9214 15.462 23.4794 13.605 28.5904C13.421 29.1054 14.379 30.0314 14.859 29.5284ZM36.729 29.5284C38.532 27.6274 40.686 26.8694 42.936 26.8694C45.186 26.8694 47.339 27.6274 49.143 29.5284C49.621 30.0324 50.58 29.1054 50.397 28.5904C48.538 23.4784 45.737 20.9214 42.936 20.9214C40.135 20.9214 37.333 23.4794 35.475 28.5904C35.29 29.1054 36.249 30.0314 36.729 29.5284ZM51.643 36.0184C47.159 35.3564 40.535 34.6744 31.999 34.6744H31.998C23.463 34.6744 16.839 35.3564 12.357 36.0184C10.611 36.2764 10 37.2814 10 38.0844C10 47.6744 13.492 50.6744 27.811 50.6744H36.192C50.508 50.6744 54 47.6744 54 38.0844C54 37.2814 53.387 36.2764 51.643 36.0184ZM32 48.6744C25.624 48.6744 16.533 48.6744 16.777 46.6214C16.821 46.2544 16.929 45.8184 17.066 45.3454C17.224 44.8194 17.346 44.6744 18.444 44.6744H45.556C46.654 44.6744 46.779 44.8194 46.933 45.3454C47.074 45.8194 47.179 46.2544 47.222 46.6214C47.467 48.6744 38.376 48.6744 32 48.6744ZM48.934 38.8434L47.821 41.7524C47.626 42.2594 47.059 42.6744 46.557 42.6744H17.443C16.943 42.6744 16.375 42.2594 16.181 41.7524L15.066 38.8434C14.872 38.3364 15.119 37.8604 15.615 37.7854C15.615 37.7854 23.007 36.6744 32 36.6744C40.992 36.6744 48.385 37.7854 48.385 37.7854C48.88 37.8624 49.127 38.3364 48.934 38.8434Z" fill="#D6FF00"/>
</svg>
