<svg width="65" height="65" viewBox="0 0 65 65" fill="none" xmlns="http://www.w3.org/2000/svg">
<path d="M41.7018 52.5547C37.9168 53.5517 35.9288 55.5997 34.8838 57.3607V53.2187C37.4738 52.4827 39.6448 50.2087 39.6448 46.3927C39.6448 45.6467 39.5818 44.8667 39.4818 44.0727C39.9638 44.7067 40.4638 45.3027 40.9858 45.8317C42.5708 47.4347 44.3178 48.1057 45.9668 48.1057C51.1948 48.1057 55.4378 41.3727 50.4148 36.2897C49.8687 35.745 49.2882 35.2359 48.6768 34.7657C49.4368 34.8698 50.2027 34.9253 50.9698 34.9317C60.3138 34.9317 60.3138 21.4377 50.9698 21.4377C50.2318 21.4377 49.4608 21.5017 48.6768 21.6047C49.2879 21.1344 49.8681 20.6254 50.4138 20.0807C55.4358 14.9977 51.1938 8.2657 45.9678 8.2657C44.3178 8.2657 42.5708 8.9357 40.9858 10.5397C40.4473 11.0928 39.9449 11.6801 39.4818 12.2977C39.5818 11.5047 39.6448 10.7227 39.6448 9.9767C39.6438 5.2477 36.3098 2.8837 32.9768 2.8837C29.6438 2.8827 26.3098 5.2467 26.3098 9.9757C26.3098 10.7217 26.3728 11.5027 26.4738 12.2957C26.0104 11.678 25.5077 11.0908 24.9688 10.5377C23.3838 8.9337 21.6368 8.2637 19.9878 8.2637C14.7598 8.2637 10.5158 14.9967 15.5388 20.0787C16.0846 20.6234 16.6648 21.1324 17.2758 21.6027C16.5161 21.4986 15.7506 21.4432 14.9838 21.4367C5.64082 21.4367 5.64082 34.9297 14.9828 34.9297H14.9838C15.7218 34.9297 16.4938 34.8667 17.2778 34.7637C16.6508 35.2527 16.0608 35.7607 15.5398 36.2877C11.5298 40.3447 13.4278 45.4497 17.0138 47.3477C14.7932 47.6743 12.5942 48.1341 10.4288 48.7247C10.4288 48.7247 17.4238 55.7877 22.5088 57.1257C26.6358 58.2137 29.4198 57.4927 31.0728 56.6467V62.8837H34.8828V61.4027C36.3628 62.3877 39.3538 63.6147 44.2168 62.3337C49.3008 60.9947 56.2958 53.9317 56.2958 53.9317C56.2958 53.9317 46.7848 51.2157 41.7018 52.5547ZM26.4248 47.8037C25.9661 47.6279 25.4985 47.4763 25.0238 47.3497C24.4988 47.2168 23.9647 47.1229 23.4258 47.0687C23.9862 46.7177 24.5037 46.3026 24.9678 45.8317C25.5067 45.2783 26.0094 44.6907 26.4728 44.0727C26.3708 44.842 26.3161 45.6167 26.3088 46.3927C26.3098 46.8917 26.3548 47.3577 26.4248 47.8037ZM32.9768 51.5577C30.6068 51.5577 28.2148 49.9597 28.2148 46.3927C28.2148 45.7857 28.2628 45.1057 28.3628 44.3177L29.2558 37.2647L24.9648 42.8957C24.5515 43.4481 24.1029 43.9732 23.6218 44.4677C22.5168 45.5857 21.2608 46.1777 19.9878 46.1777C18.1228 46.1777 16.2968 44.8927 15.5428 43.0537C15.1068 41.9867 14.6998 39.8657 16.8868 37.6527C17.3178 37.2177 17.8248 36.7727 18.4408 36.2917L24.0218 31.9397L17.0338 32.8547C16.2618 32.9557 15.5908 33.0047 14.9838 33.0047C11.4588 33.0047 9.88082 30.5847 9.88082 28.1867C9.88082 25.7877 11.4598 23.3677 14.9848 23.3677C15.5898 23.3677 16.2598 23.4167 17.0328 23.5167L24.0118 24.4277L18.4398 20.0787C17.8931 19.6593 17.374 19.205 16.8858 18.7187C14.6988 16.5057 15.1058 14.3847 15.5428 13.3167C16.2958 11.4777 18.1228 10.1937 19.9878 10.1937C21.2598 10.1937 22.5168 10.7847 23.6218 11.9037C24.0478 12.3327 24.4868 12.8477 24.9648 13.4747L29.2558 19.1047L28.3628 12.0527C28.2628 11.2637 28.2148 10.5857 28.2148 9.9767C28.2148 6.4087 30.6068 4.8117 32.9768 4.8117C35.3468 4.8117 37.7398 6.4087 37.7398 9.9757C37.7398 10.5847 37.6908 11.2647 37.5918 12.0527L36.6968 19.1187L40.9898 13.4727C41.4638 12.8507 41.9018 12.3367 42.3328 11.9017C43.4368 10.7837 44.6948 10.1927 45.9668 10.1927C47.8308 10.1927 49.6578 11.4767 50.4098 13.3157C50.8478 14.3827 51.2538 16.5047 49.0678 18.7167C48.6368 19.1527 48.1288 19.5977 47.5128 20.0777L41.9368 24.4297L48.9208 23.5157C49.5996 23.4219 50.2836 23.3718 50.9688 23.3657C54.4938 23.3657 56.0728 25.7867 56.0728 28.1847C56.0728 30.5827 54.4948 33.0037 50.9688 33.0037C50.2836 32.9976 49.5996 32.9475 48.9208 32.8537L41.9428 31.9407L47.5118 36.2917C48.1308 36.7757 48.6398 37.2207 49.0668 37.6527C51.2538 39.8667 50.8468 41.9867 50.4098 43.0547C49.6568 44.8927 47.8308 46.1777 45.9658 46.1777C44.6938 46.1777 43.4368 45.5857 42.3318 44.4667C41.9048 44.0367 41.4668 43.5227 40.9878 42.8957L36.6978 37.2647L37.5908 44.3177C37.6908 45.1057 37.7388 45.7857 37.7388 46.3927C37.7398 49.9597 35.3478 51.5577 32.9768 51.5577Z" fill="white"/>
<path d="M32.9768 37.1847C37.9474 37.1847 41.9768 33.1553 41.9768 28.1847C41.9768 23.2141 37.9474 19.1847 32.9768 19.1847C28.0062 19.1847 23.9768 23.2141 23.9768 28.1847C23.9768 33.1553 28.0062 37.1847 32.9768 37.1847Z" fill="white"/>
</svg>
