<svg width="67" height="66" viewBox="0 0 67 66" fill="none" xmlns="http://www.w3.org/2000/svg">
<path d="M40.4271 22.3233C39.5432 20.5576 39.2356 18.2126 42.1253 16.3989C46.9073 13.3989 49.3188 8.43703 47.6154 5.09982C46.6284 3.1584 44.9414 2.04361 42.9897 2.04361C41.0054 2.04361 39.0241 3.18088 37.4117 5.25105C34.5905 8.87027 31.6396 11.4278 28.7857 13.9037C25.9297 16.3805 23.2322 18.7184 21.257 21.7184C19.0928 25.0056 16.1143 30.2832 14.6868 34.1057C12.3694 40.3285 16.8285 47.6793 20.9178 50.007L20.9607 50.0315L21.0067 50.053C24.5707 51.7788 28.5966 53.7621 29.2812 54.1555C31.6345 56.2339 37.5762 61.909 37.6355 61.9672L37.6651 61.9948L37.6968 62.0214C38.7135 62.8919 39.9029 63.3517 41.1382 63.3517C43.2738 63.3517 45.3041 61.9325 46.0776 59.9011C46.8195 57.9515 46.2544 55.9253 44.5664 54.4815L40.2452 50.614C41.1471 50.3126 41.9235 49.7204 42.4523 48.93C42.9816 48.1443 43.2605 47.193 43.2748 46.21L43.6744 46.1732C46.1052 45.9351 47.827 44.2645 48.2142 41.9389C49.8328 41.757 51.158 40.9273 51.9653 39.5897C52.5548 38.7376 52.8624 37.7249 52.8787 36.5795C52.9268 33.2096 51.5432 28.5522 40.4271 22.3233ZM51.3859 36.558C51.3716 37.4756 51.0998 38.3636 50.7054 38.8009C50.3324 39.2158 49.5139 39.5703 48.628 39.6572L42.7537 40.2049C41.5316 40.3316 40.8286 40.0434 39.957 39.3854L35.411 35.6773C33.7363 34.3254 33.7976 32.3758 34.7142 30.883C34.2183 31.3933 33.8448 32.0097 33.6219 32.6854C30.816 34.0546 27.396 34.0526 24.5227 32.3584C24.1893 32.1589 23.8688 31.9385 23.5632 31.6984C24.1854 32.6666 25.026 33.4755 26.0176 34.0597C28.3718 35.4463 31.1879 35.4014 33.4543 34.2079C33.5422 35.0325 33.9396 35.8387 34.7612 36.5018L39.3082 40.2089C40.1788 40.868 40.8828 41.1562 42.1059 41.0295L46.7939 40.5993C46.8508 41.433 46.6649 42.2652 46.2585 42.9954C45.7404 43.4695 45.0477 43.7996 44.172 43.8864L38.2966 44.4341C37.0745 44.5598 36.3705 44.2727 35.501 43.6146L30.9519 39.9045C29.2772 38.5536 29.3405 36.604 30.255 35.1102C28.7898 36.6316 28.2942 39.1074 30.303 40.728L34.8501 44.4351C35.7227 45.0952 36.4165 45.6235 37.6498 45.5438L41.6297 45.2832C41.9455 45.9964 41.8198 47.0356 41.3119 47.9246C40.8664 48.3292 40.2758 48.6122 39.5258 48.6858L34.5006 48.8176C33.4482 48.8452 32.504 48.4283 31.7581 47.8643L28.2053 45.2781C26.7727 44.1204 26.8258 42.4508 27.6085 41.1715C26.3548 42.4743 25.709 44.6752 27.4287 46.0639L31.2881 48.9474C32.033 49.5114 32.8851 49.8364 33.9376 49.8578L37.2564 49.9242L43.5865 55.5901C43.6519 55.6463 43.6999 55.7056 43.7602 55.7638C46.5834 58.7158 42.0875 63.316 38.8044 59.9716C36.2183 57.3415 33.7179 54.5765 28.7438 51.5295C25.8776 49.774 22.8756 48.1238 22.8756 48.1238C19.3146 46.0976 15.446 40.0342 17.461 34.6279C18.8211 30.9749 21.5748 26.0202 23.7349 22.7392C27.4604 17.0784 33.9294 13.4776 39.7517 6.0082C40.5824 4.94348 42.2265 3.24423 44.0994 3.70608C45.0017 3.92883 45.7415 4.69723 46.282 5.75888C47.6001 8.33996 45.4942 12.5447 41.3232 15.1605C37.4679 17.5781 37.9788 21.0338 39.3092 23.388C50.5654 29.6077 51.4217 33.9995 51.3859 36.558Z" fill="white"/>
<path d="M43.4812 32.1335C43.4812 32.1335 39.5135 28.1025 35.9576 29.954C39.722 29.1233 43.4393 34.2129 43.4393 34.2129C43.4393 34.2129 44.8524 32.6915 47.1035 32.8662C45.4512 31.9956 43.4812 32.1335 43.4812 32.1335Z" fill="white"/>
</svg>
