<svg width="66" height="67" viewBox="0 0 66 67" fill="none" xmlns="http://www.w3.org/2000/svg">
<path d="M55.6996 17.1976C55.5586 15.2214 56.3433 13.3638 54.782 11.8004C53.9635 10.984 53.0623 10.8092 52.1069 10.8092C51.4039 10.8092 50.6713 10.9022 49.9182 10.9022C49.7404 10.9022 49.5622 10.8951 49.3838 10.8808C46.6924 5.94954 46.3726 0.791488 43.5054 3.65662C40.3071 6.85589 38.3187 15.6567 41.615 21.3584C39.1242 19.6015 36.1505 18.6591 33.1024 18.6608C24.9086 18.6608 18.2689 25.3005 18.2689 33.4933C18.2689 36.6711 19.2764 39.6088 20.9787 42.0233C15.2781 38.7116 6.46092 40.7011 3.26064 43.8993C0.392442 46.7685 5.55152 47.0873 10.4848 49.7798C10.6269 51.7559 9.839 53.6136 11.4024 55.1769C12.2219 55.9944 13.1221 56.1691 14.0775 56.1691C14.7805 56.1691 15.5111 56.0761 16.2631 56.0761C16.4415 56.0761 16.6211 56.0833 16.8016 56.0976C19.491 61.0268 19.8129 66.1848 22.68 63.3197C25.8783 60.1204 27.8657 51.3074 24.5601 45.6078C27.056 47.3775 30.0407 48.3271 33.1004 48.3247C41.2932 48.3247 47.9329 41.6851 47.9329 33.4923C47.9329 30.3175 46.9274 27.3829 45.2292 24.9694C50.9308 28.2616 59.7265 26.2691 62.9217 23.076C65.7909 20.2088 60.6308 19.889 55.6996 17.1976ZM52.1059 12.764C52.8447 12.764 53.1205 12.905 53.3995 13.1829C53.8501 13.6345 53.8603 14.0974 53.7765 15.4064C53.7203 16.2871 53.656 17.2875 53.8981 18.3921C54.4836 21.063 56.1941 22.6479 57.9526 23.5869C56.1072 24.2438 54.1629 24.5801 52.204 24.5811C49.0374 24.5811 46.3542 23.6421 44.6467 21.9346C41.3402 18.6271 41.5159 12.6781 42.9873 8.61644C43.9253 10.3791 45.5112 12.0967 48.1914 12.6853C48.7227 12.8008 49.2857 12.857 49.9172 12.857C50.3627 12.857 50.7745 12.8314 51.173 12.8069C51.5081 12.7834 51.8229 12.764 52.1059 12.764ZM14.0795 54.2134C13.3418 54.2134 13.0659 54.0714 12.7859 53.7934C12.3353 53.3418 12.3251 52.8799 12.4089 51.572C12.4661 50.6892 12.5294 49.6888 12.2873 48.5843C11.7008 45.9133 9.99023 44.3285 8.23069 43.3894C10.0761 42.7324 12.0204 42.3961 13.9794 42.3952C17.147 42.3952 19.8302 43.3353 21.5377 45.0427C24.8432 48.3503 24.6685 54.2982 23.1971 58.3599C22.2601 56.5972 20.6732 54.8806 17.9951 54.2941C17.4261 54.1728 16.8457 54.1143 16.2641 54.1194C15.8186 54.1194 15.4079 54.147 15.0094 54.1715C14.6773 54.194 14.3626 54.2134 14.0795 54.2134ZM39.3129 45.0509C40.7394 37.4221 35.1051 35.1098 33.2179 33.6465C34.1377 35.0321 34.5498 36.6933 34.3842 38.3481C34.2186 40.0029 33.4856 41.5494 32.3095 42.7253C31.5507 43.4861 30.6308 44.0668 29.6176 44.4243C28.6043 44.7819 27.5238 44.9073 26.4556 44.7913C24.3977 43.5831 22.7064 41.8388 21.5622 39.7447C29.3412 41.1619 31.5963 35.263 33.0626 33.5127L33.0595 33.5014C30.2475 35.4633 26.3575 35.2028 23.8551 32.6993C23.0952 31.9396 22.5162 31.0185 22.1612 30.0043C21.8062 28.9902 21.6842 27.9091 21.8043 26.8413C23.0116 24.7887 24.7525 23.1016 26.8418 21.9592C25.3919 29.7382 31.2846 31.9851 33.0472 33.4453V33.4432C32.0944 32.0561 31.6572 30.3792 31.8116 28.7036C31.966 27.0279 32.7021 25.459 33.8923 24.2695C34.6535 23.5068 35.5765 22.9253 36.5931 22.5678C37.6096 22.2103 38.6935 22.0861 39.7646 22.2044C41.8238 23.4191 43.5139 25.171 44.6539 27.2725C36.8729 25.8185 34.5891 31.6551 33.1198 33.4534L33.1096 33.482C33.115 33.4908 33.1201 33.498 33.1249 33.5035C35.94 31.5294 39.8392 31.7848 42.3477 34.2933C43.1062 35.0515 43.6845 35.9705 44.0399 36.9824C44.3952 37.9943 44.5184 39.0731 44.4005 40.1391C43.1836 42.2091 41.4245 43.9076 39.3129 45.0509Z" fill="white"/>
</svg>
