<svg width="65" height="65" viewBox="0 0 65 65" fill="none" xmlns="http://www.w3.org/2000/svg">
<path d="M60.2837 2.32302C57.7627 0.783018 45.8827 7.23802 38.5607 13.565C36.573 13.3178 34.5717 13.1952 32.5687 13.198C30.6965 13.1976 28.8257 13.3044 26.9657 13.518C19.6397 7.20502 7.8117 0.787018 5.2967 2.32302C2.2797 4.16502 1.9497 21.533 4.5087 31.177C3.2187 35.567 2.9437 40.018 2.9437 43.577C2.9437 48.072 16.2097 62.093 32.5687 62.093C48.9277 62.093 62.1937 48.072 62.1937 43.577C62.1937 40.232 61.9517 36.098 60.8517 31.968C63.6487 22.517 63.3857 4.21702 60.2837 2.32302ZM45.8927 31.618C45.3417 32.247 44.9027 33.781 44.9027 36.228C44.9027 42.811 48.0767 42.811 48.0767 36.228C48.0767 33.403 47.4927 31.798 46.8247 31.397C52.1197 30.419 54.9537 34.823 54.9537 34.823C54.9537 34.823 54.7107 40.518 48.9647 42.048C43.2197 43.576 40.1417 38.765 40.1417 38.765C40.1417 38.765 40.3887 33.244 45.8927 31.618ZM24.9977 38.765C24.9977 38.765 21.9187 43.577 16.1727 42.048C10.4287 40.519 10.1857 34.823 10.1857 34.823C10.1857 34.823 13.0217 30.42 18.3137 31.397C17.6467 31.798 17.0617 33.403 17.0617 36.228C17.0617 42.811 20.2367 42.811 20.2367 36.228C20.2367 33.781 19.7977 32.247 19.2467 31.619C24.7497 33.244 24.9977 38.765 24.9977 38.765ZM10.3247 11.412C11.0557 10.964 15.1947 12.776 19.2667 15.253C14.6967 16.897 11.3877 19.407 9.0017 22.357C8.8767 17.114 9.4747 11.93 10.3247 11.412ZM32.5687 61.044C20.5627 61.044 8.9327 50.858 8.9317 50.858C8.9317 50.858 19.8297 47.247 23.9207 44.062C26.5017 42.052 29.3557 35.391 32.5687 35.391C35.7817 35.391 38.6367 42.052 41.2177 44.062C45.3077 47.247 56.2067 50.858 56.2067 50.858C56.2057 50.859 44.5747 61.044 32.5687 61.044ZM56.5627 22.901C54.1957 19.777 50.8477 17.104 46.1457 15.357C50.2727 12.828 54.5137 10.959 55.2557 11.413C56.1367 11.947 56.7457 17.477 56.5627 22.901Z" fill="white"/>
<path d="M37.8577 53.928C36.7797 53.847 35.7597 53.501 34.9417 52.839C34.1237 52.201 33.5197 51.289 33.3457 50.285L33.2907 49.961C33.8737 49.812 34.5237 49.469 35.1957 48.806C36.7237 47.296 37.1687 45.549 36.5927 44.843C35.7847 43.855 33.3087 43.779 32.5687 43.779C31.8297 43.779 29.3517 43.855 28.5447 44.843C27.9717 45.549 28.4147 47.296 29.9437 48.806C30.6147 49.469 31.2647 49.812 31.8467 49.961L31.7907 50.285C31.6137 51.288 31.0147 52.202 30.1937 52.838C29.3927 53.499 28.3207 53.844 27.3037 53.925C26.1807 53.975 25.1247 53.737 24.1547 53.145C23.1364 52.5308 22.3686 51.5756 21.9877 50.449C22.0437 51.72 22.7257 52.959 23.7057 53.813C24.6757 54.667 26.0027 55.169 27.2537 55.225C28.5327 55.297 29.7647 54.942 30.8567 54.245C30.8467 54.352 30.8347 54.458 30.8347 54.568C30.8347 55.974 31.6117 57.114 32.5687 57.114C33.5257 57.114 34.3037 55.974 34.3037 54.568C34.3037 54.457 34.2907 54.35 34.2817 54.243C35.3637 54.939 36.6367 55.296 37.8587 55.223C39.1735 55.1639 40.4309 54.6669 41.4307 53.811C42.4087 52.957 43.0917 51.719 43.1497 50.449C42.7692 51.5763 42.0014 52.5323 40.9827 53.147C40.0277 53.739 38.9237 53.98 37.8577 53.928Z" fill="white"/>
</svg>
