<svg width="64" height="65" viewBox="0 0 64 65" fill="none" xmlns="http://www.w3.org/2000/svg">
<path fill-rule="evenodd" clip-rule="evenodd" d="M61.014 38.7554C58.524 31.6854 55.285 28.5334 50.512 28.5334C48.791 28.5334 47.059 28.9364 45.384 29.3264C44.532 29.5254 43.653 29.7294 42.809 29.8714C42.715 29.8874 42.59 29.8964 42.484 29.9094C39.708 26.1904 36.405 19.7474 38.127 9.94137C40.592 8.49437 43.413 7.21637 46.614 6.18937C46.3095 6.59536 46.0544 7.03612 45.854 7.50237C42.158 16.2504 54.879 28.3524 54.879 28.3524C54.879 28.3524 53.599 19.2014 57.029 11.0234C59.157 5.94537 53.742 2.48837 53.742 2.48837L53.588 2.50837L53.586 2.49737C31.343 6.16237 23.091 20.7254 20.648 28.5864C20.111 28.5784 19.442 28.5114 18.671 28.4324C17.58 28.3214 16.343 28.1944 15.02 28.1944C7.583 28.1944 3.385 32.6644 2.186 41.8614C1.47 47.3494 2.823 52.2584 6.098 56.0574C9.569 60.0844 15.042 62.4884 20.737 62.4884C26.175 62.4884 31.361 60.3614 34.905 56.7484C37.834 58.8324 41.397 59.8494 44.816 59.8494C45.821 59.8494 46.835 59.7644 47.825 59.5994C53.036 58.7274 57.614 55.6724 60.072 51.4274C62.271 47.6314 62.596 43.2484 61.014 38.7554ZM35.954 11.3094C34.846 20.1294 37.574 26.2304 40.214 30.0884C38.611 30.2044 36.67 30.4214 34.833 31.1694C31.677 27.9574 27.566 28.2184 23.729 28.4624L22.661 28.5244C24.234 23.7974 28.021 16.7204 35.954 11.3094ZM20.737 60.5214C15.591 60.5214 10.662 58.3674 7.553 54.7614C4.657 51.4014 3.465 47.0304 4.105 42.1184C5.487 31.5214 10.665 30.1604 15.021 30.1604C16.247 30.1604 17.432 30.2824 18.478 30.3894C19.089 30.4524 19.624 30.4974 20.123 30.5254C19.9767 31.1493 19.8704 31.7819 19.805 32.4194C17.851 32.1944 15.917 31.8914 13.859 31.5784C14.721 32.3064 15.736 32.7964 16.772 33.1754C17.811 33.5604 18.897 33.8054 19.999 33.9314C21.099 34.0554 22.222 34.0524 23.322 33.8804C24.422 33.7184 25.51 33.3914 26.472 32.8154C25.357 32.7954 24.31 32.7864 23.265 32.7314C22.748 32.6984 22.239 32.6434 21.726 32.6004C21.766 32.0774 21.889 31.3594 22.089 30.5174C22.6766 30.4919 23.264 30.4605 23.851 30.4234C24.845 30.3604 25.872 30.2954 26.85 30.2954C31.141 30.2954 35.488 31.2124 37.378 42.1594C38.187 46.8384 37.156 51.0744 34.4 54.4114C31.237 58.2374 26.13 60.5214 20.737 60.5214ZM58.405 50.4274C56.233 54.1774 52.161 56.8794 47.51 57.6564C46.622 57.8054 45.716 57.8824 44.816 57.8824C41.848 57.8824 38.758 57.0154 36.201 55.2414C39.081 51.5144 40.159 46.8934 39.282 41.8204C38.568 37.6894 37.477 34.8044 36.137 32.7924C37.811 32.2174 39.597 32.0964 41.118 31.9994C41.294 31.9884 41.445 31.9764 41.609 31.9644C42.0675 32.5282 42.5417 33.0791 43.031 33.6164L38.242 34.7444C39.17 35.1184 40.162 35.2304 41.136 35.2374C42.1169 35.246 43.0948 35.129 44.046 34.8894C44.996 34.6534 45.929 34.2994 46.788 33.8044C47.648 33.3184 48.447 32.6914 49.051 31.8874L46.346 32.7434C45.951 32.8564 45.556 32.9544 45.163 33.0624L44.808 32.6694C44.5025 32.3361 44.2009 31.9994 43.903 31.6594C44.5429 31.5308 45.1806 31.3918 45.816 31.2424C47.458 30.8604 49.009 30.4994 50.511 30.4994C53.249 30.4994 56.422 31.5594 59.191 39.4174C60.573 43.3444 60.302 47.1524 58.405 50.4274Z" fill="white"/>
</svg>
