<svg width="65" height="65" viewBox="0 0 65 65" fill="none" xmlns="http://www.w3.org/2000/svg">
<path d="M39.6918 15.8837C46.1668 15.8837 51.4168 21.1377 51.4168 27.6197C51.4168 27.9337 51.3938 28.2407 51.3698 28.5497C48.7422 28.7477 46.2487 29.789 44.2608 31.5187C45.748 30.6591 47.4355 30.2067 49.1532 30.2072C50.8709 30.2077 52.5582 30.6611 54.0448 31.5217C56.9888 33.2217 58.9768 36.3957 58.9768 40.0437C58.9768 44.7137 55.7188 48.6217 51.3538 49.6237C50.6305 49.7946 49.89 49.8819 49.1468 49.8837H14.9708C14.1189 49.8837 13.2727 49.7459 12.4648 49.4757C10.8682 48.9476 9.47854 47.9299 8.49335 46.567C7.50816 45.2041 6.97752 43.5654 6.97681 41.8837C6.97573 40.7415 7.22018 39.6123 7.69362 38.5728C8.16705 37.5333 8.85839 36.6077 9.72081 35.8587C10.4866 35.1863 11.3753 34.6685 12.3378 34.3337C13.1839 34.0362 14.074 33.883 14.9708 33.8807C16.1942 33.8808 17.4012 34.1626 18.4982 34.7041C19.5952 35.2457 20.5528 36.0325 21.2968 37.0037L21.3688 37.0017C20.5129 35.4237 19.2825 34.0802 17.7857 33.0891C16.289 32.098 14.5717 31.4897 12.7848 31.3177C14.1658 26.4977 18.5988 22.9607 23.8608 22.9607C24.4238 22.9607 24.9698 23.0137 25.5088 23.0917C26.5768 23.2457 27.5988 23.5387 28.5498 23.9627C30.3259 24.7572 31.8725 25.9874 33.046 27.5393C34.2196 29.0912 34.9821 30.9144 35.2628 32.8397L35.2648 32.7717C35.2648 28.2447 32.9448 24.2597 29.4308 21.9377C31.4318 18.3287 35.2758 15.8837 39.6918 15.8837ZM39.6918 11.8837C37.0436 11.8855 34.4387 12.5555 32.1183 13.8315C29.7978 15.1075 27.8368 16.9484 26.4168 19.1837L26.0828 19.1317C25.3476 19.0212 24.6053 18.9637 23.8618 18.9597C16.9748 18.9597 10.8388 23.5887 8.93981 30.2157L8.48881 31.7907C7.99747 32.1074 7.52947 32.4607 7.08481 32.8507C5.7955 33.9763 4.76189 35.3647 4.05336 36.9227C3.34483 38.4807 2.97776 40.1722 2.97681 41.8837C2.97681 47.0707 6.28581 51.6477 11.2108 53.2737C12.4168 53.6767 13.6868 53.8837 14.9708 53.8837H49.1468C50.197 53.882 51.2436 53.7595 52.2658 53.5187C58.5648 52.0717 62.9768 46.5297 62.9768 40.0437C62.9711 37.4926 62.2624 34.9924 60.9285 32.8177C59.5946 30.6431 57.6872 28.8781 55.4158 27.7167V27.6197C55.4158 18.9437 48.3628 11.8837 39.6918 11.8837Z" fill="white"/>
</svg>
