<svg width="65" height="65" viewBox="0 0 65 65" fill="none" xmlns="http://www.w3.org/2000/svg">
<path d="M47.3844 26.5287L47.3544 26.5257L47.3194 26.5217L47.2834 26.5187C46.7376 26.4728 46.1879 26.5102 45.6534 26.6297C45.4507 25.4319 44.9228 24.3128 44.1274 23.3947C43.5978 22.7824 42.9517 22.2817 42.2267 21.9217C41.5017 21.5616 40.7122 21.3495 39.9044 21.2977L39.8624 21.2947C39.7226 21.2848 39.5825 21.2798 39.4424 21.2797C37.1904 21.2797 35.1724 22.5247 34.0194 24.4047L32.5194 21.5897L35.0054 12.9457C35.2123 12.1964 35.2643 11.4127 35.1582 10.6426C35.0521 9.87254 34.7902 9.13215 34.3884 8.46668C33.5344 7.03568 32.0784 5.98368 30.3964 5.57968L30.3544 5.56968L30.3124 5.56168C29.8262 5.4456 29.3282 5.38687 28.8284 5.38668C28.0757 5.38176 27.33 5.53053 26.6369 5.82387C25.9438 6.11722 25.3178 6.54897 24.7974 7.09268L24.1914 5.95768C23.2034 3.97668 21.0714 2.69768 18.7494 2.69768C17.9084 2.69768 17.0904 2.86068 16.3154 3.18068L16.3074 3.18268L16.1814 3.23368C14.6664 3.88968 13.4814 5.11968 12.9304 6.60768C12.6676 7.30783 12.5514 8.05451 12.5891 8.80141C12.6268 9.54832 12.8175 10.2795 13.1494 10.9497L13.1634 10.9777L13.1784 11.0047L19.3404 22.5687L14.7664 37.3907L14.7564 37.4217L14.7484 37.4527C14.7314 37.5097 14.6964 37.6007 14.6564 37.7187C12.5104 43.7437 13.5854 49.6187 17.8494 55.1817C21.4564 59.8867 27.6094 62.6977 34.3074 62.6977C41.0444 62.6977 46.9294 59.9087 49.6624 55.4187C52.1124 51.4007 52.1674 45.2307 51.7394 40.5707C51.9968 39.9711 52.1493 39.3318 52.1904 38.6807L52.5694 32.7047C52.7674 29.5647 50.4434 26.8027 47.3844 26.5287ZM16.1794 8.55368C14.8824 6.11768 17.3974 4.58968 18.7494 4.58968C20.3154 4.58968 21.8044 5.41368 22.4944 6.81868L24.4734 10.5317L21.9354 19.3547L16.1794 8.55368ZM26.7284 9.89668C27.0464 8.72468 28.1594 7.28568 29.9484 7.41868C32.3864 7.59968 33.7694 10.2297 33.1744 12.4247L30.4784 21.7997L34.6034 29.5427L34.4404 31.6197C30.9624 32.1057 29.9364 31.0727 29.8844 29.2047L30.4784 21.8017L27.5784 31.8787C24.3954 34.0287 20.7194 34.7697 19.2304 35.9487L26.7284 9.89668ZM50.2894 38.5627C50.2506 39.147 50.0807 39.715 49.7924 40.2247C50.2324 44.5427 50.3234 50.6817 48.0324 54.4397C47.7156 54.9569 47.3543 55.4454 46.9524 55.8997C39.7804 61.8227 25.9464 62.6157 19.0374 51.5547C16.5694 47.5987 16.1624 39.8727 18.7194 37.0577C20.4074 35.4727 23.1674 34.9477 26.5484 33.0237C30.0344 31.0377 30.7314 34.1697 36.6684 34.3367C37.6574 34.3647 38.5244 34.8417 38.7414 35.9217C39.0384 37.3997 38.1864 39.3707 36.2624 40.2827C30.7884 42.8727 30.3594 39.2027 29.0244 40.6347C27.6064 42.1547 26.9284 42.5157 25.7334 44.2797C25.3384 44.8597 25.6044 46.1727 26.0044 47.4327C25.8254 46.6037 25.7924 45.8667 26.0604 45.4717C27.2414 43.7327 27.9184 43.3537 29.3034 41.8787C34.8314 42.8867 39.0244 47.6577 39.0244 53.4027C39.0244 53.8917 38.9834 54.3707 38.9214 54.8447C39.5494 53.6047 39.9114 52.2077 39.9114 50.7237C39.9113 49.0969 39.477 47.4996 38.6534 46.0967C38.9509 45.1762 39.4751 44.3453 40.1778 43.6805C40.8804 43.0156 41.7389 42.538 42.6744 42.2917C43.0644 42.1877 43.4564 42.1357 43.8464 42.1127C42.9109 41.7157 41.8699 41.6411 40.8874 41.9007C40.1666 42.0907 39.504 42.456 38.9586 42.964C38.4132 43.4721 38.0019 44.1072 37.7614 44.8127C36.8427 43.7174 35.6878 42.8445 34.3834 42.2597C35.0144 42.1177 35.7334 41.8797 36.5854 41.4767C37.3293 41.1341 37.9643 40.5929 38.4204 39.9127C40.2024 40.0297 41.8204 39.0147 42.6474 37.4337C41.8584 37.9937 39.7514 38.5377 39.1044 38.1157C40.0344 35.1517 39.1864 34.0277 35.8234 33.3867C35.8234 33.3597 36.3904 26.0057 36.3904 26.0057C36.4424 25.3167 37.1184 22.9847 39.9754 22.9847C42.4184 22.9847 44.0324 25.5777 43.8304 28.1797L43.7014 29.8417L43.2634 35.4787C43.2164 36.0549 43.0699 36.6186 42.8304 37.1447L42.7764 37.9847C42.6424 40.1197 44.1444 41.9357 46.2034 42.1077L46.2484 42.1107C47.7544 42.2387 49.1024 41.4317 49.7764 40.1527C49.1164 40.5957 48.3164 40.8417 47.4664 40.7707L47.4154 40.7657C45.3604 40.5937 43.8524 38.7537 43.9874 36.6177L44.3634 30.6387C44.4004 30.0627 45.4754 28.1157 47.3854 28.2327C49.4484 28.3587 50.7974 30.4477 50.6624 32.5847L50.2894 38.5627Z" fill="white"/>
</svg>
