<svg width="65" height="65" viewBox="0 0 65 65" fill="none" xmlns="http://www.w3.org/2000/svg">
<path d="M60.0807 25.6497L46.4808 28.8317L36.1367 19.4217L34.9647 33.3627L22.8517 40.2907L30.8227 43.6507C21.8727 53.3417 9.53775 59.7007 8.58975 56.2427C7.21475 51.2177 25.9298 23.4167 44.0737 11.4987C61.8848 -0.199302 62.3767 9.4447 60.6587 14.6787C69.5337 -4.3643 50.5237 4.4817 44.0397 8.2197C20.6567 21.6927 -2.12525 55.5597 3.98075 61.4857C8.38575 65.7617 26.7577 59.4827 37.1917 52.7527L38.5807 59.4237L47.6997 48.8397L61.5907 50.3747L54.3467 38.3977L60.0807 25.6497Z" fill="white"/>
</svg>
