<svg width="64" height="65" viewBox="0 0 64 65" fill="none" xmlns="http://www.w3.org/2000/svg">
<path fill-rule="evenodd" clip-rule="evenodd" d="M62 27.4204C62 16.8384 48.566 7.48837 32 7.48837C15.434 7.48837 2 16.8384 2 27.4204C2 28.5634 2.094 29.6674 2.259 30.7404C2.08992 31.7537 2.0033 32.7791 2 33.8064C2 46.8844 15.43 57.4884 32 57.4884C48.566 57.4884 62 46.8844 62 33.8064C61.9972 32.7297 61.9028 31.6551 61.718 30.5944C61.9041 29.5466 61.9985 28.4846 62 27.4204ZM57.043 25.2384L50.871 27.3144C49.876 27.6484 49.312 25.9904 50.308 25.6544L56.48 23.5804C57.475 23.2464 58.039 24.9044 57.043 25.2384ZM52.984 35.3614L46.494 35.0644C45.447 35.0154 45.539 33.2614 46.586 33.3104L53.076 33.6074C54.123 33.6564 54.031 35.4104 52.984 35.3614ZM45.76 16.4614L51.91 18.6004C52.902 18.9464 52.331 20.6024 51.339 20.2584L45.19 18.1174C44.197 17.7734 44.768 16.1154 45.76 16.4614ZM36.033 12.5334L42.293 10.7324C43.303 10.4414 43.787 12.1234 42.779 12.4164L36.519 14.2174C35.51 14.5094 35.023 12.8244 36.033 12.5334ZM23.471 12.0764L29.52 14.4864C30.495 14.8754 29.852 16.5044 28.875 16.1154L22.828 13.7054C21.852 13.3164 22.494 11.6874 23.471 12.0764ZM23.166 24.6234C23.836 23.8894 24.352 21.9754 25.393 21.4414C27.307 20.4594 29.006 23.9144 31.682 23.9144C33.065 23.9144 35.936 21.4714 37.157 21.7584C39.202 22.2404 38.311 23.5374 39.571 24.6234C40.884 25.7544 43.073 26.2324 43.073 27.7324C43.073 28.7634 42.885 29.7364 42.451 30.6144C40.086 28.4784 36.325 27.1134 32.001 27.1134C27.675 27.1134 23.914 28.4784 21.547 30.6144C21.113 29.7374 20.925 28.7624 20.925 27.7324C20.924 26.4984 22.25 25.6234 23.166 24.6234ZM32 34.6134C27.25 34.6134 24.383 33.6784 22.757 32.2084C24.738 30.3444 28.136 29.1134 32 29.1134C35.861 29.1134 39.258 30.3444 41.239 32.2084C39.614 33.6784 36.748 34.6134 32 34.6134ZM40.51 39.3474L34.752 42.3704C33.823 42.8604 32.998 41.3114 33.928 40.8234L39.686 37.7984C40.614 37.3104 41.438 38.8594 40.51 39.3474ZM25.424 40.8904L18.916 41.1714C17.867 41.2184 17.789 39.4664 18.838 39.4214L25.346 39.1384C26.396 39.0934 26.473 40.8434 25.424 40.8904ZM11.882 17.7564L18.179 16.1044C19.195 15.8384 19.633 17.5344 18.617 17.8014L12.32 19.4534C11.305 19.7184 10.865 18.0234 11.882 17.7564ZM17.484 33.5974L11.314 35.6734C10.318 36.0094 9.753 34.3514 10.75 34.0154L16.92 31.9394C17.916 31.6034 18.48 33.2634 17.484 33.5974ZM7.549 22.9434L13.397 25.8064C14.34 26.2694 13.575 27.8454 12.631 27.3824L6.783 24.5194C5.842 24.0564 6.605 22.4804 7.549 22.9434ZM32 55.4884C19.956 55.4884 9.665 49.5704 5.721 41.2914C6.478 41.3034 7.515 40.6194 8.401 40.6194C10.633 40.6194 11.016 45.4764 13.672 45.4764C17.656 45.4764 15.774 48.8124 21.289 48.8124C24.236 48.8124 25.516 46.0824 27.033 46.0824C30.851 46.0824 30.662 51.1724 34.289 51.1724C38.09 51.1724 37.893 45.1514 41.352 45.1514C44.727 45.1514 45.43 48.2554 48.084 48.2554C50.895 48.2554 50.189 39.0544 53.309 39.0544C56.903 39.0544 58.911 37.6324 59.663 36.3084C59.734 36.1824 59.797 36.0524 59.865 35.9244C58.486 46.8884 46.518 55.4884 32 55.4884Z" fill="white"/>
</svg>
