<svg width="64" height="64" viewBox="0 0 64 64" fill="none" xmlns="http://www.w3.org/2000/svg">
<path d="M56.576 34.7561C56.632 34.5014 56.6753 34.2441 56.706 33.9841C56.887 32.1701 56.679 30.2491 55.906 28.4711C55.144 26.6841 53.78 25.1971 52.267 24.0811C51.3573 23.4163 50.3798 22.8495 49.351 22.3901C49.6652 21.3843 49.761 20.3229 49.632 19.2771C49.406 17.6421 48.757 16.0271 47.569 14.7331C46.389 13.4371 44.788 12.6621 43.231 12.1701C40.072 11.1911 36.895 11.2321 33.906 11.0181C32.42 10.9171 30.933 10.8371 29.688 10.4871C29.067 10.3201 28.542 10.0681 28.216 9.7781C27.888 9.4901 27.737 9.1631 27.659 8.6681C27.584 8.1771 27.63 7.5561 27.768 6.9161C27.835 6.5791 27.917 6.3091 28.028 5.9021C28.137 5.4951 28.249 5.0801 28.307 4.5471C28.325 4.2561 28.367 3.9711 28.243 3.4731C28.1589 3.16853 28.0071 2.88687 27.799 2.6491C27.5655 2.39825 27.2714 2.21161 26.945 2.1071C26.387 1.9471 26.076 2.0101 25.766 2.0371C25.635 2.0591 25.479 2.0841 25.37 2.1101L25.092 2.1731C24.243 2.3821 23.466 2.6291 22.696 2.9731C19.647 4.3231 17.041 6.5761 15.385 9.4151C14.56 10.8301 13.934 12.3791 13.666 14.0071C13.4 15.6311 13.467 17.3241 13.957 18.8941C14.3275 19.9878 14.8023 21.0434 15.375 22.0461C13.952 22.6241 12.562 23.3591 11.314 24.3631C9.835 25.5401 8.542 27.1081 7.871 28.9271C7.199 30.7571 7.055 32.6181 7.325 34.4781C7.346 34.6041 7.379 34.7261 7.406 34.8501C3.673 36.2341 2 39.5391 2 45.2321C2 57.5961 17.393 62.0001 31.798 62.0001C51.274 62.0001 62 56.0451 62 45.2321C62 39.4121 60.328 36.0831 56.576 34.7561ZM31.798 59.6081C18.553 59.6081 4.4 55.8321 4.4 45.2321C4.4 40.2571 5.768 38.0041 8.243 37.0651C8.68905 37.8793 9.26113 38.6177 9.938 39.2531C11.235 40.4821 12.766 41.3411 14.354 41.9531C12.969 40.9691 11.685 39.8591 10.738 38.5531C9.792 37.2531 9.211 35.7701 9.202 34.2781C9.181 32.7841 9.504 31.1991 10.179 29.9311C10.854 28.6451 11.854 27.5761 13.098 26.7631C14.396 25.9321 15.869 25.3211 17.427 24.8581C17.9709 25.4524 18.5666 25.9972 19.207 26.4861C17.2548 24.2153 15.919 21.4808 15.328 18.5451C14.79 15.7681 15.705 12.9081 17.286 10.6131C18.902 8.3261 21.159 6.4661 23.743 5.4811C24.2687 5.28271 24.8044 5.11214 25.348 4.9701C25.333 5.0221 25.323 5.0711 25.308 5.1221C25.214 5.4471 25.072 5.9031 24.987 6.3121C24.799 7.1521 24.673 8.0661 24.813 9.0841C24.946 10.0861 25.494 11.2201 26.346 11.9121C27.181 12.6151 28.101 12.9641 28.947 13.1871C30.657 13.6161 32.241 13.6831 33.793 13.7231C36.876 13.7751 39.875 13.7101 42.632 14.3181C43.999 14.6321 45.258 15.1841 46.242 16.0551C47.225 16.9071 47.909 18.1811 48.248 19.5191C48.602 20.8551 48.469 22.3031 47.914 23.6441C47.356 24.9841 46.421 26.2041 45.312 27.2521C46.2049 26.6944 47.0123 26.0103 47.709 25.2211C48.721 25.5821 49.689 26.0081 50.584 26.5351C51.867 27.3061 52.922 28.3331 53.663 29.5821C54.409 30.8291 54.774 32.3391 54.832 33.8871C54.906 35.3831 54.419 36.8941 53.531 38.2321C52.647 39.5771 51.395 40.7251 50.033 41.7381C51.604 41.0901 53.115 40.1841 54.356 38.8931C54.9128 38.3197 55.3849 37.6699 55.758 36.9631C58.265 37.8321 59.598 40.0551 59.598 45.2301C59.6 57.7401 42.182 59.6081 31.798 59.6081Z" fill="white"/>
<path d="M29.6919 34.316C29.6919 30.121 26.2689 26.707 22.0589 26.707C17.8479 26.707 14.4219 30.121 14.4219 34.316C14.4219 38.513 17.8479 41.928 22.0589 41.928C26.2699 41.929 29.6919 38.514 29.6919 34.316ZM22.0599 40.493C18.6429 40.493 15.8639 37.722 15.8639 34.316C15.8639 30.912 18.6429 28.142 22.0599 28.142C25.4769 28.142 28.2529 30.912 28.2529 34.316C28.2529 37.723 25.4759 40.493 22.0599 40.493Z" fill="white"/>
<path d="M23.9678 37.768C25.8787 37.768 27.4278 36.2247 27.4278 34.321C27.4278 32.4173 25.8787 30.874 23.9678 30.874C22.0569 30.874 20.5078 32.4173 20.5078 34.321C20.5078 36.2247 22.0569 37.768 23.9678 37.768Z" fill="white"/>
<path d="M41.9436 26.707C37.7326 26.707 34.3086 30.121 34.3086 34.316C34.3086 38.513 37.7326 41.928 41.9436 41.928C46.1536 41.928 49.5786 38.513 49.5786 34.316C49.5786 30.121 46.1536 26.707 41.9436 26.707ZM41.9436 40.493C38.5276 40.493 35.7486 37.722 35.7486 34.316C35.7486 30.912 38.5276 28.142 41.9436 28.142C45.3596 28.142 48.1386 30.912 48.1386 34.316C48.1396 37.723 45.3596 40.493 41.9436 40.493Z" fill="white"/>
<path d="M40.0342 30.874C39.5808 30.8729 39.1315 30.9611 38.7121 31.1337C38.2928 31.3063 37.9116 31.5599 37.5903 31.8799C37.269 32.2 37.014 32.5802 36.8399 32.9989C36.6657 33.4176 36.5758 33.8666 36.5752 34.32C36.5759 34.7736 36.6659 35.2225 36.8401 35.6413C37.0143 36.06 37.2693 36.4404 37.5905 36.7606C37.9117 37.0808 38.2928 37.3345 38.7121 37.5074C39.1314 37.6803 39.5807 37.7688 40.0342 37.768C40.9499 37.7688 41.8284 37.4061 42.4768 36.7596C43.1251 36.1131 43.4904 35.2357 43.4922 34.32C43.4899 33.4048 43.1244 32.5278 42.476 31.8817C41.8277 31.2357 40.9495 30.8732 40.0342 30.874ZM32.0002 44.185C28.8162 44.185 26.2402 46.758 26.2402 49.926C26.2402 53.099 28.8162 55.667 32.0002 55.667C35.1802 55.667 37.7602 53.099 37.7602 49.926C37.7602 46.758 35.1802 44.185 32.0002 44.185Z" fill="white"/>
</svg>
