<svg width="64" height="64" viewBox="0 0 64 64" fill="none" xmlns="http://www.w3.org/2000/svg">
<path d="M61.995 3.877L61.933 2.072L60.121 2.003C60.121 2.003 60.023 2 59.836 2C57.199 2 43.406 2.638 30.816 15.224C27.445 18.592 24.492 22.123 22.101 25.58C12.944 21.872 2 32.808 2 32.808C2 32.808 10.415 29.303 16.489 36.576C16.041 38.117 15.84 39.451 15.818 40.608L14.162 42.265C13.677 42.75 13.716 43.578 14.201 44.064L14.6 44.462L13.458 45.605C13.179 45.884 13.095 46.31 13.295 46.626C12.488 46.471 11.32 47.006 8.926 47.895C5.899 49.018 5.341 51.572 5.341 51.572C5.341 51.572 6.317 52.051 7.747 52.196C5.919 54.84 6.338 57.644 6.338 57.644C6.338 57.644 9.144 58.062 11.787 56.236C11.932 57.666 12.411 58.641 12.411 58.641C12.411 58.641 14.968 58.082 16.09 55.054C16.992 52.624 17.53 51.457 17.351 50.651C17.68 50.815 18.124 50.784 18.38 50.528L19.523 49.384L20.002 49.863C20.489 50.348 21.237 50.309 21.721 49.822L23.401 48.145C24.618 48.12 25.956 47.892 27.389 47.477C34.727 53.552 31.202 62 31.202 62C31.202 62 42.171 51.035 38.422 41.872C41.845 39.512 45.372 36.565 48.769 33.171C62.374 19.573 62.018 4.511 61.995 3.877ZM16.005 52.463C15.382 54.143 13.966 54.453 13.966 54.453C13.966 54.453 13.599 53.694 13.602 52.66C12.074 53.873 10.349 53.633 10.349 53.633C10.349 53.633 10.11 51.908 11.323 50.38C10.287 50.382 9.529 50.016 9.529 50.016C9.529 50.016 9.839 48.6 11.519 47.977C12.811 47.498 13.453 47.213 13.899 47.277L16.708 50.085C16.771 50.53 16.485 51.172 16.005 52.463ZM23.159 46.217C22.5672 46.2168 21.9778 46.1415 21.405 45.993L17.965 42.553C16.613 37.003 22.46 26.322 32.189 16.596C37.464 11.323 42.985 8.247 47.71 6.45L57.546 16.286C55.749 21.008 52.673 26.526 47.397 31.799C38.601 40.591 29.019 46.217 23.159 46.217Z" fill="white"/>
<path d="M42.2603 16.8799C40.9731 16.8799 39.7386 17.3912 38.8284 18.3014C37.9182 19.2116 37.4068 20.4462 37.4068 21.7334C37.4068 23.0206 37.9182 24.2551 38.8284 25.1653C39.7386 26.0755 40.9731 26.5869 42.2603 26.5869C43.5475 26.5866 44.7819 26.0753 45.6923 25.1653C46.6027 24.2553 47.1145 23.0211 47.1153 21.7339C47.1148 20.4465 46.6031 19.212 45.6927 18.3018C44.7823 17.3916 43.5477 16.8801 42.2603 16.8799ZM42.2603 24.9679C41.8355 24.968 41.4148 24.8845 41.0223 24.722C40.6297 24.5596 40.273 24.3214 39.9725 24.0211C39.672 23.7208 39.4336 23.3642 39.2709 22.9718C39.1083 22.5794 39.0244 22.1587 39.0243 21.7339C39.0242 21.3091 39.1077 20.8884 39.2702 20.4958C39.4326 20.1033 39.6708 19.7466 39.9711 19.4461C40.2714 19.1456 40.628 18.9072 41.0204 18.7445C41.4128 18.5818 41.8335 18.498 42.2583 18.4979C43.1163 18.4976 43.9392 18.8382 44.5461 19.4447C45.153 20.0512 45.494 20.8739 45.4943 21.7319C45.4946 22.5899 45.154 23.4128 44.5475 24.0197C43.941 24.6265 43.1183 24.9676 42.2603 24.9679ZM32.5503 26.5849C31.263 26.5854 30.0286 27.097 29.1182 28.0071C28.2079 28.9173 27.6961 30.1516 27.6953 31.4389C27.7211 32.7092 28.2438 33.9188 29.1513 34.808C30.0588 35.6973 31.2788 36.1953 32.5493 36.1953C33.8199 36.1953 35.0398 35.6973 35.9473 34.808C36.8548 33.9188 37.3775 32.7092 37.4033 31.4389C37.403 30.1518 36.8917 28.9174 35.9817 28.0072C35.0716 27.097 33.8374 26.5854 32.5503 26.5849ZM32.5493 34.6729C32.1198 34.6804 31.693 34.6024 31.294 34.4432C30.8949 34.284 30.5316 34.047 30.2251 33.7459C29.9187 33.4448 29.6753 33.0857 29.5092 32.6895C29.343 32.2933 29.2574 31.868 29.2574 31.4384C29.2574 31.0088 29.343 30.5835 29.5092 30.1873C29.6753 29.7911 29.9187 29.432 30.2251 29.1309C30.5316 28.8298 30.8949 28.5927 31.294 28.4336C31.693 28.2744 32.1198 28.1963 32.5493 28.2039C32.9743 28.2036 33.3953 28.2871 33.788 28.4497C34.1807 28.6122 34.5376 28.8506 34.8381 29.1511C35.1386 29.4516 35.377 29.8085 35.5395 30.2012C35.7021 30.5939 35.7856 31.0149 35.7853 31.4399C35.7857 31.8648 35.7023 32.2856 35.5397 32.6783C35.3772 33.0709 35.1388 33.4276 34.8382 33.7279C34.5376 34.0282 34.1807 34.2663 33.7879 34.4285C33.3951 34.5906 32.9742 34.6737 32.5493 34.6729Z" fill="white"/>
<path d="M46.9047 8.74691C47.3515 8.74691 47.7137 8.3847 47.7137 7.93791C47.7137 7.49111 47.3515 7.12891 46.9047 7.12891C46.4579 7.12891 46.0957 7.49111 46.0957 7.93791C46.0957 8.3847 46.4579 8.74691 46.9047 8.74691Z" fill="white"/>
<path d="M49.1947 11.033C49.641 11.033 50.0027 10.6712 50.0027 10.225C50.0027 9.77875 49.641 9.41699 49.1947 9.41699C48.7485 9.41699 48.3867 9.77875 48.3867 10.225C48.3867 10.6712 48.7485 11.033 49.1947 11.033Z" fill="white"/>
<path d="M51.4838 13.3231C51.9312 13.3231 52.2938 12.9605 52.2938 12.5131C52.2938 12.0658 51.9312 11.7031 51.4838 11.7031C51.0365 11.7031 50.6738 12.0658 50.6738 12.5131C50.6738 12.9605 51.0365 13.3231 51.4838 13.3231Z" fill="white"/>
<path d="M53.7709 15.6102C54.2183 15.6102 54.5809 15.2476 54.5809 14.8002C54.5809 14.3529 54.2183 13.9902 53.7709 13.9902C53.3236 13.9902 52.9609 14.3529 52.9609 14.8002C52.9609 15.2476 53.3236 15.6102 53.7709 15.6102Z" fill="white"/>
<path d="M56.6349 16.5158C56.5597 16.4405 56.4704 16.3808 56.3721 16.34C56.2738 16.2993 56.1684 16.2783 56.0619 16.2783C55.9555 16.2783 55.8501 16.2993 55.7518 16.34C55.6535 16.3808 55.5642 16.4405 55.4889 16.5158C55.3372 16.6677 55.252 16.8736 55.252 17.0883C55.252 17.303 55.3372 17.5089 55.4889 17.6608C55.6414 17.8119 55.8473 17.8966 56.0619 17.8966C56.2766 17.8966 56.4825 17.8119 56.6349 17.6608C56.7867 17.5089 56.8719 17.303 56.8719 17.0883C56.8719 16.8736 56.7867 16.6677 56.6349 16.5158Z" fill="white"/>
</svg>
