<svg width="64" height="64" viewBox="0 0 64 64" fill="none" xmlns="http://www.w3.org/2000/svg">
<path d="M32 2C15.432 2 2 15.432 2 32C2 48.568 15.432 62 32 62C48.568 62 62 48.568 62 32C62 15.432 48.568 2 32 2ZM32 59.5C16.836 59.5 4.5 47.164 4.5 32C4.5 16.836 16.836 4.5 32 4.5C47.164 4.5 59.5 16.836 59.5 32C59.5 47.164 47.163 59.5 32 59.5Z" fill="white"/>
<path d="M43.5 42.4082C46.2614 42.4082 48.5 40.1696 48.5 37.4082C48.5 34.6468 46.2614 32.4082 43.5 32.4082C40.7386 32.4082 38.5 34.6468 38.5 37.4082C38.5 40.1696 40.7386 42.4082 43.5 42.4082Z" fill="white"/>
<path d="M20.5 42.4082C23.2614 42.4082 25.5 40.1696 25.5 37.4082C25.5 34.6468 23.2614 32.4082 20.5 32.4082C17.7386 32.4082 15.5 34.6468 15.5 37.4082C15.5 40.1696 17.7386 42.4082 20.5 42.4082Z" fill="white"/>
<path d="M45.7708 22.1432C43.3138 18.0962 38.3538 14.4932 31.9998 14.4932C25.6458 14.4932 20.6868 18.0972 18.2288 22.1432C17.5708 23.2262 18.4458 24.3982 19.4158 23.7212C27.5258 18.0652 36.5218 18.0982 44.5838 23.7212C45.5538 24.3972 46.4288 23.2262 45.7708 22.1432Z" fill="white"/>
</svg>
