<svg width="64" height="64" viewBox="0 0 64 64" fill="none" xmlns="http://www.w3.org/2000/svg">
<path d="M59.549 27.089C59.6603 26.9923 59.763 26.895 59.857 26.797C62.34 24.18 62.697 20.383 60.767 17.12C58.751 13.713 52.537 5.789 38.392 5.789C37.659 5.789 36.906 5.81 36.147 5.852C34.75 5.29544 33.2608 5.00642 31.757 5C30.144 5 28.535 5.347 26.987 6.02L26.995 5.912L26.378 6.305C25.493 6.743 24.632 7.289 23.805 7.94C22.857 8.549 21.867 9.362 20.819 10.221C18.913 11.784 16.753 13.556 14.39 14.479C11.648 15.549 5.745 16.278 3.7 16.47L2 16.629V49.249L3.999 49.118C4.015 49.118 5.554 49.017 7.723 49.017C14.235 49.017 19.058 49.859 20.992 51.329C21.691 52.049 22.476 52.663 23.322 53.187L23.759 53.537L23.768 53.453C27.466 55.563 32.18 56.072 35.865 56.072C36.1917 56.072 36.5183 56.068 36.845 56.06C37.724 57.447 39.107 58.318 40.739 58.46L46.295 58.982L46.335 58.986L46.374 58.988C46.5127 58.996 46.648 59 46.78 59C48.214 59 49.334 58.52 50.413 57.442L54.649 53.3C56.693 51.279 56.747 48.612 55.874 46.497L56.984 45.41C59.532 42.892 59.407 39.346 57.832 36.71L58.285 36.268C60.998 33.588 60.986 29.943 59.549 27.089ZM38.392 7.658C51.863 7.658 57.428 15.155 59.152 18.068C59.82 19.198 60.104 20.32 60.118 21.375C59.9165 22.4832 59.3735 23.5007 58.565 24.285L52.723 30C51.897 30.824 51.181 31.192 50.354 31.323C50.3863 30.7294 50.3345 30.1341 50.2 29.555C49.212 25.319 48.832 22.716 48.567 20.998C48.694 20.654 49.491 18.699 51.791 17.142C50.202 17.362 48.943 18.515 48.264 19.284C48.152 18.792 48.022 18.413 47.83 18.092C45.936 14.919 36.546 8.233 35.837 7.744C36.6875 7.68669 37.5396 7.658 38.392 7.658ZM55.714 42.727L50.712 47.619C49.681 48.652 48.852 48.862 47.629 48.799L41.075 48.184C38.671 47.973 37.462 45.85 37.325 43.588C36.978 46.281 38.133 49.281 41.016 49.535L47.572 50.15C48.794 50.213 49.621 50.002 50.653 48.971L53.59 46.203C54.094 46.932 54.422 47.806 54.501 48.7C54.3545 49.5069 53.9598 50.2481 53.372 50.82L49.123 54.972C48.248 55.85 47.543 56.029 46.506 55.975L40.939 55.454C38.898 55.272 37.871 53.47 37.756 51.55C37.7048 51.9469 37.6934 52.3479 37.722 52.747C28.433 52.434 22.21 49.405 19.214 44.947C19.265 45.572 19.415 46.167 19.621 46.743C16.25 45.98 9.815 44.728 3.876 44.728V18.33C3.876 18.33 11.487 17.619 15.074 16.217C19.084 14.652 22.323 11.101 24.859 9.485L24.858 9.492C26.894 7.861 29.247 6.87 31.756 6.87C33.077 6.87 34.443 7.143 35.828 7.745H35.832C36.208 8.151 45.826 16.758 46.673 18.637C47.608 20.712 47.717 24.007 48.59 27.82C49.866 33.387 47.563 36.678 43.939 36.756C39.539 36.849 37.873 26.099 37.873 26.099C37.873 26.099 35.997 25.434 33.651 22.985C35.127 26.491 36.784 26.832 36.784 26.832C36.784 26.832 36.859 27.449 37.051 28.378C35.913 30.842 33.398 35.364 27.356 35.857C26.8493 35.8921 26.3407 35.8921 25.834 35.857C27.184 36.504 28.674 36.755 30.239 36.69C32.593 36.595 34.29 35.861 35.492 34.979C35.325 37.953 36.707 41.039 39.858 41.315L47.513 42.032C48.94 42.104 49.907 41.86 51.113 40.654L55.401 36.595C56.292 37.538 56.923 38.831 57.056 40.173C56.8812 41.1418 56.4127 42.0334 55.714 42.727ZM57.022 33.359L51.18 39.074C49.975 40.277 49.006 40.523 47.579 40.45L39.925 39.731C37.302 39.501 35.912 37.32 35.61 34.881C37.115 33.734 37.812 32.373 38.042 31.835C39.018 34.397 41.214 37.052 43.927 37.01C46.455 36.915 49.25 35.197 50.046 32.938C50.978 32.844 51.75 32.481 52.656 31.577L57.324 27.011C58.0251 28.0115 58.4601 29.174 58.588 30.389C58.3821 31.5159 57.8355 32.5525 57.022 33.359Z" fill="white"/>
</svg>
