<svg width="64" height="64" viewBox="0 0 64 64" fill="none" xmlns="http://www.w3.org/2000/svg">
<path d="M54.8661 39.4839H54.8761C54.7311 36.1139 54.1501 24.6229 52.7511 18.2869C52.3471 16.4499 50.6391 14.3349 48.4761 11.6559C46.7381 9.50189 44.7681 7.05889 43.2981 4.46789C42.1221 2.39789 40.3881 1.55689 38.6631 2.22389C36.7351 2.96689 35.1711 5.56089 35.0501 9.09189C33.0871 6.91189 31.8051 6.86489 30.4541 7.74489C28.5441 8.98689 27.7011 12.7329 29.5971 16.8519C30.4971 18.8079 31.9241 19.9449 33.1811 20.9469C34.1261 21.6999 34.9411 22.3499 35.3181 23.1739L35.6771 23.9979C34.7571 23.5499 33.8981 23.1429 33.1321 22.7799C31.2711 21.8989 29.9131 21.5079 28.7251 21.5079C27.1171 21.5079 25.9551 22.2149 24.4851 23.1119C22.6391 24.2349 20.1131 25.7719 15.0511 27.0499C13.5461 27.4289 12.4941 28.1819 12.0121 29.2279C11.5301 30.2729 11.6421 31.5179 12.3451 32.9309L12.3641 32.9679C7.88012 34.0789 9.91212 39.5789 9.17012 44.9379C8.97512 46.3429 8.75812 47.4419 9.69712 48.9109C15.5671 58.0859 22.6681 61.9999 33.4401 61.9999C37.7451 61.9999 40.7831 61.8959 43.6821 60.5139C47.3021 58.7899 53.8951 50.0599 54.8751 42.9689C55.0491 41.7219 55.0381 40.5589 54.8661 39.4839ZM38.0361 5.41489C38.8601 3.01889 40.9861 3.23689 41.8621 4.83089C43.3751 7.58489 45.4211 10.3359 47.2081 12.5499C49.0471 14.8259 50.9051 17.1379 51.2101 18.5169C52.1801 22.9099 52.6301 30.8569 52.9301 35.7359C51.0231 33.2359 47.6371 30.8899 45.3451 29.3979C45.0321 27.4659 44.4321 24.0979 43.4121 19.5979C42.7331 16.5869 39.1121 14.8329 38.1491 10.6309C37.7051 8.68289 37.5431 6.84889 38.0361 5.41489ZM31.3181 14.9569C30.7961 13.9009 30.2101 9.91389 31.6901 8.81089C33.0671 7.78389 34.1701 9.78889 35.1491 11.3739C35.6081 14.2899 37.3661 16.8839 38.6031 18.3639C39.5671 19.5169 40.3991 20.5109 40.6401 21.6649C40.9391 23.0909 41.3471 25.4299 41.6361 27.1329C40.7529 26.628 39.8611 26.1382 38.9611 25.6639C38.1598 23.7556 37.2993 21.8727 36.3811 20.0179C35.4791 18.1789 32.5881 17.5209 31.3181 14.9569ZM42.1841 57.5599C39.6051 58.7919 36.9411 58.9009 32.7431 58.9009C23.1941 58.9009 13.7121 54.1479 10.7401 47.4629C10.2351 46.3289 10.7211 44.7189 10.7211 42.5779C10.7211 37.4539 10.8461 34.4229 13.4411 34.4229C14.6871 34.4229 18.6211 37.4229 18.6211 45.0369L28.0811 49.3079C30.8411 46.4779 38.6881 42.0229 38.6881 42.0229C37.4541 40.4539 38.1211 35.9789 38.1211 35.9789C35.5341 35.6459 30.0321 33.0389 28.1361 29.3919C25.7151 31.4789 14.4701 35.3639 13.7441 30.4549C13.5291 29.0019 14.8341 28.4899 15.3481 28.3609C20.7031 27.0089 23.2911 25.4529 25.1341 24.3309C26.4771 23.5119 27.7461 22.8309 28.7921 22.8309C29.6691 22.8309 31.0271 23.2699 32.6061 24.0189C37.0931 26.1409 44.5651 29.4809 51.2101 35.2989C51.8291 35.8419 52.6161 37.0329 52.8671 37.7989C55.1321 44.7239 45.7651 55.8459 42.1841 57.5599ZM36.5461 42.1099C34.7431 43.0629 30.5341 45.3979 28.0101 47.6889L21.0101 43.1769C21.0101 39.3589 20.1811 36.5969 18.9711 34.8099C22.0341 34.6129 25.8231 33.8109 27.7461 32.7819C29.1041 34.1979 32.5591 37.4169 36.3361 37.9279C36.1941 39.0369 36.1011 40.7249 36.5461 42.1099Z" fill="white"/>
</svg>
