<svg width="64" height="64" viewBox="0 0 64 64" fill="none" xmlns="http://www.w3.org/2000/svg">
<path d="M32.002 2C15.432 2 2 15.432 2 31.999C2 48.568 15.432 62 32.002 62C48.568 62 62 48.568 62 31.999C62 15.432 48.568 2 32.002 2ZM32.002 59.5C16.837 59.5 4.5 47.163 4.5 31.999C4.5 16.836 16.837 4.5 32.002 4.5C47.164 4.5 59.5 16.836 59.5 31.999C59.5 47.163 47.164 59.5 32.002 59.5Z" fill="white"/>
<path d="M22.252 36.5908C25.0134 36.5908 27.252 34.3522 27.252 31.5908C27.252 28.8294 25.0134 26.5908 22.252 26.5908C19.4905 26.5908 17.252 28.8294 17.252 31.5908C17.252 34.3522 19.4905 36.5908 22.252 36.5908Z" fill="white"/>
<path d="M52.6177 25.8732C50.7729 24.3158 48.6073 23.1844 46.2753 22.5595C43.9432 21.9347 41.5021 21.8318 39.1257 22.2582C38.4227 22.3932 38.9327 24.5282 39.5127 24.4142C43.6807 23.6662 47.9697 24.8142 51.2037 27.5472C51.6487 27.9342 53.1587 26.3422 52.6177 25.8732ZM24.4887 18.8072C25.0687 18.9202 25.5807 16.7862 24.8777 16.6512C22.5014 16.2248 20.0602 16.3277 17.7282 16.9525C15.3961 17.5774 13.2305 18.7088 11.3857 20.2662C10.8427 20.7352 12.3547 22.3292 12.7977 21.9402C14.3963 20.5907 16.2728 19.6103 18.2935 19.0687C20.3142 18.5272 22.4295 18.4379 24.4887 18.8072ZM43.1927 29.0002C40.5727 29.0002 37.9537 30.7532 36.2137 34.2572C36.0417 34.6102 36.9397 35.2462 37.3867 34.9002C39.0737 33.5972 41.0877 33.0782 43.1927 33.0782C45.2977 33.0782 47.3117 33.5982 48.9987 34.9002C49.4467 35.2472 50.3437 34.6102 50.1717 34.2572C48.4327 30.7532 45.8137 29.0002 43.1927 29.0002ZM44.1317 42.2142C37.1937 45.8572 27.7737 45.1092 25.0007 45.1092C24.2577 45.1092 23.8227 45.4192 24.0007 46.0402C26.0007 53.0002 41.0007 53.0002 45.1277 43.3072C45.5887 42.2242 44.7687 41.8792 44.1317 42.2142Z" fill="white"/>
</svg>
