<svg width="64" height="64" viewBox="0 0 64 64" fill="none" xmlns="http://www.w3.org/2000/svg">
<path d="M54.1242 16.0568C53.9862 14.1228 54.7542 12.3048 53.2262 10.7748C52.4252 9.97577 51.5432 9.80478 50.6082 9.80478C49.9202 9.80478 49.2032 9.89577 48.4662 9.89577C48.2922 9.89577 48.1178 9.88877 47.9432 9.87477C45.3092 5.04877 44.9962 0.000775099 42.1902 2.80477C39.0602 5.93578 37.1142 14.5488 40.3402 20.1288C37.9025 18.4094 34.9922 17.4871 32.0092 17.4888C23.9902 17.4888 17.4922 23.9868 17.4922 32.0048C17.4922 35.1148 18.4782 37.9898 20.1442 40.3528C14.5652 37.1118 5.93616 39.0588 2.80416 42.1888C-0.00283885 44.9968 5.04616 45.3088 9.87416 47.9438C10.0132 49.8778 9.24216 51.6958 10.7722 53.2258C11.5742 54.0258 12.4552 54.1968 13.3902 54.1968C14.0782 54.1968 14.7932 54.1058 15.5292 54.1058C15.7038 54.1058 15.8795 54.1128 16.0562 54.1268C18.6882 58.9508 19.0032 63.9988 21.8092 61.1948C24.9392 58.0638 26.8842 49.4388 23.6492 43.8608C26.0918 45.5928 29.0128 46.5221 32.0072 46.5198C40.0252 46.5198 46.5232 40.0218 46.5232 32.0038C46.5232 28.8968 45.5392 26.0248 43.8772 23.6628C49.4572 26.8848 58.0652 24.9348 61.1922 21.8098C64.0002 19.0038 58.9502 18.6908 54.1242 16.0568ZM50.6072 11.7178C51.3302 11.7178 51.6002 11.8558 51.8732 12.1278C52.3142 12.5698 52.3242 13.0228 52.2422 14.3038C52.1872 15.1658 52.1242 16.1448 52.3612 17.2258C52.9342 19.8398 54.6082 21.3908 56.3292 22.3098C54.5231 22.9527 52.6203 23.2818 50.7032 23.2828C47.6042 23.2828 44.9782 22.3638 43.3072 20.6928C40.0712 17.4558 40.2432 11.6338 41.6832 7.65877C42.6012 9.38377 44.1532 11.0648 46.7762 11.6408C47.2962 11.7538 47.8472 11.8088 48.4652 11.8088C48.9012 11.8088 49.3042 11.7838 49.6942 11.7598C50.0222 11.7368 50.3302 11.7178 50.6072 11.7178ZM13.3922 52.2828C12.6702 52.2828 12.4002 52.1438 12.1262 51.8718C11.6852 51.4298 11.6752 50.9778 11.7572 49.6978C11.8132 48.8338 11.8752 47.8548 11.6382 46.7738C11.0642 44.1598 9.39016 42.6088 7.66816 41.6898C9.47424 41.0468 11.377 40.7177 13.2942 40.7168C16.3942 40.7168 19.0202 41.6368 20.6912 43.3078C23.9262 46.5448 23.7552 52.3658 22.3152 56.3408C21.3982 54.6158 19.8452 52.9358 17.2242 52.3618C16.6674 52.2431 16.0994 52.1858 15.5302 52.1908C15.0942 52.1908 14.6922 52.2178 14.3022 52.2418C13.9772 52.2638 13.6692 52.2828 13.3922 52.2828ZM38.0872 43.3158C39.4832 35.8498 33.9692 33.5868 32.1222 32.1548C33.0224 33.5108 33.4257 35.1365 33.2636 36.756C33.1016 38.3755 32.3842 39.889 31.2332 41.0398C30.4906 41.7844 29.5903 42.3527 28.5987 42.7026C27.6071 43.0526 26.5496 43.1753 25.5042 43.0618C23.4902 41.8793 21.835 40.1723 20.7152 38.1228C28.3282 39.5098 30.5352 33.7368 31.9702 32.0238L31.9672 32.0128C29.2152 33.9328 25.4082 33.6778 22.9592 31.2278C22.2155 30.4843 21.6489 29.5828 21.3014 28.5903C20.954 27.5978 20.8346 26.5398 20.9522 25.4948C22.1337 23.486 23.8374 21.8349 25.8822 20.7168C24.4632 28.3298 30.2302 30.5288 31.9552 31.9578V31.9558C31.0227 30.5983 30.5948 28.9572 30.7459 27.3173C30.897 25.6774 31.6174 24.142 32.7822 22.9778C33.5272 22.2314 34.4305 21.6623 35.4254 21.3124C36.4202 20.9626 37.481 20.841 38.5292 20.9568C40.5445 22.1456 42.1985 23.8601 43.3142 25.9168C35.6992 24.4938 33.4642 30.2058 32.0262 31.9658L32.0162 31.9938C32.0215 32.0024 32.0265 32.0094 32.0312 32.0148C34.7862 30.0828 38.6022 30.3328 41.0572 32.7878C41.7995 33.5298 42.3655 34.4292 42.7133 35.4195C43.061 36.4098 43.1816 37.4656 43.0662 38.5088C41.8753 40.5347 40.1537 42.1969 38.0872 43.3158Z" fill="white"/>
</svg>
