<svg width="64" height="64" viewBox="0 0 64 64" fill="none" xmlns="http://www.w3.org/2000/svg">
<path d="M51.348 15.912C48.016 12.565 44.018 11.116 39.85 11.116C39.491 11.116 39.129 11.132 38.77 11.154C37.734 6.492 36.295 2 36.295 2C36.295 2 30.004 5.991 26.325 9.716C22.07 6.389 17.176 3.325 17.176 3.325C17.176 3.325 16.132 10.971 16.498 16.572C10.921 16.211 3.31 17.264 3.31 17.264C3.31 17.264 6.361 22.176 9.678 26.449C5.97 30.146 2 36.47 2 36.47C2 36.47 6.646 37.967 11.382 39.008C11.223 43.429 12.643 47.689 16.158 51.221C23.599 58.692 36.494 62 46.373 62C52.102 61.999 56.818 60.887 58.865 58.83C64.387 53.281 63.049 27.669 51.348 15.912ZM57.422 57.394C56.186 58.636 52.633 59.964 46.373 59.965C37.098 59.965 24.603 56.818 17.602 49.785C9.544 41.689 14.239 29.602 22.012 21.798C27.401 16.385 34.069 13.152 39.85 13.152C43.75 13.153 47.133 14.563 49.905 17.35C54.813 22.28 58.329 30.522 59.548 39.96C60.695 48.851 59.348 55.459 57.422 57.394Z" fill="white"/>
<path d="M40.1715 18.3209C40.7495 18.7239 41.3865 18.9269 41.9425 18.9279C42.4835 18.9279 42.9485 18.7379 43.2135 18.3549C43.7585 17.5799 43.2765 16.3029 42.1415 15.5069C41.5615 15.1019 40.9265 14.8999 40.3685 14.8999C39.8295 14.8999 39.3625 15.0899 39.0955 15.4719C38.5525 16.2479 39.0325 17.5259 40.1715 18.3209ZM44.0735 32.7289C43.7487 32.7208 43.4321 32.831 43.1825 33.0389C42.4675 33.6599 42.6255 35.0149 43.5345 36.0639C44.1385 36.7589 44.9235 37.1449 45.5915 37.1439C45.9315 37.1449 46.2415 37.0449 46.4825 36.8349C47.1995 36.2139 47.0395 34.8599 46.1305 33.8109C45.5265 33.1149 44.7435 32.7299 44.0735 32.7289ZM35.2925 23.9319C34.9781 23.922 34.6707 24.0265 34.4275 24.2259C33.7005 24.8349 33.8355 26.1939 34.7305 27.2569C35.3325 27.9719 36.1215 28.3709 36.7945 28.3719C37.1245 28.3719 37.4235 28.2749 37.6615 28.0769C38.3885 27.4669 38.2515 26.1109 37.3585 25.0439C36.7575 24.3299 35.9665 23.9309 35.2925 23.9319ZM52.4035 26.4689C51.8855 25.5239 51.0345 24.9389 50.2925 24.9389C50.0819 24.937 49.8743 24.9879 49.6885 25.0869C48.8565 25.5429 48.7215 26.8999 49.3875 28.1189C49.9075 29.0639 50.7545 29.6479 51.4985 29.6479C51.7115 29.6479 51.9165 29.6009 52.1025 29.4999C52.9355 29.0449 53.0695 27.6879 52.4035 26.4689ZM54.9545 38.3929C54.8525 38.3929 54.7515 38.4059 54.6515 38.4319C53.7335 38.6719 53.2725 39.9529 53.6245 41.2979C53.9375 42.4959 54.7865 43.3349 55.6185 43.3359C55.7205 43.3359 55.8215 43.3232 55.9215 43.2979C56.8395 43.0589 57.3005 41.7749 56.9485 40.4299C56.6365 39.2339 55.7845 38.3929 54.9545 38.3929ZM53.7595 51.0209C53.4055 51.0219 53.0855 51.1259 52.8415 51.3479C52.1385 51.9839 52.3235 53.3349 53.2555 54.3669C53.8625 55.0379 54.6365 55.4049 55.2965 55.4059C55.6505 55.4049 55.9725 55.2999 56.2185 55.0769C56.9195 54.4409 56.7345 53.0899 55.8005 52.0599C55.1945 51.3909 54.4215 51.0209 53.7595 51.0209ZM32.9225 50.0419C32.3535 49.6579 31.7335 49.4689 31.1865 49.4699C30.6275 49.4699 30.1455 49.6679 29.8775 50.0679C29.3505 50.8559 29.8575 52.1219 31.0125 52.8929C31.5825 53.2759 32.2035 53.4659 32.7485 53.4659C33.3095 53.4659 33.7905 53.2659 34.0575 52.8659C34.5855 52.0799 34.0775 50.8129 32.9225 50.0419ZM21.1645 46.6829C20.5955 46.3009 19.9755 46.1119 19.4295 46.1119C18.8685 46.1119 18.3875 46.3109 18.1205 46.7089C17.5935 47.4959 18.1005 48.7639 19.2545 49.5339C19.8245 49.9159 20.4455 50.1079 20.9925 50.1069C21.5515 50.1069 22.0335 49.9079 22.2995 49.5069C22.8255 48.7209 22.3195 47.4549 21.1645 46.6829ZM42.5465 54.6219C42.1421 54.4543 41.7092 54.3664 41.2715 54.3629C40.4745 54.3619 39.8085 54.6889 39.5705 55.2729C39.2165 56.1499 39.9745 57.2859 41.2615 57.8039C41.6955 57.9789 42.1325 58.0619 42.5365 58.0609C43.3335 58.0609 44.0015 57.7369 44.2355 57.1529C44.5915 56.2749 43.8355 55.1409 42.5465 54.6219ZM45.1635 44.6959C44.6205 44.3729 44.0445 44.2149 43.5305 44.2149C42.9135 44.2139 42.3875 44.4439 42.1245 44.8869C41.6385 45.7009 42.2145 46.9399 43.4075 47.6499C43.9505 47.9719 44.5265 48.1299 45.0425 48.1299C45.6575 48.1299 46.1835 47.9009 46.4465 47.4579C46.9315 46.6419 46.3565 45.4039 45.1635 44.6959ZM34.5675 37.7529C33.9655 37.2529 33.2725 36.9949 32.6725 36.9959C32.2075 36.9949 31.7995 37.1509 31.5345 37.4699C30.9305 38.1989 31.3055 39.5119 32.3735 40.3979C32.9765 40.8959 33.6705 41.1559 34.2705 41.1559C34.7355 41.1559 35.1415 40.9999 35.4075 40.6809C36.0115 39.9509 35.6385 38.6379 34.5675 37.7529ZM23.8665 23.2229C23.4815 23.2239 23.1365 23.3419 22.8845 23.5909C22.2085 24.2559 22.4505 25.5989 23.4235 26.5879C24.0345 27.2059 24.7875 27.5409 25.4325 27.5419C25.8165 27.5409 26.1615 27.4229 26.4135 27.1739C27.0895 26.5079 26.8485 25.1659 25.8745 24.1779C25.2625 23.5569 24.5105 23.2239 23.8665 23.2229ZM22.8115 34.9739C22.2135 34.5009 21.5365 34.2579 20.9485 34.2589C20.4645 34.2589 20.0395 34.4219 19.7735 34.7589C19.1845 35.4999 19.5895 36.8049 20.6775 37.6649C21.2755 38.1389 21.9535 38.3799 22.5415 38.3799C23.0255 38.3799 23.4495 38.2189 23.7155 37.8809C24.3025 37.1389 23.8995 35.8359 22.8115 34.9739Z" fill="white"/>
</svg>
