<svg width="64" height="64" viewBox="0 0 64 64" fill="none" xmlns="http://www.w3.org/2000/svg">
<path d="M40.5036 23.0249C39.1716 23.0249 38.0996 24.3629 38.0996 26.0229C38.0996 27.6869 39.1716 29.0249 40.5036 29.0249C41.8276 29.0249 42.8996 27.6869 42.8996 26.0229C42.8996 24.3629 41.8276 23.0249 40.5036 23.0249ZM23.4966 23.0249C22.1736 23.0249 21.0996 24.3619 21.0996 26.0229C21.0996 27.6869 22.1736 29.0249 23.4966 29.0249C24.8276 29.0249 25.8996 27.6869 25.8996 26.0229C25.8996 24.3619 24.8276 23.0249 23.4966 23.0249Z" fill="white"/>
<path d="M62 14.793C60.59 14.73 59.705 14.167 58.979 13.302C58.836 10.378 57.798 7.557 56.29 6.332C55.443 5.644 54.249 5.296 52.741 5.296C52.62 5.296 52.495 5.305 52.372 5.309C48.127 3.035 43.692 5.211 43.692 5.211C43.982 3.658 43.252 2.826 43.801 2C35.57 2 32.004 5.462 32 5.465C31.998 5.462 28.432 2 20.201 2C20.75 2.826 20.019 3.658 20.31 5.211C20.31 5.211 15.875 3.034 11.63 5.309C11.507 5.305 11.381 5.296 11.259 5.296C9.752 5.296 8.558 5.645 7.711 6.332C6.202 7.557 5.164 10.378 5.021 13.302C4.296 14.167 3.41 14.73 2 14.793C2 14.793 2.124 18.622 5.991 21.176C5.991 21.176 1.935 25.043 2.616 33.26C2.616 33.26 4.252 31.264 8.078 30.512C3.572 34.292 6.2 39.887 2.864 43.75C2.864 43.75 7.454 44.758 9.315 43.413C8.586 49.336 12.188 51.646 12.188 54.545C16.275 53.201 16.847 49.168 16.847 49.168C16.847 56.636 19.431 56.371 19.431 60.341C19.431 60.341 23.964 59.627 25.826 55.889C26.566 59.414 30.076 59.795 32 62H32.002C33.926 59.795 37.436 59.414 38.176 55.889C40.037 59.627 44.571 60.341 44.571 60.341C44.571 56.371 47.155 56.636 47.155 49.168C47.155 49.168 47.727 53.201 51.813 54.545C51.813 51.647 55.415 49.336 54.686 43.413C56.547 44.758 61.137 43.75 61.137 43.75C57.801 39.887 60.43 34.292 55.924 30.512C59.75 31.264 61.385 33.26 61.385 33.26C62.067 25.043 58.01 21.176 58.01 21.176C61.877 18.622 62 14.793 62 14.793ZM10.509 11.31C9.157 12.411 8.354 17.034 11.134 19.025C10.7969 19.6331 10.479 20.2518 10.181 20.88C7.998 19.392 7.279 17.049 7.074 15.247C6.71 12.06 7.762 8.868 8.973 7.885C9.447 7.5 10.238 7.296 11.26 7.296C13.969 7.296 17.448 8.7 19.563 10.533C18.483 11.035 17.463 11.688 16.493 12.46C14.64 11.068 11.671 10.368 10.509 11.31ZM35.845 53.104C35.938 51.814 35.584 50.756 35.584 50.756C35.268 52.674 34.412 54.045 34.412 54.045C34.449 52.4 33.611 51.695 33.611 51.695C32.83 53.925 32.013 54.791 32.013 54.791C32.013 54.791 31.198 53.926 30.416 51.695C30.416 51.695 29.579 52.4 29.616 54.045C29.616 54.045 28.76 52.674 28.444 50.756C28.444 50.756 28.09 51.814 28.182 53.104C28.182 53.104 21.69 48.907 20.672 43.235C22.756 45.576 27.333 49.367 32.002 44.458C36.69 49.386 41.285 45.546 43.357 43.208C42.358 48.894 35.845 53.104 35.845 53.104ZM30.328 34.734C29.824 34.054 29.303 33.352 28.706 32.912C28.397 32.683 28.131 32.492 27.896 32.328C28.831 31.94 30.736 31.275 32.012 31.275C33.286 31.275 35.284 31.861 36.296 32.198C36.019 32.389 35.694 32.619 35.298 32.912C34.7 33.353 34.185 34.058 33.687 34.74C33.126 35.506 32.492 36.374 32.017 36.374H32.015C31.541 36.371 30.896 35.501 30.328 34.734ZM43.996 41.925L43.975 41.992L43.936 42.051C43.915 42.083 43.776 42.283 43.544 42.566C41.602 43.972 36.992 46.433 33 42.706V36.837L36.82 35.222C37.402 34.954 37.879 34.226 37.879 33.608L37.875 31.88C37.875 31.88 35.815 30.276 32.013 30.276C28.211 30.276 26.139 31.88 26.139 31.88L26.129 33.607C26.129 34.225 26.607 34.954 27.188 35.221L31 36.833V42.712C27.041 46.401 22.478 44.009 20.512 42.599C20.3645 42.4224 20.2247 42.2396 20.093 42.051L20.054 41.992L20.033 41.925C19.85 41.355 19.635 40.223 19.8 39.115C19.962 38.039 20.478 37.03 20.748 36.548C21.095 35.928 26.127 31.889 26.139 31.88C27.766 29.013 27.966 28.732 29.368 28.119C29.959 27.862 30.982 27.733 32.006 27.733C33.03 27.733 34.051 27.862 34.643 28.119C36.044 28.731 36.249 29.012 37.877 31.879C37.877 31.879 42.936 35.927 43.283 36.548C43.553 37.03 44.07 38.041 44.23 39.115C44.395 40.223 44.179 41.354 43.996 41.925ZM48.932 28.652C48.47 30.824 45.385 33.006 44.187 36.138C44.175 36.115 44.166 36.081 44.155 36.059C43.864 35.54 42.009 33.902 38.636 31.189C37.071 28.438 36.723 27.937 35.041 27.203C34.067 26.778 32.592 26.733 32.004 26.733C31.414 26.733 29.94 26.778 28.967 27.202C27.278 27.94 26.934 28.441 25.355 31.22C22.007 33.915 20.164 35.543 19.875 36.06C19.862 36.082 19.854 36.118 19.842 36.142C18.638 33.009 15.531 30.826 15.071 28.653C14.601 26.439 16.622 21.397 18.525 20.332C18.866 20.143 20.07 20.332 20.07 20.332C20.426 19.856 22.355 14.291 27.388 13.373C30.376 12.827 32.013 15.381 32.013 15.381C32.013 15.381 33.628 12.827 36.617 13.373C41.648 14.291 43.578 19.856 43.935 20.332C43.935 20.332 45.138 20.143 45.48 20.332C47.381 21.396 49.402 26.438 48.932 28.652ZM56.928 15.248C56.723 17.05 56.004 19.392 53.821 20.88C53.523 20.2518 53.2051 19.6331 52.868 19.025C55.649 17.034 54.845 12.411 53.493 11.31C52.331 10.369 49.362 11.069 47.511 12.46C46.54 11.689 45.521 11.035 44.441 10.533C46.554 8.7 50.033 7.296 52.742 7.296C53.765 7.296 54.556 7.5 55.031 7.885C56.24 8.868 57.293 12.062 56.928 15.248Z" fill="white"/>
</svg>
