<svg width="64" height="64" viewBox="0 0 64 64" fill="none" xmlns="http://www.w3.org/2000/svg">
<path d="M59.5226 25.844C58.9826 25.19 58.4246 24.513 58.2956 24.122C58.1646 23.733 58.2076 22.868 58.2476 22.032C58.3396 20.167 58.4526 17.845 57.0816 16.409C55.7616 15.026 53.5166 14.853 50.1296 15.927C49.0891 16.2573 48.0646 16.636 47.0596 17.062C48.7666 13.779 50.1066 10.183 48.5326 9.071C47.1986 8.127 44.7666 9.675 42.4246 11.748C42.4366 11.39 42.4546 11.035 42.4546 10.67C42.4546 6.244 40.9916 4 38.1056 4C36.7286 4 35.2856 4.532 34.0106 5C33.2006 5.299 32.3626 5.607 31.9296 5.607C31.4976 5.607 30.6596 5.298 29.8496 5C28.5766 4.532 27.1326 4 25.7556 4C22.8696 4 21.4066 6.244 21.4066 10.669C21.4066 10.991 21.4246 11.305 21.4326 11.622C19.1336 9.612 16.7736 8.145 15.4656 9.07C13.8536 10.21 15.2966 13.953 17.0606 17.298C16.0168 16.8508 14.9519 16.4547 13.8696 16.111C10.4826 15.038 8.23958 15.209 6.91758 16.593C5.54658 18.03 5.65958 20.35 5.75058 22.215C5.79058 23.051 5.83358 23.916 5.70258 24.305C5.57358 24.696 5.01458 25.373 4.47458 26.029C3.15158 27.637 1.50158 29.638 2.13958 31.787C2.62458 33.42 4.33758 34.682 7.37758 35.642C7.61858 35.718 7.85958 35.772 8.10258 35.843C6.17458 37.114 4.84758 38.471 5.24858 39.675C5.84258 41.449 9.66358 41.35 13.3476 40.806C12.2865 41.8882 11.299 43.0401 10.3916 44.254C8.52858 46.749 7.89458 48.737 8.45258 50.333C9.19958 52.473 11.7606 53.153 13.8176 53.7C14.6536 53.923 15.5176 54.152 15.8656 54.399C16.2116 54.643 16.7016 55.369 17.1756 56.072C18.3576 57.822 19.8266 60 22.1556 60C23.8526 60 25.5706 58.803 27.4076 56.343C27.9512 55.6129 28.4653 54.8613 28.9486 54.09C29.5986 56.596 30.5666 58.594 32.0016 58.594C33.5016 58.594 34.4886 56.41 35.1386 53.749C35.6612 54.5996 36.2211 55.4267 36.8166 56.228C38.6546 58.69 40.3726 59.885 42.0696 59.885C44.4006 59.885 45.8686 57.707 47.0486 55.957C47.5226 55.256 48.0106 54.53 48.3556 54.286C48.7036 54.04 49.5686 53.809 50.4046 53.588C52.4636 53.04 55.0236 52.359 55.7696 50.221C56.3266 48.623 55.6926 46.635 53.8316 44.14C52.9736 42.9904 52.0438 41.8962 51.0476 40.864C54.6066 41.356 58.1816 41.387 58.7516 39.676C59.1686 38.431 57.7336 37.02 55.6976 35.712C56.0066 35.625 56.3156 35.553 56.6226 35.456C59.6626 34.495 61.3756 33.234 61.8616 31.601C62.4966 29.452 60.8476 27.451 59.5226 25.844ZM25.7566 5.931C26.7866 5.931 28.0586 6.4 29.1806 6.813C30.2386 7.203 31.1536 7.54 31.9306 7.54C32.7086 7.54 33.6236 7.203 34.6816 6.813C35.8026 6.4 37.0746 5.931 38.1056 5.931C38.8276 5.931 40.5186 5.931 40.5186 10.669C40.5186 19.657 36.5856 27.251 31.9306 27.251C27.2756 27.251 23.3426 19.657 23.3426 10.669C23.3426 5.931 25.0346 5.931 25.7566 5.931ZM7.96458 33.802C5.65058 33.071 4.27858 32.184 3.99858 31.239C3.65258 30.073 4.93858 28.511 5.97258 27.257C6.68458 26.393 7.29858 25.647 7.54058 24.917C7.78558 24.186 7.73958 23.229 7.68558 22.123C7.61258 20.626 7.52158 18.764 8.32158 17.927C8.69158 17.538 9.27558 17.349 10.1056 17.349C10.9496 17.349 12.0196 17.552 13.2866 17.953C19.4756 19.91 24.4806 23.4 26.3496 27.059C27.0796 28.489 27.2496 29.813 26.8546 30.995C25.9706 33.643 22.2146 35.289 17.0546 35.289C14.1816 35.288 11.0396 34.774 7.96458 33.802ZM25.8556 55.188C24.4496 57.073 23.1686 58.069 22.1556 58.069C20.8576 58.069 19.7076 56.365 18.7846 54.995C18.1606 54.071 17.6226 53.272 16.9876 52.824C16.3556 52.377 15.4126 52.126 14.3186 51.836C12.7036 51.406 10.6936 50.872 10.2836 49.7C9.96258 48.779 10.5376 47.297 11.9466 45.409C16.1256 39.808 21.7806 36.046 26.0166 36.046C27.1656 36.046 28.1486 36.33 28.9396 36.888C30.0046 37.643 30.6766 38.855 30.9356 40.491C31.5736 44.505 29.6256 50.137 25.8556 55.188ZM32.0006 36.224C31.4914 36.2245 30.987 36.1247 30.5164 35.9303C30.0457 35.7359 29.618 35.4507 29.2576 35.0909C28.8972 34.7312 28.6112 34.304 28.4159 33.8337C28.2207 33.3634 28.12 32.8592 28.1196 32.35C28.1201 31.8409 28.2209 31.3368 28.4162 30.8666C28.6115 30.3965 28.8976 29.9694 29.258 29.6097C29.6183 29.2501 30.046 28.9649 30.5166 28.7706C30.9872 28.5762 31.4914 28.4765 32.0006 28.477C32.5098 28.4763 33.0142 28.576 33.4849 28.7703C33.9555 28.9646 34.3834 29.2497 34.7438 29.6094C35.1043 29.969 35.3904 30.3962 35.5858 30.8664C35.7812 31.3367 35.8821 31.8408 35.8826 32.35C35.881 33.3783 35.4712 34.364 34.7433 35.0904C34.0154 35.8168 33.0289 36.2245 32.0006 36.224ZM52.2776 45.294C53.6866 47.182 54.2606 48.666 53.9406 49.585C53.5316 50.757 51.5206 51.291 49.9046 51.722C48.8096 52.012 47.8666 52.264 47.2336 52.712C46.6006 53.16 46.0636 53.956 45.4416 54.879C44.5166 56.249 43.3686 57.954 42.0686 57.954C41.0546 57.954 39.7746 56.958 38.3676 55.073C34.5966 50.019 32.6496 44.386 33.2876 40.374C33.5476 38.739 34.2196 37.528 35.2846 36.774C36.0756 36.215 37.0576 35.932 38.2076 35.932C42.4426 35.933 48.0986 39.695 52.2776 45.294ZM60.0036 31.053C59.7236 31.997 58.3516 32.884 56.0356 33.616C52.9596 34.589 49.8156 35.104 46.9406 35.104C41.7826 35.104 38.0296 33.458 37.1456 30.81C36.7496 29.628 36.9206 28.303 37.6516 26.873C39.5196 23.214 44.5246 19.725 50.7146 17.768C51.9816 17.367 53.0516 17.164 53.8956 17.164C54.7256 17.164 55.3096 17.353 55.6806 17.741C56.4796 18.579 56.3886 20.442 56.3166 21.938C56.2606 23.045 56.2146 24.001 56.4606 24.734C56.7026 25.463 57.3166 26.209 58.0276 27.07C59.0636 28.325 60.3496 29.887 60.0036 31.053Z" fill="white"/>
</svg>
