<svg width="64" height="64" viewBox="0 0 64 64" fill="none" xmlns="http://www.w3.org/2000/svg">
<path d="M61.5829 4.25296L61.5869 4.27196C61.1939 3.41396 59.9309 2.84896 57.2459 3.53796C56.0889 3.83396 54.5989 4.48996 53.3989 5.91796C44.5769 -3.22004 31.7429 5.21796 16.8899 14.987C15.6479 15.801 14.4039 16.621 13.1639 17.425C2.56495 24.311 1.66895 34.135 2.07595 39.38C2.53495 45.257 5.04395 51.119 8.78495 55.06C12.5259 59.001 18.0279 61.579 23.5009 61.955C28.3839 62.284 37.5029 61.124 43.6959 49.591C44.4252 48.2324 45.1585 46.8761 45.8959 45.522C53.6409 31.27 60.4529 18.728 55.9969 9.58796L56.8229 9.05596C58.1804 8.27087 59.5955 7.58992 61.0559 7.01896C62.8099 6.32896 61.5829 4.25296 61.5829 4.25296ZM36.0459 42.116C27.5489 57.945 17.1219 60.637 10.2729 53.425C3.42795 46.21 0.427947 29.371 14.9779 19.916C29.5239 10.463 44.2909 -0.481042 52.0069 7.64696C59.7199 15.774 44.5399 26.283 36.0459 42.116Z" fill="white"/>
<path d="M17.1935 27.0198C11.1855 33.6128 11.9245 43.0788 15.6515 44.9008C19.4045 46.7698 24.8955 43.8518 28.9845 39.4418C33.0025 34.9568 35.6035 28.9958 33.7935 24.9978C32.0245 21.0298 23.2085 20.4278 17.1935 27.0198ZM21.3895 29.7568C21.0345 30.6788 19.5615 32.8678 18.7485 34.8358C17.8495 36.7908 17.3335 38.4888 16.3325 39.1278C15.3085 39.9228 13.9995 37.6598 16.5455 33.6388C19.1395 29.7928 21.8745 28.8298 21.3895 29.7568Z" fill="white"/>
</svg>
