<svg width="64" height="64" viewBox="0 0 64 64" fill="none" xmlns="http://www.w3.org/2000/svg">
<path d="M60.5005 30.5H53.6045L57.7605 26.343C57.9038 26.2046 58.018 26.0391 58.0967 25.8561C58.1753 25.6731 58.2166 25.4763 58.2184 25.2771C58.2201 25.0779 58.1822 24.8804 58.1067 24.6961C58.0313 24.5117 57.9199 24.3442 57.7791 24.2034C57.6383 24.0626 57.4708 23.9512 57.2864 23.8758C57.1021 23.8003 56.9046 23.7624 56.7054 23.7641C56.5062 23.7659 56.3094 23.8072 56.1264 23.8858C55.9434 23.9645 55.7779 24.0787 55.6395 24.222L49.3615 30.5H44.6585L47.1545 28.006C47.2978 27.8676 47.412 27.7021 47.4907 27.5191C47.5693 27.3361 47.6106 27.1393 47.6124 26.9401C47.6141 26.7409 47.5762 26.5434 47.5007 26.3591C47.4253 26.1747 47.3139 26.0072 47.1731 25.8664C47.0323 25.7256 46.8648 25.6142 46.6804 25.5388C46.4961 25.4633 46.2986 25.4254 46.0994 25.4271C45.9002 25.4289 45.7034 25.4702 45.5204 25.5488C45.3374 25.6275 45.1719 25.7417 45.0335 25.885L40.4165 30.5H35.6215L44.6665 21.456H53.5455C53.9433 21.456 54.3249 21.298 54.6062 21.0167C54.8875 20.7354 55.0455 20.3538 55.0455 19.956C55.0455 19.5582 54.8875 19.1766 54.6062 18.8953C54.3249 18.614 53.9433 18.456 53.5455 18.456H47.6665L53.2135 12.908C53.3568 12.7696 53.471 12.6041 53.5497 12.4211C53.6283 12.2381 53.6696 12.0413 53.6714 11.8421C53.6731 11.6429 53.6352 11.4454 53.5597 11.2611C53.4843 11.0767 53.3729 10.9092 53.2321 10.7684C53.0913 10.6276 52.9238 10.5162 52.7394 10.4408C52.5551 10.3653 52.3576 10.3274 52.1584 10.3291C51.9592 10.3309 51.7624 10.3722 51.5794 10.4508C51.3964 10.5295 51.2309 10.6437 51.0925 10.787L45.5455 16.335V10.456C45.5455 10.0582 45.3875 9.67664 45.1062 9.39534C44.8249 9.11404 44.4433 8.956 44.0455 8.956C43.6477 8.956 43.2661 9.11404 42.9848 9.39534C42.7035 9.67664 42.5455 10.0582 42.5455 10.456V19.335L33.5005 28.379V23.584L38.1155 18.968C38.2588 18.8296 38.373 18.6641 38.4517 18.4811C38.5303 18.2981 38.5716 18.1013 38.5734 17.9021C38.5751 17.7029 38.5372 17.5054 38.4617 17.3211C38.3863 17.1367 38.2749 16.9692 38.1341 16.8284C37.9933 16.6876 37.8258 16.5762 37.6414 16.5008C37.4571 16.4253 37.2596 16.3874 37.0604 16.3891C36.8612 16.3909 36.6644 16.4322 36.4814 16.5108C36.2984 16.5895 36.1329 16.7037 35.9945 16.847L33.5005 19.342V14.639L39.7795 8.361C39.9228 8.22263 40.037 8.05711 40.1157 7.87411C40.1943 7.6911 40.2356 7.49427 40.2374 7.2951C40.2391 7.09593 40.2012 6.89841 40.1257 6.71407C40.0503 6.52972 39.9389 6.36225 39.7981 6.22141C39.6573 6.08057 39.4898 5.96919 39.3054 5.89377C39.1211 5.81835 38.9236 5.78039 38.7244 5.78212C38.5252 5.78386 38.3284 5.82523 38.1454 5.90385C37.9624 5.98246 37.7969 6.09673 37.6585 6.24L33.5005 10.396V3.5C33.5005 3.10218 33.3425 2.72064 33.0612 2.43934C32.7799 2.15804 32.3983 2 32.0005 2C31.6027 2 31.2211 2.15804 30.9398 2.43934C30.6585 2.72064 30.5005 3.10218 30.5005 3.5V10.396L26.3445 6.239C26.2061 6.09573 26.0406 5.98146 25.8576 5.90285C25.6746 5.82423 25.4778 5.78285 25.2786 5.78112C25.0794 5.77939 24.8819 5.81735 24.6976 5.89277C24.5132 5.96819 24.3457 6.07957 24.2049 6.22041C24.0641 6.36125 23.9527 6.52872 23.8773 6.71307C23.8018 6.89741 23.7639 7.09493 23.7656 7.2941C23.7674 7.49327 23.8087 7.6901 23.8873 7.87311C23.966 8.05611 24.0802 8.22163 24.2235 8.36L30.5005 14.638V19.341L28.0065 16.846C27.8681 16.7027 27.7026 16.5885 27.5196 16.5098C27.3366 16.4312 27.1398 16.3899 26.9406 16.3881C26.7414 16.3864 26.5439 16.4243 26.3596 16.4998C26.1752 16.5752 26.0077 16.6866 25.8669 16.8274C25.7261 16.9682 25.6147 17.1357 25.5393 17.3201C25.4638 17.5044 25.4259 17.7019 25.4276 17.9011C25.4294 18.1003 25.4707 18.2971 25.5493 18.4801C25.628 18.6631 25.7422 18.8286 25.8855 18.967L30.5005 23.583V28.378L21.4575 19.334V10.455C21.4575 10.0572 21.2995 9.67564 21.0182 9.39434C20.7369 9.11303 20.3553 8.955 19.9575 8.955C19.5597 8.955 19.1781 9.11303 18.8968 9.39434C18.6155 9.67564 18.4575 10.0572 18.4575 10.455V16.334L12.9085 10.786C12.7701 10.6427 12.6046 10.5285 12.4216 10.4498C12.2386 10.3712 12.0418 10.3299 11.8426 10.3281C11.6434 10.3264 11.4459 10.3643 11.2616 10.4398C11.0772 10.5152 10.9097 10.6266 10.7689 10.7674C10.6281 10.9082 10.5167 11.0757 10.4413 11.2601C10.3658 11.4444 10.3279 11.6419 10.3296 11.8411C10.3314 12.0403 10.3727 12.2371 10.4513 12.4201C10.53 12.6031 10.6442 12.7686 10.7875 12.907L16.3365 18.455H10.4575C10.0597 18.455 9.67814 18.613 9.39684 18.8943C9.11553 19.1756 8.9575 19.5572 8.9575 19.955C8.9575 20.3528 9.11553 20.7344 9.39684 21.0157C9.67814 21.297 10.0597 21.455 10.4575 21.455H19.3365L28.3795 30.499H23.5845L18.9695 25.884C18.8311 25.7407 18.6656 25.6265 18.4826 25.5478C18.2996 25.4692 18.1028 25.4279 17.9036 25.4261C17.7044 25.4244 17.5069 25.4623 17.3226 25.5378C17.1382 25.6132 16.9707 25.7246 16.8299 25.8654C16.6891 26.0062 16.5777 26.1737 16.5023 26.3581C16.4268 26.5424 16.3889 26.7399 16.3906 26.9391C16.3924 27.1383 16.4337 27.3351 16.5123 27.5181C16.591 27.7011 16.7052 27.8666 16.8485 28.005L19.3425 30.499H14.6395L8.3625 24.221C8.22413 24.0777 8.05861 23.9635 7.87561 23.8848C7.6926 23.8062 7.49577 23.7649 7.2966 23.7631C7.09743 23.7614 6.89991 23.7993 6.71557 23.8748C6.53122 23.9502 6.36375 24.0616 6.22291 24.2024C6.08207 24.3432 5.97069 24.5107 5.89527 24.6951C5.81985 24.8794 5.78189 25.0769 5.78362 25.2761C5.78536 25.4753 5.82673 25.6721 5.90535 25.8551C5.98396 26.0381 6.09823 26.2036 6.2415 26.342L10.3975 30.499H3.5005C3.10254 30.499 2.72088 30.6571 2.43949 30.9385C2.15809 31.2199 2 31.6015 2 31.9995C2 32.3975 2.15809 32.7791 2.43949 33.0605C2.72088 33.3419 3.10254 33.5 3.5005 33.5H10.3965L6.2405 37.657C6.10123 37.7963 5.99077 37.9617 5.91543 38.1438C5.84008 38.3258 5.80133 38.5209 5.80137 38.7179C5.80142 38.9149 5.84027 39.1099 5.9157 39.2919C5.99113 39.4739 6.10167 39.6392 6.241 39.7785C6.38033 39.9178 6.54573 40.0282 6.72775 40.1036C6.90977 40.1789 7.10485 40.2177 7.30185 40.2176C7.49885 40.2176 7.69391 40.1787 7.8759 40.1033C8.05789 40.0279 8.22323 39.9173 8.3625 39.778L14.6395 33.5H19.3425L16.8485 35.994C16.5672 36.2754 16.4093 36.657 16.4094 37.0549C16.4095 37.4527 16.5676 37.8342 16.849 38.1155C17.1304 38.3968 17.512 38.5547 17.9099 38.5546C18.3077 38.5545 18.6892 38.3964 18.9705 38.115L23.5855 33.5H28.3805L19.3375 42.544H10.4585C10.0607 42.544 9.67914 42.702 9.39784 42.9833C9.11653 43.2646 8.9585 43.6462 8.9585 44.044C8.9585 44.4418 9.11653 44.8234 9.39784 45.1047C9.67914 45.386 10.0607 45.544 10.4585 45.544H16.3375L10.7885 51.092C10.6492 51.2313 10.5388 51.3967 10.4634 51.5788C10.3881 51.7608 10.3493 51.9559 10.3494 52.1529C10.3495 52.5507 10.5076 52.9322 10.789 53.2135C11.0704 53.4948 11.452 53.6527 11.8499 53.6526C12.2477 53.6525 12.6292 53.4944 12.9105 53.213L18.4595 47.665V53.544C18.4595 53.9418 18.6175 54.3234 18.8988 54.6047C19.1801 54.886 19.5617 55.044 19.9595 55.044C20.3573 55.044 20.7389 54.886 21.0202 54.6047C21.3015 54.3234 21.4595 53.9418 21.4595 53.544V44.665L30.5025 35.621V40.416L25.8875 45.032C25.6062 45.3134 25.4483 45.695 25.4484 46.0929C25.4485 46.4907 25.6066 46.8722 25.888 47.1535C26.1694 47.4348 26.551 47.5927 26.9489 47.5926C27.3467 47.5925 27.7282 47.4344 28.0095 47.153L30.5035 44.658V49.361L24.2265 55.638C24.0872 55.7773 23.9768 55.9427 23.9014 56.1248C23.8261 56.3068 23.7873 56.5019 23.7874 56.6989C23.7874 56.8959 23.8263 57.0909 23.9017 57.2729C23.9771 57.4549 24.0877 57.6202 24.227 57.7595C24.3663 57.8988 24.5317 58.0092 24.7138 58.0846C24.8958 58.1599 25.0909 58.1987 25.2879 58.1986C25.4849 58.1986 25.6799 58.1597 25.8619 58.0843C26.0439 58.0089 26.2092 57.8983 26.3485 57.759L30.5045 53.603V60.5C30.5045 60.8978 30.6625 61.2794 30.9438 61.5607C31.2251 61.842 31.6067 62 32.0045 62C32.4023 62 32.7839 61.842 33.0652 61.5607C33.3465 61.2794 33.5045 60.8978 33.5045 60.5V53.604L37.6625 57.76C37.9555 58.053 38.3385 58.199 38.7235 58.199C39.0201 58.1989 39.31 58.111 39.5565 57.9462C39.8031 57.7814 39.9953 57.5473 40.1089 57.2733C40.2224 56.9993 40.2522 56.6979 40.1945 56.407C40.1367 56.1161 39.9941 55.8488 39.7845 55.639L33.5005 49.361V44.658L35.9945 47.153C36.2875 47.446 36.6725 47.592 37.0555 47.592C37.3521 47.5919 37.642 47.504 37.8885 47.3392C38.1351 47.1744 38.3273 46.9403 38.4409 46.6663C38.5544 46.3923 38.5842 46.0909 38.5265 45.8C38.4687 45.5091 38.3261 45.2418 38.1165 45.032L33.5005 40.416V35.621L42.5455 44.665V53.544C42.5455 53.9418 42.7035 54.3234 42.9848 54.6047C43.2661 54.886 43.6477 55.044 44.0455 55.044C44.4433 55.044 44.8249 54.886 45.1062 54.6047C45.3875 54.3234 45.5455 53.9418 45.5455 53.544V47.665L51.0925 53.213C51.3855 53.506 51.7705 53.652 52.1535 53.652C52.4501 53.6519 52.74 53.564 52.9865 53.3992C53.2331 53.2344 53.4253 53.0003 53.5389 52.7263C53.6524 52.4523 53.6822 52.1509 53.6245 51.86C53.5667 51.5691 53.4241 51.3018 53.2145 51.092L47.6675 45.544H53.5465C53.9443 45.544 54.3259 45.386 54.6072 45.1047C54.8885 44.8234 55.0465 44.4418 55.0465 44.044C55.0465 43.6462 54.8885 43.2646 54.6072 42.9833C54.3259 42.702 53.9443 42.544 53.5465 42.544H44.6675L35.6215 33.5H40.4165L45.0335 38.115C45.3265 38.408 45.7095 38.554 46.0945 38.554C46.3911 38.5539 46.681 38.466 46.9275 38.3012C47.1741 38.1364 47.3663 37.9023 47.4799 37.6283C47.5934 37.3543 47.6232 37.0529 47.5655 36.762C47.5077 36.4711 47.3651 36.2038 47.1555 35.994L44.6585 33.5H49.3615L55.6385 39.778C55.9315 40.071 56.3165 40.217 56.6995 40.217C56.9961 40.2169 57.286 40.129 57.5325 39.9642C57.7791 39.7994 57.9713 39.5653 58.0849 39.2913C58.1984 39.0173 58.2282 38.7159 58.1705 38.425C58.1127 38.1341 57.9701 37.8668 57.7605 37.657L53.6045 33.5H60.5005C60.8983 33.5 61.2799 33.342 61.5612 33.0607C61.8425 32.7794 62.0005 32.3978 62.0005 32C62.0005 31.6022 61.8425 31.2206 61.5612 30.9393C61.2799 30.658 60.8983 30.5 60.5005 30.5Z" fill="white"/>
</svg>
