<svg width="64" height="64" viewBox="0 0 64 64" fill="none" xmlns="http://www.w3.org/2000/svg">
<path d="M49.814 2.05377C47.14 1.66677 44.142 3.36277 43.555 7.33577C43.066 10.6538 41.805 18.8348 41.163 22.9878C40.194 22.1798 38.913 21.7298 37.532 21.7298C35.61 21.7298 33.612 22.6378 32.493 24.3578C32.3157 24.1363 32.1178 23.932 31.902 23.7478C30.952 22.9628 29.675 22.5318 28.309 22.5318C26.124 22.5318 23.925 23.6458 23.083 25.7898L20.66 13.5708C20.072 11.5058 18.649 10.0478 16.754 9.57177C14.854 9.09377 12.759 9.68077 11.415 11.0658C10.11 12.4108 9.68302 14.3268 10.237 16.3298C10.409 17.3228 13.007 32.3738 13.442 35.0888C13.663 36.4518 13.603 37.8198 13.53 39.5528C13.429 41.8938 13.306 44.8078 13.863 48.9088C14.882 56.4178 21.652 61.5458 31.111 61.9748C31.4977 61.9914 31.8864 61.9998 32.277 61.9998C40.384 61.9998 49.534 58.2278 51.511 49.6038C52.699 44.4338 51.785 41.0068 49.905 38.4228C50.289 35.4908 52.876 15.6338 53.926 8.14677C54.444 4.44077 52.159 2.39077 49.814 2.05377ZM45.116 7.34677C45.964 1.60177 52.153 3.04977 51.537 7.53177L47.689 36.0358C46.283 34.8108 44.677 33.7668 43.086 32.7378L42.966 32.6608C42.966 32.6608 42.986 28.6328 43.07 27.2388C43.108 26.5738 42.959 25.4888 42.585 24.8478C42.586 24.8478 44.491 11.5918 45.116 7.34677ZM39.934 26.2208V31.1718C38.66 30.9158 37.552 31.2138 36.339 31.5518C35.568 31.7678 34.689 32.0078 33.599 32.1538L33.272 26.8478C33.271 22.3658 39.953 22.8778 39.934 26.2208ZM24.178 27.4098C23.865 23.2218 30.459 23.3468 30.557 27.2808V32.2498C28.829 32.4088 27.07 33.4078 26.5 35.3478C26.311 36.017 26.2637 36.7182 26.361 37.4068C25.8588 37.1103 25.4433 36.6871 25.156 36.1796C24.8687 35.672 24.7197 35.098 24.724 34.5148L24.178 27.4098ZM14.927 34.9098C14.476 32.1058 11.489 15.8468 11.489 15.8468C10.204 11.3278 17.146 9.54277 18.239 13.8478C18.239 13.8478 21.451 30.4078 22.738 35.8788C23.232 37.9738 25.241 39.5398 27.417 39.8198C27.834 40.3278 28.38 40.7988 29.09 41.1988C29.104 41.2068 29.114 41.2198 29.13 41.2278L29.15 41.2368C30.054 41.6558 31.057 42.0548 32.123 42.2598C29.888 43.5088 28.084 45.9448 29.178 49.9248C29.089 43.3568 34.474 42.0208 37.173 41.8628C37.221 41.9128 40.034 45.0428 40.319 45.5808C40.589 46.0898 40.382 47.3808 40.382 47.3808C40.382 47.3808 40.969 46.1578 40.719 45.4618C40.49 44.8278 38.514 41.2288 37.135 40.6258C36.428 40.3148 35.174 41.0008 33.543 40.6808C32.432 40.4628 30.758 39.6228 29.912 39.1128C27.084 37.4058 27.589 33.5458 30.146 33.7218C33.248 33.9368 35.24 33.2138 36.71 32.8058C38.426 32.3258 39.852 32.0968 41.427 33.1278C41.427 33.1278 48.835 38.3778 49.898 41.9718C51.178 47.8558 47.927 58.5598 32.376 59.4718C26.268 59.4718 22.382 57.7378 20.063 56.1038C17.891 54.3318 15.868 51.9148 15.425 48.6598C14.893 44.7348 15.179 36.4748 14.927 34.9098Z" fill="white"/>
</svg>
