<svg width="64" height="64" viewBox="0 0 64 64" fill="none" xmlns="http://www.w3.org/2000/svg">
<path d="M32 2C15.459 2 2 15.459 2 32C2 48.543 15.459 62 32 62C48.542 62 62 48.543 62 32C62 15.459 48.543 2 32 2ZM52.047 48.204C50.8626 47.1302 49.5942 46.1527 48.254 45.281C49.9349 41.8841 50.9569 38.1994 51.266 34.422H57.676C57.2005 39.4707 55.242 44.266 52.047 48.204ZM6.326 34.422H12.623C12.9361 38.2196 13.9673 41.9232 15.662 45.336C14.3527 46.1938 13.1126 47.1527 11.953 48.204C8.75668 44.267 6.79859 39.4711 6.326 34.422ZM11.953 15.797C13.1127 16.8479 14.3528 17.8065 15.662 18.664C13.8699 22.2672 12.8211 26.1941 12.578 30.211H6.273C6.63665 24.936 8.62036 19.902 11.953 15.797ZM29.895 9.559V19.207C27.0055 18.9793 24.176 18.2607 21.528 17.082C23.7296 13.9893 26.5865 11.4206 29.895 9.559ZM29.895 23.428V30.211H16.797C17.0287 26.9129 17.897 23.6909 19.354 20.723C22.6711 22.2662 26.2447 23.1833 29.895 23.428ZM29.895 34.422V40.572C26.2323 40.8184 22.6471 41.7417 19.321 43.295C17.969 40.5104 17.1312 37.5045 16.848 34.422H29.895ZM29.895 44.795V54.463C26.5643 52.6151 23.6899 50.0444 21.483 46.94C24.1431 45.7476 26.9887 45.022 29.895 44.795ZM34.105 54.375V44.795C37 45.025 39.787 45.733 42.382 46.879C40.2009 49.9498 37.3762 52.5079 34.105 54.375ZM34.105 40.572V34.422H47.039C46.746 37.485 45.9032 40.4701 44.551 43.234C41.2605 41.7169 37.7202 40.8147 34.105 40.572ZM34.105 30.211V23.428C37.7219 23.1859 41.264 22.2837 44.556 20.766C46.0001 23.7222 46.8608 26.929 47.091 30.211H34.105ZM34.105 19.207V9.623C37.3784 11.4894 40.2052 14.0475 42.388 17.119C39.764 18.2758 36.9638 18.9817 34.105 19.207ZM44.533 12.966C42.5581 10.5747 40.2244 8.50412 37.615 6.828C41.8985 7.785 45.8655 9.82308 49.138 12.748C48.1921 13.5996 47.1839 14.3794 46.122 15.081C45.6248 14.3522 45.0946 13.6465 44.533 12.966ZM19.355 12.967C18.8073 13.632 18.2885 14.3203 17.8 15.03C16.7671 14.3408 15.7849 13.5785 14.861 12.749C18.0911 9.86435 21.9965 7.84095 26.216 6.866C23.6295 8.53559 21.3154 10.5933 19.355 12.967ZM17.801 48.971C18.209 49.5657 18.6393 50.145 19.092 50.709C21.1079 53.2204 23.5151 55.3909 26.221 57.137C21.9998 56.1628 18.0929 54.139 14.862 51.253C15.7859 50.4231 16.7681 49.6605 17.801 48.971ZM44.574 50.984C45.1204 50.3186 45.6379 49.6299 46.125 48.92C47.1854 49.6229 48.1928 50.4026 49.139 51.253C45.8653 54.1761 41.8987 56.2139 37.616 57.173C40.2433 55.4847 42.5909 53.3966 44.574 50.984ZM51.311 30.211C51.069 26.2147 50.0296 22.3073 48.254 18.719C49.5942 17.8476 50.8625 16.8705 52.047 15.797C55.3802 19.9017 57.364 24.9359 57.727 30.211H51.311Z" fill="white"/>
</svg>
