<svg width="64" height="64" viewBox="0 0 64 64" fill="none" xmlns="http://www.w3.org/2000/svg">
<path d="M17.7181 8.893C24.1751 8.893 30.6201 12.951 31.9921 17.673C33.0041 13.177 39.6021 8.938 46.2481 8.938C51.4181 8.938 56.6161 11.502 59.2381 18.505C65.6831 35.724 34.2381 52.258 31.9911 54.304C29.7441 51.729 -1.69888 36.02 4.75012 18.515C7.33012 11.512 12.5281 8.892 17.7181 8.893ZM17.7181 7H17.7161C10.9021 7 5.53512 10.957 2.99312 17.855C-2.79488 33.565 18.2211 47.334 27.1931 53.211C28.6381 54.158 30.2751 55.231 30.5971 55.565L31.8511 57L33.2471 55.708C33.4791 55.504 34.5521 54.817 35.5901 54.153C44.1941 48.645 67.0481 34.012 60.9911 17.835C58.4251 10.977 53.0511 7.044 46.2491 7.044C40.5051 7.044 34.8231 9.807 31.9371 13.598C28.9551 9.75 23.3451 7.001 17.7181 7Z" fill="white"/>
</svg>
