<svg width="64" height="64" viewBox="0 0 64 64" fill="none" xmlns="http://www.w3.org/2000/svg">
<path d="M59.5 43.785C59.5005 41.5761 58.6887 39.4441 57.219 37.795C58.7152 34.5997 59.4931 31.1153 59.498 27.587C59.498 13.479 47.162 2 31.998 2C16.836 2 4.5 13.479 4.5 27.587C4.5 31.103 5.283 34.593 6.777 37.795C5.3088 39.4447 4.49839 41.5766 4.5 43.785C4.5 48.181 7.717 51.883 12.047 52.897C12.0255 52.9869 12.0059 53.0773 11.988 53.168C11.64 54.956 12.123 56.772 13.347 58.272C14.876 60.145 17.404 61.318 19.964 61.346C20.116 61.358 20.409 61.373 20.741 61.373C21.606 61.373 22.581 61.286 23.372 60.682L23.376 60.685C24.559 61.772 26.4 62 27.738 62C29.041 62 30.82 61.784 32 60.774C33.182 61.785 34.959 62 36.26 62C37.598 62 39.44 61.772 40.617 60.688L40.623 60.682C41.414 61.286 42.391 61.373 43.254 61.373C43.588 61.373 43.883 61.357 44.035 61.346C46.592 61.318 49.117 60.147 50.646 58.275C51.873 56.774 52.357 54.959 52.009 53.162C51.9943 53.0867 51.9747 52.9983 51.95 52.897C56.281 51.884 59.5 48.182 59.5 43.785ZM49.555 50.652C49.167 50.652 48.7853 50.6237 48.41 50.567C48.879 51.641 49.426 52.974 49.555 53.644C50.1 56.461 47.041 58.827 43.938 58.827C43.938 58.827 43.625 58.852 43.254 58.852C42.813 58.852 42.287 58.816 42.111 58.654C40.949 57.585 42.111 52.772 42.111 52.772C42.111 51.961 41.4 51.305 40.519 51.305C39.644 51.305 38.929 51.961 38.929 52.772C38.929 52.772 40.089 57.756 38.929 58.827C38.458 59.262 37.359 59.478 36.259 59.478C35.159 59.478 34.06 59.261 33.587 58.827C32.429 57.757 33.587 52.772 33.587 52.772C33.587 51.961 32.878 51.305 31.997 51.305C31.12 51.305 30.409 51.961 30.409 52.772C30.409 52.772 31.569 57.756 30.409 58.827C29.936 59.262 28.837 59.478 27.737 59.478C26.637 59.478 25.538 59.261 25.065 58.827C23.907 57.757 25.065 52.772 25.065 52.772C25.065 51.961 24.356 51.305 23.477 51.305C22.596 51.305 21.883 51.961 21.883 52.772C21.883 52.772 23.043 57.585 21.883 58.654C21.707 58.816 21.184 58.852 20.74 58.852C20.371 58.852 20.058 58.827 20.058 58.827C16.956 58.827 13.892 56.462 14.441 53.644C14.568 52.974 15.115 51.641 15.584 50.567C15.2057 50.6241 14.8236 50.6525 14.441 50.652C10.332 50.652 7 47.579 7 43.785C7 41.577 8.129 39.61 9.889 38.354C7.99611 35.0814 6.99961 31.3676 7 27.587C7 14.847 18.189 4.521 31.998 4.521C45.807 4.521 56.998 14.847 56.998 27.587C56.998 31.476 55.953 35.141 54.109 38.354C55.865 39.61 56.998 41.577 57 43.785C57 47.579 53.666 50.652 49.555 50.652Z" fill="white"/>
<path d="M14.2859 29.4551C8.26085 29.7881 15.5459 37.7471 18.3559 39.6501C21.1629 41.5471 27.9109 38.0121 27.5219 35.7061C26.9459 32.3181 17.9949 29.2491 14.2859 29.4551ZM32.0009 40.3711C30.9109 40.3711 30.4639 41.7741 29.5769 43.3251C28.8109 44.6581 26.6019 45.6081 27.9439 46.8511C29.3759 48.1721 34.6199 48.1721 36.0509 46.8511C37.3639 45.6401 35.1839 44.6581 34.4199 43.3231C33.5339 41.7731 33.0889 40.3711 32.0009 40.3711ZM49.7159 29.4551C46.0049 29.2491 37.0559 32.3191 36.4799 35.7051C36.0889 38.0121 42.8389 41.5471 45.6479 39.6491C48.4539 37.7471 55.7389 29.7871 49.7159 29.4551Z" fill="white"/>
</svg>
