<svg width="64" height="64" viewBox="0 0 64 64" fill="none" xmlns="http://www.w3.org/2000/svg">
<path d="M55.91 50.115C59.8697 44.9069 62.0094 38.5424 62 32C62 15.432 48.568 2 32 2C15.432 2 2 15.432 2 32C2 48.568 15.432 62 32 62C38.807 62 45.083 59.73 50.118 55.909L53.454 59.887C53.527 59.9594 53.6257 60 53.7285 60C53.8313 60 53.93 59.9594 54.003 59.887L59.888 54.004C59.9606 53.9303 60.0013 53.831 60.0013 53.7275C60.0013 53.624 59.9606 53.5247 59.888 53.451L55.91 50.115ZM32 60C16.561 60 4 47.439 4 32C4 16.561 16.561 4 32 4C47.439 4 60 16.561 60 32C60 38.309 57.9 44.136 54.367 48.822L48.49 43.893C48.4257 43.8307 48.3419 43.7923 48.2526 43.7845C48.1634 43.7767 48.0742 43.7998 48 43.85V42.359C48 42.16 47.82 42 47.602 42H44.4C44.179 42 44 42.16 44 42.359V44.359C44 44.16 43.82 44 43.602 44H40.4C40.179 44 40 44.16 40 44.359V42.359C40 42.16 39.82 42 39.602 42H36.4C36.179 42 36 42.16 36 42.359V44.359C36 44.16 35.82 44 35.602 44H32.4C32.179 44 32 44.16 32 44.359V42.359C32 42.16 31.82 42 31.601 42H28.4C28.179 42 28 42.16 28 42.359V44.359C28 44.16 27.82 44 27.601 44H24.4C24.179 44 24 44.16 24 44.359V42.359C24 42.16 23.82 42 23.601 42H20.4C20.179 42 20 42.16 20 42.359V44.359C20 44.16 19.82 44 19.601 44H16.4C16.179 44 16 44.16 16 44.359V49.64C16 49.84 16.18 50 16.4 50H19.601C19.82 50 20 49.84 20 49.641V47.641C20 47.84 20.179 48 20.4 48H23.601C23.82 48 24 47.84 24 47.641V49.641C24 49.84 24.179 50 24.4 50H27.601C27.82 50 28 49.84 28 49.641V47.641C28 47.84 28.179 48 28.4 48H31.601C31.82 48 32 47.84 32 47.641V49.641C32 49.84 32.179 50 32.4 50H35.602C35.82 50 36 49.84 36 49.641V47.641C36 47.84 36.18 48 36.4 48H39.601C39.82 48 40 47.84 40 47.641V49.641C40 49.84 40.18 50 40.4 50H43.601C43.82 50 44 49.84 44 49.641V48.617L48.824 54.368C43.9796 58.0285 38.0719 60.0062 32 60ZM44.039 47.79L44 47.828V47.64C44 47.695 44.016 47.744 44.039 47.79ZM57.74 54.09L54.088 57.736C54.0567 57.7685 54.0191 57.7944 53.9775 57.8121C53.9359 57.8298 53.8912 57.8389 53.846 57.8389C53.8008 57.8389 53.7561 57.8298 53.7145 57.8121C53.6729 57.7944 53.6353 57.7685 53.604 57.736L51.235 55.017C52.6061 53.8715 53.8721 52.6058 55.018 51.235L57.741 53.603C57.8041 53.6684 57.8393 53.7558 57.8391 53.8467C57.8389 53.9376 57.8034 54.0248 57.74 54.09Z" fill="white"/>
<path d="M20.5 34C23.2614 34 25.5 31.7614 25.5 29C25.5 26.2386 23.2614 24 20.5 24C17.7386 24 15.5 26.2386 15.5 29C15.5 31.7614 17.7386 34 20.5 34Z" fill="white"/>
<path d="M43.5 34C46.2614 34 48.5 31.7614 48.5 29C48.5 26.2386 46.2614 24 43.5 24C40.7386 24 38.5 26.2386 38.5 29C38.5 31.7614 40.7386 34 43.5 34Z" fill="white"/>
</svg>
