<svg width="64" height="64" viewBox="0 0 64 64" fill="none" xmlns="http://www.w3.org/2000/svg">
<path d="M32.2511 54.9322C35.5911 54.2762 36.7751 51.3992 36.7751 49.1352C36.7751 48.1062 36.5471 47.1622 36.1491 46.4302C39.1771 44.9792 39.5391 42.6272 39.5391 41.5922C39.5391 40.4012 39.1131 39.2032 38.3611 38.1992C39.6381 37.2772 40.3851 35.5452 40.3851 33.3472C40.3851 32.5052 40.2641 31.5772 40.0081 30.7682C44.3581 30.8782 51.7521 31.1262 54.4181 31.2442C57.2941 31.3722 59.0511 30.2982 60.0191 29.3762C61.2771 28.1772 61.9981 26.4552 61.9981 24.6512C61.9981 22.7982 61.2491 21.0412 59.9431 19.8272C58.9661 18.9192 57.2131 17.8772 54.4051 18.0692C49.7711 18.3862 37.8181 19.2352 31.2741 19.7022C35.2051 18.1642 36.6331 15.1632 36.6331 12.9222C36.6331 11.2802 35.9331 9.8312 34.6611 8.8402C33.4841 7.9222 31.7201 7.7352 30.3711 8.3822C26.0341 10.4612 21.4471 11.9162 18.6831 12.0892C15.8021 12.2692 6.91709 19.1212 4.47009 21.6512C2.42509 23.7632 1.99609 27.8882 1.99609 30.9762C1.99609 39.3302 5.57409 51.2832 11.6741 53.7572C18.2621 56.4262 23.8701 56.5762 32.2511 54.9322ZM11.0431 51.2292C4.60109 45.9792 3.57209 30.3002 6.93809 24.8522C8.98309 21.5422 15.8971 15.7042 20.8131 14.8912C30.2141 13.3352 29.7871 9.2912 33.5581 10.5432C35.7901 11.2842 36.9611 16.7312 29.5891 18.4812C27.6931 18.9322 23.0221 22.2912 23.0221 22.2912C23.0221 22.2912 48.1101 20.4142 53.3561 20.6812C61.0351 21.0702 60.8541 29.0452 54.9801 29.2302C51.8911 29.3282 35.8971 29.2302 35.8971 29.2302C35.8971 29.2302 38.3851 30.1862 38.3851 33.3492C38.3851 37.0912 34.4301 37.3242 34.4301 37.3242C34.4301 37.3242 37.4531 38.1852 37.4531 40.8452C37.4531 44.5682 31.7671 45.7942 31.7671 45.7942C31.7671 45.7942 35.4161 46.7242 35.4161 49.6102C35.4161 51.6102 34.1441 53.1102 31.9971 53.5322C24.0241 55.0962 15.6201 54.9572 11.0431 51.2292Z" fill="white"/>
<path d="M29.9004 46.8048L31.2964 45.7928C30.7384 45.3748 30.0404 45.2658 29.3814 45.3318C28.7184 45.4078 28.1314 45.6578 27.6544 45.9058C27.1714 46.1578 26.7804 46.4158 26.3534 46.6848C25.9304 46.9698 25.4614 47.2398 24.9004 47.6598C26.0154 48.4978 27.5724 48.2358 28.5824 47.6698C29.1004 47.3978 29.5004 47.0978 29.9004 46.8048ZM32.0664 38.5798L33.4624 37.5658C32.9044 37.1478 32.2064 37.0408 31.5474 37.1068C30.8844 37.1828 30.2974 37.4328 29.8204 37.6808C29.3374 37.9328 28.9464 38.1888 28.5194 38.4598C28.0964 38.7448 27.6274 39.0128 27.0664 39.4328C28.1814 40.2708 29.7384 40.0088 30.7484 39.4448C31.2664 39.1718 31.6664 38.8728 32.0664 38.5798ZM33.5964 30.7198L34.9924 29.7058C34.4344 29.2888 33.7364 29.1798 33.0774 29.2468C32.4134 29.3228 31.8274 29.5728 31.3494 29.8208C30.8664 30.0728 30.4764 30.3298 30.0494 30.5998C29.6254 30.8838 29.1564 31.1528 28.5954 31.5738C29.7104 32.4108 31.2684 32.1488 32.2784 31.5848C32.7954 31.3128 33.1944 31.0128 33.5964 30.7198Z" fill="white"/>
</svg>
