<svg width="64" height="64" viewBox="0 0 64 64" fill="none" xmlns="http://www.w3.org/2000/svg">
<path d="M61.9338 31.992C61.9548 31.279 62.1428 21.088 56.1118 14.454C55.8438 13.861 54.5728 11.471 50.4708 8.55C48.6521 7.13956 46.7206 5.88099 44.6958 4.787L44.6878 4.783C44.4318 4.646 39.4298 2 33.3588 2C32.8978 2 32.4418 2.027 31.9908 2.058V2.05C27.3618 1.949 22.7638 3.14 19.9928 4.391C17.5348 5.501 14.8058 7.362 14.6088 7.506C11.2048 9.41 4.74975 17.051 4.23875 21.1C2.17575 23.737 0.451754 35.582 4.24275 42.797C6.90075 52.824 16.9068 57.842 17.7028 58.227C18.1868 58.536 23.6398 61.907 30.3388 61.907C30.6198 61.907 32.3188 62.001 32.9248 62.001C40.1658 62.001 50.8958 56.897 53.1418 52.899C59.3128 48.385 62.5118 36.752 61.9338 31.992ZM17.7578 47.055C14.8888 42.414 13.2538 36.35 12.9038 34.957C13.8118 33.596 18.2908 26.992 20.8428 25.005C22.2878 25.271 28.3218 26.379 34.0128 27.409C34.7278 29.262 37.8648 37.438 38.7628 40.594C37.7728 41.768 33.8838 46.296 30.0548 49.842C25.9898 49.861 19.0758 47.516 17.7578 47.055ZM53.8238 14.58C53.8118 15.03 53.7048 16.63 52.9388 18.467C51.4178 17.69 47.5948 16.026 42.3548 15.745C41.5618 14.574 38.5778 10.491 33.8648 7.659C34.5098 6.397 35.4078 4.858 35.9328 4.389C36.1028 4.341 36.3668 4.297 36.7688 4.297C39.2958 4.297 43.6618 5.952 44.0418 6.099C44.4448 6.312 52.2928 10.538 53.8238 14.58ZM11.7728 34.012C8.34975 33.428 6.31475 32.364 5.70675 32.004C4.43375 27.387 5.45875 22.397 5.61675 21.682C6.87275 19.436 10.4488 13.711 12.8078 12.624C15.2528 12.125 18.3018 12.745 19.5438 13.048C19.4268 14.663 19.2018 19.175 19.8698 23.91C17.1638 26.088 12.8808 32.357 11.7728 34.012ZM31.6848 3.53C32.4528 3.587 33.5798 3.755 34.3518 3.984C33.5818 5.008 32.7928 6.526 32.4198 7.276C30.8498 7.533 24.8868 8.673 20.2088 11.706C19.2658 11.456 16.4178 10.789 13.7208 11.019C14.3888 9.726 15.3868 8.77 15.4938 8.672C15.8648 8.406 23.0068 3.409 31.6848 3.517V3.53ZM50.7808 41.623C49.6108 41.575 45.1028 41.318 40.1598 40.157C39.2128 36.855 36.0858 28.713 35.3708 26.861C37.6457 23.6185 39.9552 20.4003 42.2988 17.207C47.9868 17.519 51.9808 19.594 52.7538 20.027C56.0488 25.326 56.7718 30.738 56.8708 31.642C55.1208 37.088 51.6598 40.755 50.7808 41.623ZM3.65475 28.519C3.73875 29.785 3.94175 31.118 4.30875 32.436C3.97848 33.2899 3.74958 34.1797 3.62675 35.087C3.41765 32.9022 3.42703 30.702 3.65475 28.519ZM13.2988 51.878C14.8068 50.425 16.6658 49.011 17.3868 48.477C19.0168 49.051 25.7108 51.314 29.9778 51.314C30.7048 52.289 33.0818 55.342 35.9958 57.676C34.1818 59.451 31.5618 60.289 31.0988 60.428C22.9718 60.646 15.0568 56.078 13.2988 51.878ZM34.7618 60.416C35.6838 59.879 36.6448 59.172 37.4398 58.277C38.7368 58.098 44.3028 57.14 49.3328 53.445C49.6648 53.481 50.2118 53.525 50.8228 53.508C47.8048 56.465 40.4408 59.768 34.7618 60.416ZM50.1858 52.04C51.9928 47.332 51.9158 43.782 51.8268 42.648C52.8188 41.676 56.2228 38.049 58.1118 32.535C59.1298 32.705 59.7918 32.964 60.1058 33.109C60.2148 33.509 60.3968 34.433 60.2938 35.834C59.5238 40.877 56.8658 48.434 52.2098 51.775C51.7418 52.014 50.9178 52.066 50.1858 52.04Z" fill="white"/>
</svg>
