<svg width="64" height="64" viewBox="0 0 64 64" fill="none" xmlns="http://www.w3.org/2000/svg">
<path d="M25.841 40.4238L21.069 41.5998C20.998 41.6178 20.936 41.6098 20.873 41.6038L23.367 53.7718C23.423 53.7348 23.479 53.6978 23.555 53.6778L28.319 52.5058L25.841 40.4238ZM20.041 12.2398C20.049 12.2378 20.055 12.2408 20.062 12.2398L19.109 7.5918L14.142 8.7828L15.101 13.4578L20.041 12.2398ZM23.893 55.0038C23.8041 55.0241 23.712 55.0268 23.622 55.0118L24.573 59.6528L29.54 58.4638L28.594 53.8468C27.026 54.2315 25.459 54.6171 23.893 55.0038ZM20.337 13.5768L15.42 14.7868C15.403 14.7908 15.391 14.7858 15.374 14.7878L16.018 17.9248C14.482 17.2718 9.965 15.9338 2 18.2228C2 18.2228 8.082 18.9618 13.318 20.8298C10.868 21.0828 7.728 21.9068 4.226 24.0308C4.226 24.0308 10.87 23.0238 17.55 25.4038L17.855 26.8918C17.875 26.8858 17.885 26.8718 17.906 26.8668L22.813 25.6588L20.337 13.5768ZM30.396 52.0448C30.2877 52.065 30.176 52.0549 30.073 52.0158L31.67 61.9998L36.684 61.0618L35.095 51.1278L30.396 52.0448ZM28.293 9.1498C28.324 9.1438 28.351 9.1528 28.381 9.1518L27.272 2.2168L22.258 3.1538L23.37 10.1088L28.293 9.1498Z" fill="white"/>
<path d="M47.783 37.336C44.355 35.727 40.736 30.572 37.725 25.803L34.735 31.906C33.9426 31.4488 33.2264 30.8709 32.612 30.193C41.092 19.044 44.098 2 44.098 2C44.098 2 41.809 7.086 34.178 13.686C32.569 15.078 31.145 16.79 29.896 18.622L28.594 10.483L23.625 11.452C23.61 11.455 23.6 11.45 23.585 11.451L25.61 24.099L25.908 25.963C25.1727 27.6442 24.5124 29.3572 23.929 31.097L23.089 27L18.244 28.191C18.2 28.202 18.164 28.192 18.123 28.194L20.611 40.331C20.651 40.311 20.682 40.284 20.73 40.272L25.566 39.081L25.162 37.108C25.951 36.641 26.706 36.108 27.437 35.538L27.708 37.227C27.74 37.215 27.764 37.194 27.801 37.186L32.712 36.229L31.942 31.415C32.6003 32.0921 33.351 32.6725 34.172 33.139L32.075 37.744L28.137 38.512C28.0618 38.5251 27.9848 38.5238 27.91 38.508L29.876 50.795C29.931 50.764 29.983 50.731 30.057 50.717C31.6637 50.403 33.2704 50.09 34.877 49.778L33.534 41.382C35.483 44.333 39.653 49.528 46.385 52.57C56.178 56.996 58.34 60.982 58.34 60.982L62 47.25C62 47.25 59.201 42.695 47.783 37.336ZM57.356 56.902C55.429 55.209 52.267 52.998 47.197 50.709C39.884 47.404 35.762 41.271 34.466 39.07L38.306 30.554C41.101 34.679 43.783 37.699 46.947 39.185C55.088 43.007 58.616 46.371 59.805 47.712L57.356 56.902Z" fill="white"/>
</svg>
