<svg width="64" height="64" viewBox="0 0 64 64" fill="none" xmlns="http://www.w3.org/2000/svg">
<path d="M31.999 2C15.433 2 2 15.432 2 32C2 48.568 15.432 62 31.999 62C48.567 62 62 48.568 62 32C62 15.432 48.567 2 31.999 2ZM31.999 59.5C16.836 59.5 4.5 47.164 4.5 32C4.5 16.836 16.836 4.5 31.999 4.5C47.163 4.5 59.5 16.836 59.5 32C59.5 47.164 47.163 59.5 31.999 59.5Z" fill="white"/>
<path d="M42.7677 39.971C42.2627 37.11 45.3917 35.21 43.5487 33.872C41.3427 32.268 37.5357 34.446 34.5547 32.279C34.9287 34.398 37.1137 36.398 40.4367 35.812C40.4367 35.812 38.3387 37.121 38.9597 40.642C39.5807 44.163 41.9997 44.675 41.9997 44.675C38.6767 45.261 37.3067 47.887 37.6807 50.005C39.7417 46.95 44.0637 47.694 45.5867 45.433C46.8597 43.547 43.2717 42.832 42.7677 39.971ZM50.6337 13.897C47.0497 17.9 40.2667 18.785 35.9677 16.485C35.3877 17.048 34.8807 17.32 35.1537 17.677C40.6847 24.779 49.0387 23.303 51.8077 14.741C51.9417 14.311 51.3717 14.229 50.6337 13.897ZM26.2717 18.193C22.6877 22.196 15.9037 23.082 11.6067 20.781C11.0257 21.344 10.5177 21.615 10.7907 21.974C16.3227 29.074 24.6767 27.599 27.4457 19.036C27.5807 18.607 27.0107 18.525 26.2717 18.193Z" fill="white"/>
</svg>
