<svg width="64" height="64" viewBox="0 0 64 64" fill="none" xmlns="http://www.w3.org/2000/svg">
<path d="M42.2633 47.7058C45.2694 47.7058 47.7063 45.2689 47.7063 42.2628C47.7063 39.2567 45.2694 36.8198 42.2633 36.8198C39.2572 36.8198 36.8203 39.2567 36.8203 42.2628C36.8203 45.2689 39.2572 47.7058 42.2633 47.7058Z" fill="white"/>
<path d="M32 2C15.458 2 2 15.458 2 32C2 48.542 15.458 62 32 62C48.542 62 62 48.542 62 32C62 15.458 48.542 2 32 2ZM25.584 25.584C25.0784 26.0895 24.4782 26.4905 23.8176 26.7641C23.1571 27.0376 22.4491 27.1784 21.7341 27.1784C21.0192 27.1783 20.3112 27.0375 19.6507 26.7638C18.9902 26.4902 18.39 26.0891 17.8845 25.5835C17.379 25.0779 16.978 24.4777 16.7044 23.8171C16.4309 23.1566 16.2901 22.4486 16.2901 21.7336C16.2902 21.0187 16.431 20.3107 16.7047 19.6502C16.9783 18.9897 17.3794 18.3895 17.885 17.884C18.9061 16.863 20.2909 16.2895 21.7349 16.2896C23.1788 16.2897 24.5635 16.8634 25.5845 17.8845C26.6055 18.9056 27.179 20.2904 27.1789 21.7344C27.1788 23.1783 26.6051 24.563 25.584 25.584ZM46.085 56.259C41.226 57.58 35.815 56.345 31.999 52.53C26.331 46.862 26.331 37.67 31.999 32.001C37.667 26.332 37.668 17.141 31.999 11.473C28.184 7.657 22.774 6.421 17.915 7.743C22.1892 5.2471 27.0504 3.93317 32 3.936C47.476 3.936 60.064 16.525 60.064 32C60.064 42.344 54.436 51.391 46.085 56.259Z" fill="white"/>
</svg>
