<svg width="64" height="64" viewBox="0 0 64 64" fill="none" xmlns="http://www.w3.org/2000/svg">
<path d="M32 30.774C32 30.774 30.288 20.052 30.288 19.305C30.288 18.558 31.056 17.951 32 17.951C32.944 17.951 33.712 18.557 33.712 19.305C33.712 20.053 32 30.774 32 30.774ZM32 33.277C32 33.277 33.712 43.998 33.712 44.746C33.712 45.494 32.944 46.1 32 46.1C31.056 46.1 30.288 45.495 30.288 44.746C30.288 43.997 32 33.277 32 33.277ZM30.748 32.025C30.748 32.025 20.027 33.737 19.28 33.737C18.532 33.737 17.926 32.97 17.926 32.025C17.926 31.081 18.532 30.314 19.28 30.314C20.027 30.314 30.748 32.025 30.748 32.025ZM33.252 32.025C33.252 32.025 43.973 30.314 44.721 30.314C45.469 30.314 46.075 31.081 46.075 32.025C46.075 32.969 45.469 33.737 44.721 33.737C43.973 33.737 33.252 32.025 33.252 32.025ZM31.114 31.141C31.114 31.141 22.323 24.771 21.796 24.242C21.267 23.714 21.38 22.743 22.049 22.075C22.717 21.407 23.687 21.294 24.216 21.822C24.743 22.35 31.114 31.141 31.114 31.141ZM32.886 32.911C32.886 32.911 41.677 39.281 42.204 39.81C42.733 40.339 42.62 41.309 41.951 41.978C41.283 42.646 40.313 42.759 39.784 42.23C39.257 41.701 32.886 32.911 32.886 32.911ZM31.114 32.911C31.114 32.911 24.743 41.701 24.216 42.23C23.687 42.759 22.717 42.646 22.049 41.978C21.38 41.309 21.267 40.339 21.796 39.81C22.323 39.281 31.114 32.911 31.114 32.911ZM32.886 31.141C32.886 31.141 39.257 22.35 39.784 21.822C40.313 21.294 41.283 21.407 41.951 22.075C42.62 22.743 42.733 23.714 42.204 24.242C41.677 24.771 32.886 31.141 32.886 31.141ZM31.156 29.938C31.156 29.938 22.341 12.686 21.837 11.438C21.333 10.19 21.634 8.892 22.51 8.538C23.386 8.184 24.505 8.909 25.009 10.157C25.513 11.403 31.156 29.938 31.156 29.938ZM32.844 34.115C32.844 34.115 41.659 51.366 42.163 52.615C42.667 53.862 42.366 55.16 41.49 55.513C40.613 55.868 39.495 55.144 38.991 53.896C38.487 52.648 32.844 34.115 32.844 34.115ZM29.911 32.87C29.911 32.87 12.659 41.685 11.411 42.189C10.163 42.693 8.865 42.392 8.511 41.515C8.157 40.64 8.882 39.52 10.13 39.016C11.378 38.512 29.911 32.87 29.911 32.87ZM34.089 31.182C34.089 31.182 51.341 22.367 52.589 21.863C53.837 21.359 55.135 21.661 55.489 22.537C55.843 23.413 55.118 24.532 53.87 25.036C52.623 25.539 34.089 31.182 34.089 31.182ZM29.926 31.146C29.926 31.146 11.493 25.181 10.255 24.655C9.017 24.129 8.312 22.999 8.681 22.128C9.05 21.259 10.355 20.98 11.593 21.506C12.831 22.03 29.926 31.146 29.926 31.146ZM34.074 32.906C34.074 32.906 52.507 38.871 53.745 39.396C54.983 39.921 55.688 41.054 55.319 41.923C54.95 42.794 53.645 43.073 52.407 42.546C51.169 42.021 34.074 32.906 34.074 32.906ZM31.12 34.1C31.12 34.1 25.155 52.533 24.629 53.772C24.103 55.01 22.972 55.715 22.102 55.346C21.232 54.976 20.954 53.672 21.478 52.434C22.005 51.195 31.12 34.1 31.12 34.1ZM32.88 29.952C32.88 29.952 38.845 11.519 39.371 10.281C39.897 9.042 41.028 8.338 41.898 8.707C42.768 9.076 43.047 10.379 42.522 11.618C41.995 12.857 32.88 29.952 32.88 29.952ZM32.006 47.068C32.006 47.068 33.72 59.552 33.72 60.422C33.72 61.292 32.954 62 32.009 62C31.064 62 30.298 61.295 30.298 60.424C30.298 59.553 32.006 47.068 32.006 47.068ZM31.995 15.955C31.995 15.955 30.28 4.287 30.28 3.474C30.28 2.661 31.046 2 31.991 2C32.936 2 33.702 2.659 33.702 3.473C33.702 4.287 31.995 15.955 31.995 15.955ZM42.659 42.65C42.659 42.65 52.699 50.266 53.313 50.881C53.93 51.497 53.887 52.537 53.219 53.206C52.551 53.874 51.51 53.917 50.895 53.302C50.279 52.688 42.659 42.65 42.659 42.65ZM20.651 20.658C20.651 20.658 11.188 13.62 10.612 13.045C10.037 12.469 10.112 11.461 10.78 10.793C11.448 10.124 12.457 10.049 13.032 10.625C13.608 11.199 20.651 20.658 20.651 20.658ZM42.659 21.349C42.659 21.349 50.279 11.313 50.895 10.698C51.51 10.082 52.551 10.125 53.219 10.794C53.887 11.463 53.93 12.503 53.313 13.118C52.699 13.732 42.659 21.349 42.659 21.349ZM20.651 43.341C20.651 43.341 13.608 52.801 13.032 53.375C12.457 53.951 11.448 53.875 10.78 53.207C10.112 52.538 10.037 51.53 10.612 50.955C11.188 50.38 20.651 43.341 20.651 43.341ZM47.068 31.994C47.068 31.994 59.552 30.28 60.423 30.28C61.294 30.279 62 31.046 62 31.99C62.001 32.935 61.296 33.702 60.425 33.702C59.554 33.703 47.068 31.994 47.068 31.994ZM15.956 32.006C15.956 32.006 4.286 33.719 3.474 33.72C2.659 33.72 2 32.953 2 32.009C2 31.065 2.659 30.297 3.474 30.297C4.286 30.297 15.956 32.006 15.956 32.006Z" fill="white"/>
<path d="M20.7287 6.93586C21.7449 6.93586 22.5687 6.11206 22.5687 5.09586C22.5687 4.07966 21.7449 3.25586 20.7287 3.25586C19.7125 3.25586 18.8887 4.07966 18.8887 5.09586C18.8887 6.11206 19.7125 6.93586 20.7287 6.93586Z" fill="white"/>
<path d="M43.5431 6.93586C44.5593 6.93586 45.3831 6.11206 45.3831 5.09586C45.3831 4.07966 44.5593 3.25586 43.5431 3.25586C42.5269 3.25586 41.7031 4.07966 41.7031 5.09586C41.7031 6.11206 42.5269 6.93586 43.5431 6.93586Z" fill="white"/>
<path d="M20.2082 60.8661C21.2249 60.8661 22.0492 60.0418 22.0492 59.0251C22.0492 58.0083 21.2249 57.1841 20.2082 57.1841C19.1914 57.1841 18.3672 58.0083 18.3672 59.0251C18.3672 60.0418 19.1914 60.8661 20.2082 60.8661Z" fill="white"/>
<path d="M43.0246 60.8661C44.0414 60.8661 44.8656 60.0418 44.8656 59.0251C44.8656 58.0083 44.0414 57.1841 43.0246 57.1841C42.0078 57.1841 41.1836 58.0083 41.1836 59.0251C41.1836 60.0418 42.0078 60.8661 43.0246 60.8661Z" fill="white"/>
<path d="M4.91227 45.0491C5.92847 45.0491 6.75227 44.2253 6.75227 43.2091C6.75227 42.1929 5.92847 41.3691 4.91227 41.3691C3.89606 41.3691 3.07227 42.1929 3.07227 43.2091C3.07227 44.2253 3.89606 45.0491 4.91227 45.0491Z" fill="white"/>
<path d="M4.91227 22.2332C5.92847 22.2332 6.75227 21.4094 6.75227 20.3932C6.75227 19.377 5.92847 18.5532 4.91227 18.5532C3.89606 18.5532 3.07227 19.377 3.07227 20.3932C3.07227 21.4094 3.89606 22.2332 4.91227 22.2332Z" fill="white"/>
<path d="M58.841 45.5692C59.8578 45.5692 60.682 44.745 60.682 43.7282C60.682 42.7115 59.8578 41.8872 58.841 41.8872C57.8242 41.8872 57 42.7115 57 43.7282C57 44.745 57.8242 45.5692 58.841 45.5692Z" fill="white"/>
<path d="M58.842 22.7518C59.8582 22.7518 60.682 21.928 60.682 20.9118C60.682 19.8956 59.8582 19.0718 58.842 19.0718C57.8257 19.0718 57.002 19.8956 57.002 20.9118C57.002 21.928 57.8257 22.7518 58.842 22.7518Z" fill="white"/>
</svg>
