<svg width="64" height="64" viewBox="0 0 64 64" fill="none" xmlns="http://www.w3.org/2000/svg">
<path d="M61.8801 45.061C61.8071 44.262 61.7371 43.509 61.7881 42.94C62.2391 37.913 60.7741 33.381 57.5521 29.837C53.8971 25.816 48.1351 23.415 42.1401 23.415C33.7921 23.415 26.7951 27.789 23.4221 35.116L23.3971 35.173C22.6221 32.32 21.8401 30.34 21.2141 28.753C20.1561 26.069 19.5881 24.63 20.0431 21.474C20.8688 21.3842 21.6432 21.0292 22.2501 20.462C22.3554 20.4693 22.4634 20.4733 22.5741 20.474C23.7091 20.474 24.6931 20.044 25.4041 19.278L25.4921 19.279C26.9051 19.279 28.1081 18.668 28.9091 17.59C30.8631 17.426 32.2131 16.248 32.4801 14.433C32.8401 11.997 31.9881 5.179 30.1471 3.033C29.4171 2.18 28.6111 2 28.0651 2C24.9501 2 20.0781 2.719 15.9421 3.788C8.40407 5.736 7.22607 7.703 7.03907 9.2C6.27407 15.377 5.14007 20.887 4.13807 25.749C2.71807 32.637 1.59707 38.078 2.13907 42.356C2.35007 44.025 2.77107 45.457 3.17707 46.84C3.68507 48.566 4.20807 50.351 4.38507 52.792C4.62807 56.185 8.29207 58.131 14.4381 58.131C16.8471 58.131 19.3041 57.817 21.3201 57.258C23.7921 58.442 31.9491 62 40.6611 62C43.6571 62 46.4481 61.572 48.9601 60.728C61.8131 56.402 62.3901 50.616 61.8801 45.061ZM4.12407 42.103C3.25807 35.27 7.19107 24.255 9.02507 9.449C9.33607 6.944 20.7381 4.322 27.0101 4.039C26.7551 4.244 26.5721 4.513 26.5481 4.799C27.3001 4.458 28.4231 4.348 28.9741 5.472C29.0031 5.284 29.0151 5.117 29.0151 4.961C29.3031 5.525 29.5661 6.294 29.7881 7.17C30.0671 8.43 30.2231 9.722 30.2261 11.019C30.2281 11.92 30.4241 15.132 28.9411 14.714C28.0271 14.456 28.0041 13.613 27.7431 12.745C27.3411 11.388 26.6331 9.824 26.7191 8.382C26.3701 9.797 26.7851 11.495 26.9391 12.926C27.0271 13.759 27.6031 16.01 26.5831 16.317C26.0191 16.49 25.3651 16.093 24.8981 15.802C24.7201 15.69 24.5871 14.871 24.5221 14.641C24.1201 13.235 23.4001 11.618 23.4921 10.141C23.1401 11.473 23.4831 13.078 23.5951 14.443C23.6641 15.289 24.0911 17.123 23.1371 17.549C22.0571 18.114 21.8911 16.744 21.6911 16.026C21.3201 14.693 20.7171 13.235 20.7331 11.837C20.3561 13.54 20.7991 15.534 20.8721 17.278C20.9111 18.144 19.0961 18.926 18.4191 18.382C17.3581 17.529 17.1791 15.532 17.0591 14.241C17.3771 14.675 17.8331 15.236 18.4121 15.179C17.9201 14.618 17.7111 13.656 17.3821 12.974C17.0801 12.414 16.4671 11.081 15.7461 11.059C15.8571 11.298 16.4651 12.945 16.3711 13.119C16.0781 13.664 15.7931 14.218 15.4671 14.74C15.1901 15.179 14.3861 16.578 13.7371 16.155C13.0361 15.701 12.5961 13.668 12.5961 13.668C12.5961 13.668 12.6221 16.203 13.5281 16.79C14.3861 17.348 15.3641 16.468 15.9321 15.84C16.0451 17.045 16.3711 18.458 17.1001 19.39C14.9581 28.889 18.9011 28.794 21.5591 41.492C21.5591 41.492 23.3111 38.909 24.8431 35.582C28.1861 28.32 35.1591 25.084 41.8811 25.084C48.5471 25.084 55.6851 28.492 58.2791 34.384C59.1361 36.33 59.3491 38.656 59.1171 41.218C58.7381 45.391 62.8561 52.18 47.4951 57.281C35.3061 61.328 20.3141 53.568 20.3141 53.568C16.2021 54.912 6.58607 55.499 6.38307 52.651C6.04807 47.986 4.56707 45.611 4.12407 42.103Z" fill="white"/>
<path d="M34.2446 53.5701C36.9216 54.5521 39.8306 54.8191 42.6366 54.4851C45.4446 54.1451 48.1926 53.2281 50.5866 51.6821C51.7746 50.9041 52.8796 49.9681 53.7686 48.8451C54.6376 47.7181 55.3416 46.4161 55.5046 45.0351C53.7766 47.1491 51.5786 48.3131 49.3136 49.2381C47.0366 50.1381 44.6416 50.6991 42.2276 50.9881C39.8116 51.2671 37.3726 51.2701 34.9566 50.8951C32.4358 50.5034 30.0059 49.6621 27.7826 48.4111C29.1466 50.8131 31.5866 52.5901 34.2446 53.5701ZM25.5656 6.85014C25.9896 4.10114 23.2336 5.00614 23.1376 6.17814C23.8896 5.83614 25.0146 5.72714 25.5656 6.85014ZM22.8406 8.37014C23.2656 5.62014 20.5106 6.52314 20.4146 7.69914C21.1666 7.35414 22.2906 7.24614 22.8406 8.37014ZM19.6936 9.95714C20.1186 7.20814 17.3636 8.11214 17.2676 9.28614C18.0206 8.94114 19.1426 8.83414 19.6936 9.95714Z" fill="white"/>
</svg>
