<svg width="64" height="64" viewBox="0 0 64 64" fill="none" xmlns="http://www.w3.org/2000/svg">
<path d="M59.451 23.0942C60.25 20.6622 58.279 18.0022 56.256 17.9052C55.869 14.1132 51.387 13.1982 49.9 14.5112C49.043 12.9722 45.514 11.6522 43.334 15.6252L37.905 25.5212C37.066 17.9402 32.86 19.6242 32.86 19.6242C28.681 16.8472 25.484 21.0542 25.998 25.4402L20.614 15.6252C18.988 12.6012 15.314 12.5172 14.048 14.5112C12.305 12.8882 7.36405 13.4662 7.69105 17.9052C5.58005 17.6932 3.42105 20.1882 4.49705 23.0942C2.86105 23.3632 0.993046 25.9412 2.64305 29.0882C2.70305 29.2012 7.27605 37.2082 8.54805 39.9312C8.69338 40.2459 8.84438 40.5812 9.00105 40.9372C10.084 43.3792 11.567 46.7252 14.872 49.3042C16.29 50.4132 18.081 51.0002 20.046 51.0002C23.222 51.0002 26.489 49.5132 29.01 46.9212C30.1472 45.7461 31.0846 44.3929 31.785 42.9152C34.195 48.1782 39.463 50.9912 43.824 50.9912C45.846 50.9912 47.663 50.4072 49.078 49.3032C52.383 46.7232 53.865 43.3762 54.949 40.9322C55.0961 40.5972 55.2461 40.2636 55.399 39.9312C56.67 37.2082 61.244 29.2012 61.288 29.1192C62.969 26.0222 61.393 23.3842 59.451 23.0942ZM20.046 49.0212C18.578 49.0212 16.126 48.4942 15.022 47.6322C11.646 44.9972 11.08 41.6722 9.97805 39.3122C8.65705 36.4822 3.81305 28.4252 3.81305 28.4252C2.94105 26.7862 3.67005 24.1942 5.35205 24.5652L11.336 34.2012L12.905 34.5892C12.905 34.5892 7.48205 26.1652 5.74305 22.9322C4.87305 21.3162 6.53705 19.0862 8.29605 19.6432L15.431 31.7122L17 32.1022L9.10605 18.7752C7.73605 15.8682 11.982 13.9942 13.32 16.4352L20.014 29.0922L21.27 29.4052L15.001 16.4772C14.618 14.7852 17.678 13.7922 19.153 16.2902L25.783 29.5832C22.29 31.3622 18.435 36.8462 22.2 42.0362C19.821 36.6142 23.651 32.1302 26.153 30.4892C27.747 29.4442 27.145 27.8112 27.083 25.6912C26.985 22.3592 27.954 20.3722 29.843 20.3722C31.421 20.3722 31.773 23.2602 30.819 28.5792C30.176 32.1622 30.761 35.3772 29.906 39.9202C28.795 45.8122 24.217 49.0212 20.046 49.0212ZM59.555 28.1422C57.993 30.8422 54.828 36.2322 53.592 39.0992C52.166 42.4042 49.021 49.0002 43.355 49.0002C39.022 49.0002 32.924 45.6522 32.333 40.1462C32.014 37.1762 32.174 32.7482 32.852 28.2082C33.158 26.1512 33.951 22.7952 33.111 21.2182C35.239 20.3522 36.494 22.4512 36.857 28.5592C36.885 29.0262 36.903 29.9502 37.793 30.4902C40.35 32.0442 44.125 36.6152 41.746 42.0372C45.512 36.8472 41.449 30.4712 37.957 28.6912L44.693 16.3322C46.234 13.6472 49.307 14.8042 49.074 16.3172L42.263 29.2552L43.697 28.5172C43.697 28.5172 48.49 19.4022 50.235 16.3002C51.449 14.1452 55.574 16.3162 54.15 18.8972C52.254 22.3342 47.152 32.1952 47.152 32.1952L48.514 31.7112L55.481 19.3162C56.83 19.2392 58.45 21.1662 57.443 22.9162C55.782 25.8002 51.041 34.5882 51.041 34.5882L52.445 34.0542L58.797 23.9562C60.137 24.1262 60.658 26.2332 59.555 28.1422Z" fill="white"/>
</svg>
