<svg width="64" height="64" viewBox="0 0 64 64" fill="none" xmlns="http://www.w3.org/2000/svg">
<path d="M32 2C15.43 2 2 15.432 2 32.001C2 48.572 15.43 62 32 62C48.568 62 62 48.572 62 32.001C62 15.432 48.568 2 32 2ZM59.957 30.467C55.447 25.885 45.713 18.751 28.605 18.466C28.503 15.509 28.9 12.737 29.483 10.332C42.111 10.613 51.777 15.986 57.306 20.029C58.8616 23.3023 59.7621 26.8481 59.957 30.467ZM31.684 4.008C31.789 4.007 31.895 4 32 4C41.709 4 50.275 8.968 55.3 16.493C49.426 12.787 40.757 8.878 29.975 8.535C30.4395 6.98838 31.0106 5.47577 31.684 4.008ZM19.197 7.111C22.4555 5.42764 26.0148 4.40568 29.67 4.104C27.32 9.622 23.992 21.187 31.029 32.043C29.2793 35.5 26.7267 38.4874 23.585 40.755C14.732 24.689 17.495 12.019 19.197 7.111ZM9.109 15.905C11.1862 12.9593 13.8089 10.4392 16.835 8.481C15.105 14.639 13.717 26.709 22.084 41.773C19.574 43.338 16.979 44.383 14.603 45.08C8.464 33.879 8.347 22.696 9.109 15.905ZM4 32.001C4 27.445 5.101 23.145 7.039 19.339C6.728 26.307 7.631 35.906 12.803 45.555C11.2111 45.931 9.59481 46.195 7.966 46.345C5.36499 42.0129 3.99385 37.0539 4 32.001ZM9.067 48.036C15.007 47.32 26.731 44.437 32.63 32.882C36.4978 32.6685 40.3604 33.3866 43.893 34.976C34.408 50.677 22.048 54.617 16.951 55.594C13.8556 53.6125 11.1774 51.045 9.067 48.036ZM29.692 59.897C26.0775 59.6016 22.5556 58.6018 19.325 56.954C25.523 55.373 36.668 50.54 45.527 35.766C48.136 37.157 50.34 38.883 52.131 40.593C45.527 51.464 35.957 57.15 29.692 59.897ZM33.758 59.939C39.926 56.713 47.714 51.15 53.444 41.917C54.5323 43.075 55.5415 44.3048 56.465 45.598C51.945 53.698 43.523 59.331 33.758 59.939ZM32.556 31.076C30.4369 27.8332 29.1272 24.1291 28.737 20.275C46.911 20.636 56.493 29.213 59.971 33.191C59.8184 36.8651 58.9384 40.4724 57.382 43.804C53.75 38.999 45.413 30.416 32.556 31.076Z" fill="white"/>
</svg>
