<svg width="64" height="64" viewBox="0 0 64 64" fill="none" xmlns="http://www.w3.org/2000/svg">
<path d="M52.197 33.742C52.107 33.769 51.968 33.793 51.816 33.814C52.012 32.579 52.126 31.587 52.182 30.968C52.218 30.726 52.238 30.484 52.243 30.193C52.243 26.123 47.6 22.628 40.498 20.671C41.126 18.983 41.187 16.87 39.206 14.842C36.483 12.057 38.295 8 38.295 8C38.295 8 32.575 13.363 36.188 17.061C37.315 18.215 37.978 19.247 38.359 20.145C35.884 19.606 33.169 19.243 30.288 19.088C31.01 16.827 30.954 14.063 28.44 11.409C24.809 7.579 27.224 2 27.224 2C27.224 2 19.599 9.374 24.414 14.458C26.043 16.177 26.946 17.7 27.429 19.003L27.121 19C24.328 19 21.657 19.196 19.167 19.555C19.419 18.098 19.13 16.443 17.566 14.843C14.843 12.058 16.654 8 16.654 8C16.654 8 10.935 13.363 14.547 17.061C15.608 18.146 16.263 19.126 16.653 19.986C7.936 21.726 1.999 25.604 2 30.241C2.002 30.482 2.024 30.72 2.051 30.912C2.311 33.737 3.596 43.594 9.249 51.889C10.559 53.815 12.524 55.795 15.062 57.407C15.636 58.223 16.502 59.141 17.831 59.989C19.129 60.813 22.218 62 27.12 62C32.025 62 35.114 60.812 36.41 59.988C37.735 59.142 38.602 58.226 39.176 57.41C40.8482 56.3551 42.3623 55.0683 43.673 53.588C43.7374 53.5783 43.7989 53.5544 43.853 53.518C48.869 49.307 62 47.646 62 39.777C62 34.807 58.722 31.822 52.197 33.742ZM27.121 58.846C19.198 58.846 13.53 54.664 10.866 50.752C5.485 42.855 4.259 33.428 4.005 30.68C3.98209 30.5186 3.96907 30.356 3.966 30.193C3.966 26.931 8.999 23.508 17.155 21.917C17.228 23.25 16.654 24 16.654 24C16.654 24 17.641 23.087 18.399 21.695C21.2824 21.2251 24.1996 20.9927 27.121 21C27.382 21 27.629 21.013 27.885 21.017C28.021 22.925 27.224 24 27.224 24C27.224 24 28.44 22.838 29.431 21.049C32.912 21.186 36.064 21.627 38.801 22.284C38.764 23.386 38.295 24 38.295 24C38.295 24 38.918 23.416 39.553 22.481C46.24 24.234 50.276 27.284 50.275 30.221C50.274 30.372 50.259 30.521 50.231 30.726C49.998 33.268 48.899 41.756 44.291 49.33C43.8834 49.9013 43.4975 50.4877 43.134 51.088C40.38 54.9 34.819 58.846 27.121 58.846ZM59.255 41.299C57.517 43.971 51.658 45.25 47.927 46.697C48.9701 44.4536 49.8306 42.1298 50.5 39.748L50.994 39.631C50.994 39.631 51.262 38.09 52.536 36.932C54.169 35.452 59.679 35.776 59.679 39.385C59.679 40.076 59.523 40.711 59.255 41.299Z" fill="white"/>
<path d="M48.6191 31.6928C46.5491 27.4018 37.7141 24.1768 27.1211 24.1768C16.5291 24.1768 7.69414 27.4018 5.61914 31.6928C7.69414 35.9848 16.5291 39.2108 27.1211 39.2108C37.7141 39.2108 46.5491 35.9838 48.6191 31.6928ZM38.9411 33.7968C38.9411 33.7968 30.9231 38.0918 19.5121 38.0918C19.5121 38.0918 22.3851 36.7738 19.5121 35.6098C14.9551 33.9398 10.4151 31.6188 12.3791 29.1558C15.5151 25.2338 25.7801 26.8198 27.1191 28.9468C28.0931 26.9508 38.6191 25.1578 41.8611 29.1538C43.1861 30.7888 41.5481 32.3998 38.9411 33.7968Z" fill="white"/>
<path d="M26.8019 30.2442C26.0399 28.5412 19.3699 27.1742 17.0789 30.2602C15.6459 32.1942 18.5039 34.0832 21.4089 35.4562C23.2349 36.4112 21.2649 37.4272 21.2649 37.4272C28.7799 37.5442 34.3099 34.2162 34.3099 34.2162H34.3079C36.1059 33.1362 37.2779 31.8742 36.4979 30.5612C34.5929 27.3552 27.5559 28.6692 26.8019 30.2442ZM31.7989 34.1682C31.7989 34.1682 28.0979 36.3972 23.0689 36.3182C23.0689 36.3182 24.3859 35.6362 23.1659 35.0002C21.2209 34.0802 19.3069 32.8142 20.2689 31.5192C21.7999 29.4562 26.2669 30.3712 26.7739 31.5112C27.2809 30.4562 31.9889 29.5752 33.2649 31.7222C33.7869 32.6012 33.0029 33.4452 31.7989 34.1682Z" fill="white"/>
</svg>
