<svg width="64" height="64" viewBox="0 0 64 64" fill="none" xmlns="http://www.w3.org/2000/svg">
<path d="M53.943 35.448C60.337 23.418 60.32 13.121 57.399 8.184C56.184 6.131 54.461 5 52.548 5C52.3587 5 52.1697 5.01133 51.981 5.034C48.844 5.41 47.626 8.972 45.938 13.901C44.743 17.392 43.259 21.684 40.814 25.902C39.457 24.127 37.746 22.64 35.903 21.764L35.921 21.754C35.863 21.731 35.81 21.715 35.752 21.691C35.2572 21.4582 34.7429 21.2695 34.215 21.127C34.037 21.082 33.863 21.047 33.689 21.01C20.586 17.554 16.431 34.276 23.461 32.17C25.509 31.556 26.892 28.207 31.069 24.841C34.212 26.749 36.28 30.146 35.562 32.628C33.175 40.882 25.966 44.635 17.714 44.635C15.855 44.635 13.943 44.445 12.022 44.072C11.2717 43.9231 10.5297 43.7352 9.799 43.509C8.29611 43.0604 6.84082 42.4656 5.454 41.733L2 44.684C2.85338 46.0278 3.81597 47.2991 4.878 48.485C8.719 52.79 13.819 55.891 19.723 57.036C28.984 58.831 38.001 55.415 44.123 48.745C47.511 44.474 50.771 42.694 53.561 42.157C53.021 49.418 47.438 59 51.193 59C51.3363 59 51.4937 58.9857 51.665 58.957C58.317 57.846 62.213 49.488 61.991 44.192C61.754 38.515 57.336 36.308 53.943 35.448ZM41.174 36.315C38.084 45.28 28.546 49.833 18.826 49.833C16.103 49.833 13.347 49.416 10.67 48.622C10.0262 48.3342 9.39431 48.0202 8.776 47.681C9.39515 47.079 9.98611 46.4486 10.547 45.792C10.927 45.888 11.288 45.968 11.642 46.036C13.694 46.433 15.738 46.635 17.715 46.635C22.588 46.635 26.842 45.421 30.206 43.197C31.427 43.628 33.15 43.364 34.769 42.347C37.145 40.855 38.355 38.353 37.473 36.757C37.249 36.353 36.9 36.064 36.481 35.859C36.872 35.008 37.213 34.121 37.485 33.183C38.079 31.128 37.454 28.664 35.768 26.424C34.9301 25.3252 33.926 24.3636 32.792 23.574C33.0573 23.396 33.3323 23.2193 33.617 23.044C33.6509 23.0528 33.6853 23.0598 33.72 23.065C36.542 23.389 43.417 29.806 41.174 36.315ZM51.896 35.051C46.421 34.284 42.958 37.217 42.958 37.217C44.271 33.639 43.624 30.181 42.048 27.758C48.127 17.829 48.656 7.447 52.22 7.02C52.33 7.00667 52.4393 7 52.548 7C57.221 7 60.596 19.111 51.896 35.051ZM51.939 56.855C52.114 55.662 52.775 53.571 53.287 51.951C54.612 47.757 56.39 42.132 55.205 37.925C57.553 38.879 59.844 40.721 59.993 44.277C60.172 48.563 57.066 55.525 51.939 56.855Z" fill="white"/>
</svg>
