<svg width="64" height="64" viewBox="0 0 64 64" fill="none" xmlns="http://www.w3.org/2000/svg">
<path d="M62 13.8021C62 7.28307 56.623 2.00007 50 2.00007C47.8943 1.9931 45.8238 2.54036 43.9965 3.58687C42.1692 4.63339 40.6495 6.14231 39.59 7.96207C37.0754 7.27467 34.4808 6.92362 31.874 6.91807C29.365 6.91807 26.842 7.26307 24.386 7.92107C23.3227 6.11329 21.8045 4.61547 19.9825 3.57668C18.1605 2.53788 16.0983 1.99431 14.001 2.00007C7.373 2.00007 2 7.28307 2 13.8021C2 17.3081 3.572 20.4371 6.041 22.5981C4.123 26.4131 3 30.8541 3 35.8541C3 41.7401 4.482 44.0521 6.358 46.9811C7.006 47.9931 7.675 49.0381 8.371 50.3581C12.152 57.5381 21.159 61.9991 31.875 62.0001H31.877C42.589 62.0001 51.597 57.5381 55.378 50.3571C56.114 48.9611 56.843 47.8661 57.546 46.8081C59.4 44.0271 61 41.6251 61 35.8571C61 30.8631 59.869 26.4261 57.939 22.6141C60.42 20.4531 62 17.3161 62 13.8021ZM31.95 59.1181C24.198 59.1181 19.71 57.5281 19.71 49.4031C19.71 43.4191 27.682 40.9351 31.95 40.9351C36.218 40.9351 44.19 43.4181 44.19 49.4031C44.189 57.5281 39.701 59.1181 31.95 59.1181ZM55.875 45.7311C55.176 46.7791 54.387 47.9661 53.604 49.4521C51.403 53.6301 47.194 56.7871 41.84 58.5231C44.287 56.8931 45.69 54.0901 45.69 49.4031C45.69 42.3771 36.741 39.4601 31.95 39.4601C27.159 39.4601 18.209 42.3771 18.209 49.4031C18.209 54.1871 19.675 57.0031 22.216 58.6171C16.717 56.9031 12.388 53.7091 10.146 49.4521C9.412 48.0581 8.688 46.9291 8.05 45.9321C6.279 43.1681 5 41.1721 5 35.8541C5 18.9731 18.664 8.88507 31.874 8.88507C45.207 8.88507 59 18.9741 59 35.8571C59 41.0381 57.689 43.0071 55.875 45.7311Z" fill="white"/>
<path d="M39.0467 52.827C38.7577 52.827 38.4767 52.929 38.0077 53.098C36.3815 53.7075 34.6689 54.0549 32.9337 54.127V51.484C35.2887 51.28 39.7867 50.484 39.7867 48.807C39.7867 46.326 36.2557 45.847 31.9007 45.847C27.5467 45.847 24.0117 46.327 24.0117 48.807C24.0117 50.506 28.6327 51.301 30.9607 51.493V54.127C28.4247 54.002 26.8047 53.425 25.8897 53.098C25.4237 52.929 25.1407 52.827 24.8497 52.827C24.6037 52.827 24.3787 52.905 24.2327 53.042C24.1773 53.0915 24.133 53.1522 24.103 53.2202C24.073 53.2881 24.0579 53.3618 24.0587 53.436C24.0587 54.832 27.8197 56.105 31.9497 56.105C36.0747 56.105 39.8337 54.833 39.8357 53.44C39.8357 53.036 39.4407 52.827 39.0467 52.827ZM38.2187 27.424C30.9907 34.651 46.2577 49.918 53.4867 42.688C57.0547 39.122 56.5297 32.811 52.3147 28.598C48.0957 24.381 41.7867 23.854 38.2187 27.424ZM49.6947 33.9C49.6947 36.662 47.4567 38.9 44.6947 38.9C41.9327 38.9 39.6947 36.662 39.6947 33.9C39.6947 32.574 40.2215 31.3022 41.1592 30.3645C42.0969 29.4268 43.3686 28.9 44.6947 28.9C46.0208 28.9 47.2926 29.4268 48.2303 30.3645C49.1679 31.3022 49.6947 32.574 49.6947 33.9Z" fill="white"/>
<path d="M44.6953 36.3999C46.076 36.3999 47.1953 35.2806 47.1953 33.8999C47.1953 32.5192 46.076 31.3999 44.6953 31.3999C43.3146 31.3999 42.1953 32.5192 42.1953 33.8999C42.1953 35.2806 43.3146 36.3999 44.6953 36.3999Z" fill="white"/>
<path d="M11.6881 28.5958C7.4731 32.8128 6.9471 39.1188 10.5161 42.6898C17.7421 49.9188 33.0081 34.6528 25.7801 27.4218C22.2131 23.8538 15.9031 24.3788 11.6881 28.5958ZM19.3051 38.8998C16.5431 38.8998 14.3051 36.6618 14.3051 33.8998C14.3051 31.1378 16.5431 28.8998 19.3051 28.8998C22.0671 28.8998 24.3051 31.1378 24.3051 33.8998C24.3051 36.6618 22.0671 38.8998 19.3051 38.8998Z" fill="white"/>
<path d="M19.3047 36.3999C20.6854 36.3999 21.8047 35.2806 21.8047 33.8999C21.8047 32.5192 20.6854 31.3999 19.3047 31.3999C17.924 31.3999 16.8047 32.5192 16.8047 33.8999C16.8047 35.2806 17.924 36.3999 19.3047 36.3999Z" fill="white"/>
</svg>
