<svg width="64" height="64" viewBox="0 0 64 64" fill="none" xmlns="http://www.w3.org/2000/svg">
<path d="M52.7028 37.5092C56.8458 31.9722 59.5048 24.3352 59.4988 21.2492C59.5108 21.1492 59.5198 21.0522 59.5238 20.9702C59.6408 18.2892 53.3978 27.7642 47.0078 32.8492C47.8788 29.7852 48.3638 26.1222 48.3638 21.7792C48.3638 -4.59177 15.6338 -4.59177 15.6338 21.7792C15.6338 26.1232 16.1188 29.7852 16.9908 32.8492C10.6008 27.7652 4.3578 18.2892 4.4738 20.9702C4.4768 21.0522 4.4878 21.1502 4.4988 21.2492C4.4928 24.3352 7.1528 31.9722 11.2948 37.5092C5.5818 37.5542 0.838802 37.1432 2.2488 38.3032C2.3218 38.3632 2.4118 38.4292 2.5078 38.4962C4.3328 40.1022 10.3188 42.7252 16.4478 43.8152C16.3218 43.9982 16.1938 44.1772 16.0698 44.3712C11.8938 50.8332 2.4328 53.6812 5.7158 54.8332C6.6328 55.2312 7.9918 55.4452 9.5928 55.4452C12.4158 55.4452 15.9848 54.7742 19.1848 53.2762C16.6198 57.9322 13.6108 61.2522 16.1158 61.8982C16.3358 61.9552 16.5848 61.9812 16.8558 61.9852C16.9825 61.9952 17.1125 62.0002 17.2458 62.0002C21.7378 62.0002 29.4508 56.9512 31.9998 50.2882C34.5488 56.9512 42.2608 62.0002 46.7528 62.0002C46.8861 62.0002 47.0165 61.9952 47.1438 61.9852C47.4138 61.9812 47.6638 61.9552 47.8828 61.8982C50.3878 61.2522 47.3788 57.9322 44.8138 53.2762C48.0138 54.7742 51.5828 55.4452 54.4058 55.4452C56.0068 55.4452 57.3658 55.2312 58.2828 54.8332C61.5658 53.6812 52.1048 50.8332 47.9288 44.3712C47.8038 44.1782 47.6768 43.9982 47.5498 43.8152C53.6788 42.7252 59.6648 40.1022 61.4898 38.4962C61.5868 38.4292 61.6768 38.3622 61.7488 38.3032C63.1588 37.1432 58.4158 37.5542 52.7028 37.5092ZM57.5508 25.8912C56.3838 29.4982 54.2128 34.0232 51.4678 37.4912C50.2093 37.4687 48.9518 37.409 47.6968 37.3122C51.3718 34.9142 54.9188 29.8392 57.5508 25.8912ZM40.2968 27.8962C41.0925 27.8962 41.8555 28.2123 42.4181 28.7749C42.9807 29.3375 43.2968 30.1006 43.2968 30.8962C43.2968 31.6919 42.9807 32.4549 42.4181 33.0175C41.8555 33.5802 41.0925 33.8962 40.2968 33.8962C39.5012 33.8962 38.7381 33.5802 38.1755 33.0175C37.6129 32.4549 37.2968 31.6919 37.2968 30.8962C37.2968 30.1006 37.6129 29.3375 38.1755 28.7749C38.7381 28.2123 39.5012 27.8962 40.2968 27.8962ZM28.5518 37.3772C29.1378 37.6242 30.2288 38.0842 32.0028 38.0842C33.7738 38.0842 34.8638 37.6242 35.4488 37.3772C35.7138 37.2662 35.8768 37.1972 36.0408 37.1972C36.2638 37.1972 36.4898 37.3382 36.4898 37.6032C36.4898 38.5372 34.3498 39.3862 32.0028 39.3862C29.6518 39.3862 27.5108 38.5362 27.5108 37.6032C27.5108 37.5006 27.5438 37.4126 27.6098 37.3392C27.6558 37.2926 27.7108 37.2558 27.7715 37.2312C27.8322 37.2066 27.8973 37.1947 27.9628 37.1962C28.1268 37.1972 28.2868 37.2662 28.5518 37.3772ZM24.9138 27.8962C25.7095 27.8962 26.4725 28.2123 27.0351 28.7749C27.5977 29.3375 27.9138 30.1006 27.9138 30.8962C27.9138 31.6919 27.5977 32.4549 27.0351 33.0175C26.4725 33.5802 25.7095 33.8962 24.9138 33.8962C24.1182 33.8962 23.3551 33.5802 22.7925 33.0175C22.2299 32.4549 21.9138 31.6919 21.9138 30.8962C21.9138 30.1006 22.2299 29.3375 22.7925 28.7749C23.3551 28.2123 24.1182 27.8962 24.9138 27.8962ZM6.4488 25.8912C9.0798 29.8392 12.6278 34.9142 16.3028 37.3122C15.0518 37.4122 13.7788 37.4652 12.5318 37.4912C9.7868 34.0222 7.6148 29.4982 6.4488 25.8912ZM7.6148 40.1802C10.5378 40.6002 13.8898 41.0212 17.0218 41.0212C17.7028 41.0212 18.3388 40.9972 18.9468 40.9572C18.2802 41.5521 17.6681 42.2054 17.1178 42.9092C13.7078 42.3502 10.2788 41.2902 7.6148 40.1802ZM9.5948 54.4452C8.8358 54.4452 8.1378 54.3942 7.5318 54.2982C8.04253 54.0473 8.55692 53.804 9.0748 53.5682C11.9208 52.2532 15.8188 50.4532 18.5738 47.3802C20.0528 45.7312 21.6328 44.5442 23.1418 43.9012C22.4888 44.9672 21.9208 46.2662 21.4978 47.8182C21.1248 49.1892 20.5888 50.5052 19.9828 51.7452C16.5738 53.6542 12.5018 54.4452 9.5948 54.4452ZM46.0708 60.9562C42.0668 60.4732 35.2528 55.9912 32.9338 49.9312L31.9998 47.4892L31.0648 49.9302C28.7468 55.9912 21.9318 60.4722 17.9288 60.9552C18.4228 60.2132 19.5828 59.0382 20.4868 58.1222C22.5118 56.0702 25.0328 53.5182 26.7268 50.3692C28.1178 47.7882 29.9218 45.9652 31.8088 45.2332L31.8248 45.2272C31.8678 45.2242 32.1318 45.2242 32.1748 45.2272L32.1908 45.2332C34.0778 45.9642 35.8818 47.7882 37.2728 50.3682C38.9668 53.5172 41.4878 56.0702 43.5128 58.1222C44.4168 59.0392 45.5768 60.2142 46.0708 60.9562ZM54.9258 53.5672C55.4278 53.7982 55.9858 54.0562 56.4688 54.2972C55.7861 54.4009 55.0963 54.4501 54.4058 54.4442C51.4978 54.4442 47.4268 53.6532 44.0168 51.7442C43.4118 50.5042 42.8748 49.1882 42.5018 47.8172C42.0788 46.2652 41.5118 44.9662 40.8578 43.9002C42.3678 44.5432 43.9468 45.7292 45.4258 47.3792C48.1828 50.4522 52.0798 52.2522 54.9258 53.5672ZM46.8818 42.9082C46.3318 42.2044 45.72 41.5512 45.0538 40.9562C45.6608 40.9962 46.2978 41.0202 46.9788 41.0202C50.1108 41.0202 53.4618 40.5992 56.3858 40.1792C53.7218 41.2902 50.2918 42.3502 46.8818 42.9082Z" fill="white"/>
</svg>
