<svg width="64" height="64" viewBox="0 0 64 64" fill="none" xmlns="http://www.w3.org/2000/svg">
<path d="M31.999 2C15.432 2 2 15.432 2 32C2 48.568 15.432 62 31.999 62C48.567 62 62 48.568 62 32C62 15.432 48.567 2 31.999 2ZM31.999 59.5C16.836 59.5 4.5 47.164 4.5 32C4.5 16.836 16.836 4.5 31.999 4.5C47.163 4.5 59.5 16.836 59.5 32C59.5 47.164 47.163 59.5 31.999 59.5Z" fill="white"/>
<path d="M20.3699 20.3399C17.6119 20.8259 15.2979 23.8319 14.3549 29.1879C14.2639 29.7269 15.3689 30.4749 15.7529 29.8949C17.1969 27.7089 19.1889 26.5899 21.4029 26.1999C23.6189 25.8089 25.8729 26.1799 27.9769 27.7389C28.5369 28.1529 29.3189 27.0729 29.0479 26.5959C26.3299 21.8849 23.1289 19.8539 20.3699 20.3399ZM41.9069 16.5429C39.1479 17.0289 36.8339 20.0329 35.8899 25.3909C35.7989 25.9299 36.9049 26.6779 37.2879 26.0959C38.7329 23.9099 40.7239 22.7909 42.9379 22.4009C45.1549 22.0099 47.4069 22.3809 49.5119 23.9419C50.0719 24.3559 50.8549 23.2739 50.5839 22.7989C47.8669 18.0879 44.6649 16.0569 41.9069 16.5429ZM42.7689 39.9709C42.2639 37.1099 45.3929 35.2109 43.5499 33.8729C41.3439 32.2689 37.5369 34.4469 34.5559 32.2809C34.9299 34.3979 37.1149 36.3979 40.4379 35.8119C40.4379 35.8119 38.3399 37.1209 38.9609 40.6419C39.5819 44.1629 42.0009 44.6749 42.0009 44.6749C38.6779 45.2609 37.3079 47.8879 37.6819 50.0069C39.7429 46.9499 44.0649 47.6939 45.5879 45.4329C46.8609 43.5469 43.2729 42.8319 42.7689 39.9709Z" fill="white"/>
</svg>
