<svg width="64" height="64" viewBox="0 0 64 64" fill="none" xmlns="http://www.w3.org/2000/svg">
<path d="M61.802 12.077L61.734 11.247L60.922 11.151C60.792 11.136 57.693 10.774 54.007 10.774C49.122 10.774 45.634 11.407 43.618 12.656C42.7443 12.0942 41.8421 11.5782 40.915 11.11C38.907 4.774 31.654 3 31.654 3C32.456 4.715 32.149 8.123 32.149 8.123C29.928 4.842 25.452 5.832 25.452 5.832C27.509 7.237 27.366 9.195 27.366 9.195C25.078 8.291 21.962 10.156 21.962 10.156C22.5414 10.327 23.1017 10.5572 23.634 10.843C22.4481 11.4123 21.301 12.0591 20.2 12.779C18.001 11.371 14.005 10.658 8.30197 10.658C5.49897 10.658 3.38197 10.838 3.29397 10.846L2.47897 10.917L2.38497 11.744C2.19297 13.451 0.64597 28.494 5.52797 31.224C5.7393 31.3413 5.96997 31.4247 6.21997 31.474C5.48386 34.0657 5.10998 36.7468 5.10897 39.441C5.10797 58.438 18.703 61 32.002 61C45.301 61 58.896 58.438 58.896 39.44C58.896 36.698 58.508 33.971 57.742 31.313C57.9193 31.2643 58.086 31.1977 58.242 31.113C63.015 28.515 61.94 13.751 61.802 12.077ZM57.298 29.319C57.167 29.389 56.87 29.386 56.576 29.327L54.868 28.982L55.436 30.657C56.4003 33.485 56.8939 36.4521 56.897 39.44C56.897 56.598 44.932 58.964 32.001 58.964C19.07 58.964 7.10697 56.599 7.10697 39.44C7.10697 36.494 7.59097 33.559 8.54797 30.719L9.14897 28.934L7.35497 29.403C6.96197 29.507 6.62797 29.514 6.48997 29.438C3.81897 27.945 3.70897 18.795 4.28397 12.815C5.6221 12.7338 6.96237 12.6928 8.30297 12.692C13.944 12.692 17.935 13.439 19.539 14.794L20.115 15.28L20.735 14.856C22.2621 13.8071 23.891 12.9146 25.597 12.192C29.992 15.953 31.992 22.894 31.992 22.894C32.941 16.852 36.465 13.773 38.808 12.353C40.3005 13.0183 41.732 13.813 43.086 14.728L43.694 15.138L44.263 14.673C45.734 13.47 49.194 12.808 54.006 12.808C56.477 12.808 58.718 12.981 59.871 13.088C60.261 18.956 59.903 27.899 57.298 29.319Z" fill="white"/>
<path d="M17.0478 16.4439C14.1598 14.8809 7.19377 15.4849 7.19377 15.4849C7.19377 15.4849 6.07577 25.3989 8.82377 26.9339C8.87377 26.9619 8.92977 26.9799 8.98677 26.9969C10.9848 22.8279 13.8508 19.2479 17.0478 16.4439ZM47.2758 16.7319C50.4318 19.5719 53.2478 23.1689 55.1848 27.3449C55.2557 27.3271 55.3244 27.3017 55.3898 27.2689C58.0758 25.8049 57.2728 16.0749 57.2728 16.0749C57.2728 16.0749 50.2908 15.2479 47.2758 16.7319ZM32.0008 36.9379C23.3028 36.9379 17.6818 41.9799 17.6818 49.7839C17.6818 53.0999 18.6888 55.2899 20.7608 56.4759C22.5298 57.4909 24.9218 57.6979 27.9698 57.6979C28.5938 57.6979 29.2368 57.6899 29.8958 57.6819C31.2678 57.6639 32.7348 57.6639 34.1058 57.6819C34.7658 57.6912 35.4081 57.6966 36.0328 57.6979C41.4538 57.6979 46.3208 57.0929 46.3208 49.7839C46.3198 41.9799 40.6988 36.9379 32.0008 36.9379ZM36.0318 56.1709C35.4131 56.1702 34.7768 56.1652 34.1228 56.1559C33.4308 56.1459 32.7234 56.1402 32.0008 56.1389C30.9168 56.1369 30.5698 56.1469 29.8778 56.1559C29.2244 56.1652 28.5884 56.1702 27.9698 56.1709C25.1578 56.1719 22.9818 55.9969 21.4958 55.1469C20.5018 54.5779 19.1818 53.4019 19.1818 49.7849C19.1818 41.4389 25.8038 38.4649 32.0008 38.4649C38.1978 38.4649 44.8198 41.4399 44.8198 49.7849C44.8198 55.2489 42.1088 56.1709 36.0318 56.1709Z" fill="white"/>
<path d="M25.947 54.3028C27.7828 54.3028 29.271 51.5135 29.271 48.0728C29.271 44.632 27.7828 41.8428 25.947 41.8428C24.1113 41.8428 22.623 44.632 22.623 48.0728C22.623 51.5135 24.1113 54.3028 25.947 54.3028Z" fill="white"/>
<path d="M38.0544 54.3028C39.8891 54.3028 41.3764 51.5135 41.3764 48.0728C41.3764 44.632 39.8891 41.8428 38.0544 41.8428C36.2197 41.8428 34.7324 44.632 34.7324 48.0728C34.7324 51.5135 36.2197 54.3028 38.0544 54.3028Z" fill="white"/>
<path d="M16.1813 40.2232C17.8293 40.2232 19.1653 37.7272 19.1653 34.6482C19.1653 31.5693 17.8293 29.0732 16.1813 29.0732C14.5332 29.0732 13.1973 31.5693 13.1973 34.6482C13.1973 37.7272 14.5332 40.2232 16.1813 40.2232Z" fill="white"/>
<path d="M47.8179 28.9292C46.1719 28.9292 44.8359 31.4232 44.8359 34.5032C44.8359 37.5832 46.1719 40.0772 47.8179 40.0772C49.4679 40.0772 50.8039 37.5822 50.8039 34.5032C50.8049 31.4232 49.4689 28.9292 47.8179 28.9292Z" fill="white"/>
</svg>
