<svg width="64" height="64" viewBox="0 0 64 64" fill="none" xmlns="http://www.w3.org/2000/svg">
<path d="M37.4498 2H27.7978L32.6248 11.914L37.4498 2ZM45.0038 2.99L44.3558 14.056L53.3618 7.948L45.0038 2.99ZM20.2438 2.99L11.8848 7.948L20.8898 14.056L20.2438 2.99Z" fill="white"/>
<path d="M61.813 40.1581C61.779 39.7131 61.746 39.2891 61.722 38.8901C61.517 35.4411 61.679 24.8571 61.681 24.7501C61.681 22.1141 60.074 19.8461 57.169 20.0911C56.419 16.6581 53.362 15.7211 51.665 16.9351C50.267 13.8151 45.02 14.0551 43.904 17.4121C41.303 16.0971 38.63 18.6281 38.63 21.9971V33.1261C37.42 31.8321 36.037 31.1311 34.603 31.1311C33.65 31.1311 32.766 31.4531 32.035 32.0511C31.293 31.2821 30.353 30.8421 29.331 30.8421C27.948 30.8421 26.611 31.5771 25.406 32.9671V21.9971C25.406 17.3471 21.127 16.3731 19.787 17.3471C18.569 14.2531 14.321 13.7841 12.371 16.9351C10.448 15.9721 7.45 17.0031 6.867 20.0921C4.233 19.5971 2.355 22.1151 2.355 24.7201C2.357 24.8581 2.642 35.3641 2.314 38.8911C1.86 43.7851 1.672 47.2441 3.365 51.6271C3.942 53.1201 4.92 54.4311 6.18101 55.4891C6.919 58.5151 6.609 60.8351 6.605 60.8561L6.44 62.0001H21.258L22.443 61.9971L22.243 60.8281C22.239 60.8061 21.9 58.6571 22.556 55.6551C24.749 53.9841 26.494 51.5891 27.592 48.5971C28.026 47.4191 28.532 46.2121 29.07 44.9341C29.552 43.7871 31.951 38.7001 31.951 38.7001C31.951 38.7001 34.484 43.7871 34.966 44.9341C35.503 46.2121 36.01 47.4191 36.443 48.5981C37.543 51.5881 39.287 53.9841 41.481 55.6551C42.136 58.6571 41.797 60.8041 41.794 60.8251L41.585 62.0001H57.595L57.431 60.8561C57.427 60.8331 57.111 58.5371 57.855 55.4891C59.117 54.4301 60.094 53.1201 60.671 51.6271C62.363 47.2431 62.045 43.1481 61.813 40.1581ZM20.162 60.0001H7.668C7.689 59.2701 7.7 57.5341 7.2 56.0341C8.824 57.3151 10.792 58.3471 14.444 58.3471C16.548 58.3471 18.514 57.8891 20.283 57.0411C20.1587 58.0222 20.1182 59.0121 20.162 60.0001ZM28.642 40.6811C27.693 43.1701 26.568 45.5951 25.716 47.9081C23.507 53.9201 17.823 57.5141 13.444 57.5141C9.342 57.5141 5.74 54.3231 4.463 51.0131C2.69 46.4201 3.578 41.9081 3.755 38.9301C3.966 35.3651 4.23 28.2971 4.14 24.7531C4.093 22.9051 5.67 20.8151 7.482 21.6281V35.0971L8.69 36.0591V21.2551C8.69 18.1911 11.46 17.7531 12.37 18.7531V35.0671L13.573 36.0581V19.0051C13.573 15.5341 18.639 15.3781 18.639 19.0101V35.0681L19.725 36.0351L19.751 19.1981C20.813 18.1981 23.408 19.0041 23.408 21.9981V38.4371C18.89 38.2351 12.363 41.5621 13.341 48.8641C13.341 41.6611 19.591 39.9851 23.086 39.9851C24.378 39.9851 24.74 37.9851 24.93 37.0971C26.262 30.8261 30.426 32.0341 30.768 33.5991C30.381 34.2741 30.424 35.0681 30.549 35.6731C30.603 36.0091 30.697 36.3351 30.818 36.6511C30.22 37.8131 29.238 39.1221 28.642 40.6811ZM56.368 60.0001H43.875C43.909 59.2801 43.903 58.2641 43.753 57.0411C45.5763 57.9111 47.5728 58.3576 49.593 58.3471C52.766 58.3471 55.265 57.6281 56.95 56.1911C56.419 57.6901 56.347 59.2701 56.368 60.0001ZM59.823 51.0031C58.546 54.3131 54.577 57.5141 50.475 57.5141C46.096 57.5141 40.727 53.9471 38.586 47.9101C35.606 39.5061 31.136 36.0481 33.025 33.1411C34.267 31.2301 37.554 31.7381 39.007 37.4051C39.232 38.2841 39.865 39.9851 40.948 39.9851C44.443 39.9851 50.692 41.6611 50.692 48.8641C51.671 41.5621 45.143 38.2351 40.626 38.4371V21.9971C40.626 19.7221 42.146 17.9721 44.112 18.9861V36.0651L45.333 35.0671V18.7291C45.675 15.6601 50.035 15.7851 50.535 18.6281V36.0591L51.673 35.0681V18.5971C53.114 17.1281 55.762 18.2841 55.762 20.6281V36.1431L56.868 35.1521L56.856 21.9401C58.511 21.2841 60.292 22.5341 60.26 24.4401C60.26 24.4401 60.236 35.1881 60.448 38.7531C60.626 41.7311 61.597 46.4101 59.823 51.0031Z" fill="white"/>
</svg>
