<svg width="64" height="64" viewBox="0 0 64 64" fill="none" xmlns="http://www.w3.org/2000/svg">
<path d="M51.9992 22.547C51.9992 11.199 43.1552 2 32.2472 2C21.3372 2 12.4952 11.199 12.4952 22.547C12.4952 33.314 20.4602 45.581 30.5962 46.806C29.8852 46.985 29.9472 48.043 30.8002 48.043H30.0582C29.8197 48.0648 29.598 48.175 29.4366 48.3519C29.2752 48.5287 29.1857 48.7595 29.1857 48.999C29.1857 49.2385 29.2752 49.4693 29.4366 49.6461C29.598 49.823 29.8197 49.9332 30.0582 49.955H31.5242C31.4222 51.569 30.9772 53.277 29.6892 54.344C27.5502 56.112 24.7982 55.061 22.3102 54.987C19.2962 54.895 16.7512 56.18 14.5702 58.178C13.8122 58.871 12.9682 59.887 12.2792 60.655C11.4942 61.53 12.5312 62.579 13.3382 61.62C14.8852 59.776 15.9122 58.491 17.9732 57.325C20.5552 55.864 22.9362 56.593 25.7352 56.745C28.9422 56.917 31.8392 55.39 32.7512 52.095C32.8972 51.566 32.9772 50.721 33.0102 49.956H34.4002C34.6386 49.9342 34.8603 49.824 35.0217 49.6471C35.1832 49.4703 35.2726 49.2395 35.2726 49C35.2726 48.7605 35.1832 48.5297 35.0217 48.3529C34.8603 48.176 34.6386 48.0658 34.4002 48.044H33.6972C34.5512 48.044 34.6132 46.985 33.9002 46.807C44.0332 45.581 51.9992 33.313 51.9992 22.547Z" fill="white"/>
</svg>
