<svg width="64" height="64" viewBox="0 0 64 64" fill="none" xmlns="http://www.w3.org/2000/svg">
<path d="M31.2379 26.6841C31.2379 25.6221 30.4019 24.7671 29.3709 24.7671C28.3399 24.7671 27.5059 25.6221 27.5059 26.6841C27.5059 27.1361 27.6649 27.5481 27.9219 27.8771C28.8969 27.5381 30.3179 27.1021 31.1969 27.0811C31.2235 26.9524 31.2372 26.8201 31.2379 26.6841ZM29.3709 28.6201C30.1699 28.8551 31.3649 28.8321 31.6129 30.5331C32.0859 29.1891 31.4979 27.8461 29.3709 28.6201Z" fill="white"/>
<path d="M59.6384 7C58.6914 7 58.0164 7.537 57.2344 8.159C56.1574 9.015 54.6814 10.188 52.5844 10.188C51.4204 10.188 50.1454 9.354 49.1194 8.684C48.1414 8.044 47.2974 7.493 46.3054 7.493C45.3814 7.493 44.1824 8.046 43.8444 9.605C43.3854 11.72 44.8214 13.9 45.7164 15.011C46.0634 15.442 46.4664 15.879 46.9094 16.292C41.9524 17.934 30.6694 20.426 7.85337 20.426C3.84837 20.426 2.40037 24.308 2.18937 26.385C2.14637 26.744 1.77837 29.958 2.20137 32.651C3.66337 42.004 11.0504 52 27.3974 52C28.0204 52 28.6104 51.994 29.1784 51.983C30.1304 53.86 31.4054 55.197 32.5884 54.93C33.5984 54.701 34.3384 53.346 34.7584 51.604C35.2734 51.5333 35.786 51.446 36.2954 51.342C37.6634 54.383 39.7824 57 42.4094 57C42.6914 57 42.969 56.969 43.2424 56.907C47.1304 56.029 48.4404 49.481 48.0124 44.502C54.5994 38.005 56.3394 23.219 56.7194 18.742C61.3684 16.563 61.9994 12.995 61.9994 10.058C61.9994 7.221 60.1924 7 59.6384 7ZM27.3974 50C11.1654 50 5.35637 39.887 4.17637 32.341C3.77637 29.793 4.17637 26.607 4.17637 26.607V26.605C4.61971 26.5943 5.06237 26.5847 5.50437 26.576C5.53037 29.615 6.04937 32.728 7.17337 35.578C8.29937 38.482 10.0704 41.127 12.3264 43.217C14.5724 45.322 17.2564 46.874 20.0754 47.942C22.8994 49.018 25.8584 49.646 28.8284 49.989C28.3654 49.994 27.8994 50 27.3974 50ZM28.8294 49.987C25.8784 49.498 22.9684 48.727 20.2414 47.531C17.5164 46.343 14.9854 44.7 12.9354 42.581C10.8804 40.4678 9.33123 37.9162 8.40437 35.118C7.47537 32.366 7.13137 29.473 7.24837 26.549C8.25313 26.5389 9.25798 26.5483 10.2624 26.577C10.1454 30.029 10.9514 33.46 12.4844 36.483C14.0563 39.5693 16.3571 42.2257 19.1874 44.222C21.9764 46.202 25.1834 47.494 28.4764 48.165C30.7404 48.635 33.0424 48.798 35.3384 48.767C35.4064 48.9917 35.4787 49.217 35.5554 49.443C33.8124 49.766 31.6764 49.944 28.8294 49.987ZM17.8834 36.615C19.6194 39.587 22.1164 42.045 25.0014 43.788C27.8864 45.536 31.1714 46.574 34.4974 46.771C34.6144 46.778 34.7314 46.774 34.8504 46.779C34.9644 47.375 35.1134 47.996 35.2974 48.629C33.0254 48.557 30.7654 48.292 28.5714 47.735C25.3604 46.931 22.2984 45.528 19.7054 43.509C17.1084 41.5 15.0084 38.871 13.6644 35.903C12.3504 33.005 11.7544 29.79 11.9994 26.659C13.1154 26.728 14.2264 26.831 15.3294 26.981C15.2864 30.3651 16.1696 33.6966 17.8834 36.615ZM17.0564 27.266C17.2364 27.299 17.4174 27.326 17.5964 27.364C18.4964 27.542 19.3764 27.787 20.2454 28.067C20.2594 32.685 23.0284 37.662 27.4834 41.061C29.5951 42.6793 32.0086 43.86 34.5824 44.534C34.6044 45.013 34.6454 45.513 34.7244 46.052C34.7384 46.149 34.7594 46.251 34.7754 46.35C34.6954 46.342 34.6134 46.341 34.5324 46.332C31.2893 45.983 28.179 44.8538 25.4674 43.041C22.7784 41.246 20.5224 38.803 19.0284 35.966C17.6083 33.2932 16.9275 30.2898 17.0564 27.266ZM54.8134 17.368C54.7274 19.833 53.3534 34.878 47.6004 41.967C47.0963 42.5981 46.5297 43.1757 45.9094 43.693C46.5774 48.275 45.3454 54.382 42.8034 54.957C42.6734 54.9857 42.542 55 42.4094 55C39.9704 55 37.3374 50.108 36.7024 45.761C36.6024 45.082 36.5634 44.46 36.5674 43.882C36.1454 43.841 35.7684 43.782 35.4354 43.718C32.7677 43.1069 30.2624 41.9297 28.0894 40.266C23.9884 37.136 21.4044 32.627 21.2584 28.411C22.167 28.7417 23.0657 29.113 23.9544 29.525C24.9904 29.969 26.0354 30.548 27.2524 30.658C28.4884 30.734 29.5834 30.112 30.4404 29.381C29.4674 29.957 28.3724 30.44 27.2994 30.227C26.2344 30.054 25.2584 29.442 24.2504 28.914C22.2246 27.7878 20.0403 26.9743 17.7714 26.501C15.5111 26.0498 13.2073 25.8546 10.9034 25.919C8.64237 25.967 6.39237 26.189 4.17637 26.594C4.19337 26.436 4.64437 22.429 7.85037 22.429C43.3954 22.429 51.4364 16.497 51.4364 16.497C49.0794 16.497 45.3154 12.243 45.7944 10.032C45.8774 9.649 46.0514 9.495 46.3014 9.495C47.3504 9.495 49.7504 12.19 52.5804 12.19C56.6254 12.19 58.8284 9.002 59.6354 9.002C59.8844 9 59.9994 9.294 59.9994 10.059C59.9994 13.296 59.1364 15.795 54.8134 17.368Z" fill="white"/>
</svg>
