<svg width="64" height="64" viewBox="0 0 64 64" fill="none" xmlns="http://www.w3.org/2000/svg">
<path d="M60.1888 39.513C54.5358 30.292 39.7278 31.286 34.7238 31.353C34.7878 31.123 34.8328 30.885 34.8328 30.635C34.8328 30.41 34.7978 30.195 34.7448 29.986C39.7438 30.152 54.6918 30.797 60.1918 21.754C66.0788 12.072 55.9128 9.09997 51.3498 12.354C54.7228 7.43797 51.4198 -1.88703 41.6778 3.76197C32.3958 9.14197 33.1778 23.038 33.2798 28.19C32.882 27.9895 32.4433 27.8835 31.9978 27.88C31.5817 27.8829 31.1711 27.9753 30.7938 28.151C30.9778 22.977 31.4028 8.98197 22.3148 3.75697C12.3578 -1.96503 9.30084 7.91797 12.6468 12.355C14.2738 13.711 15.8378 15.127 17.3948 16.552C18.9558 17.97 20.4728 19.432 21.9928 20.894C23.4968 22.368 24.9988 23.844 26.4598 25.363L28.6478 27.641C29.3568 28.421 30.0838 29.182 30.7748 29.978C29.9548 29.306 29.1728 28.597 28.3728 27.91L26.0268 25.783C24.4658 24.364 22.9488 22.902 21.4308 21.439C19.9288 19.964 18.4228 18.488 16.9638 16.969C15.4988 15.457 14.0418 13.936 12.6478 12.354C7.59084 9.07397 -1.99816 12.285 3.80984 21.757C9.46384 30.976 24.2688 29.986 29.2748 29.917C29.2108 30.147 29.1658 30.385 29.1658 30.635C29.1658 30.86 29.2008 31.075 29.2538 31.284C24.2558 31.118 9.30684 30.471 3.80684 39.516C-2.08016 49.198 8.08584 52.168 12.6488 48.914C9.27584 53.83 12.5788 63.156 22.3208 57.508C31.6018 52.127 30.8208 38.231 30.7188 33.078C31.1058 33.271 31.5368 33.39 31.9998 33.39C32.4338 33.39 32.8388 33.287 33.2058 33.119C33.0208 38.29 32.5938 52.286 41.6848 57.512C51.6418 63.235 54.6988 53.352 51.3528 48.914C49.7258 47.559 48.1618 46.143 46.6048 44.717C45.0438 43.299 43.5268 41.836 42.0068 40.375C40.5028 38.9 39.0008 37.425 37.5398 35.906L35.3518 33.627C34.6448 32.847 33.9158 32.086 33.2248 31.291C34.0428 31.963 34.8268 32.67 35.6268 33.358L37.9728 35.486C39.5338 36.905 41.0508 38.367 42.5688 39.828C44.0708 41.305 45.5768 42.78 47.0338 44.299C48.5008 45.813 49.9568 47.332 51.3528 48.914C56.4088 52.196 65.9998 48.985 60.1888 39.513ZM28.6458 33.628L26.4598 35.907C24.9988 37.425 23.4968 38.901 21.9928 40.376C20.4728 41.837 18.9558 43.3 17.3948 44.718C15.8378 46.143 14.2738 47.558 12.6468 48.915C14.0418 47.333 15.4988 45.813 16.9628 44.3C18.4218 42.781 19.9258 41.306 21.4298 39.829C22.9458 38.366 24.4648 36.906 26.0258 35.487L28.3698 33.359C29.1728 32.671 29.9538 31.963 30.7738 31.292C30.0828 32.087 29.3568 32.848 28.6458 33.628ZM35.3518 27.641L37.5398 25.362C39.0008 23.844 40.5028 22.368 42.0068 20.893C43.5268 19.432 45.0438 17.97 46.6048 16.552C48.1618 15.127 49.7258 13.711 51.3528 12.355C49.9568 13.937 48.5008 15.458 47.0348 16.97C45.5778 18.489 44.0718 19.965 42.5698 21.44C41.0518 22.902 39.5348 24.364 37.9738 25.784L35.6278 27.909C34.8268 28.598 34.0438 29.307 33.2258 29.979C33.9158 29.181 34.6448 28.421 35.3518 27.641Z" fill="white"/>
<path d="M32.0008 34.9639L29.5008 59.2689C29.4841 59.4351 29.4841 59.6026 29.5008 59.7689C29.6418 61.1329 30.8738 62.1259 32.2548 61.9879C33.6358 61.8499 34.6418 60.6329 34.5018 59.2689L32.0008 34.9639Z" fill="white"/>
</svg>
