<svg width="64" height="64" viewBox="0 0 64 64" fill="none" xmlns="http://www.w3.org/2000/svg">
<path d="M55.1314 25.669C55.4147 25.6184 55.6987 25.5684 55.9834 25.519C56.1794 25.486 56.3754 25.443 56.5484 25.353C56.7494 25.257 56.8884 25.104 57.0154 24.939C57.1434 24.779 56.8694 24.608 56.7424 24.767C56.6334 24.91 56.5494 25.011 56.3884 25.087C56.2384 25.163 56.0684 25.19 55.9004 25.22C55.6231 25.2674 55.3467 25.316 55.0714 25.366C54.8584 25.401 54.9214 25.705 55.1314 25.669Z" fill="white"/>
<path d="M38.5149 28.0209C38.796 28.0209 39.0239 27.8257 39.0239 27.5849C39.0239 27.3441 38.796 27.1489 38.5149 27.1489C38.2337 27.1489 38.0059 27.3441 38.0059 27.5849C38.0059 27.8257 38.2337 28.0209 38.5149 28.0209Z" fill="white"/>
<path d="M31.2775 27.0209C31.5581 27.0209 31.7855 26.8257 31.7855 26.5849C31.7855 26.3441 31.5581 26.1489 31.2775 26.1489C30.997 26.1489 30.7695 26.3441 30.7695 26.5849C30.7695 26.8257 30.997 27.0209 31.2775 27.0209Z" fill="white"/>
<path d="M30.833 28.0419C29.004 26.6429 28.166 25.1289 28.166 25.1289C28.166 25.1289 28.333 27.1999 30.833 28.0419ZM49.151 26.6499C46.95 27.4679 45.121 27.4239 45.121 27.4239C45.121 27.4239 47.155 28.2839 49.151 26.6499Z" fill="white"/>
<path d="M34.8855 13.4179C35.5924 13.4179 36.1655 12.8448 36.1655 12.1379C36.1655 11.431 35.5924 10.8579 34.8855 10.8579C34.1785 10.8579 33.6055 11.431 33.6055 12.1379C33.6055 12.8448 34.1785 13.4179 34.8855 13.4179Z" fill="white"/>
<path d="M41.1042 14.1381C41.8111 14.1381 42.3842 13.565 42.3842 12.8581C42.3842 12.1512 41.8111 11.5781 41.1042 11.5781C40.3973 11.5781 39.8242 12.1512 39.8242 12.8581C39.8242 13.565 40.3973 14.1381 41.1042 14.1381Z" fill="white"/>
<path d="M39.7354 16.9092C39.8644 16.7262 39.7474 16.5002 39.5764 16.6022C38.1494 17.4692 36.6984 17.2932 35.5134 16.1312C35.3694 15.9912 35.2044 16.1872 35.2884 16.3942C35.6014 17.1662 36.3274 17.9082 37.3514 18.0272C38.3784 18.1462 39.2554 17.5902 39.7354 16.9092Z" fill="white"/>
<path d="M47.14 37.8251C45.893 36.6421 43.282 35.7101 39.299 35.0541C39.2187 34.9214 39.1488 34.7826 39.09 34.6391L38.948 34.2511H38.951C39.184 32.5151 39.66 31.9201 40.242 31.2231C40.857 30.4861 41.541 29.6651 42.029 27.7881C43.556 28.3671 46.318 29.3671 48.07 29.7281C48.668 29.8721 49.452 29.9481 50.371 29.9481C51.709 29.9481 53.148 29.7891 54.278 29.6251C54.841 30.2041 55.59 30.2041 55.882 30.2041C56.456 30.2041 57.206 30.0901 58.244 29.9331C59.251 29.7791 60.002 29.3681 60.479 28.7121C60.792 28.2801 61.128 27.5311 60.947 26.4171C60.651 24.6841 59.516 23.7021 57.74 23.6241C57.48 23.3111 57.083 23.0941 56.56 23.0941C56.4613 23.0941 56.354 23.1031 56.238 23.1211L54.816 23.3941L54.792 23.3991L54.768 23.4051C53.9 23.6181 53.29 24.2961 53.176 25.0941H53.082C52.543 25.0941 52.021 25.0221 51.517 24.9521C51.041 24.8871 50.592 24.8251 50.151 24.8251C50.081 24.8251 50.0127 24.8268 49.946 24.8301C48.96 23.7871 46.891 22.9421 45.485 22.5111C44.948 21.9401 43.479 20.5691 41.523 20.2871C41.197 20.2421 40.8699 20.2061 40.542 20.1791C40.3411 20.1629 40.1407 20.1413 39.941 20.1141C42.087 19.4281 44.496 17.9281 45.27 15.6101C46.021 15.5411 47.064 15.1271 47.264 13.4061C47.367 12.5191 47.243 11.8921 46.883 11.4891C46.7286 11.319 46.5304 11.1948 46.31 11.1301C46.875 5.52408 45.663 2.95908 39.263 2.15808C32.813 1.35008 30.761 3.63708 29.998 9.29608C29.519 9.41208 28.928 9.84708 28.764 11.2631C28.61 12.5991 29.118 13.5101 30.201 13.8661C30.399 15.9181 31.93 17.7541 33.627 18.9801C33.3408 19.0767 33.04 19.1227 32.738 19.1161C32.422 19.1161 32.095 19.0871 31.781 19.0581C31.6455 19.0453 31.5098 19.034 31.374 19.0241C31.1414 19.0076 30.9082 18.9993 30.675 18.9991C27.677 18.9991 25.656 20.4511 24.665 23.3151C23.653 24.2031 22.776 25.2431 21.991 26.4881L21.803 26.7801C21.08 27.9071 20.457 28.8811 20.472 31.2911C20.481 32.4321 20.478 34.1031 20.475 35.1071C19.426 35.6891 19.52 36.9571 19.651 38.7201C19.778 40.3981 20.911 41.4401 22.606 41.4401C22.726 41.4401 22.821 41.4341 22.878 41.4311C23.881 41.3701 24.658 41.0171 25.185 40.4251C25.301 41.5851 25.856 42.7771 27.213 44.0491C27.229 44.1721 27.234 44.3801 27.239 44.5281C27.256 45.1091 27.302 45.8691 27.703 46.5211C19.3604 49.4917 10.7539 51.6611 2 53.0001V62.0001H62V28.0001C62 28.0001 56.805 32.5151 47.14 37.8251ZM53.202 50.3981C53.202 50.6791 53.052 51.0331 52.953 51.3981L49.986 51.7891C49.701 51.4001 49.483 51.0341 49.466 50.7151C49.4499 50.4106 49.4687 50.1053 49.522 49.8051C51.852 49.8541 53.202 50.0711 53.202 50.3981ZM50.793 42.5501C50.852 44.3911 50.201 45.6801 49.571 46.9281C48.99 48.0781 48.39 49.2681 48.468 50.7681C48.509 51.5831 49.095 52.3061 49.714 53.0721C50.108 53.5581 50.515 54.0611 50.759 54.5721C50.353 54.8621 48.897 55.3011 47.896 55.3011C47.632 55.3011 47.533 55.2661 47.527 55.2661C46.504 54.5381 46.248 53.3571 46.672 51.3141C46.957 49.9341 46.75 48.8311 46.583 47.9441C46.387 46.9031 46.258 46.2151 46.881 45.4711L47.416 44.8321L46.6 44.6601C46.102 44.5561 44.683 44.1331 44.139 43.4991C44.045 43.2541 44.213 41.9471 44.825 40.8041C45.147 40.2011 45.511 39.8051 45.86 39.6721C48.699 40.4471 50.728 42.0841 50.793 42.5501ZM28.621 54.2501C28.633 54.1661 28.775 53.9301 28.879 53.7581C29.143 53.3201 29.502 52.7231 29.574 51.9791C29.626 51.4371 29.656 50.9091 29.689 50.3581C29.787 48.6881 29.896 46.7951 30.683 43.7121C31.003 42.4541 31.913 41.7041 33.119 41.7041C33.989 41.7041 34.816 42.1131 35.224 42.7471C35.583 43.3041 35.597 43.9881 35.263 44.7261C34.839 45.6621 34.265 46.6361 33.71 47.5781C32.79 49.1391 31.839 50.7531 31.515 52.2891C31.127 54.1211 31.845 55.4351 32.369 56.3961C32.619 56.8541 32.84 57.2571 32.85 57.5561C32.47 57.7641 31.132 58.1181 30.107 58.1181C29.742 58.1181 29.613 58.0661 29.605 58.0661C29.457 57.9101 29.306 57.0841 29.207 56.5361C29.066 55.7661 28.908 54.8951 28.621 54.2501ZM32.488 54.0801C32.3784 53.5569 32.3805 53.0164 32.494 52.4941C32.596 52.0141 32.785 51.5171 33.005 51.0141C37.961 50.3401 42.38 49.9741 45.801 49.8481C45.807 50.2431 45.787 50.6561 45.694 51.1121C45.61 51.5161 45.538 51.9451 45.501 52.3801C41.782 52.8671 37.219 53.4651 32.488 54.0801ZM31.179 13.4651L31.174 13.0571L30.772 12.9811C30.192 12.8711 29.617 12.5941 29.758 11.3771C29.805 10.9691 29.936 10.2901 30.283 10.2541C30.308 10.5311 30.351 10.7421 30.414 10.9061C30.602 11.3821 31.022 11.6781 31.07 11.7111L31.875 12.2601L31.852 11.2851C31.852 11.2791 31.838 10.6331 31.969 9.77608C32.395 7.47108 32.617 6.84008 33.002 6.84008C33.268 6.84008 33.7 6.97808 34.248 7.15308C35.213 7.46308 36.536 7.88608 38.501 8.11308C40.148 8.30408 41.815 8.23408 42.861 8.15108C43.218 8.12408 43.518 8.10008 43.771 8.10008C44.161 8.10008 44.266 8.16408 44.313 8.21308C44.588 8.50108 44.547 9.86308 44.483 11.2181C44.415 12.0921 44.253 12.7141 44.252 12.7201L44.005 13.6641L44.915 13.3141C44.968 13.2931 45.442 13.1021 45.737 12.6781C45.8565 12.4908 45.9493 12.2879 46.013 12.0751C46.088 12.0981 46.119 12.1351 46.135 12.1531C46.207 12.2331 46.362 12.5031 46.27 13.2901C46.134 14.4631 45.559 14.6211 45.015 14.6211L44.506 14.6011L44.407 14.9971C43.629 18.1251 38.977 19.7361 37.179 19.5301C35.42 19.3261 31.223 16.7561 31.179 13.4651ZM24.961 38.1721C24.948 39.1171 24.646 40.3241 22.815 40.4341C22.771 40.4361 22.697 40.4411 22.605 40.4411C22.046 40.4411 20.771 40.2811 20.647 38.6471C20.49 36.5121 20.455 36.0021 21.472 35.8201C21.474 35.1901 21.482 32.7821 21.471 31.2851C21.456 28.9771 22.064 28.2441 22.835 27.0211C23.648 25.7311 24.53 24.7271 25.525 23.8921C26.247 21.5881 27.73 19.9981 30.672 19.9981C30.874 19.9981 31.0833 20.0058 31.3 20.0211C31.725 20.0511 32.226 20.1151 32.736 20.1151C33.378 20.1151 34.024 19.9881 34.563 19.5911C35.465 20.1101 36.354 20.4421 37.063 20.5241C37.2057 20.5408 37.358 20.5491 37.52 20.5491C37.908 20.5491 38.361 20.4971 38.846 20.4001C39.101 21.2431 39.923 21.0681 41.378 21.2771C43.452 21.5761 44.926 23.3891 44.926 23.3891C47.321 24.0711 49.226 25.1931 49.488 25.9071C49.692 25.8481 49.913 25.8251 50.149 25.8251C50.962 25.8251 51.956 26.0941 53.081 26.0941C53.456 26.0941 53.847 26.0641 54.249 25.9841L54.17 25.5251C54.08 24.9981 54.453 24.5111 55.005 24.3761L56.401 24.1071C56.459 24.0978 56.5117 24.0931 56.559 24.0931C57.081 24.0931 57.1 24.6031 57.1 24.6341C57.2313 24.6241 57.366 24.6188 57.504 24.6181C58.53 24.6181 59.682 24.9511 59.959 26.5731C60.01 26.8851 60.301 28.6061 58.093 28.9441C57.073 29.0991 56.374 29.2041 55.881 29.2041C55.237 29.2041 54.946 29.0241 54.759 28.5391C53.63 28.7221 51.921 28.9481 50.37 28.9481C49.601 28.9481 48.872 28.8921 48.271 28.7481C45.857 28.2501 41.296 26.4321 41.296 26.4321C40.459 31.2221 38.576 30.0001 37.985 33.9731C30.142 33.6361 28.317 33.0131 28.243 32.9861L28.157 32.9551C28.506 30.6541 27.469 30.7351 28.164 26.7991C27.475 28.8851 25.027 29.9031 24.517 30.0951L23.623 28.8121C23.623 28.8121 24.105 30.5221 24.259 31.9151L23.93 35.6311L24.335 35.6081C24.3563 35.6061 24.3773 35.6054 24.398 35.6061C24.894 35.6061 25.308 35.9521 25.389 36.4151L25.535 37.6201C25.561 38.0211 25.008 38.1721 24.961 38.1721ZM25.018 34.7011L25.362 30.8271C25.9223 30.5732 26.4551 30.2626 26.952 29.9001C26.989 30.3361 27.056 30.6831 27.115 31.0021C27.214 31.5241 27.291 31.9531 27.19 32.6921L26.921 33.6731C26.7296 34.3938 26.4999 35.1038 26.233 35.8001C26.1206 35.5408 25.9541 35.3086 25.7445 35.119C25.5349 34.9295 25.2872 34.787 25.018 34.7011ZM26.161 40.1171C26.137 39.6181 26.213 39.1141 26.344 38.5941C26.772 38.0531 28.629 36.0431 32.366 36.4651C32.366 36.4651 29.666 34.5071 27.454 35.3631C27.5393 35.1144 27.6213 34.8581 27.7 34.5941C29.532 34.4161 34.911 36.1771 38.404 35.4951C38.498 35.6571 38.607 35.8271 38.749 35.9771C39.0083 36.0171 39.2687 36.0604 39.53 36.1071C38.144 36.0911 38.03 37.6311 38.03 37.6311C39.467 36.5281 42.18 36.7601 42.746 36.8221C43.0493 36.9081 43.343 36.9981 43.627 37.0921C42.176 37.0431 41.577 38.7251 41.577 38.7251C42.975 37.6521 45.39 38.0461 46.001 38.1681C46.346 38.4001 46.616 38.6481 46.79 38.9111C46.5221 38.8206 46.2513 38.7389 45.978 38.6661L45.859 38.6351L45.74 38.6621C44.563 38.9341 43.869 40.3571 43.56 41.1811C43.3613 41.7139 43.2248 42.2679 43.153 42.8321C42.935 43.7071 42.885 44.5411 43.092 45.0841C43.818 46.9871 44.541 46.3521 44.981 45.1791C45.116 45.2361 45.238 45.2831 45.365 45.3291L45.358 45.3551C45.171 46.3901 44.668 46.7811 43.992 46.7811C41.924 46.7811 38.246 43.1251 37.152 43.1251C37.0824 43.1216 37.0139 43.1425 36.958 43.1841C36.304 43.7091 37.69 45.4631 37.255 45.8561C36.917 46.1581 36.199 46.5071 35.315 46.7971C35.465 46.5311 35.594 46.2671 35.734 46.0001C36.247 45.4471 36.564 44.7401 36.564 43.9591C36.5586 43.6596 36.5084 43.3627 36.415 43.0781C36.3508 42.7682 36.2327 42.472 36.066 42.2031C35.468 41.2761 34.339 40.7011 33.12 40.7011C32.733 40.7011 32.323 40.7741 31.922 40.9181C29.732 41.5801 29.047 43.9481 29.047 45.4901C29.047 45.7131 29.089 45.8981 29.151 46.0621C29.122 46.2241 29.09 46.3901 29.066 46.5441C28.914 46.4344 28.7748 46.3079 28.651 46.1671C27.966 45.3741 28.465 43.8351 28.005 43.4171C27.967 43.3821 27.939 43.3491 27.902 43.3131C27.941 42.7251 28.278 39.5401 30.936 38.5201C30.937 38.5231 27.514 38.2541 26.161 40.1171ZM13.691 54.8891C18.797 53.4991 23.863 52.4551 28.593 51.6781C28.586 51.7461 28.584 51.8151 28.577 51.8831C28.528 52.4011 28.259 52.8471 28.021 53.2411C27.75 53.6891 27.495 54.1131 27.682 54.5601C27.701 54.6031 27.714 54.6531 27.731 54.6981C19.529 55.7611 11.488 56.7891 7.036 57.3221C8.496 56.5511 10.944 55.6361 13.691 54.8891ZM18.921 60.8571C16.91 60.7561 9.52 60.5291 6.72 59.4451L28.285 57.0391C28.449 57.9181 28.603 58.5681 29.004 58.8631C29.236 59.0351 29.588 59.1161 30.108 59.1161C30.52 59.1161 33.635 58.8511 33.825 57.8621C33.917 57.3841 33.76 56.9241 33.529 56.4531L45.999 55.0621C46.225 55.4361 46.529 55.7831 46.95 56.0821C47.161 56.2321 47.462 56.3011 47.897 56.3011C48.905 56.3011 51.161 55.8171 51.674 55.0551C51.7365 54.9628 51.7773 54.8575 51.7934 54.7472C51.8095 54.6369 51.8005 54.5244 51.767 54.4181L55.313 54.0231C56.87 54.6911 58.234 54.7301 58.234 54.8041C58.233 56.9611 41.452 62.0001 18.921 60.8571Z" fill="white"/>
</svg>
