<svg width="64" height="64" viewBox="0 0 64 64" fill="none" xmlns="http://www.w3.org/2000/svg">
<path d="M33.1264 44.9789C30.1754 42.6159 25.3904 42.6159 22.4394 44.9789C19.4914 47.3429 19.4914 51.1739 22.4394 53.5379C25.3894 55.9019 30.1744 55.9019 33.1264 53.5379C36.0754 51.1739 36.0754 47.3429 33.1264 44.9789ZM21.7864 41.5699C24.0734 38.7289 23.2994 35.1399 20.0594 33.5559C16.8194 31.9719 12.3394 32.9919 10.0524 35.8329C7.76837 38.6739 8.54037 42.2629 11.7794 43.8469C15.0214 45.4319 19.5014 44.4119 21.7864 41.5699ZM18.6834 28.0179C20.8724 25.5719 20.3434 22.3049 17.5004 20.7209C14.6584 19.1359 10.5814 19.8339 8.39137 22.2799C6.20137 24.7259 6.73137 27.9919 9.57337 29.5759C12.4154 31.1599 16.4944 30.4629 18.6834 28.0179ZM20.7004 19.3079C23.4184 20.8899 27.3694 20.2879 29.5234 17.9669C31.6784 15.6449 31.2234 12.4819 28.5064 10.9009C25.7894 9.31893 21.8384 9.91993 19.6844 12.2409C17.5284 14.5629 17.9834 17.7259 20.7004 19.3079ZM43.6464 15.2709C46.0664 14.0339 46.3354 11.6039 44.2464 9.84093C42.1594 8.07793 38.5004 7.65093 36.0794 8.88693C33.6574 10.1229 33.3894 12.5539 35.4784 14.3169C37.5674 16.0799 41.2264 16.5069 43.6464 15.2709Z" fill="white"/>
<path d="M52.4747 33.199C50.3107 32.563 48.4437 32.013 47.9307 30.74C47.6337 30.002 47.7497 28.918 48.2537 27.519C53.6197 22.499 61.6477 14.41 61.4217 11.123C61.3317 9.809 59.2377 7.927 57.8647 7.927L57.7567 7.931C56.2707 8.033 53.9997 9.999 51.5737 12.661C51.3707 12.0502 51.1091 11.4605 50.7927 10.9C48.2477 6.515 42.6527 4 35.4437 4C29.8387 4 23.5977 5.545 17.3987 8.468C9.44172 12.22 3.49872 20.044 2.25872 28.402C1.33672 34.608 2.43872 43.994 12.9167 53.477C17.5627 57.684 24.8787 60 33.5137 60H33.5167C40.4487 60 47.4717 58.457 52.7877 55.77C58.7287 52.765 61.9997 48.609 61.9997 44.066C61.9997 36 56.4937 34.381 52.4747 33.199ZM57.8647 9.427C58.4957 9.427 59.8917 10.737 59.9247 11.225C60.1157 14.008 50.2017 23.872 43.5747 29.754L42.4447 28.771L41.7057 28.126C46.6377 20.768 55.0717 9.617 57.8647 9.427ZM39.2657 31.06L40.7877 29.315L42.5187 30.825L40.9997 32.569L39.2657 31.06ZM51.8857 53.984C46.8397 56.536 40.1457 58 33.5167 58H33.5147C25.3747 58 18.5367 55.867 14.2587 51.994C4.43472 43.105 3.38572 34.418 4.23472 28.695C5.38072 20.981 10.8827 13.752 18.2537 10.277C24.1867 7.479 30.1317 6 35.4437 6C41.8267 6 46.9167 8.207 49.0617 11.904C49.5237 12.699 49.8337 13.549 50.0137 14.439C45.5357 19.722 40.9877 26.492 40.1187 27.798L37.3417 30.982C35.8837 30.967 34.4237 31.604 33.9737 33.143C32.3157 38.798 28.6227 42.305 28.6227 42.305C28.6227 42.305 37.9837 40.455 39.7747 38.353C40.7447 37.215 41.2147 35.855 41.2037 34.615L44.1117 31.281C44.4997 30.94 45.0767 30.427 45.7877 29.785C45.7837 30.409 45.8697 30.979 46.0737 31.487C46.9487 33.659 49.3577 34.367 51.9087 35.117C55.8857 36.287 59.9987 37.496 59.9987 44.066C59.9997 47.816 57.1167 51.338 51.8857 53.984Z" fill="white"/>
<path d="M54.1208 39.8069C51.1708 37.4439 46.3848 37.4439 43.4348 39.8069C40.4848 42.1699 40.4858 46.0019 43.4348 48.3659C46.3838 50.7299 51.1698 50.7289 54.1208 48.3659C57.0718 46.0029 57.0708 42.1699 54.1208 39.8069ZM52.6678 47.2009C50.5208 48.9219 47.0348 48.9219 44.8888 47.2009C42.7428 45.4799 42.7418 42.6909 44.8888 40.9709C47.0358 39.2509 50.5208 39.2499 52.6678 40.9709C54.8148 42.6919 54.8148 45.4799 52.6678 47.2009Z" fill="white"/>
</svg>
