<svg width="64" height="64" viewBox="0 0 64 64" fill="none" xmlns="http://www.w3.org/2000/svg">
<path d="M21.25 13.8418C15.322 13.8418 10.5 18.6638 10.5 24.5918C10.5 30.5198 15.322 35.3418 21.25 35.3418C27.178 35.3418 32 30.5198 32 24.5918C32 18.6638 27.178 13.8418 21.25 13.8418ZM21.25 33.8418C16.149 33.8418 12 29.6928 12 24.5918C12 19.4908 16.149 15.3418 21.25 15.3418C26.35 15.3418 30.5 19.4908 30.5 24.5918C30.5 29.6928 26.35 33.8418 21.25 33.8418Z" fill="white"/>
<path d="M21.25 29.0918C23.7353 29.0918 25.75 27.0771 25.75 24.5918C25.75 22.1065 23.7353 20.0918 21.25 20.0918C18.7647 20.0918 16.75 22.1065 16.75 24.5918C16.75 27.0771 18.7647 29.0918 21.25 29.0918Z" fill="white"/>
<path d="M43.5006 23C40.6936 23 37.8876 25.045 36.0236 29.133C35.8376 29.545 36.7986 30.287 37.2796 29.883C39.0866 28.363 41.2446 27.757 43.5006 27.757C45.7546 27.757 47.9126 28.363 49.7216 29.883C50.2006 30.287 51.1606 29.545 50.9776 29.133C49.1136 25.045 46.3076 23 43.5006 23Z" fill="white"/>
<path d="M32 2C15.431 2 2 15.432 2 32C2 48.568 15.431 62 32 62C48.568 62 62 48.568 62 32C62 15.432 48.568 2 32 2ZM32.002 60C26.481 59.996 22.002 55.602 22.002 46.844V42.849C22.002 42.318 22.115 42 22.824 42H30.5L32.002 55.789L33.5 42H41.18C41.888 42 42.002 42.317 42.002 42.849V46.844C42.002 55.602 37.523 59.996 32.002 60ZM40.488 58.144C42.135 56.249 43.369 53.571 43.816 49.941C47.21 47.034 49.003 42.96 49.003 39.001C49.003 38.508 48.611 38.001 47.878 38.001H16.125C15.392 38 15 38.507 15 39C15 42.957 16.792 47.029 20.183 49.937C20.629 53.575 21.873 56.25 23.525 58.148C12.498 54.564 4.5 44.205 4.5 32C4.5 16.836 16.836 4.5 32 4.5C47.164 4.5 59.5 16.836 59.5 32C59.5 44.201 51.508 54.557 40.488 58.144Z" fill="white"/>
</svg>
