<svg width="64" height="64" viewBox="0 0 64 64" fill="none" xmlns="http://www.w3.org/2000/svg">
<path d="M34.1465 40.802C34.6995 40.802 35.1465 39.884 35.1465 38.745C35.1465 37.612 34.6995 36.686 34.1465 36.686C33.5935 36.686 33.1465 37.612 33.1465 38.745C33.1465 39.884 33.5945 40.802 34.1465 40.802ZM29.8555 36.687C29.3025 36.687 28.8555 37.613 28.8555 38.746C28.8555 39.885 29.3025 40.803 29.8555 40.803C30.4085 40.803 30.8555 39.885 30.8555 38.746C30.8555 37.612 30.4085 36.687 29.8555 36.687ZM24.1335 30.276C22.3365 31.544 20.8615 32.737 20.8615 32.737C20.8615 32.737 22.3555 31.7 24.1335 30.276ZM19.5935 27.335C18.6635 28.06 18.0645 28.565 18.0645 28.565C18.0645 28.565 18.6975 28.071 19.5935 27.335Z" fill="white"/>
<path d="M62 32.9682C62 29.1812 59.432 26.0052 55.943 25.0462C55.873 24.7292 55.824 24.4332 55.746 24.1082C55.492 23.0372 55.017 21.0682 53.808 20.2642C51.962 15.9442 48.443 12.7892 43.376 10.7792C44.521 10.1752 45.261 9.87119 45.261 9.87119C42.025 8.73519 39.216 8.06919 36.784 7.76619C38.063 6.80519 38.917 6.43919 38.917 6.43919C21.698 4.01019 12.091 12.0472 9.503 20.9272C8.786 21.8782 8.453 23.2712 8.253 24.1092C8.176 24.4312 8.127 24.7262 8.058 25.0412C4.568 25.9982 2.001 29.1802 2.001 32.9692C2.001 36.5222 4.259 39.5392 7.417 40.6942L2 61.9992H13.949C13.527 59.9112 13.636 53.7112 14.005 51.6062C18.283 55.5112 24.755 57.9992 32 57.9992C39.245 57.9992 45.719 55.5122 49.997 51.6062C50.366 53.7102 50.476 59.9112 50.052 61.9992H62L56.584 40.6902C59.742 39.5382 62 36.5212 62 32.9682ZM4.879 32.9682C4.879 31.0462 5.91 29.3922 7.439 28.4532C6.914 32.1882 7.02 35.2922 7.789 37.7102C6.065 36.8152 4.879 35.0402 4.879 32.9682ZM32 22.0602C32 22.0602 45.264 14.9172 50.198 21.3952C50.012 21.6182 49.831 21.8552 49.653 22.0872C49.405 22.4132 48.995 22.9482 48.684 23.2482C47.198 22.0552 43.502 19.4382 39.647 19.4382C39.321 19.4382 38.995 19.4582 38.678 19.4972C37.879 19.5882 37.28 20.0732 37.071 20.7862C37.0316 20.9126 37.0048 21.0425 36.991 21.1742C36.407 21.0029 35.8817 20.9172 35.415 20.9172C34.142 20.9172 33.415 21.5042 33.032 21.9982C32.207 23.0582 32.285 24.3272 33.35 25.9442C32.98 26.0792 32.719 26.2922 32.545 26.4802C32.287 26.7642 32.016 27.2582 32.002 27.9972C31.988 27.2592 31.717 26.7652 31.458 26.4802C31.236 26.2397 30.9596 26.056 30.652 25.9442C31.716 24.3272 31.795 23.0572 30.971 21.9982C30.587 21.5042 29.863 20.9172 28.587 20.9172C28.1203 20.9172 27.595 21.0029 27.011 21.1742C26.9972 21.0425 26.9704 20.9126 26.931 20.7862C26.722 20.0732 26.12 19.5882 25.323 19.4972C25.0012 19.4579 24.6772 19.4382 24.353 19.4382C20.498 19.4382 16.805 22.0542 15.319 23.2502C15.006 22.9482 14.597 22.4132 14.348 22.0872C14.17 21.8532 13.989 21.6172 13.804 21.3952C18.737 14.9172 32 22.0602 32 22.0602ZM9.713 24.4552C10.255 22.1792 10.802 21.4032 11.371 21.4032C12.586 21.4032 13.903 24.9442 15.489 24.9442C15.5437 24.9442 15.599 24.9395 15.655 24.9302C15.655 24.9302 19.992 20.9402 24.354 20.9402C24.6193 20.9389 24.8837 20.9539 25.147 20.9852C26.835 21.1842 22.147 25.2412 19.594 27.3352C21.905 25.5402 26.26 22.4172 28.588 22.4172C29.101 22.4172 29.516 22.5692 29.787 22.9192C30.932 24.3922 27.129 27.8802 24.134 30.2762C26.172 28.8372 28.625 27.3002 29.811 27.3002C30.295 27.3002 30.567 27.5572 30.512 28.1822C30.172 32.0472 22.633 41.0432 18.028 41.9592C17.274 42.1092 16.539 42.1892 15.834 42.1892C10.328 42.1902 6.633 37.3962 9.713 24.4552ZM32 56.6022C23.906 56.6022 17.346 51.6732 17.346 45.5892C17.346 44.8882 17.442 44.2042 17.612 43.5412C17.848 43.5052 18.081 43.4792 18.321 43.4322C23.617 42.3802 31.572 32.9192 32.002 28.3422C32.429 32.9192 40.383 42.3782 45.68 43.4342C45.92 43.4802 46.153 43.5052 46.389 43.5412C46.559 44.2042 46.655 44.8882 46.655 45.5892C46.654 51.6732 40.094 56.6022 32 56.6022ZM48.168 42.1902C47.463 42.1902 46.727 42.1102 45.973 41.9602C41.368 41.0442 33.828 32.0482 33.491 28.1832C33.436 27.5582 33.708 27.3012 34.192 27.3012C35.378 27.3012 37.831 28.8372 39.87 30.2772C36.876 27.8812 33.071 24.3922 34.216 22.9202C34.489 22.5702 34.904 22.4182 35.415 22.4182C37.743 22.4182 42.099 25.5412 44.407 27.3362C41.856 25.2402 37.169 21.1862 38.854 20.9862C39.1187 20.9549 39.383 20.9399 39.647 20.9412C44.01 20.9412 48.348 24.9312 48.348 24.9312C48.404 24.9412 48.4593 24.9459 48.514 24.9452C50.098 24.9452 51.414 21.4042 52.629 21.4042C53.199 21.4042 53.746 22.1792 54.287 24.4562C57.369 37.3962 53.672 42.1902 48.168 42.1902ZM56.563 28.4532C58.09 29.3912 59.122 31.0462 59.122 32.9682C59.122 35.0402 57.936 36.8162 56.214 37.7082C56.982 35.2922 57.088 32.1872 56.563 28.4532Z" fill="white"/>
<path d="M44.4061 27.335C45.3021 28.071 45.9351 28.565 45.9351 28.565C45.9351 28.565 45.3381 28.06 44.4061 27.335ZM39.8691 30.276C41.6481 31.7 43.1401 32.737 43.1401 32.737C43.1401 32.737 41.6661 31.544 39.8691 30.276Z" fill="white"/>
<path d="M41.3249 46.7981C40.9091 45.3551 38.6361 44.7433 36.248 45.4314C33.8599 46.1196 32.261 47.8472 32.6768 49.2901C33.0926 50.7331 35.3656 51.345 37.7537 50.6568C40.1418 49.9686 41.7407 48.241 41.3249 46.7981Z" fill="white"/>
</svg>
