<svg width="64" height="64" viewBox="0 0 64 64" fill="none" xmlns="http://www.w3.org/2000/svg">
<path d="M57.6312 32.1771C61.0312 29.3751 61.9342 26.4001 62.0002 24.1621C62.0033 24.0168 61.973 23.8727 61.9116 23.741C61.8502 23.6092 61.7594 23.4933 61.6462 23.4021C61.5313 23.3097 61.3969 23.2445 61.2532 23.2112C61.1095 23.178 60.9601 23.1776 60.8162 23.2101C59.4182 23.5181 57.9712 22.7891 57.3422 21.4691C56.6932 20.0991 57.0382 18.4681 58.1812 17.5011C58.2887 17.4097 58.3744 17.2955 58.4321 17.1668C58.4899 17.0381 58.5183 16.8982 58.5152 16.7571C58.5122 16.6159 58.477 16.4772 58.4124 16.3516C58.3478 16.226 58.2554 16.1167 58.1422 16.0321C57.0372 15.1931 55.7672 14.6491 54.3702 14.3891C54.5972 12.1151 54.0912 10.3251 53.4102 9.00914C53.3412 8.87764 53.2426 8.76395 53.1222 8.67702C53.0017 8.59008 52.8628 8.53227 52.7162 8.50814C52.5693 8.48231 52.4184 8.49003 52.2748 8.53072C52.1313 8.57141 51.9988 8.64403 51.8872 8.74314C50.8392 9.69014 49.2122 9.80414 48.0532 8.99214C46.8422 8.14214 46.3702 6.56714 46.9012 5.15714C46.9514 5.02546 46.9702 4.88394 46.9563 4.74372C46.9425 4.60351 46.8962 4.46844 46.8212 4.34914C46.7445 4.22789 46.6418 4.12518 46.5206 4.0484C46.3994 3.97162 46.2626 3.92269 46.1202 3.90514C45.7599 3.86059 45.3973 3.83788 45.0342 3.83714C43.6352 3.83714 41.8522 4.19214 39.8962 5.39814C38.8642 3.75714 37.6082 2.74114 36.4502 2.11914C36.3198 2.04952 36.1753 2.01039 36.0276 2.0047C35.8799 1.99902 35.7328 2.02693 35.5975 2.08633C35.4621 2.14574 35.342 2.23508 35.2461 2.34764C35.1503 2.4602 35.0813 2.59303 35.0442 2.73614C34.6932 4.20114 33.4442 5.22514 32.0002 5.22514C30.5552 5.22514 29.3052 4.20214 28.9582 2.73514C28.9244 2.59136 28.8571 2.45758 28.7619 2.34465C28.6667 2.23172 28.5462 2.14281 28.4102 2.08514C28.2738 2.02484 28.1254 1.99647 27.9764 2.00219C27.8274 2.0079 27.6816 2.04756 27.5502 2.11814C26.3922 2.73814 25.1352 3.75514 24.1032 5.39714C22.1472 4.19414 20.3672 3.83814 18.9682 3.83814C18.6059 3.83897 18.2439 3.86167 17.8842 3.90614C17.7415 3.92341 17.6043 3.97221 17.4827 4.049C17.3612 4.12579 17.2582 4.22865 17.1812 4.35014C17.1066 4.46957 17.0605 4.60452 17.0462 4.7446C17.032 4.88469 17.0502 5.02617 17.0992 5.15814C17.6312 6.56614 17.1582 8.14414 15.9482 8.99314C14.7892 9.80814 13.1622 9.68914 12.1142 8.74414C12.0027 8.64503 11.8702 8.57241 11.7266 8.53172C11.5831 8.49103 11.4322 8.48331 11.2852 8.50914C11.1385 8.53313 10.9994 8.59087 10.8787 8.67781C10.7581 8.76475 10.6594 8.87852 10.5902 9.01014C9.90823 10.3251 9.40223 12.1151 9.63023 14.3881C8.23123 14.6501 6.96323 15.1941 5.85923 16.0331C5.74625 16.118 5.65386 16.2273 5.58893 16.3528C5.52401 16.4783 5.48822 16.6169 5.48423 16.7581C5.48105 16.8991 5.50928 17.039 5.56688 17.1677C5.62448 17.2964 5.71 17.4106 5.81723 17.5021C6.37563 17.9776 6.76089 18.6246 6.91285 19.342C7.06481 20.0595 6.97493 20.8071 6.65723 21.4681C6.03023 22.7921 4.57023 23.5181 3.18423 23.2101C3.04032 23.1783 2.89112 23.1791 2.74752 23.2123C2.60393 23.2455 2.46956 23.3104 2.35423 23.4021C2.24088 23.4934 2.15001 23.6095 2.08864 23.7414C2.02726 23.8734 1.99701 24.0177 2.00023 24.1631C2.06623 26.4001 2.96923 29.3741 6.36923 32.1761C2.96923 34.9471 2.06723 37.8851 2.00023 40.0991C1.99734 40.2429 2.0278 40.3853 2.08923 40.5152C2.15065 40.6452 2.24136 40.7591 2.35423 40.8481C2.58423 41.0331 2.89123 41.1031 3.18423 41.0381C4.58323 40.7321 6.02923 41.4541 6.65823 42.7601C6.9744 43.4137 7.06366 44.154 6.91189 44.8639C6.76012 45.5739 6.37598 46.213 5.82023 46.6801C5.71232 46.7693 5.62613 46.8819 5.56819 47.0093C5.51026 47.1368 5.48211 47.2757 5.48586 47.4156C5.48962 47.5556 5.5252 47.6928 5.58989 47.817C5.65458 47.9411 5.74669 48.0489 5.85923 48.1321C6.97623 48.9691 8.26623 49.4961 9.68223 49.7471C9.34423 52.2521 9.87023 54.2051 10.5922 55.6171C10.6603 55.7501 10.7585 55.8654 10.879 55.9538C10.9995 56.0421 11.1389 56.1012 11.2862 56.1261C11.4335 56.1522 11.5848 56.1442 11.7284 56.1028C11.8721 56.0613 12.0044 55.9876 12.1152 55.8871C13.1622 54.9291 14.7892 54.8141 15.9482 55.6361C17.1582 56.4941 17.6312 58.0891 17.1002 59.5161C17.0502 59.6496 17.0314 59.7927 17.0455 59.9346C17.0595 60.0764 17.106 60.2131 17.1812 60.3341C17.3352 60.5811 17.5912 60.7461 17.8822 60.7821C18.2425 60.8267 18.6052 60.8494 18.9682 60.8501C20.4412 60.8501 22.3342 60.4611 24.4102 59.0841C25.3802 60.4461 26.5052 61.3251 27.5522 61.8821C27.6836 61.9517 27.8289 61.9908 27.9775 61.9965C28.126 62.0022 28.2739 61.9744 28.4102 61.9151C28.545 61.8575 28.6646 61.7695 28.7596 61.6579C28.8547 61.5464 28.9227 61.4143 28.9582 61.2721C29.3072 59.8241 30.5552 58.8131 32.0002 58.8131C33.4452 58.8131 34.6952 59.8261 35.0422 61.2741C35.0771 61.4166 35.1448 61.549 35.2399 61.6607C35.3351 61.7723 35.4551 61.8602 35.5902 61.9171C35.727 61.976 35.8752 62.0036 36.024 61.9979C36.1727 61.9922 36.3184 61.9533 36.4502 61.8841C37.4972 61.3271 38.6222 60.4481 39.5912 59.0861C41.6682 60.4611 43.5612 60.8501 45.0322 60.8501C45.3932 60.8501 45.7612 60.8281 46.1162 60.7821C46.2593 60.7644 46.3967 60.715 46.5183 60.6375C46.6399 60.56 46.7427 60.4564 46.8192 60.3341C46.894 60.2129 46.9402 60.0763 46.9544 59.9346C46.9686 59.7929 46.9504 59.6498 46.9012 59.5161C46.3692 58.0911 46.8422 56.4951 48.0512 55.6361C49.2102 54.8121 50.8372 54.9311 51.8852 55.8871C51.996 55.9876 52.1283 56.0613 52.272 56.1028C52.4157 56.1442 52.567 56.1522 52.7142 56.1261C52.8615 56.1012 53.001 56.0421 53.1215 55.9538C53.2419 55.8654 53.3401 55.7501 53.4082 55.6171C54.1322 54.2051 54.6572 52.2521 54.3182 49.7481C55.7362 49.4961 57.0252 48.9691 58.1392 48.1321C58.2515 48.0488 58.3433 47.9411 58.408 47.8171C58.4726 47.6931 58.5082 47.5561 58.5123 47.4163C58.5163 47.2766 58.4886 47.1377 58.4313 47.0102C58.374 46.8827 58.2885 46.7699 58.1812 46.6801C57.6246 46.2139 57.2396 45.5751 57.0873 44.8652C56.9349 44.1552 57.024 43.4147 57.3402 42.7611C57.9682 41.4541 59.4282 40.7331 60.8142 41.0381C60.958 41.0695 61.107 41.0687 61.2505 41.0359C61.3939 41.003 61.5284 40.9389 61.6442 40.8481C61.7571 40.7591 61.8478 40.6452 61.9092 40.5152C61.9707 40.3853 62.0011 40.2429 61.9982 40.0991C61.9332 37.8851 61.0312 34.9461 57.6312 32.1771ZM44.7892 5.71914C44.676 6.63591 44.8139 7.56622 45.1881 8.41074C45.5624 9.25525 46.159 9.98227 46.9142 10.5141C47.6658 11.0417 48.5473 11.3539 49.4634 11.4169C50.3795 11.48 51.2954 11.2917 52.1122 10.8721C52.4572 11.9031 52.5452 13.0251 52.4212 14.2121C50.0802 14.2121 47.4522 14.9021 44.6372 16.3091C43.6366 16.8058 42.6399 17.4631 41.6472 18.2811C41.9332 16.9941 42.0772 15.7731 42.0772 14.6271C42.0772 11.4081 41.5572 8.96514 40.7712 7.09814C42.0892 6.24614 43.4382 5.76914 44.7892 5.71914ZM11.8872 10.8731C13.5052 11.7011 15.5682 11.5821 17.0862 10.5131C17.8415 9.98167 18.4383 9.25509 18.8129 8.41095C19.1875 7.5668 19.3259 6.63678 19.2132 5.72014C20.5642 5.77014 21.9092 6.24714 23.2282 7.09614C22.4412 8.96314 21.9202 11.4071 21.9202 14.6271C21.9202 15.7731 22.0662 16.9941 22.3522 18.2811C21.3582 17.4638 20.3616 16.8065 19.3622 16.3091C16.5492 14.9031 13.9212 14.2121 11.5802 14.2121C11.4552 13.0261 11.5432 11.9041 11.8872 10.8731ZM10.0672 47.9181C9.31863 47.7979 8.59412 47.5585 7.92123 47.2091C8.4712 46.4627 8.80773 45.5807 8.89475 44.6576C8.98177 43.7346 8.81601 42.8052 8.41523 41.9691C8.02026 41.1356 7.4037 40.4268 6.63297 39.92C5.86225 39.4133 4.96704 39.1283 4.04523 39.0961C4.42323 36.9891 5.76523 35.0511 7.97323 33.3521C8.73023 33.8521 9.57123 34.3441 10.5222 34.8191C12.6992 35.9061 15.4532 36.5181 18.7162 36.6461C16.1592 38.3201 14.2072 40.1381 12.9042 42.0721C11.4382 44.2421 10.5552 46.1881 10.0672 47.9181ZM36.4692 59.6331C36.0398 58.8205 35.397 58.1403 34.6098 57.6659C33.8226 57.1914 32.921 56.9405 32.0018 56.9403C31.0827 56.9401 30.1809 57.1906 29.3936 57.6647C28.6062 58.1388 27.963 58.8187 27.5332 59.6311C26.9102 59.148 26.3695 58.5672 25.9322 57.9111C27.0982 56.8901 28.2992 55.5401 29.5002 53.7591C30.5532 52.1961 31.3892 50.2601 32.0002 47.9631C32.6102 50.2581 33.4442 52.1961 34.4972 53.7611C35.7002 55.5441 36.9012 56.8941 38.0672 57.9151C37.6293 58.5691 37.0899 59.1491 36.4692 59.6331ZM52.1132 53.7321C50.4952 52.8961 48.4322 53.0161 46.9152 54.0971C46.1576 54.6401 45.5602 55.3771 45.1857 56.2307C44.8113 57.0843 44.6736 58.023 44.7872 58.9481C41.7852 58.8361 38.7922 56.6861 36.1102 52.7131C34.4792 50.2911 33.4202 46.7911 32.9622 42.3111C32.936 42.075 32.8231 41.8569 32.6454 41.6992C32.4677 41.5414 32.2378 41.4552 32.0002 41.4571C31.7628 41.4552 31.533 41.5413 31.3553 41.6988C31.1777 41.8564 31.0647 42.0742 31.0382 42.3101C30.5792 46.7921 29.5192 50.2931 27.8882 52.7121C25.2082 56.6881 22.2132 58.8371 19.2112 58.9491C19.3252 58.0243 19.188 57.0858 18.8141 56.2322C18.4401 55.3786 17.8433 54.6415 17.0862 54.0981C16.3377 53.5645 15.4562 53.248 14.5391 53.1836C13.6221 53.1192 12.705 53.3093 11.8892 53.7331C10.9112 50.7801 11.8102 47.1381 14.5192 43.1191C16.1302 40.7231 18.9142 38.4941 22.7832 36.4911C22.9781 36.3926 23.1325 36.2294 23.2201 36.0294C23.3077 35.8294 23.323 35.6051 23.2632 35.3951C23.1983 35.186 23.0655 35.0045 22.8859 34.8793C22.7062 34.7542 22.4899 34.6925 22.2712 34.7041C17.7372 34.9761 14.0322 34.4411 11.3962 33.1271C7.10623 30.9861 4.58723 28.2561 4.04423 25.1781C5.92523 25.1031 7.58923 24.0021 8.41423 22.2681C8.8151 21.4215 8.98076 20.4826 8.89385 19.5499C8.80693 18.6172 8.47063 17.7251 7.92023 16.9671C10.5822 15.5311 14.2432 15.8851 18.4892 18.0021C20.1912 18.8521 21.9282 20.2691 23.6552 22.2131C23.806 22.3817 24.0105 22.4929 24.234 22.5279C24.4574 22.5629 24.6861 22.5195 24.8812 22.4051C25.0743 22.2924 25.2211 22.115 25.2958 21.9043C25.3705 21.6936 25.3682 21.4633 25.2892 21.2541C24.3382 18.8081 23.8552 16.5771 23.8552 14.6271C23.8552 9.75814 25.1242 6.25414 27.5312 4.39514C28.3992 6.04914 30.0942 7.12314 32.0002 7.12314C33.9092 7.12314 35.6022 6.04914 36.4672 4.39914C38.8762 6.25414 40.1432 9.75814 40.1432 14.6271C40.1432 16.5791 39.6612 18.8091 38.7092 21.2541C38.6291 21.4631 38.6258 21.6938 38.7 21.905C38.7742 22.1162 38.921 22.2942 39.1142 22.4071C39.3103 22.5207 39.5393 22.5636 39.7632 22.5287C39.987 22.4937 40.1921 22.3831 40.3442 22.2151C42.0692 20.2711 43.8062 18.8521 45.5102 18.0021C49.7502 15.8851 53.4152 15.5311 56.0782 16.9671C55.5275 17.7253 55.191 18.6178 55.104 19.5509C55.0171 20.484 55.183 21.4233 55.5842 22.2701C56.4082 24.0021 58.0702 25.1031 59.9552 25.1781C59.4082 28.2561 56.8922 30.9861 52.6012 33.1271C49.9622 34.4411 46.2572 34.9771 41.7282 34.7041C41.5094 34.6918 41.2928 34.7532 41.113 34.8785C40.9332 35.0037 40.8005 35.1856 40.7362 35.3951C40.6764 35.6049 40.6913 35.829 40.7785 36.0289C40.8657 36.2289 41.0198 36.3923 41.2142 36.4911C45.0862 38.4921 47.8692 40.7221 49.4832 43.1191C52.1902 47.1381 53.0892 50.7791 52.1132 53.7321ZM55.5852 41.9701C55.1846 42.8061 55.019 43.7352 55.106 44.6581C55.193 45.581 55.5294 46.4628 56.0792 47.2091C55.4063 47.5585 54.6818 47.7979 53.9332 47.9181C53.4462 46.1881 52.5622 44.2421 51.0972 42.0711C49.7922 40.1371 47.8452 38.3191 45.2852 36.6451C48.5482 36.5171 51.3002 35.9051 53.4792 34.8181C54.3588 34.3818 55.2107 33.8919 56.0302 33.3511C58.2372 35.0481 59.5792 36.9881 59.9562 39.0951C59.0343 39.1284 58.1392 39.4141 57.3685 39.9211C56.5977 40.428 55.9809 41.1368 55.5852 41.9701Z" fill="white"/>
</svg>
