<svg width="64" height="64" viewBox="0 0 64 64" fill="none" xmlns="http://www.w3.org/2000/svg">
<path d="M38.8135 21.847C37.9485 20.119 37.6475 17.824 40.4755 16.049C45.1555 13.113 47.5155 8.257 45.8485 4.991C44.8825 3.091 43.2315 2 41.3215 2C39.3795 2 37.4405 3.113 35.8625 5.139C33.1015 8.681 30.2135 11.184 27.4205 13.607C24.6255 16.031 21.9855 18.319 20.0525 21.255C17.9345 24.472 15.0195 29.637 13.6225 33.378C11.3545 39.468 15.7185 46.662 19.7205 48.94L19.7625 48.964L19.8075 48.985C23.2955 50.674 27.2355 52.615 27.9055 53C30.2085 55.034 36.0235 60.588 36.0815 60.645L36.1105 60.672L36.1415 60.698C37.1365 61.55 38.3005 62 39.5095 62C41.5995 62 43.5865 60.611 44.3435 58.623C45.0695 56.715 44.5165 54.732 42.8645 53.319L38.6355 49.534C39.5182 49.2391 40.278 48.6595 40.7955 47.886C41.3135 47.117 41.5865 46.186 41.6005 45.224L41.9915 45.188C44.3705 44.955 46.0555 43.32 46.4345 41.044C48.0185 40.866 49.3155 40.054 50.1055 38.745C50.6825 37.911 50.9835 36.92 50.9995 35.799C51.0465 32.501 49.6925 27.943 38.8135 21.847ZM49.5385 35.778C49.5245 36.676 49.2585 37.545 48.8725 37.973C48.5075 38.379 47.7065 38.726 46.8395 38.811L41.0905 39.347C39.8945 39.471 39.2065 39.189 38.3535 38.545L33.9045 34.916C32.2655 33.593 32.3255 31.685 33.2225 30.224C32.7372 30.7235 32.3717 31.3267 32.1535 31.988C29.4075 33.328 26.0605 33.326 23.2485 31.668C22.9222 31.4727 22.6085 31.257 22.3095 31.022C22.9184 31.9696 23.7411 32.7612 24.7115 33.333C27.0155 34.69 29.7715 34.646 31.9895 33.478C32.0755 34.285 32.4645 35.074 33.2685 35.723L37.7185 39.351C38.5705 39.996 39.2595 40.278 40.4565 40.154L45.0445 39.733C45.1002 40.5489 44.9182 41.3634 44.5205 42.078C44.0135 42.542 43.3355 42.865 42.4785 42.95L36.7285 43.486C35.5325 43.609 34.8435 43.328 33.9925 42.684L29.5405 39.053C27.9015 37.731 27.9635 35.823 28.8585 34.361C27.4245 35.85 26.9395 38.273 28.9055 39.859L33.3555 43.487C34.2095 44.133 34.8885 44.65 36.0955 44.572L39.9905 44.317C40.2995 45.015 40.1765 46.032 39.6795 46.902C39.2435 47.298 38.6655 47.575 37.9315 47.647L33.0135 47.776C31.9835 47.803 31.0595 47.395 30.3295 46.843L26.8525 44.312C25.4505 43.179 25.5025 41.545 26.2685 40.293C25.0415 41.568 24.4095 43.722 26.0925 45.081L29.8695 47.903C30.5985 48.455 31.4325 48.773 32.4625 48.794L35.7105 48.859L41.9055 54.404C41.9695 54.459 42.0165 54.517 42.0755 54.574C44.8385 57.463 40.4385 61.965 37.2255 58.692C34.6945 56.118 32.2475 53.412 27.3795 50.43C24.5745 48.712 21.6365 47.097 21.6365 47.097C18.1515 45.114 14.3655 39.18 16.3375 33.889C17.6685 30.314 20.3635 25.465 22.4775 22.254C26.1235 16.714 32.4545 13.19 38.1525 5.88C38.9655 4.838 40.5745 3.175 42.4075 3.627C43.2905 3.845 44.0145 4.597 44.5435 5.636C45.8335 8.162 43.7725 12.277 39.6905 14.837C35.9175 17.203 36.4175 20.585 37.7195 22.889C48.7355 28.976 49.5735 33.274 49.5385 35.778Z" fill="white"/>
<path d="M41.8025 31.4479C41.8025 31.4479 37.9195 27.5029 34.4395 29.3149C38.1235 28.5019 41.7615 33.4829 41.7615 33.4829C41.7615 33.4829 43.1445 31.9939 45.3475 32.1649C43.7305 31.3129 41.8025 31.4479 41.8025 31.4479Z" fill="white"/>
</svg>
