<svg width="64" height="64" viewBox="0 0 64 64" fill="none" xmlns="http://www.w3.org/2000/svg">
<path d="M61.9712 42.6338C61.3392 36.2998 59.9262 30.9908 59.6132 17.2818C59.3902 7.57583 47.6072 6.82883 44.5442 10.1178C41.0732 5.86283 31.7822 5.76383 28.3152 11.0578C25.6222 9.57783 18.4142 9.25883 15.4362 12.9308C15.4362 12.9308 6.60122 11.5198 2.60022 26.2518C1.16322 31.5408 2.72022 38.5538 3.01022 40.0078C5.03322 50.1548 13.5122 48.1978 15.2192 47.2078C18.1112 54.6478 25.5942 53.3088 28.6042 51.1208C28.7782 55.5348 32.3752 57.6558 34.6692 56.8198C41.3912 54.3688 46.9992 54.0368 51.4332 54.2128C53.5602 54.2958 55.2302 53.2748 56.1742 51.4338C59.4992 49.7008 62.3222 46.1548 61.9712 42.6338ZM46.4462 43.6318C47.4542 37.8338 45.2672 29.2398 46.0462 22.6958C42.8862 27.6218 45.2262 41.5668 43.9002 47.2208C42.8152 51.8408 34.2542 50.3958 31.6062 44.8458C30.6882 36.3588 32.0302 31.4388 29.7172 22.6958C29.9352 33.2658 28.3022 35.2348 29.3922 45.5088C26.8682 48.1008 18.1532 46.2768 17.7132 41.8878C17.1262 36.0298 18.3412 31.4288 16.6142 25.7488C16.6142 31.1178 15.5522 33.9818 16.0732 41.9288C16.0762 41.9778 14.5172 43.1688 12.2042 43.1688C2.73322 43.1688 3.55822 29.1418 5.11722 24.2428C7.37322 17.1448 13.3242 13.0098 16.3982 14.6318C17.9252 11.0708 26.6372 10.7568 28.1382 14.0928C29.4342 7.94983 41.8432 8.44783 45.1432 13.9268C47.3572 9.48683 57.5012 10.8148 57.6072 17.3148C57.8422 31.3738 59.8912 37.9558 59.8102 44.1108C56.3392 48.3918 50.2052 48.0128 46.4462 43.6318Z" fill="white"/>
</svg>
