<svg width="64" height="64" viewBox="0 0 64 64" fill="none" xmlns="http://www.w3.org/2000/svg">
<path d="M57.8732 31.999C58.0292 31.786 58.1892 31.573 58.3402 31.36C62.2312 25.804 63.0512 20.646 60.6532 16.835C58.4362 13.314 53.6732 11.375 47.2372 11.375C46.1142 11.375 44.9502 11.441 43.7602 11.558C40.8672 5.651 36.7032 2 32.0002 2C27.2992 2 23.1352 5.651 20.2422 11.558C19.0871 11.441 17.9271 11.3799 16.7662 11.375C10.3322 11.375 5.56716 13.314 3.35016 16.835C0.950164 20.646 1.77116 25.804 5.66116 31.36C5.81116 31.573 5.97116 31.786 6.12816 31.999C5.97016 32.212 5.81016 32.424 5.66016 32.639C1.77016 38.193 0.949164 43.353 3.34916 47.164C5.56616 50.684 10.3312 52.625 16.7652 52.625H16.7672C17.9275 52.6213 19.0869 52.5599 20.2412 52.441C23.1342 58.35 27.2982 62 32.0002 62C36.7042 62 40.8682 58.35 43.7602 52.441C44.9492 52.558 46.1142 52.625 47.2372 52.625C53.6732 52.625 58.4362 50.686 60.6532 47.164C63.0512 43.353 62.2312 38.193 58.3402 32.639C58.1892 32.424 58.0292 32.212 57.8732 31.999ZM47.2362 13.095C52.9722 13.095 57.1602 14.728 59.0272 17.695C61.0582 20.921 60.2562 25.444 56.7612 30.431L56.7042 30.506C54.1732 27.458 50.8782 24.524 47.0362 21.88C46.4502 18.699 45.5892 15.781 44.5092 13.214C45.4392 13.137 46.3522 13.095 47.2362 13.095ZM39.8262 44.43C37.3006 45.7618 34.686 46.9176 32.0012 47.889C29.3156 46.9176 26.7004 45.7619 24.1742 44.43C22.2974 43.4357 20.473 42.3456 18.7082 41.164C18.191 38.1368 17.9331 35.071 17.9372 32C17.9372 28.791 18.2112 25.709 18.7082 22.834C20.4731 21.6531 22.2975 20.5637 24.1742 19.57C26.7004 18.2385 29.3156 17.083 32.0012 16.112C34.686 17.0831 37.3006 18.2385 39.8262 19.57C41.7025 20.5634 43.5266 21.6525 45.2912 22.833C45.8084 25.8612 46.0664 28.928 46.0622 32C46.0622 35.208 45.7892 38.291 45.2912 41.166C43.5266 42.3469 41.7025 43.4363 39.8262 44.43ZM44.8092 43.588C44.2312 46.137 43.4672 48.483 42.5552 50.559C40.0022 50.217 37.3322 49.61 34.6172 48.768C38.1607 47.3455 41.5713 45.612 44.8092 43.588ZM29.3832 48.768C26.6692 49.61 23.9992 50.217 21.4472 50.559C20.5332 48.483 19.7712 46.137 19.1922 43.588C20.5117 44.4136 21.8609 45.1908 23.2372 45.918C25.2341 46.9758 27.2856 47.9272 29.3832 48.768ZM16.5692 39.67C13.3302 37.277 10.5762 34.678 8.43316 32C10.5762 29.323 13.3292 26.721 16.5692 24.33C16.2281 26.8727 16.059 29.4355 16.0632 32.001C16.0632 34.66 16.2392 37.229 16.5692 39.67ZM19.1912 20.413C19.7702 17.865 20.5322 15.518 21.4462 13.442C23.9982 13.783 26.6682 14.39 29.3832 15.232C27.2856 16.0732 25.2341 17.0248 23.2372 18.083C21.8606 18.8102 20.511 19.5874 19.1912 20.413ZM34.6192 15.231C37.3322 14.39 40.0022 13.783 42.5552 13.441C43.4672 15.517 44.2312 17.863 44.8092 20.412C41.572 18.3877 38.162 16.654 34.6192 15.231ZM47.4322 24.329C50.6702 26.721 53.4262 29.322 55.5692 32C53.4262 34.678 50.6732 37.28 47.4322 39.67C47.7622 37.229 47.9382 34.66 47.9382 32.001C47.9382 29.339 47.7622 26.77 47.4322 24.329ZM32.0002 3.875C35.7932 3.875 39.2392 6.899 41.7702 11.798C38.6272 12.259 35.3232 13.092 32.0012 14.254C28.6792 13.092 25.3742 12.259 22.2312 11.798C24.7632 6.899 28.2072 3.875 32.0002 3.875ZM7.23816 30.431C3.74616 25.444 2.94116 20.92 4.97216 17.695C6.84016 14.728 11.0292 13.095 16.7652 13.095C17.6492 13.095 18.5612 13.137 19.4912 13.214C18.4092 15.781 17.5492 18.699 16.9622 21.88C13.1212 24.524 9.82616 27.459 7.29516 30.506C7.27816 30.481 7.25616 30.456 7.23816 30.431ZM16.7682 50.904H16.7662C11.0302 50.904 6.84216 49.271 4.97316 46.304C2.94216 43.079 3.74616 38.556 7.23916 33.568L7.29716 33.494C9.82816 36.541 13.1232 39.476 16.9642 42.121C17.5512 45.301 18.4112 48.221 19.4932 50.787C18.5612 50.8643 17.6528 50.9033 16.7682 50.904ZM32.0002 60.125C28.2082 60.125 24.7632 57.102 22.2312 52.201C25.3732 51.74 28.6772 50.906 31.9992 49.746C35.3212 50.906 38.6272 51.74 41.7702 52.201C39.2382 57.102 35.7932 60.125 32.0002 60.125ZM59.0292 46.305C57.1602 49.272 52.9722 50.905 47.2362 50.905C46.3512 50.905 45.4392 50.864 44.5092 50.788C45.5892 48.22 46.4502 45.302 47.0362 42.122C50.8782 39.477 54.1732 36.542 56.7042 33.493C56.7228 33.5183 56.7425 33.5437 56.7632 33.569C60.2562 38.557 61.0612 43.08 59.0292 46.305Z" fill="white"/>
<path d="M32 37.625C35.1066 37.625 37.625 35.1066 37.625 32C37.625 28.8934 35.1066 26.375 32 26.375C28.8934 26.375 26.375 28.8934 26.375 32C26.375 35.1066 28.8934 37.625 32 37.625Z" fill="white"/>
</svg>
