<svg width="65" height="65" viewBox="0 0 65 65" fill="none" xmlns="http://www.w3.org/2000/svg">
<path d="M20.686 30.1977C23.4475 30.1977 25.686 27.9591 25.686 25.1977C25.686 22.4363 23.4475 20.1977 20.686 20.1977C17.9246 20.1977 15.686 22.4363 15.686 25.1977C15.686 27.9591 17.9246 30.1977 20.686 30.1977Z" fill="white"/>
<path d="M43.686 30.1977C46.4475 30.1977 48.686 27.9591 48.686 25.1977C48.686 22.4363 46.4475 20.1977 43.686 20.1977C40.9246 20.1977 38.686 22.4363 38.686 25.1977C38.686 27.9591 40.9246 30.1977 43.686 30.1977Z" fill="white"/>
<path d="M32.186 2.69768C15.617 2.69768 2.18604 16.1297 2.18604 32.6977C2.18604 49.2657 15.617 62.6977 32.186 62.6977C48.754 62.6977 62.186 49.2657 62.186 32.6977C62.186 16.1297 48.754 2.69768 32.186 2.69768ZM32.188 60.6977C26.667 60.6937 22.188 56.2997 22.188 47.5417V43.5467C22.188 43.0157 22.301 42.6977 23.01 42.6977H30.686L32.188 56.4867L33.686 42.6977H41.366C42.074 42.6977 42.188 43.0147 42.188 43.5467V47.5417C42.188 56.2997 37.709 60.6937 32.188 60.6977ZM40.674 58.8417C42.321 56.9467 43.555 54.2687 44.002 50.6387C47.396 47.7317 49.189 43.6577 49.189 39.6987C49.189 39.2057 48.797 38.6987 48.064 38.6987H16.311C15.578 38.6977 15.186 39.2047 15.186 39.6977C15.186 43.6547 16.978 47.7267 20.369 50.6347C20.815 54.2727 22.059 56.9477 23.711 58.8457C12.684 55.2617 4.68604 44.9027 4.68604 32.6977C4.68604 17.5337 17.022 5.19768 32.186 5.19768C47.35 5.19768 59.686 17.5337 59.686 32.6977C59.686 44.8987 51.694 55.2547 40.674 58.8417Z" fill="white"/>
</svg>
