<svg width="66" height="67" viewBox="0 0 66 67" fill="none" xmlns="http://www.w3.org/2000/svg">
<path d="M33.2791 32.2356C33.2791 32.2356 31.5297 21.2799 31.5297 20.5166C31.5297 19.7533 32.3145 19.1331 33.2791 19.1331C34.2437 19.1331 35.0284 19.7523 35.0284 20.5166C35.0284 21.2809 33.2791 32.2356 33.2791 32.2356ZM33.2791 34.7932C33.2791 34.7932 35.0284 45.748 35.0284 46.5123C35.0284 47.2766 34.2437 47.8958 33.2791 47.8958C32.3145 47.8958 31.5297 47.2776 31.5297 46.5123C31.5297 45.7469 33.2791 34.7932 33.2791 34.7932ZM31.9998 33.5139C31.9998 33.5139 21.045 35.2632 20.2817 35.2632C19.5174 35.2632 18.8982 34.4795 18.8982 33.5139C18.8982 32.5493 19.5174 31.7656 20.2817 31.7656C21.045 31.7656 31.9998 33.5139 31.9998 33.5139ZM34.5584 33.5139C34.5584 33.5139 45.5131 31.7656 46.2774 31.7656C47.0417 31.7656 47.6609 32.5493 47.6609 33.5139C47.6609 34.4785 47.0417 35.2632 46.2774 35.2632C45.5131 35.2632 34.5584 33.5139 34.5584 33.5139ZM32.3738 32.6106C32.3738 32.6106 23.3911 26.1018 22.8526 25.5612C22.3121 25.0217 22.4275 24.0296 23.1111 23.347C23.7937 22.6644 24.7848 22.549 25.3254 23.0885C25.8638 23.628 32.3738 32.6106 32.3738 32.6106ZM34.1844 34.4192C34.1844 34.4192 43.167 40.9281 43.7055 41.4687C44.2461 42.0092 44.1306 43.0003 43.447 43.6839C42.7645 44.3665 41.7733 44.4819 41.2328 43.9414C40.6943 43.4009 34.1844 34.4192 34.1844 34.4192ZM32.3738 34.4192C32.3738 34.4192 25.8638 43.4009 25.3254 43.9414C24.7848 44.4819 23.7937 44.3665 23.1111 43.6839C22.4275 43.0003 22.3121 42.0092 22.8526 41.4687C23.3911 40.9281 32.3738 34.4192 32.3738 34.4192ZM34.1844 32.6106C34.1844 32.6106 40.6943 23.628 41.2328 23.0885C41.7733 22.549 42.7645 22.6644 43.447 23.347C44.1306 24.0296 44.2461 25.0217 43.7055 25.5612C43.167 26.1018 34.1844 32.6106 34.1844 32.6106ZM32.4167 31.3814C32.4167 31.3814 23.4095 13.7533 22.8945 12.4781C22.3795 11.2029 22.6871 9.87657 23.5822 9.51485C24.4773 9.15313 25.6207 9.89394 26.1357 11.1691C26.6506 12.4423 32.4167 31.3814 32.4167 31.3814ZM34.1415 35.6495C34.1415 35.6495 43.1487 53.2766 43.6636 54.5528C44.1786 55.827 43.8711 57.1533 42.976 57.514C42.0799 57.8768 40.9375 57.137 40.4225 55.8618C39.9075 54.5865 34.1415 35.6495 34.1415 35.6495ZM31.1445 34.3773C31.1445 34.3773 13.5164 43.3845 12.2412 43.8995C10.966 44.4145 9.63967 44.1069 9.27795 43.2108C8.91624 42.3167 9.65704 41.1723 10.9323 40.6573C12.2075 40.1423 31.1445 34.3773 31.1445 34.3773ZM35.4136 32.6525C35.4136 32.6525 53.0417 23.6454 54.317 23.1304C55.5922 22.6154 56.9185 22.924 57.2802 23.8191C57.6419 24.7142 56.9011 25.8576 55.6259 26.3725C54.3517 26.8865 35.4136 32.6525 35.4136 32.6525ZM31.1599 32.6158C31.1599 32.6158 12.325 26.5207 11.06 25.9832C9.79499 25.4458 9.07462 24.2911 9.45166 23.4011C9.82871 22.5132 11.1622 22.2281 12.4271 22.7656C13.6921 23.301 31.1599 32.6158 31.1599 32.6158ZM35.3983 34.4141C35.3983 34.4141 54.2332 40.5092 55.4982 41.0456C56.7632 41.5821 57.4835 42.7398 57.1065 43.6277C56.7294 44.5177 55.396 44.8028 54.131 44.2643C52.866 43.7279 35.3983 34.4141 35.3983 34.4141ZM32.3799 35.6342C32.3799 35.6342 26.2848 54.469 25.7474 55.7351C25.2099 57 24.0542 57.7204 23.1653 57.3434C22.2763 56.9653 21.9922 55.6329 22.5277 54.3679C23.0662 53.1019 32.3799 35.6342 32.3799 35.6342ZM34.1783 31.3957C34.1783 31.3957 40.2733 12.5608 40.8108 11.2958C41.3482 10.0298 42.5039 9.31049 43.3929 9.68753C44.2818 10.0646 44.5669 11.396 44.0305 12.662C43.492 13.928 34.1783 31.3957 34.1783 31.3957ZM33.2852 48.8849C33.2852 48.8849 35.0366 61.6411 35.0366 62.53C35.0366 63.419 34.2539 64.1424 33.2883 64.1424C32.3227 64.1424 31.54 63.4221 31.54 62.5321C31.54 61.6421 33.2852 48.8849 33.2852 48.8849ZM33.274 17.0936C33.274 17.0936 31.5216 5.17117 31.5216 4.34044C31.5216 3.50972 32.3043 2.8343 33.2699 2.8343C34.2355 2.8343 35.0182 3.50767 35.0182 4.33942C35.0182 5.17117 33.274 17.0936 33.274 17.0936ZM44.1705 44.3706C44.1705 44.3706 54.4294 52.1526 55.0567 52.781C55.6872 53.4105 55.6433 54.4731 54.9607 55.1567C54.2781 55.8393 53.2144 55.8832 52.586 55.2548C51.9566 54.6274 44.1705 44.3706 44.1705 44.3706ZM21.6826 21.8991C21.6826 21.8991 12.0133 14.7076 11.4248 14.1201C10.8372 13.5316 10.9139 12.5016 11.5964 11.819C12.279 11.1354 13.31 11.0588 13.8975 11.6473C14.4861 12.2339 21.6826 21.8991 21.6826 21.8991ZM44.1705 22.6052C44.1705 22.6052 51.9566 12.3503 52.586 11.7219C53.2144 11.0925 54.2781 11.1364 54.9607 11.82C55.6433 12.5036 55.6872 13.5663 55.0567 14.1947C54.4294 14.8221 44.1705 22.6052 44.1705 22.6052ZM21.6826 45.0766C21.6826 45.0766 14.4861 54.7429 13.8975 55.3294C13.31 55.918 12.279 55.8403 11.5964 55.1577C10.9139 54.4742 10.8372 53.4442 11.4248 52.8566C12.0133 52.2691 21.6826 45.0766 21.6826 45.0766ZM48.6756 33.4822C48.6756 33.4822 61.4318 31.7309 62.3218 31.7309C63.2117 31.7299 63.9331 32.5136 63.9331 33.4782C63.9342 34.4438 63.2138 35.2275 62.3238 35.2275C61.4338 35.2285 48.6756 33.4822 48.6756 33.4822ZM16.8853 33.4945C16.8853 33.4945 4.96084 35.2449 4.13114 35.2459C3.29837 35.2459 2.625 34.4622 2.625 33.4976C2.625 32.533 3.29837 31.7482 4.13114 31.7482C4.96084 31.7482 16.8853 33.4945 16.8853 33.4945Z" fill="white"/>
<path d="M21.762 7.87777C22.8004 7.87777 23.6421 7.03601 23.6421 5.99766C23.6421 4.9593 22.8004 4.11754 21.762 4.11754C20.7237 4.11754 19.8819 4.9593 19.8819 5.99766C19.8819 7.03601 20.7237 7.87777 21.762 7.87777Z" fill="white"/>
<path d="M45.0738 7.87777C46.1121 7.87777 46.9539 7.03601 46.9539 5.99766C46.9539 4.9593 46.1121 4.11754 45.0738 4.11754C44.0354 4.11754 43.1937 4.9593 43.1937 5.99766C43.1937 7.03601 44.0354 7.87777 45.0738 7.87777Z" fill="white"/>
<path d="M21.2301 62.9838C22.269 62.9838 23.1113 62.1415 23.1113 61.1027C23.1113 60.0637 22.269 59.2215 21.2301 59.2215C20.1912 59.2215 19.349 60.0637 19.349 61.1027C19.349 62.1415 20.1912 62.9838 21.2301 62.9838Z" fill="white"/>
<path d="M44.544 62.9838C45.5829 62.9838 46.4251 62.1415 46.4251 61.1027C46.4251 60.0637 45.5829 59.2215 44.544 59.2215C43.505 59.2215 42.6628 60.0637 42.6628 61.1027C42.6628 62.1415 43.505 62.9838 44.544 62.9838Z" fill="white"/>
<path d="M5.6007 46.822C6.63905 46.822 7.48081 45.9802 7.48081 44.9419C7.48081 43.9035 6.63905 43.0617 5.6007 43.0617C4.56233 43.0617 3.72058 43.9035 3.72058 44.9419C3.72058 45.9802 4.56233 46.822 5.6007 46.822Z" fill="white"/>
<path d="M5.6007 23.5086C6.63905 23.5086 7.48081 22.6669 7.48081 21.6285C7.48081 20.5902 6.63905 19.7484 5.6007 19.7484C4.56233 19.7484 3.72058 20.5902 3.72058 21.6285C3.72058 22.6669 4.56233 23.5086 5.6007 23.5086Z" fill="white"/>
<path d="M60.7052 47.3534C61.7442 47.3534 62.5864 46.5112 62.5864 45.4723C62.5864 44.4334 61.7442 43.5911 60.7052 43.5911C59.6663 43.5911 58.8241 44.4334 58.8241 45.4723C58.8241 46.5112 59.6663 47.3534 60.7052 47.3534Z" fill="white"/>
<path d="M60.7063 24.0385C61.7446 24.0385 62.5864 23.1968 62.5864 22.1584C62.5864 21.1201 61.7446 20.2783 60.7063 20.2783C59.6678 20.2783 58.8262 21.1201 58.8262 22.1584C58.8262 23.1968 59.6678 24.0385 60.7063 24.0385Z" fill="white"/>
</svg>
