<svg width="65" height="65" viewBox="0 0 65 65" fill="none" xmlns="http://www.w3.org/2000/svg">
<path d="M59.9377 28.0037C59.3237 27.4377 58.3937 26.5827 58.2797 26.1597C58.1507 25.6817 58.5167 24.4817 58.7847 23.6057C59.3377 21.7917 59.9647 19.7347 58.9157 17.9317C57.8557 16.1067 55.7437 15.6287 53.8807 15.2067C52.9987 15.0067 51.7917 14.7337 51.4597 14.4017C51.1277 14.0697 50.8547 12.8617 50.6537 11.9797C50.2317 10.1157 49.7547 8.0037 47.9277 6.9437C47.2837 6.5707 46.5327 6.3817 45.6977 6.3817C44.5357 6.3817 43.3757 6.7357 42.2547 7.0767C41.4037 7.3357 40.5237 7.6047 39.9407 7.6047C39.8604 7.60633 39.7801 7.59827 39.7017 7.5807C39.2767 7.4657 38.4227 6.5377 37.8567 5.9227C36.5477 4.5017 35.0657 2.8907 32.9157 2.8837H32.9047C30.7607 2.8837 29.2757 4.4847 27.9657 5.8977C27.4007 6.5077 26.5457 7.4287 26.1287 7.5397C26.0535 7.55582 25.9767 7.5632 25.8997 7.5617C25.3177 7.5617 24.4357 7.2867 23.5827 7.0207C22.4557 6.6697 21.2907 6.3067 20.1217 6.3067C19.2967 6.3067 18.5557 6.4927 17.9187 6.8597C16.0887 7.9137 15.6107 10.0267 15.1897 11.8917C14.9907 12.7697 14.7187 13.9737 14.3907 14.3017C14.0647 14.6277 12.8617 14.8997 11.9827 15.0977C10.1187 15.5197 8.00574 15.9977 6.95074 17.8267C5.90874 19.6337 6.54874 21.6847 7.11274 23.4947C7.38474 24.3677 7.75774 25.5617 7.63274 26.0357C7.52274 26.4527 6.60174 27.3067 5.99274 27.8707C4.64674 29.1187 2.97174 30.6707 2.97774 32.8237C2.98274 34.9727 4.59474 36.4547 6.01674 37.7637C6.63174 38.3297 7.55974 39.1837 7.67374 39.6077C7.80274 40.0847 7.43674 41.2857 7.16974 42.1607C6.61674 43.9767 5.98874 46.0337 7.03774 47.8387C8.09674 49.6627 10.2087 50.1417 12.0717 50.5637C12.9537 50.7627 14.1617 51.0367 14.4927 51.3687C14.8257 51.7007 15.0987 52.9097 15.2987 53.7907C15.7207 55.6537 16.1987 57.7677 18.0247 58.8257C18.6667 59.2007 19.4187 59.3897 20.2557 59.3897C21.4177 59.3897 22.5777 59.0347 23.6997 58.6927C24.5517 58.4327 25.4327 58.1637 26.0167 58.1657C26.1487 58.1657 26.2227 58.1797 26.2547 58.1887C26.6767 58.3017 27.5317 59.2317 28.0977 59.8467C29.4057 61.2687 30.8877 62.8797 33.0387 62.8837C35.1947 62.8837 36.6807 61.2817 37.9897 59.8697C38.5547 59.2607 39.4097 58.3387 39.8277 58.2267C39.9017 58.2112 39.9772 58.2042 40.0527 58.2057C40.6337 58.2057 41.5157 58.4807 42.3687 58.7467C43.4967 59.0987 44.6637 59.4637 45.8337 59.4637C46.6567 59.4637 47.3967 59.2777 48.0337 58.9107C49.8637 57.8537 50.3417 55.7407 50.7627 53.8777C50.9607 52.9987 51.2337 51.7957 51.5617 51.4677C51.8887 51.1417 53.0927 50.8677 53.9717 50.6707C55.8347 50.2487 57.9477 49.7707 59.0007 47.9417C60.0427 46.1347 59.4037 44.0847 58.8407 42.2757C58.5687 41.4027 58.1957 40.2077 58.3217 39.7307C58.4317 39.3147 59.3527 38.4607 59.9627 37.8967C61.3087 36.6487 62.9837 35.0957 62.9787 32.9457C62.9707 30.7957 61.3597 29.3127 59.9377 28.0037ZM56.3867 39.2197C55.7957 41.4497 58.3917 44.9927 57.2667 46.9427C56.1257 48.9227 51.7507 48.4507 50.1447 50.0557C48.5407 51.6597 49.0127 56.0347 47.0337 57.1787C46.6797 57.3817 46.2727 57.4637 45.8317 57.4637C44.0947 57.4637 41.8137 56.2057 40.0507 56.2057C39.7921 56.2044 39.5467 56.2337 39.3147 56.2937C37.1627 56.8637 35.3797 60.8837 33.0477 60.8837H33.0407C30.7017 60.8777 28.9337 56.8407 26.7737 56.2567C26.5257 56.1938 26.2706 56.1629 26.0147 56.1647C24.2567 56.1627 21.9877 57.3897 20.2537 57.3897C19.8017 57.3897 19.3867 57.3057 19.0257 57.0967C17.0427 55.9447 17.5167 51.5657 15.9047 49.9537C14.2957 48.3427 9.91474 48.8147 8.76474 46.8347C7.62874 44.8777 10.2047 41.3187 9.60274 39.0867C9.02174 36.9287 4.98174 35.1577 4.97674 32.8187C4.96974 30.4817 8.99674 28.7007 9.56474 26.5477C10.1537 24.3197 7.55774 20.7767 8.68274 18.8257C9.82374 16.8467 14.1987 17.3177 15.8047 15.7147C17.4087 14.1097 16.9367 9.7327 18.9167 8.5927C19.2707 8.3877 19.6787 8.3067 20.1217 8.3067C21.8577 8.3067 24.1357 9.5607 25.8997 9.5607C26.1577 9.5607 26.4057 9.5337 26.6387 9.4717C28.7897 8.9057 30.5717 4.8837 32.9047 4.8837H32.9097C35.2507 4.8917 37.0177 8.9277 39.1787 9.5107C39.4177 9.5757 39.6737 9.6037 39.9407 9.6037C41.6977 9.6037 43.9637 8.3807 45.6977 8.3807C46.1497 8.3807 46.5647 8.4637 46.9257 8.6727C48.9087 9.8237 48.4347 14.2037 50.0467 15.8157C51.6577 17.4257 56.0357 16.9527 57.1887 18.9367C58.3247 20.8897 55.7477 24.4517 56.3507 26.6807C56.9337 28.8407 60.9717 30.6107 60.9787 32.9517C60.9827 35.2857 56.9557 37.0697 56.3867 39.2197Z" fill="white"/>
<path d="M45.0957 44.5517C42.7884 46.1397 40.1521 47.1861 37.3837 47.6127C34.6747 48.0127 31.9047 47.8157 29.3297 47.0127C26.7477 46.2257 24.3907 44.8447 22.3697 43.0697C20.3567 41.2997 18.6617 39.0967 17.6137 36.4937C16.5637 33.9097 16.1817 30.9447 16.7247 28.0897C17.2457 25.2307 18.6817 22.5407 20.7217 20.4647C22.7467 18.3967 25.4427 17.0777 28.2217 16.8277C30.9937 16.5327 33.7557 17.2227 36.0027 18.5777C37.1067 19.2456 38.1093 20.0683 38.9797 21.0207C39.8083 21.9366 40.4439 23.0099 40.8487 24.1767C41.6377 26.4597 41.4457 29.0307 40.3787 31.1147C39.8405 32.1534 39.1091 33.08 38.2237 33.8447C37.4567 34.4817 36.4467 35.0147 35.4077 35.2197C33.3077 35.7117 30.9847 35.0827 29.3667 33.5477C27.8797 32.2077 27.3557 29.7427 28.2947 27.7297C28.5287 27.2177 28.8287 26.7767 29.2437 26.3177C29.5899 25.931 30.0115 25.6192 30.4827 25.4017C31.5304 24.9274 32.7205 24.8751 33.8057 25.2557C34.3777 25.4625 34.9041 25.7783 35.3557 26.1857C35.7857 26.5667 36.1427 27.0957 36.3467 27.6877C36.7787 28.8737 36.6077 30.3677 35.7327 31.5447L36.0867 31.8987C37.3947 30.9317 38.1937 29.1527 37.9787 27.3497C37.8716 26.4252 37.5317 25.543 36.9907 24.7857C36.4557 24.0337 35.7577 23.4207 34.9507 22.9397C33.3407 21.9727 31.2857 21.6917 29.3877 22.2407C28.4109 22.515 27.5015 22.9886 26.7167 23.6317C25.9758 24.2409 25.3394 24.9671 24.8327 25.7817C23.7766 27.4679 23.2956 29.451 23.4617 31.4337C23.6406 33.4669 24.4695 35.3884 25.8257 36.9137C27.0997 38.3727 28.8017 39.4707 30.6607 40.0977C32.5217 40.7307 34.5507 40.8417 36.4887 40.4687C38.4317 40.0627 40.2497 39.2127 41.7797 37.8477C43.1888 36.5916 44.3121 35.0479 45.0737 33.3207C46.6277 29.8907 46.6407 25.8777 45.1997 22.4827C43.7797 19.0417 40.9187 16.4847 37.7567 15.1077C34.5677 13.6977 30.9837 13.4907 27.7607 14.3067C24.5728 15.1216 21.7094 16.8896 19.5527 19.3747C17.431 21.7662 15.8891 24.6146 15.0467 27.6987C14.1957 30.7767 14.0067 34.1027 14.6917 37.3607C15.3727 40.6047 16.9687 43.7687 19.3727 46.2007C24.1507 51.1307 31.6517 53.0207 38.1557 51.3397C41.3943 50.531 44.3592 48.8746 46.7458 46.5407C49.037 44.3047 50.7328 41.5312 51.6787 38.4727L51.2318 38.2477C49.4878 40.7567 47.4567 42.9367 45.0957 44.5517Z" fill="white"/>
</svg>
