<svg width="66" height="66" viewBox="0 0 66 66" fill="none" xmlns="http://www.w3.org/2000/svg">
<path d="M63.6246 46.4388C63.55 45.6224 63.4785 44.8529 63.5306 44.2715C63.9914 39.1349 62.4945 34.5041 59.2022 30.8829C55.4675 26.7742 49.5799 24.3209 43.4542 24.3209C34.9242 24.3209 27.7747 28.7902 24.3281 36.277L24.3026 36.3352C23.5107 33.42 22.7116 31.3968 22.072 29.7752C20.9909 27.0327 20.4105 25.5623 20.8755 22.3375C21.7192 22.2458 22.5104 21.883 23.1306 21.3035C23.2382 21.3109 23.3485 21.315 23.4616 21.3157C24.6214 21.3157 25.6268 20.8764 26.3533 20.0937L26.4433 20.0947C27.8871 20.0947 29.1163 19.4704 29.9347 18.3689C31.9314 18.2013 33.3108 16.9976 33.5836 15.143C33.9515 12.6539 33.0809 5.68727 31.1997 3.49448C30.4538 2.62288 29.6303 2.43896 29.0723 2.43896C25.8894 2.43896 20.9112 3.17363 16.685 4.26594C8.98266 6.25641 7.77898 8.2663 7.5879 9.79593C6.80622 16.1076 5.6475 21.7377 4.62365 26.7057C3.17269 33.7439 2.02725 39.3035 2.58107 43.6748C2.79667 45.3802 3.22685 46.8434 3.6417 48.2566C4.16078 50.0202 4.69518 51.8441 4.87604 54.3383C5.12434 57.8053 8.86822 59.7937 15.1482 59.7937C17.6098 59.7937 20.1203 59.4729 22.1803 58.9017C24.7062 60.1115 33.041 63.7471 41.943 63.7471C45.0043 63.7471 47.8561 63.3098 50.4229 62.4474C63.5561 58.027 64.1457 52.1149 63.6246 46.4388ZM4.60935 43.4163C3.72447 36.4343 7.74322 25.1792 9.6172 10.0504C9.93498 7.49075 21.5856 4.81158 27.9943 4.52241C27.7338 4.73188 27.5468 5.00675 27.5223 5.29898C28.2907 4.95055 29.4382 4.83815 30.0012 5.98665C30.0308 5.79456 30.0431 5.62391 30.0431 5.46451C30.3373 6.04081 30.6061 6.82658 30.8329 7.72168C31.118 9.00915 31.2774 10.3293 31.2805 11.6546C31.2825 12.5752 31.4828 15.8573 29.9674 15.4302C29.0335 15.1665 29.01 14.3051 28.7433 13.4182C28.3326 12.0316 27.6091 10.4335 27.697 8.9601C27.3404 10.4059 27.7644 12.141 27.9218 13.6032C28.0117 14.4543 28.6003 16.7544 27.558 17.0681C26.9817 17.2449 26.3135 16.8392 25.8363 16.5419C25.6544 16.4274 25.5185 15.5906 25.4521 15.3556C25.0413 13.9189 24.3056 12.2667 24.3996 10.7574C24.04 12.1185 24.3905 13.7585 24.5049 15.1532C24.5754 16.0177 25.0117 17.8917 24.0369 18.327C22.9334 18.9043 22.7637 17.5044 22.5594 16.7708C22.1803 15.4087 21.5641 13.9189 21.5805 12.4904C21.1953 14.2306 21.6479 16.268 21.7225 18.0501C21.7624 18.9349 19.9078 19.734 19.216 19.1781C18.1319 18.3065 17.949 16.266 17.8264 14.9468C18.1513 15.3903 18.6173 15.9635 19.2089 15.9053C18.7062 15.3321 18.4926 14.3491 18.1564 13.6522C17.8478 13.08 17.2215 11.7179 16.4848 11.6955C16.5982 11.9397 17.2194 13.6226 17.1234 13.8004C16.824 14.3573 16.5328 14.9233 16.1997 15.4567C15.9166 15.9053 15.0951 17.3348 14.432 16.9026C13.7157 16.4387 13.2661 14.3613 13.2661 14.3613C13.2661 14.3613 13.2927 16.9516 14.2184 17.5514C15.0951 18.1216 16.0944 17.2224 16.6748 16.5807C16.7903 17.812 17.1234 19.2558 17.8683 20.2081C15.6796 29.9142 19.7086 29.8171 22.4245 42.792C22.4245 42.792 24.2147 40.1527 25.7801 36.7531C29.196 29.3328 36.321 26.0262 43.1896 26.0262C50.0009 26.0262 57.2945 29.5085 59.9451 35.529C60.8208 37.5174 61.0384 39.8941 60.8014 42.512C60.4141 46.776 64.6219 53.713 48.926 58.9252C36.4712 63.0604 21.1524 55.1313 21.1524 55.1313C16.9507 56.5046 7.12503 57.1044 6.9176 54.1943C6.5753 49.4276 5.06201 47.0008 4.60935 43.4163Z" fill="white"/>
<path d="M35.3866 55.1334C38.1219 56.1368 41.0943 56.4096 43.9615 56.0684C46.8307 55.7209 49.6386 54.7839 52.0848 53.2042C53.2987 52.4093 54.4278 51.4529 55.3362 50.3054C56.2242 49.1538 56.9435 47.8234 57.1101 46.4123C55.3444 48.5724 53.0985 49.7618 50.7841 50.707C48.4574 51.6266 46.0102 52.1998 43.5436 52.4951C41.0749 52.7802 38.5827 52.7833 36.1141 52.4001C33.5383 51.9998 31.0554 51.1402 28.7837 49.8619C30.1774 52.3163 32.6706 54.132 35.3866 55.1334ZM26.5183 7.39484C26.9516 4.5859 24.1355 5.51063 24.0374 6.70819C24.8058 6.35873 25.9553 6.24735 26.5183 7.39484ZM23.7339 8.94798C24.1682 6.13802 21.3531 7.06071 21.255 8.26235C22.0234 7.90983 23.1719 7.79947 23.7339 8.94798ZM20.5183 10.5696C20.9526 7.76064 18.1375 8.68435 18.0394 9.88395C18.8088 9.53143 19.9553 9.42209 20.5183 10.5696Z" fill="white"/>
</svg>
