<svg width="66" height="66" viewBox="0 0 66 66" fill="none" xmlns="http://www.w3.org/2000/svg">
<path d="M61.8964 40.9559C56.1202 31.5338 40.9893 32.5495 35.8762 32.618C35.9416 32.3829 35.9876 32.1398 35.9876 31.8843C35.9876 31.6544 35.9518 31.4347 35.8977 31.2212C41.0057 31.3908 56.2796 32.0498 61.8995 22.8097C67.9148 12.9166 57.5272 9.87976 52.8647 13.2047C56.3112 8.18153 52.9362 -1.34678 42.9818 4.42538C33.4975 9.92268 34.2965 24.1217 34.4007 29.386C33.9943 29.1811 33.546 29.0728 33.0908 29.0692C32.6656 29.0722 32.2461 29.1666 31.8605 29.3461C32.0485 24.0593 32.4828 9.75919 23.1967 4.42027C13.0226 -1.42648 9.89898 8.67199 13.3179 13.2058C14.9804 14.5913 16.5785 16.0382 18.1694 17.4943C19.7644 18.9432 21.3145 20.4371 22.8677 21.9309C24.4044 23.4371 25.9392 24.9452 27.432 26.4974L29.6677 28.825C30.3922 29.622 31.1351 30.3996 31.8411 31.213C31.0032 30.5263 30.2042 29.8019 29.3868 29.0999L26.9896 26.9265C25.3946 25.4766 23.8445 23.9827 22.2934 22.4878C20.7587 20.9807 19.2198 19.4725 17.729 17.9204C16.2321 16.3754 14.7433 14.8212 13.3189 13.2047C8.1517 9.8532 -1.64636 13.1342 4.28826 22.8127C10.0655 32.2327 25.1933 31.2212 30.3084 31.1507C30.243 31.3857 30.197 31.6289 30.197 31.8843C30.197 32.1142 30.2328 32.3339 30.287 32.5475C25.18 32.3778 9.90511 31.7167 4.2852 40.9589C-1.73015 50.852 8.65749 53.8868 13.3199 50.5618C9.87343 55.585 13.2484 65.1143 23.2028 59.3432C32.6862 53.8449 31.8881 39.6459 31.7839 34.3806C32.1793 34.5778 32.6197 34.6994 33.0928 34.6994C33.5363 34.6994 33.9501 34.5941 34.3251 34.4225C34.1361 39.7062 33.6998 54.0074 42.989 59.3473C53.1631 65.1951 56.2867 55.0966 52.8678 50.5618C51.2053 49.1773 49.6072 47.7304 48.0163 46.2733C46.4212 44.8244 44.8711 43.3295 43.318 41.8367C41.7812 40.3295 40.2465 38.8223 38.7536 37.2702L36.5179 34.9415C35.7955 34.1445 35.0506 33.3669 34.3445 32.5546C35.1804 33.2413 35.9815 33.9637 36.7989 34.6667L39.1961 36.8411C40.7911 38.291 42.3412 39.7849 43.8923 41.2777C45.427 42.7869 46.9658 44.2941 48.4546 45.8462C49.9536 47.3932 51.4413 48.9453 52.8678 50.5618C58.034 53.9154 67.8341 50.6344 61.8964 40.9559ZM29.6657 34.9426L27.432 37.2713C25.9392 38.8223 24.4044 40.3305 22.8677 41.8377C21.3145 43.3305 19.7644 44.8254 18.1694 46.2743C16.5785 47.7304 14.9804 49.1763 13.3179 50.5629C14.7433 48.9464 16.2321 47.3932 17.728 45.8472C19.2188 44.2951 20.7556 42.788 22.2924 41.2788C23.8414 39.7839 25.3936 38.292 26.9886 36.8421L29.3837 34.6677C30.2042 33.9647 31.0022 33.2413 31.8401 32.5556C31.134 33.368 30.3922 34.1456 29.6657 34.9426ZM36.5179 28.825L38.7536 26.4963C40.2465 24.9452 41.7812 23.4371 43.318 21.9299C44.8711 20.4371 46.4212 18.9432 48.0163 17.4943C49.6072 16.0382 51.2053 14.5913 52.8678 13.2058C51.4413 14.8223 49.9536 16.3764 48.4556 17.9214C46.9669 19.4735 45.428 20.9817 43.8933 22.4888C42.3422 23.9827 40.7921 25.4766 39.1971 26.9275L36.7999 29.0989C35.9815 29.8029 35.1814 30.5274 34.3456 31.214C35.0506 30.3986 35.7955 29.622 36.5179 28.825Z" fill="white"/>
<path d="M33.0939 36.3076L30.5393 61.1425C30.5223 61.3123 30.5223 61.4835 30.5393 61.6534C30.6834 63.0471 31.9423 64.0618 33.3534 63.9208C34.7645 63.7798 35.7924 62.5362 35.6494 61.1425L33.0939 36.3076Z" fill="white"/>
</svg>
