<svg width="67" height="66" viewBox="0 0 67 66" fill="none" xmlns="http://www.w3.org/2000/svg">
<path d="M62.4777 40.9559C56.7015 31.5338 41.5706 32.5495 36.4575 32.618C36.5229 32.3829 36.5689 32.1398 36.5689 31.8843C36.5689 31.6544 36.5331 31.4347 36.479 31.2212C41.587 31.3908 56.8609 32.0498 62.4808 22.8097C68.4961 12.9166 58.1085 9.87976 53.446 13.2047C56.8925 8.18153 53.5175 -1.34678 43.5631 4.42538C34.0788 9.92268 34.8778 24.1217 34.982 29.386C34.5756 29.1811 34.1273 29.0728 33.6721 29.0692C33.2469 29.0722 32.8274 29.1666 32.4418 29.3461C32.6298 24.0593 33.0641 9.75919 23.778 4.42027C13.6039 -1.42648 10.4803 8.67199 13.8992 13.2058C15.5617 14.5913 17.1598 16.0382 18.7507 17.4943C20.3457 18.9432 21.8958 20.4371 23.449 21.9309C24.9857 23.4371 26.5205 24.9452 28.0133 26.4974L30.249 28.825C30.9735 29.622 31.7164 30.3996 32.4224 31.213C31.5845 30.5263 30.7855 29.8019 29.9681 29.0999L27.5709 26.9265C25.9759 25.4766 24.4258 23.9827 22.8747 22.4878C21.34 20.9807 19.8011 19.4725 18.3103 17.9204C16.8134 16.3754 15.3246 14.8212 13.9002 13.2047C8.733 9.8532 -1.06507 13.1342 4.86956 22.8127C10.6468 32.2327 25.7746 31.2212 30.8897 31.1507C30.8243 31.3857 30.7783 31.6289 30.7783 31.8843C30.7783 32.1142 30.8141 32.3339 30.8683 32.5475C25.7613 32.3778 10.4864 31.7167 4.8665 40.9589C-1.14885 50.852 9.23879 53.8868 13.9012 50.5618C10.4547 55.585 13.8297 65.1143 23.7841 59.3432C33.2675 53.8449 32.4694 39.6459 32.3652 34.3806C32.7606 34.5778 33.201 34.6994 33.6741 34.6994C34.1176 34.6994 34.5314 34.5941 34.9064 34.4225C34.7174 39.7062 34.2811 54.0074 43.5703 59.3473C53.7444 65.1951 56.868 55.0966 53.4491 50.5618C51.7866 49.1773 50.1885 47.7304 48.5976 46.2733C47.0025 44.8244 45.4524 43.3295 43.8993 41.8367C42.3625 40.3295 40.8278 38.8223 39.3349 37.2702L37.0992 34.9415C36.3768 34.1445 35.6319 33.3669 34.9258 32.5546C35.7617 33.2413 36.5628 33.9637 37.3802 34.6667L39.7774 36.8411C41.3724 38.291 42.9225 39.7849 44.4736 41.2777C46.0083 42.7869 47.5471 44.2941 49.0359 45.8462C50.5349 47.3932 52.0226 48.9453 53.4491 50.5618C58.6153 53.9154 68.4154 50.6344 62.4777 40.9559ZM30.247 34.9426L28.0133 37.2713C26.5205 38.8223 24.9857 40.3305 23.449 41.8377C21.8958 43.3305 20.3457 44.8254 18.7507 46.2743C17.1598 47.7304 15.5617 49.1763 13.8992 50.5629C15.3246 48.9464 16.8134 47.3932 18.3093 45.8472C19.8001 44.2951 21.3369 42.788 22.8737 41.2788C24.4227 39.7839 25.9748 38.292 27.5699 36.8421L29.965 34.6677C30.7855 33.9647 31.5835 33.2413 32.4214 32.5556C31.7153 33.368 30.9735 34.1456 30.247 34.9426ZM37.0992 28.825L39.3349 26.4963C40.8278 24.9452 42.3625 23.4371 43.8993 21.9299C45.4524 20.4371 47.0025 18.9432 48.5976 17.4943C50.1885 16.0382 51.7866 14.5913 53.4491 13.2058C52.0226 14.8223 50.5349 16.3764 49.0369 17.9214C47.5482 19.4735 46.0093 20.9817 44.4746 22.4888C42.9235 23.9827 41.3734 25.4766 39.7784 26.9275L37.3812 29.0989C36.5628 29.8029 35.7627 30.5274 34.9269 31.214C35.6319 30.3986 36.3768 29.622 37.0992 28.825Z" fill="#D6FF00"/>
<path d="M33.6752 36.3076L31.1207 61.1425C31.1036 61.3123 31.1036 61.4835 31.1207 61.6534C31.2648 63.0471 32.5236 64.0618 33.9348 63.9208C35.3459 63.7798 36.3738 62.5362 36.2307 61.1425L33.6752 36.3076Z" fill="#D6FF00"/>
</svg>
