<svg width="64" height="65" viewBox="0 0 64 65" fill="none" xmlns="http://www.w3.org/2000/svg">
<path d="M43.3 19.6341C42.406 19.1101 41.533 18.8451 40.843 18.8451C40.157 18.8451 39.655 19.1101 39.503 19.6341C39.193 20.6831 40.399 22.3831 42.189 23.4321C43.085 23.9581 43.957 24.2201 44.645 24.2201C45.331 24.2201 45.833 23.9581 45.989 23.4321C46.296 22.3831 45.092 20.6831 43.3 19.6341ZM29.13 48.4231C28.485 48.1921 27.576 48.1461 26.554 48.3391C24.514 48.7301 22.81 49.9301 22.747 51.0211C22.715 51.5661 23.101 51.9831 23.749 52.2121C24.396 52.4431 25.306 52.4871 26.325 52.2931C28.366 51.9051 30.071 50.7061 30.134 49.6121C30.166 49.0671 29.78 48.6511 29.13 48.4231ZM39.002 46.2021C38.356 45.9731 37.444 45.9251 36.426 46.1201C34.387 46.5091 32.684 47.7061 32.621 48.8001C32.591 49.3461 32.976 49.7611 33.623 49.9911C34.27 50.2211 35.181 50.2661 36.199 50.0741C38.242 49.6841 39.941 48.4861 40.006 47.3931C40.034 46.8471 39.65 46.4331 39.002 46.2021ZM48.466 44.2681C47.821 44.0391 46.908 43.9931 45.888 44.1871C43.851 44.5761 42.146 45.7741 42.085 46.8681C42.055 47.4131 42.439 47.8291 43.087 48.0591C43.733 48.2891 44.645 48.3341 45.665 48.1401C47.706 47.7511 49.407 46.5531 49.47 45.4611C49.5 44.9141 49.114 44.4991 48.466 44.2681ZM21.38 26.5591C20.84 26.9831 20.315 27.7291 19.931 28.6951C19.169 30.6271 19.271 32.7051 20.158 33.3421C20.604 33.6601 21.162 33.5591 21.702 33.1351C22.245 32.7111 22.77 31.9651 23.152 31.0001C23.914 29.0691 23.813 26.9881 22.925 26.3511C22.48 26.0331 21.921 26.1341 21.38 26.5591ZM10.38 23.2101C9.837 23.6341 9.312 24.3781 8.93 25.3441C8.166 27.2751 8.267 29.3561 9.159 29.9911C9.601 30.3101 10.159 30.2071 10.702 29.7831C11.242 29.3591 11.767 28.6141 12.149 27.6481C12.913 25.7181 12.811 23.6371 11.922 22.9991C11.478 22.6821 10.92 22.7841 10.38 23.2101Z" fill="white"/>
<path d="M61.692 36.002L55.137 16.234C54.147 13.248 51.033 10.131 48.045 9.14104L28.275 2.58604C27.041 2.17704 25.932 2.17904 25.078 2.58204C24.154 2.83304 23.098 3.23104 22.016 3.73504C20.537 4.42404 18.713 5.47104 17.939 6.38204C17.852 6.45678 17.7676 6.5345 17.686 6.61504L4.427 19.877C2.366 21.937 1.449 25.857 2.34 28.802L8.102 47.886C8.20733 48.236 8.33633 48.5624 8.489 48.865C8.953 50.277 10.855 52.256 11.439 52.84C12.025 53.425 14.007 55.332 15.419 55.795C15.719 55.944 16.048 56.074 16.395 56.179L35.478 61.941C36.218 62.166 37.031 62.279 37.896 62.279C40.375 62.279 42.929 61.327 44.401 59.855L57.663 46.592C57.7463 46.508 57.8243 46.4237 57.897 46.339C58.809 45.562 59.856 43.738 60.543 42.264C61.05 41.177 61.448 40.118 61.699 39.193C62.103 38.334 62.101 37.234 61.692 36.002ZM11.509 50.046C10.782 49.162 10.397 48.507 10.32 48.235L10.246 48.051C10.126 47.8197 10.0288 47.5772 9.956 47.327L4.192 28.242C3.513 25.997 4.247 22.793 5.795 21.246L19.057 7.98304C19.125 7.91404 19.197 7.85404 19.266 7.79404L19.394 7.66004C19.62 7.37404 20.233 6.90804 21.113 6.39004C21.952 6.65504 22.666 7.44704 23.053 8.73304L28.815 27.818C29.599 30.411 28.773 33.977 26.97 35.78L13.71 49.042C12.988 49.763 12.222 50.076 11.509 50.046ZM56.616 44.886L56.479 45.019C56.42 45.087 56.362 45.156 56.293 45.224L43.033 58.487C41.923 59.597 39.858 60.342 37.897 60.342C37.2682 60.3492 36.6408 60.2636 36.037 60.088L16.954 54.326C16.7038 54.2529 16.4613 54.1554 16.23 54.035L16.045 53.963C15.774 53.887 15.119 53.5 14.235 52.773C14.204 52.059 14.515 51.294 15.238 50.571L28.497 37.31C30.301 35.506 33.865 34.68 36.459 35.464L55.542 41.227C56.83 41.616 57.622 42.331 57.886 43.17C57.37 44.048 56.902 44.659 56.616 44.886ZM59.93 38.406L59.854 38.606C59.76 38.963 59.631 39.359 59.482 39.769C58.945 39.872 58.285 39.816 57.52 39.562L37.751 33.007C35.063 32.117 32.161 29.215 31.273 26.528L24.718 6.75904C24.465 5.99404 24.408 5.33504 24.511 4.79704C24.919 4.65004 25.312 4.52104 25.668 4.42704L25.871 4.34804C26.045 4.25804 26.266 4.21271 26.534 4.21204C26.866 4.21204 27.247 4.28304 27.668 4.42204L47.437 10.977C49.825 11.769 52.509 14.455 53.3 16.842L59.856 36.61C60.104 37.364 60.132 38.017 59.93 38.406Z" fill="white"/>
</svg>
