<svg width="65" height="65" viewBox="0 0 65 65" fill="none" xmlns="http://www.w3.org/2000/svg">
<path d="M32.7907 2.27905C16.2227 2.27905 2.79071 15.7111 2.79071 32.2791L2.79171 32.3321L2.79071 32.3851C2.79071 48.8951 16.1477 62.2791 32.6257 62.2791L32.6897 62.2771L32.7907 62.2791C49.3587 62.2791 62.7907 48.8471 62.7907 32.2791C62.7907 15.7111 49.3587 2.27905 32.7907 2.27905ZM60.7907 32.2791C60.7907 34.6731 60.4887 36.9961 59.9247 39.2131C59.6637 39.0331 58.9737 39.7771 58.8037 38.7911C58.5907 37.5671 57.2107 36.7171 56.4677 37.3021C55.7247 37.8871 53.6017 39.5881 53.4967 40.6521C53.3897 41.7151 52.4867 42.9911 52.0637 42.0891C51.6377 41.1851 50.3657 38.3661 50.4177 37.6221C50.4697 36.8781 49.8317 37.8881 48.8797 36.3991C47.9237 34.9101 46.2787 36.1851 44.9517 35.4411C43.6247 34.6961 42.1387 33.6861 41.3947 33.3681C40.6537 33.0481 42.7217 36.3451 42.9877 35.9201C43.2547 35.4951 44.3147 36.2391 44.6337 36.2391C44.9527 36.2391 45.8007 36.9831 45.2707 37.6751C44.7407 38.3671 40.0177 41.2411 39.5397 40.4931C39.0597 39.7451 36.2497 33.9521 35.7707 34.3071C35.2927 34.6621 38.7437 40.7051 39.3277 41.0771C39.9097 41.4501 41.6627 41.1311 42.5107 40.7591C43.3607 40.3871 40.7597 44.9071 39.6467 45.4391C38.5327 45.9701 37.6307 47.6191 38.1067 48.3631C38.5847 49.1071 38.6377 51.9261 37.6307 52.2991C36.6207 52.6701 36.2497 53.2551 36.5677 53.9471C36.8847 54.6371 35.8257 55.8061 35.3477 56.5511C34.8687 57.2951 33.0127 58.8371 32.8527 59.2631C32.6947 59.6891 30.4127 59.5821 29.5087 59.5821C28.6077 59.5821 29.2967 58.4651 29.1897 57.5091C29.0857 56.5511 28.2897 55.6471 28.2897 55.1691C28.2897 54.6901 28.0227 53.5731 27.6527 53.0421C27.2817 52.5091 27.1737 51.4991 27.5457 50.9151C27.9187 50.3291 28.1827 48.6291 27.4417 47.8841C26.6977 47.1401 25.8477 45.8631 26.4327 44.8531C27.0167 43.8431 25.7957 43.9501 24.7877 43.4701C23.7787 42.9911 21.7087 43.6301 20.6477 43.7901C19.5857 43.9491 18.5257 43.5241 18.2067 42.9911C17.8887 42.4601 17.1987 41.1311 16.4917 40.8111C15.7867 40.4931 16.1907 39.1101 16.6147 38.5791C17.0407 38.0481 16.1907 37.0371 16.6147 36.6101C17.0407 36.1851 17.3047 34.6441 18.1537 34.3071C19.0037 33.9711 18.8437 33.7401 18.8697 32.9421C18.8957 32.1441 19.8247 32.1441 19.9827 31.7191C20.1427 31.2931 20.6197 31.0811 21.5777 31.0811C22.5327 31.0811 24.1497 30.5221 24.9197 30.3361C25.6897 30.1501 27.0167 29.8841 26.9097 30.6291C26.8037 31.3731 26.8307 32.2231 27.3337 32.2231C27.8387 32.2231 28.5287 32.5161 29.3247 33.0121C30.1207 33.5071 30.1467 33.1021 30.2537 32.5431C30.3607 31.9841 31.4737 32.1971 32.6257 32.7291C33.7777 33.2611 35.3487 32.8881 35.8507 32.8361C36.3557 32.7811 36.5687 31.2671 36.4357 30.7621C36.3017 30.2571 35.5067 31.0011 35.0027 30.6821C34.4987 30.3641 33.8077 30.7621 33.3047 30.3091C32.7997 29.8581 32.7197 28.7941 33.3047 28.7681C33.8877 28.7411 34.1807 28.5551 34.5247 28.1571C34.8707 27.7581 36.1707 27.5191 36.6747 27.9171C37.1777 28.3161 37.9227 28.5821 38.3717 28.1301C38.8227 27.6791 37.4717 26.8021 37.1777 26.5621C36.8857 26.3231 37.1247 25.5521 36.8337 25.5521C36.5407 25.5521 36.3017 25.6841 36.4617 26.0571C36.6207 26.4291 35.6127 27.0931 35.4517 26.7221C35.2937 26.3491 35.0287 25.6321 34.6307 25.6321C34.2327 25.6321 33.7027 27.4401 33.6757 27.7321C33.6487 28.0241 32.9587 28.5031 32.4027 28.5031C31.8467 28.5031 31.8467 29.1421 32.1377 29.4351C32.4297 29.7271 32.2167 30.8971 31.6867 30.9641C31.1557 31.0321 30.9697 30.8441 30.8907 30.3911C30.8117 29.9401 30.2807 29.9931 30.2537 29.0621C30.2267 28.1311 29.6427 27.6801 29.2717 27.2541C28.9007 26.8281 27.9447 25.5791 27.5737 26.1381C27.2027 26.6971 28.9007 27.8931 29.3507 28.2111C29.8037 28.5301 29.7237 29.2211 29.4847 29.3811C29.2457 29.5411 28.7947 30.8441 28.5297 30.9491C28.2627 31.0551 28.0097 30.5531 28.0097 30.5531C27.6117 30.3941 28.5657 29.9151 28.7257 29.6761C28.8837 29.4371 27.0547 27.7621 26.7247 27.2831C26.3947 26.8041 24.9847 27.6811 24.3487 27.3631C23.7117 27.0451 22.7557 28.5591 22.6777 29.4361C22.5967 30.3141 21.5617 30.5521 20.6067 30.5521C19.6527 30.5521 19.0147 29.8351 19.3347 29.1171C19.6527 28.3991 19.1747 27.2031 19.7327 27.1231C20.2897 27.0441 21.8797 27.1231 22.1987 26.2461C22.5167 25.3691 20.6857 24.5711 21.4037 24.4121C22.1187 24.2521 23.2347 23.1371 24.0307 22.4981C24.8247 21.8601 24.9047 21.0631 25.6207 21.0071C26.3387 20.9521 25.4627 19.6261 26.0997 19.2281C26.7377 18.8291 26.8957 20.6641 27.3737 20.6641C27.8517 20.6641 28.8047 20.5041 29.6017 20.9031C30.3987 21.3021 30.6367 20.5041 30.9557 19.4661C31.2737 18.4301 32.0697 17.8711 33.6607 17.0741C35.2527 16.2761 31.8317 17.3131 31.1937 16.5151C30.5567 15.7171 31.4327 13.9621 31.8317 12.7231C32.2297 11.4831 30.5577 13.9621 29.6817 15.2391C28.8047 16.5151 29.9207 17.0731 29.8397 17.9501C29.7607 18.8281 28.3297 19.8641 28.3297 19.8641C27.6927 19.9441 27.7717 18.6681 27.4537 18.1101C27.1347 17.5521 26.5767 17.7911 25.7007 18.4291C24.8247 19.0671 24.7457 16.9141 24.5077 16.0361C24.2707 15.1601 25.9407 14.0421 26.7257 13.4461C27.5097 12.8481 28.8047 9.97505 30.2387 7.74305C31.6727 5.51105 33.7417 6.62605 34.2987 7.50405C34.8577 8.38005 36.2877 7.82205 37.6427 9.41805C38.9977 11.0141 37.3237 11.7301 35.8137 11.0821C34.2987 10.4341 36.1307 12.6881 37.0047 13.3261C37.8807 13.9631 38.3587 11.8901 38.6777 11.4121C38.9957 10.9331 40.1887 11.1731 41.0637 9.89605C41.9407 8.62005 43.9297 8.86005 45.0657 9.00005C46.2027 9.14105 45.9197 8.30105 45.2037 7.61405C44.6737 7.10605 45.7577 7.55105 47.0337 8.17405C55.2667 13.0471 60.7907 22.0161 60.7907 32.2791ZM20.8327 22.7511C20.5687 22.4781 21.0997 21.4031 21.3377 21.0841C21.5777 20.7651 20.6737 20.8711 20.7287 21.3241C20.7817 21.7751 20.3827 22.4671 19.8257 22.6531C19.2687 22.8391 18.6337 22.7851 18.9507 22.2801C19.2677 21.7751 18.9767 21.3231 18.7377 20.8441C18.4997 20.3651 20.0637 20.0731 20.3837 19.7811C20.7017 19.4891 19.8807 19.3021 19.9057 18.8511C19.9327 18.3981 20.1187 18.0001 20.4347 17.9471C20.7537 17.8941 21.0517 17.6901 21.3377 17.7081C22.2147 17.7621 21.9467 19.7551 22.2667 20.3941C22.5847 21.0311 23.4877 21.8031 23.4077 22.3601C23.3277 22.9191 23.1577 23.2381 22.5077 23.0781C21.8547 22.9181 20.8097 23.9021 20.4097 23.7161C20.0107 23.5291 21.0997 23.0241 20.8327 22.7511ZM15.1147 11.5701C15.9117 11.9681 16.5467 11.2461 17.1027 11.0911C17.7617 10.9091 18.1377 13.2451 17.5017 13.1651C16.8647 13.0851 16.1487 14.4411 15.2287 14.3611C14.3087 14.2811 14.7157 13.6441 13.6807 12.6871C13.4587 12.4811 13.3677 12.2951 13.3597 12.1321C13.5807 11.9191 13.8007 11.7051 14.0297 11.5001C14.3877 11.4051 14.8127 11.4191 15.1147 11.5701ZM40.0167 51.7111C40.7597 51.5521 40.6167 50.1381 41.2907 50.0631C42.7237 49.9041 41.3437 53.8911 40.8137 55.0081C40.2827 56.1251 40.0687 56.0711 39.5637 55.3801C39.0567 54.6901 39.2207 53.5721 39.5637 53.0411C39.9057 52.5081 39.2727 51.8711 40.0167 51.7111Z" fill="white"/>
</svg>
