<svg width="65" height="65" viewBox="0 0 65 65" fill="none" xmlns="http://www.w3.org/2000/svg">
<path d="M32.3721 2.27905C15.8041 2.27905 2.37207 15.7111 2.37207 32.2791L2.37307 32.3321L2.37207 32.3851C2.37207 48.8951 15.7291 62.2791 32.2071 62.2791L32.2711 62.2771L32.3721 62.2791C48.9401 62.2791 62.3721 48.8471 62.3721 32.2791C62.3721 15.7111 48.9401 2.27905 32.3721 2.27905ZM60.3721 32.2791C60.3721 34.6731 60.0701 36.9961 59.5061 39.2131C59.2451 39.0331 58.5551 39.7771 58.3851 38.7911C58.1721 37.5671 56.7921 36.7171 56.0491 37.3021C55.3061 37.8871 53.1831 39.5881 53.0781 40.6521C52.9711 41.7151 52.0681 42.9911 51.6451 42.0891C51.2191 41.1851 49.9471 38.3661 49.9991 37.6221C50.0511 36.8781 49.4131 37.8881 48.4611 36.3991C47.5051 34.9101 45.8601 36.1851 44.5331 35.4411C43.2061 34.6961 41.7201 33.6861 40.9761 33.3681C40.2351 33.0481 42.3031 36.3451 42.5691 35.9201C42.8361 35.4951 43.8961 36.2391 44.2151 36.2391C44.5341 36.2391 45.3821 36.9831 44.8521 37.6751C44.3221 38.3671 39.5991 41.2411 39.1211 40.4931C38.6411 39.7451 35.8311 33.9521 35.3521 34.3071C34.8741 34.6621 38.3251 40.7051 38.9091 41.0771C39.4911 41.4501 41.2441 41.1311 42.0921 40.7591C42.9421 40.3871 40.3411 44.9071 39.2281 45.4391C38.1141 45.9701 37.2121 47.6191 37.6881 48.3631C38.1661 49.1071 38.2191 51.9261 37.2121 52.2991C36.2021 52.6701 35.8311 53.2551 36.1491 53.9471C36.4661 54.6371 35.4071 55.8061 34.9291 56.5511C34.4501 57.2951 32.5941 58.8371 32.4341 59.2631C32.2761 59.6891 29.9941 59.5821 29.0901 59.5821C28.1891 59.5821 28.8781 58.4651 28.7711 57.5091C28.6671 56.5511 27.8711 55.6471 27.8711 55.1691C27.8711 54.6901 27.6041 53.5731 27.2341 53.0421C26.8631 52.5091 26.7551 51.4991 27.1271 50.9151C27.5001 50.3291 27.7641 48.6291 27.0231 47.8841C26.2791 47.1401 25.4291 45.8631 26.0141 44.8531C26.5981 43.8431 25.3771 43.9501 24.3691 43.4701C23.3601 42.9911 21.2901 43.6301 20.2291 43.7901C19.1671 43.9491 18.1071 43.5241 17.7881 42.9911C17.4701 42.4601 16.7801 41.1311 16.0731 40.8111C15.3681 40.4931 15.7721 39.1101 16.1961 38.5791C16.6221 38.0481 15.7721 37.0371 16.1961 36.6101C16.6221 36.1851 16.8861 34.6441 17.7351 34.3071C18.5851 33.9711 18.4251 33.7401 18.4511 32.9421C18.4771 32.1441 19.4061 32.1441 19.5641 31.7191C19.7241 31.2931 20.2011 31.0811 21.1591 31.0811C22.1141 31.0811 23.7311 30.5221 24.5011 30.3361C25.2711 30.1501 26.5981 29.8841 26.4911 30.6291C26.3851 31.3731 26.4121 32.2231 26.9151 32.2231C27.4201 32.2231 28.1101 32.5161 28.9061 33.0121C29.7021 33.5071 29.7281 33.1021 29.8351 32.5431C29.9421 31.9841 31.0551 32.1971 32.2071 32.7291C33.3591 33.2611 34.9301 32.8881 35.4321 32.8361C35.9371 32.7811 36.1501 31.2671 36.0171 30.7621C35.8831 30.2571 35.0881 31.0011 34.5841 30.6821C34.0801 30.3641 33.3891 30.7621 32.8861 30.3091C32.3811 29.8581 32.3011 28.7941 32.8861 28.7681C33.4691 28.7411 33.7621 28.5551 34.1061 28.1571C34.4521 27.7581 35.7521 27.5191 36.2561 27.9171C36.7591 28.3161 37.5041 28.5821 37.9531 28.1301C38.4041 27.6791 37.0531 26.8021 36.7591 26.5621C36.4671 26.3231 36.7061 25.5521 36.4151 25.5521C36.1221 25.5521 35.8831 25.6841 36.0431 26.0571C36.2021 26.4291 35.1941 27.0931 35.0331 26.7221C34.8751 26.3491 34.6101 25.6321 34.2121 25.6321C33.8141 25.6321 33.2841 27.4401 33.2571 27.7321C33.2301 28.0241 32.5401 28.5031 31.9841 28.5031C31.4281 28.5031 31.4281 29.1421 31.7191 29.4351C32.0111 29.7271 31.7981 30.8971 31.2681 30.9641C30.7371 31.0321 30.5511 30.8441 30.4721 30.3911C30.3931 29.9401 29.8621 29.9931 29.8351 29.0621C29.8081 28.1311 29.2241 27.6801 28.8531 27.2541C28.4821 26.8281 27.5261 25.5791 27.1551 26.1381C26.7841 26.6971 28.4821 27.8931 28.9321 28.2111C29.3851 28.5301 29.3051 29.2211 29.0661 29.3811C28.8271 29.5411 28.3761 30.8441 28.1111 30.9491C27.8441 31.0551 27.5911 30.5531 27.5911 30.5531C27.1931 30.3941 28.1471 29.9151 28.3071 29.6761C28.4651 29.4371 26.6361 27.7621 26.3061 27.2831C25.9761 26.8041 24.5661 27.6811 23.9301 27.3631C23.2931 27.0451 22.3371 28.5591 22.2591 29.4361C22.1781 30.3141 21.1431 30.5521 20.1881 30.5521C19.2341 30.5521 18.5961 29.8351 18.9161 29.1171C19.2341 28.3991 18.7561 27.2031 19.3141 27.1231C19.8711 27.0441 21.4611 27.1231 21.7801 26.2461C22.0981 25.3691 20.2671 24.5711 20.9851 24.4121C21.7001 24.2521 22.8161 23.1371 23.6121 22.4981C24.4061 21.8601 24.4861 21.0631 25.2021 21.0071C25.9201 20.9521 25.0441 19.6261 25.6811 19.2281C26.3191 18.8291 26.4771 20.6641 26.9551 20.6641C27.4331 20.6641 28.3861 20.5041 29.1831 20.9031C29.9801 21.3021 30.2181 20.5041 30.5371 19.4661C30.8551 18.4301 31.6511 17.8711 33.2421 17.0741C34.8341 16.2761 31.4131 17.3131 30.7751 16.5151C30.1381 15.7171 31.0141 13.9621 31.4131 12.7231C31.8111 11.4831 30.1391 13.9621 29.2631 15.2391C28.3861 16.5151 29.5021 17.0731 29.4211 17.9501C29.3421 18.8281 27.9111 19.8641 27.9111 19.8641C27.2741 19.9441 27.3531 18.6681 27.0351 18.1101C26.7161 17.5521 26.1581 17.7911 25.2821 18.4291C24.4061 19.0671 24.3271 16.9141 24.0891 16.0361C23.8521 15.1601 25.5221 14.0421 26.3071 13.4461C27.0911 12.8481 28.3861 9.97505 29.8201 7.74305C31.2541 5.51105 33.3231 6.62605 33.8801 7.50405C34.4391 8.38005 35.8691 7.82205 37.2241 9.41805C38.5791 11.0141 36.9051 11.7301 35.3951 11.0821C33.8801 10.4341 35.7121 12.6881 36.5861 13.3261C37.4621 13.9631 37.9401 11.8901 38.2591 11.4121C38.5771 10.9331 39.7701 11.1731 40.6451 9.89605C41.5221 8.62005 43.5111 8.86005 44.6471 9.00005C45.7841 9.14105 45.5011 8.30105 44.7851 7.61405C44.2551 7.10605 45.3391 7.55105 46.6151 8.17405C54.8481 13.0471 60.3721 22.0161 60.3721 32.2791ZM20.4141 22.7511C20.1501 22.4781 20.6811 21.4031 20.9191 21.0841C21.1591 20.7651 20.2551 20.8711 20.3101 21.3241C20.3631 21.7751 19.9641 22.4671 19.4071 22.6531C18.8501 22.8391 18.2151 22.7851 18.5321 22.2801C18.8491 21.7751 18.5581 21.3231 18.3191 20.8441C18.0811 20.3651 19.6451 20.0731 19.9651 19.7811C20.2831 19.4891 19.4621 19.3021 19.4871 18.8511C19.5141 18.3981 19.7001 18.0001 20.0161 17.9471C20.3351 17.8941 20.6331 17.6901 20.9191 17.7081C21.7961 17.7621 21.5281 19.7551 21.8481 20.3941C22.1661 21.0311 23.0691 21.8031 22.9891 22.3601C22.9091 22.9191 22.7391 23.2381 22.0891 23.0781C21.4361 22.9181 20.3911 23.9021 19.9911 23.7161C19.5921 23.5291 20.6811 23.0241 20.4141 22.7511ZM14.6961 11.5701C15.4931 11.9681 16.1281 11.2461 16.6841 11.0911C17.3431 10.9091 17.7191 13.2451 17.0831 13.1651C16.4461 13.0851 15.7301 14.4411 14.8101 14.3611C13.8901 14.2811 14.2971 13.6441 13.2621 12.6871C13.0401 12.4811 12.9491 12.2951 12.9411 12.1321C13.1621 11.9191 13.3821 11.7051 13.6111 11.5001C13.9691 11.4051 14.3941 11.4191 14.6961 11.5701ZM39.5981 51.7111C40.3411 51.5521 40.1981 50.1381 40.8721 50.0631C42.3051 49.9041 40.9251 53.8911 40.3951 55.0081C39.8641 56.1251 39.6501 56.0711 39.1451 55.3801C38.6381 54.6901 38.8021 53.5721 39.1451 53.0411C39.4871 52.5081 38.8541 51.8711 39.5981 51.7111Z" fill="#D6FF00"/>
</svg>
