<svg width="65" height="65" viewBox="0 0 65 65" fill="none" xmlns="http://www.w3.org/2000/svg">
<path d="M62.4017 39.366C62.6107 38.147 62.6827 36.692 62.4877 34.993L61.9057 29.942L61.5287 30.354C61.4547 29.3539 61.2825 28.3635 61.0147 27.397C62.0697 21.213 61.9657 13.172 60.6707 3.34202L60.5057 2.09302L59.2677 2.25702C52.1197 3.21602 45.3767 6.28202 40.2777 9.76902C37.9647 9.26902 35.4727 9.00302 32.7907 9.00302C30.1067 9.00302 27.6167 9.26902 25.3047 9.76902C20.2047 6.28302 13.4617 3.21602 6.31271 2.25702L5.07471 2.09302L4.90971 3.34302C3.61471 13.173 3.51171 21.214 4.56571 27.398C4.29851 28.3646 4.12636 29.355 4.05171 30.355L3.67571 29.943L3.09371 34.993C2.89771 36.692 2.96971 38.147 3.17871 39.366L2.79071 39.282V42.173C2.79071 47.622 6.66871 52.814 13.7107 56.788C19.5077 60.06 26.8187 62.093 32.7907 62.093C38.7627 62.093 46.0737 60.06 51.8707 56.788C58.9117 52.814 62.7907 47.622 62.7907 42.173V39.282L62.4017 39.366ZM58.3547 4.95002C59.1617 11.526 59.3977 17.311 59.0847 22.175C59.0577 21.486 58.9367 20.798 58.6727 20.155L59.0957 20.093L57.4137 17.187C57.7517 15.216 58.0057 11.789 56.8827 7.71402C52.9877 9.33302 49.9827 12.153 48.8557 13.306C47.2427 12.216 45.4557 11.335 43.5097 10.658C47.7247 8.07702 52.8847 5.88402 58.3547 4.95002ZM7.22671 4.95002C12.6977 5.88402 17.8567 8.07702 22.0727 10.657C20.1277 11.335 18.3407 12.216 16.7257 13.305C15.5997 12.153 12.5927 9.33202 8.69971 7.71302C7.57571 11.787 7.82971 15.213 8.16771 17.186L6.48471 20.093L6.90671 20.156C6.64271 20.799 6.52271 21.486 6.49471 22.176C6.18371 17.312 6.41871 11.527 7.22671 4.95002ZM32.7907 59.749C21.8237 59.749 5.09771 52.251 5.09771 42.173L6.94571 42.571C6.94571 42.571 4.80771 40.262 5.38371 35.266L7.17971 37.235C7.17971 37.235 5.38371 32.165 6.94571 27.487L8.93471 28.975C8.93471 28.975 8.33071 27.071 8.88571 25.768L9.74471 26.452C9.74471 26.452 7.70871 21.962 9.60171 20.241C10.3687 22.813 11.2747 22.852 11.3267 22.852H11.3297C11.3297 22.852 10.1837 20.868 11.0757 20.036C11.4407 20.634 11.7807 20.837 12.0547 20.837C12.4657 20.837 12.7297 20.38 12.7077 20.11C12.6587 19.514 12.8877 18.672 10.2117 18.276C10.5807 17.639 11.4047 17.45 12.2607 17.45C13.5357 17.45 14.8797 17.874 14.8797 17.874C14.8797 17.874 14.7937 16.532 13.0257 16.532L12.9187 16.534C13.4747 15.7 14.2887 15.456 15.0487 15.456C16.1047 15.456 17.0547 15.925 17.0547 15.925L17.0487 15.943C17.7653 15.4014 18.5184 14.9099 19.3027 14.472C19.9237 15.89 20.7607 16.536 21.7847 18.431C23.2517 15.726 24.3237 14.154 24.9237 12.257C25.8375 12.0262 26.7623 11.8416 27.6947 11.704C28.4697 15.194 30.2497 17.895 32.7887 22.581C35.3647 17.825 37.1207 15.165 37.8817 11.702C38.8527 11.843 39.7687 12.034 40.6547 12.257C41.2597 14.175 42.3427 15.761 43.7877 18.431C44.8247 16.517 45.6607 15.876 46.2757 14.472C47.0609 14.9085 47.8141 15.4 48.5297 15.943L48.5237 15.925C48.5237 15.925 49.4747 15.456 50.5297 15.456C51.2897 15.456 52.1037 15.7 52.6607 16.534L52.5537 16.532C50.7857 16.532 50.6997 17.874 50.6997 17.874C50.6997 17.874 52.0437 17.448 53.3187 17.45C54.1727 17.45 54.9987 17.639 55.3657 18.276C52.6917 18.672 52.9207 19.514 52.8717 20.11C52.8507 20.38 53.1137 20.837 53.5237 20.837C53.7967 20.837 54.1367 20.634 54.5027 20.036C55.3957 20.868 54.2487 22.852 54.2487 22.852H54.2527C54.3037 22.852 55.2097 22.813 55.9757 20.241C57.8707 21.962 55.8347 26.452 55.8347 26.452L56.6937 25.768C57.2487 27.071 56.6447 28.975 56.6447 28.975L58.6327 27.487C60.1937 32.165 58.3987 37.235 58.3987 37.235L60.1937 35.266C60.7717 40.262 58.6327 42.571 58.6327 42.571L60.4807 42.173C60.4817 52.251 43.7557 59.749 32.7907 59.749Z" fill="white"/>
<path d="M32.7897 41.093C33.5337 41.093 34.4587 40.806 35.4277 39.898C36.9627 38.457 37.4097 36.785 36.8317 36.113C36.0207 35.167 33.5337 35.093 32.7897 35.093C32.0477 35.093 29.5577 35.167 28.7467 36.113C28.1707 36.785 28.6157 38.457 30.1527 39.898C31.1217 40.806 32.0467 41.093 32.7897 41.093ZM26.5137 33.947C26.9927 34.451 27.9517 33.525 27.7677 33.009C25.9087 27.898 23.1077 25.341 20.3067 25.341C17.5057 25.341 14.7047 27.899 12.8477 33.009C12.6617 33.525 13.6207 34.45 14.1017 33.947C15.9027 32.047 18.0587 31.289 20.3077 31.289C22.5567 31.289 24.7127 32.047 26.5137 33.947ZM45.2747 25.342C42.4717 25.342 39.6707 27.9 37.8137 33.01C37.6277 33.526 38.5867 34.451 39.0677 33.948C40.8707 32.048 43.0247 31.29 45.2747 31.29C47.5247 31.29 49.6767 32.048 51.4817 33.948C51.9587 34.452 52.9177 33.526 52.7357 33.01C50.8767 27.899 48.0757 25.342 45.2747 25.342ZM47.9687 43.437C44.5037 42.775 39.3867 42.093 32.7897 42.093C26.1927 42.093 21.0747 42.775 17.6127 43.437C16.2627 43.695 15.7907 44.7 15.7907 45.503C15.7907 55.093 18.4887 58.093 29.5527 58.093H36.0287C47.0917 58.093 49.7907 55.093 49.7907 45.503C49.7907 44.7 49.3157 43.695 47.9687 43.437ZM32.7907 56.093C27.8627 56.093 20.8387 56.093 21.0267 54.04C21.0597 53.673 21.1437 53.237 21.2507 52.764C21.3717 52.238 21.4667 52.093 22.3147 52.093H43.2657C44.1157 52.093 44.2107 52.238 44.3297 52.764C44.4387 53.238 44.5187 53.673 44.5527 54.04C44.7417 56.093 37.7167 56.093 32.7907 56.093ZM45.8747 46.262L45.0157 49.171C44.8647 49.678 44.4277 50.093 44.0387 50.093H21.5417C21.1557 50.093 20.7167 49.678 20.5657 49.171L19.7047 46.262C19.5537 45.755 19.7457 45.279 20.1287 45.204C20.1287 45.204 25.8397 44.093 32.7907 44.093C39.7377 44.093 45.4507 45.204 45.4507 45.204C45.8337 45.281 46.0247 45.755 45.8747 46.262Z" fill="white"/>
</svg>
