<svg width="65" height="65" viewBox="0 0 65 65" fill="none" xmlns="http://www.w3.org/2000/svg">
<path d="M32.186 2.69768C15.616 2.69768 2.18604 16.1277 2.18604 32.6977C2.18604 49.2677 15.616 62.6977 32.186 62.6977C48.756 62.6977 62.186 49.2677 62.186 32.6977C62.186 16.1277 48.756 2.69768 32.186 2.69768ZM32.186 60.1977C17.022 60.1977 4.68604 47.8617 4.68604 32.6977C4.68604 17.5337 17.022 5.19768 32.186 5.19768C47.35 5.19768 59.686 17.5337 59.686 32.6977C59.686 47.8617 47.35 60.1977 32.186 60.1977Z" fill="white"/>
<path d="M52.435 28.3577C50.683 26.2577 47.455 24.1957 43.433 23.5287C46.142 22.0287 48.996 21.5707 51.689 21.1677C51.8094 21.1465 51.9201 21.0881 52.0055 21.0008C52.0909 20.9134 52.1468 20.8014 52.1652 20.6806C52.1837 20.5598 52.1637 20.4363 52.1083 20.3274C52.0528 20.2185 51.9646 20.1298 51.856 20.0737C46.158 16.6767 36.892 19.3947 35.246 26.5987C35.143 27.0447 35.561 27.3267 36.047 27.2767C42.215 26.6427 47.121 27.5807 51.894 29.3127C52.336 29.4737 52.831 28.8317 52.435 28.3577ZM28.326 27.2767C28.812 27.3267 29.229 27.0457 29.127 26.5987C27.481 19.3947 18.215 16.6757 12.517 20.0737C12.4085 20.1298 12.3202 20.2185 12.2648 20.3274C12.2093 20.4363 12.1894 20.5598 12.2078 20.6806C12.2263 20.8014 12.2821 20.9134 12.3676 21.0008C12.453 21.0881 12.5637 21.1465 12.684 21.1677C15.377 21.5707 18.232 22.0287 20.94 23.5287C16.919 24.1957 13.69 26.2577 11.938 28.3577C11.542 28.8317 12.038 29.4737 12.48 29.3127C17.251 27.5807 22.158 26.6427 28.326 27.2767ZM47.969 34.7037H16.402C15.617 34.7037 14.896 34.6137 14.49 35.1337C10.58 40.1197 15.18 54.6977 32.186 54.6977C49.193 54.6977 53.792 40.1197 49.882 35.1337C49.476 34.6137 48.755 34.7037 47.969 34.7037ZM32.187 52.8797C29.274 52.8797 26.704 52.3187 24.473 51.3627C26.626 50.3307 29.185 49.6997 32.187 49.6997C35.189 49.6997 37.75 50.3307 39.899 51.3627C37.67 52.3187 35.1 52.8797 32.187 52.8797ZM47.192 40.6977H17.18C15.18 40.6977 15.18 36.6977 17.233 36.6977H47.139C49.193 36.6977 49.193 40.6977 47.192 40.6977Z" fill="white"/>
</svg>
