<svg width="65" height="65" viewBox="0 0 65 65" fill="none" xmlns="http://www.w3.org/2000/svg">
<path d="M32.9767 5.8837C16.4077 5.8837 2.97675 19.3527 2.97675 35.9697C2.97675 44.5167 6.53875 52.2257 12.2437 57.7037C12.2437 57.7037 16.3107 58.7527 17.6727 58.1187C19.2047 59.2507 20.6827 59.8837 21.9727 59.8837C22.5787 59.8837 23.1307 59.7457 23.6137 59.4757C24.5277 58.9607 25.3027 58.4627 25.5367 57.5657C25.5781 57.4044 25.5997 57.2407 25.6017 57.0747C26.0287 57.0017 26.4997 56.7747 27.0917 56.4417C30.1637 54.7127 31.3487 53.1377 24.7167 41.2767C18.0847 29.4177 16.1267 29.6107 13.0527 31.3387C12.4637 31.6697 12.0377 31.9587 11.7527 32.2837C11.4393 32.0913 11.0775 31.9924 10.7097 31.9987C10.0857 31.9987 9.48575 32.2677 8.65875 32.7317C7.52875 33.3667 6.86975 34.6787 6.70575 36.5017C6.69475 36.3247 6.68075 36.1487 6.68075 35.9697C6.6724 29.2055 9.26863 22.6977 13.9307 17.7967C14.5877 18.1597 15.2927 18.4337 15.8357 18.3307C19.3037 17.6747 23.8337 12.6917 32.9767 12.6917C42.1217 12.6917 46.6497 17.6737 50.1177 18.3307C50.6617 18.4337 51.3677 18.1607 52.0237 17.7967C56.688 22.6964 59.2849 29.2049 59.2747 35.9697C59.2747 36.1517 59.2597 36.3267 59.2497 36.5047C59.0867 34.6817 58.4267 33.3677 57.2967 32.7327C56.4697 32.2677 55.8697 31.9997 55.2447 31.9997C54.877 31.9934 54.5152 32.0923 54.2017 32.2847C53.9167 31.9597 53.4907 31.6707 52.9007 31.3397C49.8267 29.6107 47.8687 29.4177 41.2367 41.2777C34.6047 53.1377 35.7897 54.7137 38.8637 56.4427C39.4547 56.7747 39.9267 57.0017 40.3517 57.0757C40.3544 57.2424 40.3764 57.406 40.4177 57.5667C40.6507 58.4637 41.4257 58.9627 42.3397 59.4767C42.8421 59.7526 43.4077 59.8928 43.9807 59.8837C45.2717 59.8837 46.7507 59.2507 48.2827 58.1197C49.6447 58.7527 53.7107 57.7037 53.7107 57.7037C59.4167 52.2257 62.9767 44.5167 62.9767 35.9697C62.9767 19.3527 49.5457 5.8837 32.9767 5.8837ZM9.57675 34.3717C9.84075 34.2247 10.4547 33.8787 10.7107 33.8787C11.1007 33.8787 12.0557 35.7477 13.1627 37.9117C14.4578 40.4696 15.8044 43.0011 17.2017 45.5047C18.602 48.004 20.0529 50.4745 21.5537 52.9147C22.8277 55.0077 23.8347 56.6597 23.7227 57.0907C23.6887 57.2197 23.3437 57.4717 22.6977 57.8347C22.4746 57.9504 22.226 58.0082 21.9747 58.0027C21.0377 58.0027 19.7717 57.4187 18.3617 56.2897C18.7537 51.4537 13.3197 47.7577 9.72975 43.2687C9.15775 41.6687 8.77675 40.1477 8.61675 38.7787C8.35475 36.5407 8.72375 34.8527 9.57675 34.3717ZM57.3387 38.7787C57.1787 40.1477 56.7967 41.6717 56.2257 43.2707C52.6347 47.7587 47.2027 51.4567 47.5927 56.2907C46.1827 57.4197 44.9167 58.0037 43.9807 58.0037C43.6987 58.0037 43.4574 57.9477 43.2567 57.8357C42.6107 57.4727 42.2657 57.2217 42.2317 57.0917C42.1207 56.6617 43.1267 55.0117 44.3997 52.9207C45.9011 50.4787 47.3527 48.0065 48.7537 45.5057C50.5867 42.2287 51.8597 39.7357 52.7897 37.9177C53.8967 35.7507 54.8527 33.8797 55.2437 33.8797C55.5007 33.8797 56.1147 34.2257 56.3777 34.3727C57.2317 34.8527 57.5997 36.5397 57.3387 38.7787Z" fill="white"/>
</svg>
