<svg width="66" height="67" viewBox="0 0 66 67" fill="none" xmlns="http://www.w3.org/2000/svg">
<path d="M53.521 35.2684C53.4291 35.2959 53.287 35.3205 53.1317 35.3419C53.332 34.08 53.4485 33.0664 53.5057 32.4339C53.5425 32.1866 53.5629 31.9393 53.568 31.642C53.568 27.4832 48.8238 23.912 41.567 21.9124C42.2087 20.1876 42.271 18.0285 40.2468 15.9563C37.4644 13.1106 39.3159 8.96512 39.3159 8.96512C39.3159 8.96512 33.4712 14.445 37.163 18.2237C38.3146 19.4028 38.992 20.4573 39.3813 21.3749C36.8524 20.8242 34.0782 20.4532 31.1344 20.2949C31.8721 17.9846 31.8149 15.1603 29.2461 12.4484C25.5359 8.53494 28.0036 2.8343 28.0036 2.8343C28.0036 2.8343 20.2123 10.3691 25.1323 15.5639C26.7968 17.3204 27.7195 18.8766 28.213 20.208L27.8983 20.2049C25.0444 20.2049 22.3152 20.4052 19.7709 20.772C20.0284 19.2833 19.7331 17.5922 18.135 15.9573C15.3526 13.1116 17.2031 8.96512 17.2031 8.96512C17.2031 8.96512 11.3594 14.445 15.0502 18.2237C16.1343 19.3323 16.8036 20.3337 17.2021 21.2124C8.29503 22.9904 2.22859 26.9529 2.22961 31.691C2.23166 31.9373 2.25414 32.1805 2.28173 32.3767C2.5474 35.2632 3.86041 45.3351 9.63666 53.811C10.9752 55.779 12.9831 57.8022 15.5764 59.4493C16.1629 60.2831 17.0478 61.2211 18.4058 62.0876C19.7321 62.9296 22.8884 64.1424 27.8973 64.1424C32.9092 64.1424 36.0656 62.9285 37.3898 62.0866C38.7437 61.2221 39.6296 60.2862 40.2161 59.4524C41.9248 58.3745 43.4719 57.0596 44.8112 55.547C44.877 55.5371 44.9398 55.5127 44.9951 55.4755C50.1205 51.1727 63.5378 49.4755 63.5378 41.4349C63.5378 36.3566 60.1883 33.3065 53.521 35.2684ZM27.8983 60.9197C19.8026 60.9197 14.011 56.6465 11.2889 52.6492C5.7906 44.58 4.53787 34.9475 4.27833 32.1396C4.25492 31.9747 4.24161 31.8085 4.23848 31.642C4.23848 28.3089 9.38121 24.8112 17.715 23.1855C17.7896 24.5476 17.2031 25.314 17.2031 25.314C17.2031 25.314 18.2116 24.381 18.9862 22.9587C21.9324 22.4786 24.9132 22.2411 27.8983 22.2485C28.165 22.2485 28.4174 22.2618 28.679 22.2659C28.8179 24.2155 28.0036 25.314 28.0036 25.314C28.0036 25.314 29.2461 24.1266 30.2587 22.2986C33.8156 22.4386 37.0363 22.8892 39.833 23.5605C39.7952 24.6866 39.3159 25.314 39.3159 25.314C39.3159 25.314 39.9525 24.7172 40.6014 23.7618C47.4341 25.5531 51.5581 28.6696 51.5571 31.6706C51.5561 31.8249 51.5408 31.9771 51.5122 32.1866C51.2741 34.784 50.1511 43.4571 45.4427 51.1962C45.0262 51.78 44.6319 52.3791 44.2604 52.9925C41.4464 56.8876 35.7641 60.9197 27.8983 60.9197ZM60.7329 42.9901C58.957 45.7204 52.9703 47.0273 49.1579 48.5058C50.2238 46.2135 51.103 43.839 51.787 41.4053L52.2918 41.2857C52.2918 41.2857 52.5656 39.7111 53.8674 38.5279C55.536 37.0156 61.1662 37.3467 61.1662 41.0344C61.1662 41.7404 61.0067 42.3893 60.7329 42.9901Z" fill="white"/>
<path d="M49.8651 33.1745C47.75 28.7899 38.7224 25.4946 27.8984 25.4946C17.0755 25.4946 8.04791 28.7899 5.92767 33.1745C8.04791 37.56 17.0755 40.8564 27.8984 40.8564C38.7224 40.8564 47.75 37.559 49.8651 33.1745ZM39.9761 35.3243C39.9761 35.3243 31.7833 39.713 20.1235 39.713C20.1235 39.713 23.0592 38.3662 20.1235 37.1769C15.4672 35.4705 10.8282 33.0989 12.835 30.5822C16.0394 26.5747 26.5282 28.1952 27.8964 30.3686C28.8916 28.3291 39.6471 26.497 42.9598 30.5801C44.3137 32.2508 42.64 33.8969 39.9761 35.3243Z" fill="white"/>
<path d="M27.5722 31.6943C26.7936 29.9542 19.9782 28.5574 17.6373 31.7106C16.173 33.6868 19.0933 35.617 22.0617 37.0199C23.9275 37.9957 21.9145 39.0339 21.9145 39.0339C29.5934 39.1534 35.2439 35.7529 35.2439 35.7529H35.2419C37.0791 34.6493 38.2766 33.3598 37.4796 32.0182C35.5331 28.7423 28.3427 30.085 27.5722 31.6943ZM32.6782 35.7038C32.6782 35.7038 28.8965 37.9814 23.7579 37.9007C23.7579 37.9007 25.1036 37.2038 23.857 36.554C21.8696 35.6139 19.9138 34.3203 20.8968 32.9971C22.4612 30.8891 27.0256 31.8241 27.5436 32.9889C28.0617 31.9109 32.8723 31.0107 34.1762 33.2045C34.7095 34.1027 33.9084 34.9651 32.6782 35.7038Z" fill="white"/>
</svg>
