<svg width="66" height="66" viewBox="0 0 66 66" fill="none" xmlns="http://www.w3.org/2000/svg">
<path d="M32.6967 2.04361C15.7685 2.04361 2.04361 15.7685 2.04361 32.6977C2.04361 49.6269 15.7685 63.3517 32.6967 63.3517C49.6259 63.3517 63.3517 49.6269 63.3517 32.6977C63.3517 15.7685 49.6259 2.04361 32.6967 2.04361ZM32.6967 60.7972C17.2031 60.7972 4.59811 48.1923 4.59811 32.6977C4.59811 17.2031 17.2031 4.59812 32.6967 4.59812C48.1913 4.59812 60.7972 17.2031 60.7972 32.6977C60.7972 48.1923 48.1913 60.7972 32.6967 60.7972Z" fill="white"/>
<path d="M20.814 20.7834C17.9959 21.2799 15.6314 24.3515 14.6679 29.8243C14.5749 30.375 15.704 31.1393 16.0964 30.5467C17.5718 28.313 19.6073 27.1696 21.8695 26.7711C24.1338 26.3716 26.437 26.7507 28.5869 28.3437C29.1591 28.7667 29.9581 27.6631 29.6812 27.1757C26.904 22.362 23.6332 20.2868 20.814 20.7834ZM42.8206 16.9036C40.0014 17.4002 37.637 20.4697 36.6724 25.9445C36.5794 26.4952 37.7095 27.2595 38.1009 26.6648C39.5774 24.4312 41.6118 23.2878 43.874 22.8893C46.1394 22.4898 48.4405 22.8688 50.5914 24.4639C51.1636 24.8869 51.9637 23.7813 51.6867 23.296C48.9105 18.4823 45.6387 16.407 42.8206 16.9036ZM43.7014 40.8424C43.1854 37.919 46.3826 35.9786 44.4994 34.6114C42.2453 32.9724 38.3553 35.1979 35.3093 32.9847C35.6915 35.1478 37.9241 37.1915 41.3195 36.5927C41.3195 36.5927 39.1758 37.9302 39.8103 41.528C40.4449 45.1257 42.9166 45.6489 42.9166 45.6489C39.5212 46.2477 38.1213 48.932 38.5035 51.0972C40.6094 47.9735 45.0256 48.7337 46.5818 46.4234C47.8826 44.4963 44.2164 43.7657 43.7014 40.8424Z" fill="white"/>
</svg>
