<svg width="67" height="66" viewBox="0 0 67 66" fill="none" xmlns="http://www.w3.org/2000/svg">
<path d="M42.3634 23.9222C41.0023 23.9222 39.907 25.2894 39.907 26.9856C39.907 28.6859 41.0023 30.0531 42.3634 30.0531C43.7162 30.0531 44.8116 28.6859 44.8116 26.9856C44.8116 25.2894 43.7162 23.9222 42.3634 23.9222ZM24.9856 23.9222C23.6337 23.9222 22.5363 25.2884 22.5363 26.9856C22.5363 28.6859 23.6337 30.0531 24.9856 30.0531C26.3456 30.0531 27.441 28.6859 27.441 26.9856C27.441 25.2884 26.3456 23.9222 24.9856 23.9222Z" fill="white"/>
<path d="M64.3285 15.5109C62.8877 15.4465 61.9834 14.8712 61.2416 13.9874C61.0955 10.9996 60.0349 8.1171 58.494 6.8654C57.6285 6.1624 56.4085 5.80681 54.8676 5.80681C54.744 5.80681 54.6162 5.81601 54.4906 5.82009C50.153 3.49652 45.6213 5.71996 45.6213 5.71996C45.9176 4.1331 45.1717 3.28296 45.7327 2.43895C37.3222 2.43895 33.6785 5.97643 33.6744 5.97949C33.6724 5.97643 30.0286 2.43895 21.6181 2.43895C22.1791 3.28296 21.4322 4.1331 21.7295 5.71996C21.7295 5.71996 17.1978 3.49549 12.8603 5.82009C12.7346 5.81601 12.6059 5.80681 12.4812 5.80681C10.9413 5.80681 9.7213 6.16342 8.85584 6.8654C7.31394 8.1171 6.25331 10.9996 6.10719 13.9874C5.36638 14.8712 4.46107 15.4465 3.02032 15.5109C3.02032 15.5109 3.14703 19.4233 7.09834 22.033C7.09834 22.033 2.95391 25.9843 3.64975 34.3805C3.64975 34.3805 5.32142 32.341 9.23084 31.5726C4.6266 35.435 7.31189 41.152 3.90316 45.0992C3.90316 45.0992 8.59323 46.1292 10.4948 44.7548C9.74991 50.807 13.4304 53.1673 13.4304 56.1295C17.6066 54.7562 18.191 50.6353 18.191 50.6353C18.191 58.2661 20.8314 57.9954 20.8314 62.0519C20.8314 62.0519 25.4632 61.3224 27.3658 57.5029C28.1219 61.1047 31.7084 61.494 33.6744 63.7471H33.6764C35.6424 61.494 39.2289 61.1047 39.985 57.5029C41.8866 61.3224 46.5195 62.0519 46.5195 62.0519C46.5195 57.9954 49.1598 58.2661 49.1598 50.6353C49.1598 50.6353 49.7443 54.7562 53.9194 56.1295C53.9194 53.1684 57.5999 50.807 56.855 44.7548C58.7566 46.1292 63.4466 45.0992 63.4466 45.0992C60.0379 41.152 62.7242 35.435 58.12 31.5726C62.0294 32.341 63.7001 34.3805 63.7001 34.3805C64.3969 25.9843 60.2515 22.033 60.2515 22.033C64.2028 19.4233 64.3285 15.5109 64.3285 15.5109ZM11.7148 11.9519C10.3334 13.0769 9.51286 17.8007 12.3535 19.8351C12.009 20.4565 11.6842 21.0887 11.3797 21.7306C9.14909 20.2101 8.41442 17.8161 8.20495 15.9748C7.83301 12.7183 8.90795 9.45669 10.1454 8.45226C10.6297 8.05886 11.4379 7.85041 12.4822 7.85041C15.2503 7.85041 18.8051 9.28503 20.9662 11.158C19.8627 11.6709 18.8205 12.3382 17.8293 13.127C15.9359 11.7047 12.9022 10.9894 11.7148 11.9519ZM37.6032 54.6571C37.6983 53.339 37.3365 52.2579 37.3365 52.2579C37.0136 54.2178 36.139 55.6186 36.139 55.6186C36.1768 53.9378 35.3205 53.2174 35.3205 53.2174C34.5225 55.496 33.6877 56.3809 33.6877 56.3809C33.6877 56.3809 32.8549 55.4971 32.0559 53.2174C32.0559 53.2174 31.2006 53.9378 31.2384 55.6186C31.2384 55.6186 30.3638 54.2178 30.0409 52.2579C30.0409 52.2579 29.6791 53.339 29.7732 54.6571C29.7732 54.6571 23.1396 50.3686 22.0994 44.573C24.2289 46.965 28.9056 50.8387 33.6764 45.8226C38.4666 50.8581 43.1618 46.9344 45.279 44.5454C44.2582 50.3553 37.6032 54.6571 37.6032 54.6571ZM31.9659 35.8866C31.451 35.1918 30.9186 34.4745 30.3086 34.0249C29.9928 33.7909 29.721 33.5957 29.4809 33.4282C30.4363 33.0317 32.3828 32.3522 33.6867 32.3522C34.9884 32.3522 37.03 32.951 38.0641 33.2953C37.781 33.4905 37.4489 33.7255 37.0443 34.0249C36.4333 34.4755 35.907 35.1959 35.3982 35.8928C34.8249 36.6755 34.1771 37.5624 33.6918 37.5624H33.6897C33.2054 37.5593 32.5463 36.6703 31.9659 35.8866ZM45.9319 43.2344L45.9105 43.3029L45.8706 43.3632C45.8492 43.3959 45.7071 43.6002 45.4701 43.8894C43.4857 45.326 38.7752 47.8407 34.6962 44.0324V38.0355L38.5995 36.3853C39.1942 36.1114 39.6816 35.3676 39.6816 34.7361L39.6775 32.9704C39.6775 32.9704 37.5726 31.3314 33.6877 31.3314C29.8028 31.3314 27.6856 32.9704 27.6856 32.9704L27.6754 34.7351C27.6754 35.3665 28.1638 36.1114 28.7575 36.3842L32.6526 38.0314V44.0386C28.6073 47.808 23.9448 45.3638 21.9359 43.9231C21.7852 43.7427 21.6424 43.5559 21.5078 43.3632L21.4679 43.3029L21.4465 43.2344C21.2595 42.652 21.0398 41.4953 21.2084 40.3631C21.3739 39.2637 21.9012 38.2327 22.1771 37.7402C22.5316 37.1067 27.6733 32.9796 27.6856 32.9704C29.3481 30.0409 29.5524 29.7538 30.985 29.1274C31.5889 28.8648 32.6342 28.733 33.6805 28.733C34.7269 28.733 35.7701 28.8648 36.375 29.1274C37.8066 29.7527 38.016 30.0399 39.6795 32.9694C39.6795 32.9694 44.8488 37.1056 45.2034 37.7402C45.4793 38.2327 46.0075 39.2657 46.171 40.3631C46.3396 41.4953 46.1189 42.651 45.9319 43.2344ZM50.9755 29.672C50.5035 31.8914 47.3512 34.121 46.1271 37.3212C46.1148 37.2977 46.1056 37.263 46.0944 37.2405C45.7971 36.7102 43.9016 35.0365 40.4551 32.2643C38.856 29.4534 38.5004 28.9414 36.7817 28.1914C35.7865 27.7572 34.2793 27.7112 33.6785 27.7112C33.0756 27.7112 31.5695 27.7572 30.5753 28.1904C28.8494 28.9445 28.4979 29.4564 26.8845 32.296C23.4635 35.0498 21.5803 36.7133 21.285 37.2415C21.2718 37.264 21.2636 37.3008 21.2513 37.3253C20.0211 34.124 16.8463 31.8934 16.3763 29.673C15.8961 27.4108 17.9611 22.2588 19.9056 21.1706C20.254 20.9775 21.4843 21.1706 21.4843 21.1706C21.8481 20.6843 23.8191 14.9979 28.9618 14.0599C32.015 13.502 33.6877 16.1117 33.6877 16.1117C33.6877 16.1117 35.3379 13.502 38.3921 14.0599C43.5327 14.9979 45.5048 20.6843 45.8696 21.1706C45.8696 21.1706 47.0988 20.9775 47.4483 21.1706C49.3907 22.2578 51.4558 27.4098 50.9755 29.672ZM59.1459 15.9758C58.9364 17.8171 58.2017 20.2101 55.9711 21.7306C55.6666 21.0887 55.3418 20.4565 54.9974 19.8351C57.839 17.8007 57.0175 13.0769 55.636 11.9519C54.4487 10.9904 51.4149 11.7057 49.5236 13.127C48.5314 12.3392 47.4902 11.6709 46.3866 11.158C48.5457 9.28503 52.1006 7.85041 54.8686 7.85041C55.9139 7.85041 56.7222 8.05886 57.2075 8.45226C58.4429 9.45669 59.5188 12.7203 59.1459 15.9758Z" fill="white"/>
</svg>
