<svg width="66" height="66" viewBox="0 0 66 66" fill="none" xmlns="http://www.w3.org/2000/svg">
<path d="M54.2239 38.7223C58.4572 33.0646 61.1742 25.2611 61.168 22.1078C61.1803 22.0057 61.1895 21.9065 61.1936 21.8227C61.3131 19.0833 54.934 28.7649 48.4047 33.9607C49.2947 30.8299 49.7903 27.0871 49.7903 22.6494C49.7903 -4.29653 16.3467 -4.29653 16.3467 22.6494C16.3467 27.0881 16.8423 30.8299 17.7333 33.9607C11.204 28.7659 4.82484 19.0833 4.94337 21.8227C4.94643 21.9065 4.95767 22.0067 4.96891 22.1078C4.96278 25.2611 7.68077 33.0646 11.9131 38.7223C6.07552 38.7683 1.22912 38.3484 2.66986 39.5336C2.74445 39.595 2.83641 39.6624 2.9345 39.7309C4.79929 41.3719 10.9158 44.0521 17.1784 45.1658C17.0497 45.3528 16.9189 45.5357 16.7922 45.7339C12.5251 52.3368 2.85787 55.2469 6.21245 56.424C7.14944 56.8307 8.53807 57.0494 10.174 57.0494C13.0585 57.0494 16.7053 56.3638 19.9751 54.8331C17.3542 59.5906 14.2796 62.983 16.8392 63.6431C17.064 63.7013 17.3184 63.7279 17.5953 63.732C17.7248 63.7422 17.8576 63.7473 17.9938 63.7473C22.5838 63.7473 30.4649 58.5882 33.0695 51.7799C35.6741 58.5882 43.5542 63.7473 48.1441 63.7473C48.2804 63.7473 48.4136 63.7422 48.5437 63.732C48.8196 63.7279 49.075 63.7013 49.2988 63.6431C51.8584 62.983 48.7838 59.5906 46.1629 54.8331C49.4326 56.3638 53.0795 57.0494 55.964 57.0494C57.5999 57.0494 58.9885 56.8307 59.9255 56.424C63.2801 55.2469 53.6128 52.3368 49.3458 45.7339C49.2181 45.5367 49.0883 45.3528 48.9585 45.1658C55.2211 44.0521 61.3377 41.3719 63.2024 39.7309C63.3016 39.6624 63.3935 39.5939 63.4671 39.5336C64.9078 38.3484 60.0614 38.7683 54.2239 38.7223ZM59.1776 26.851C57.9851 30.5367 55.7668 35.1603 52.9619 38.7039C51.676 38.681 50.3911 38.62 49.1087 38.521C52.8639 36.0708 56.4882 30.8851 59.1776 26.851ZM41.5474 28.8998C42.3604 28.8998 43.1401 29.2227 43.7149 29.7976C44.2898 30.3725 44.6128 31.1522 44.6128 31.9652C44.6128 32.7782 44.2898 33.5578 43.7149 34.1327C43.1401 34.7077 42.3604 35.0306 41.5474 35.0306C40.7344 35.0306 39.9547 34.7077 39.3798 34.1327C38.805 33.5578 38.482 32.7782 38.482 31.9652C38.482 31.1522 38.805 30.3725 39.3798 29.7976C39.9547 29.2227 40.7344 28.8998 41.5474 28.8998ZM29.5463 38.5875C30.1451 38.8398 31.2599 39.3099 33.0726 39.3099C34.8822 39.3099 35.9959 38.8398 36.5937 38.5875C36.8645 38.474 37.031 38.4035 37.1986 38.4035C37.4265 38.4035 37.6574 38.5476 37.6574 38.8184C37.6574 39.7727 35.4707 40.6403 33.0726 40.6403C30.6703 40.6403 28.4826 39.7717 28.4826 38.8184C28.4826 38.7135 28.5163 38.6236 28.5838 38.5486C28.6308 38.501 28.687 38.4634 28.749 38.4383C28.811 38.4131 28.8776 38.401 28.9445 38.4025C29.1121 38.4035 29.2755 38.474 29.5463 38.5875ZM25.829 28.8998C26.6421 28.8998 27.4217 29.2227 27.9966 29.7976C28.5714 30.3725 28.8944 31.1522 28.8944 31.9652C28.8944 32.7782 28.5714 33.5578 27.9966 34.1327C27.4217 34.7077 26.6421 35.0306 25.829 35.0306C25.0161 35.0306 24.2363 34.7077 23.6615 34.1327C23.0866 33.5578 22.7636 32.7782 22.7636 31.9652C22.7636 31.1522 23.0866 30.3725 23.6615 29.7976C24.2363 29.2227 25.0161 28.8998 25.829 28.8998ZM6.96143 26.851C9.64979 30.8851 13.2751 36.0708 17.0303 38.521C15.752 38.6232 14.4512 38.6774 13.177 38.7039C10.3722 35.1593 8.15285 30.5367 6.96143 26.851ZM8.15285 41.4516C11.1396 41.8807 14.5647 42.3109 17.7649 42.3109C18.4608 42.3109 19.1107 42.2864 19.7319 42.2455C19.0508 42.8534 18.4253 43.5209 17.863 44.2401C14.3787 43.6689 10.8749 42.5858 8.15285 41.4516ZM10.176 56.0276C9.40047 56.0276 8.68725 55.9755 8.06804 55.8774C8.5899 55.621 9.11551 55.3724 9.64468 55.1315C12.5527 53.7878 16.5357 51.9485 19.3508 48.8085C20.862 47.1236 22.4765 45.9107 24.0184 45.2537C23.3511 46.3429 22.7708 47.6703 22.3385 49.2561C21.9574 50.657 21.4097 52.0017 20.7905 53.2687C17.3072 55.2193 13.1464 56.0276 10.176 56.0276ZM47.4473 62.6805C43.356 62.187 36.3934 57.6073 34.0239 51.4152L33.0695 48.9199L32.1141 51.4141C29.7456 57.6073 22.782 62.186 18.6917 62.6795C19.1965 61.9213 20.3818 60.7207 21.3055 59.7847C23.3746 57.688 25.9506 55.0804 27.6815 51.8627C29.1029 49.2254 30.9462 47.3627 32.8743 46.6147L32.8907 46.6086C32.9346 46.6055 33.2044 46.6055 33.2483 46.6086L33.2647 46.6147C35.1928 47.3617 37.0361 49.2254 38.4575 51.8617C40.1884 55.0793 42.7644 57.688 44.8335 59.7847C45.7572 60.7217 46.9425 61.9224 47.4473 62.6805ZM56.4953 55.1304C57.0083 55.3665 57.5784 55.6301 58.072 55.8764C57.3744 55.9823 56.6696 56.0326 55.964 56.0266C52.9926 56.0266 48.8328 55.2183 45.3485 53.2677C44.7303 52.0007 44.1816 50.656 43.8005 49.2551C43.3682 47.6692 42.7889 46.3419 42.1206 45.2527C43.6635 45.9097 45.277 47.1216 46.7882 48.8075C49.6053 51.9475 53.5873 53.7868 56.4953 55.1304ZM48.276 44.239C47.714 43.5199 47.0888 42.8525 46.4081 42.2445C47.0283 42.2854 47.6792 42.3099 48.3751 42.3099C51.5754 42.3099 54.9994 41.8797 57.9872 41.4505C55.2651 42.5858 51.7603 43.6689 48.276 44.239Z" fill="white"/>
</svg>
