<svg width="66" height="66" viewBox="0 0 66 66" fill="none" xmlns="http://www.w3.org/2000/svg">
<path d="M56.225 40.3447H56.2352C56.087 36.9013 55.4934 25.1597 54.0639 18.6856C53.651 16.8085 51.9058 14.6474 49.6957 11.91C47.9198 9.70905 45.9068 7.21279 44.4048 4.5653C43.2031 2.45017 41.4313 1.59083 39.6687 2.27238C37.6987 3.03158 36.1006 5.68213 35.9769 9.29012C33.9711 7.06259 32.6612 7.01456 31.2807 7.91375C29.3291 9.18283 28.4677 13.0105 30.405 17.2193C31.3247 19.218 32.7828 20.3797 34.0672 21.4036C35.0328 22.173 35.8656 22.8372 36.2508 23.6791L36.6176 24.5211C35.6776 24.0633 34.7998 23.6475 34.0171 23.2766C32.1155 22.3763 30.7279 21.9768 29.514 21.9768C27.871 21.9768 26.6836 22.6992 25.1816 23.6158C23.2953 24.7633 20.7143 26.3338 15.5419 27.6397C14.0041 28.0269 12.9292 28.7963 12.4367 29.8651C11.9441 30.9329 12.0586 32.2051 12.7769 33.6489L12.7963 33.6867C8.21459 34.8219 10.2909 40.4418 9.53271 45.9177C9.33346 47.3533 9.11173 48.4762 10.0712 49.9773C16.0692 59.3523 23.325 63.3516 34.3318 63.3516C38.7307 63.3516 41.8349 63.2454 44.7971 61.8332C48.4961 60.0717 55.2328 51.1513 56.2342 43.9057C56.412 42.6315 56.4007 41.4432 56.225 40.3447ZM39.028 5.53295C39.87 3.08471 42.0424 3.30746 42.9375 4.93622C44.4834 7.75026 46.574 10.5612 48.4 12.8235C50.2791 15.1491 52.1776 17.5115 52.4893 18.9206C53.4804 23.4094 53.9402 31.5297 54.2468 36.515C52.2982 33.9605 48.8384 31.5634 46.4964 30.0388C46.1766 28.0647 45.5635 24.6233 44.5212 20.0252C43.8274 16.9485 40.1275 15.1563 39.1435 10.8627C38.6898 8.8722 38.5243 6.99821 39.028 5.53295ZM32.1636 15.283C31.6302 14.204 31.0314 10.13 32.5437 9.00299C33.9507 7.9536 35.0778 10.0023 36.0781 11.6219C36.5471 14.6015 38.3434 17.252 39.6074 18.7643C40.5924 19.9424 41.4426 20.9581 41.6888 22.1372C41.9943 23.5943 42.4112 25.9843 42.7065 27.7245C41.8041 27.2086 40.8928 26.7081 39.9732 26.2234C39.1544 24.2735 38.2752 22.3496 37.337 20.4543C36.4153 18.5752 33.4613 17.9029 32.1636 15.283ZM43.2665 58.8148C40.6312 60.0737 37.9092 60.1851 33.6196 60.1851C23.8624 60.1851 14.1737 55.3284 11.1369 48.4977C10.6209 47.339 11.1175 45.6939 11.1175 43.5062C11.1175 38.2705 11.2452 35.1734 13.8968 35.1734C15.17 35.1734 19.1897 38.2388 19.1897 46.0188L28.856 50.3829C31.6762 47.4912 39.6943 42.9391 39.6943 42.9391C38.4333 41.3359 39.1149 36.7633 39.1149 36.7633C36.4715 36.4231 30.8495 33.7592 28.9122 30.0327C26.4384 32.1652 14.9482 36.1349 14.2064 31.1189C13.9867 29.6342 15.3202 29.111 15.8454 28.9792C21.3171 27.5978 23.9616 26.0078 25.8447 24.8614C27.217 24.0245 28.5137 23.3287 29.5825 23.3287C30.4786 23.3287 31.8662 23.7772 33.4797 24.5426C38.0645 26.7108 45.6994 30.1237 52.4893 36.0685C53.1218 36.6233 53.9259 37.8403 54.1824 38.623C56.4968 45.699 46.9255 57.0635 43.2665 58.8148ZM37.5056 43.028C35.6632 44.0018 31.3625 46.3877 28.7834 48.7286L21.6308 44.1183C21.6308 40.217 20.7838 37.3948 19.5474 35.5688C22.6772 35.3675 26.5488 34.5481 28.5137 33.4966C29.9013 34.9435 33.4316 38.2327 37.291 38.7548C37.1459 39.888 37.0509 41.6128 37.5056 43.028Z" fill="white"/>
</svg>
