<svg width="66" height="66" viewBox="0 0 66 66" fill="none" xmlns="http://www.w3.org/2000/svg">
<path d="M63.6943 43.5633C63.0485 37.0912 61.6047 31.6665 61.2849 17.6586C61.057 7.741 49.0171 6.97771 45.8874 10.3384C42.3407 5.99065 32.8471 5.88949 29.3045 11.2989C26.5528 9.78665 19.1877 9.46069 16.1447 13.2127C16.1447 13.2127 7.11713 11.771 3.0289 26.8241C1.56057 32.2285 3.15151 39.3944 3.44784 40.8801C5.51494 51.2483 14.1788 49.2486 15.923 48.237C18.8781 55.8392 26.5242 54.4711 29.5998 52.2354C29.7776 56.7456 33.453 58.9128 35.7971 58.0586C42.6656 55.5542 48.3959 55.2149 52.9266 55.3948C55.0999 55.4796 56.8063 54.4363 57.7709 52.5552C61.1684 50.7844 64.053 47.1611 63.6943 43.5633ZM47.8308 44.5831C48.8608 38.6587 46.6261 29.8773 47.4221 23.1906C44.1932 28.224 46.5842 42.473 45.2293 48.2503C44.1207 52.971 35.373 51.4945 32.6673 45.8235C31.7293 37.1515 33.1005 32.1242 30.7371 23.1906C30.9598 33.9911 29.2912 36.003 30.405 46.501C27.826 49.1495 18.921 47.2857 18.4714 42.801C17.8716 36.8153 19.1131 32.114 17.3484 26.3102C17.3484 31.7962 16.2633 34.7227 16.7956 42.8429C16.7987 42.893 15.2057 44.11 12.8423 44.11C3.1648 44.11 4.00778 29.7772 5.60077 24.7713C7.90596 17.5186 13.9867 13.2934 17.1277 14.9508C18.688 11.3122 27.5899 10.9913 29.1237 14.4001C30.4479 8.12315 43.1275 8.63201 46.4994 14.2304C48.7617 9.69366 59.1268 11.0506 59.2352 17.6923C59.4753 32.0578 61.569 38.7833 61.4862 45.0725C57.9395 49.4469 51.6718 49.0596 47.8308 44.5831Z" fill="white"/>
</svg>
