<svg width="65" height="65" viewBox="0 0 65 65" fill="none" xmlns="http://www.w3.org/2000/svg">
<path d="M32.9767 2.8837C16.4097 2.8837 2.97675 16.3157 2.97675 32.8837C2.97675 49.4517 16.4097 62.8837 32.9767 62.8837C49.5447 62.8837 62.9767 49.4517 62.9767 32.8837C62.9767 16.3157 49.5447 2.8837 32.9767 2.8837ZM32.9767 60.8837C17.5377 60.8837 4.97675 48.3227 4.97675 32.8837C4.97675 17.4447 17.5377 4.8837 32.9767 4.8837C48.4157 4.8837 60.9767 17.4447 60.9767 32.8837C60.9767 48.3227 48.4157 60.8837 32.9767 60.8837Z" fill="white"/>
<path d="M32.9767 39.5207C36.6422 39.5207 39.6137 36.5492 39.6137 32.8837C39.6137 29.2182 36.6422 26.2467 32.9767 26.2467C29.3112 26.2467 26.3397 29.2182 26.3397 32.8837C26.3397 36.5492 29.3112 39.5207 32.9767 39.5207Z" fill="white"/>
<path d="M45.8057 34.6177C45.8827 34.0487 45.9357 33.4727 45.9357 32.8837C45.9357 25.7377 40.1227 19.9247 32.9767 19.9247C32.3867 19.9247 31.8117 19.9777 31.2427 20.0547L23.5447 8.6357C20.1875 9.9511 17.1384 11.9463 14.589 14.4961C12.0395 17.046 10.0447 20.0953 8.72974 23.4527L20.1467 31.1487C20.0707 31.7167 20.0167 32.2937 20.0167 32.8827C20.0167 40.0287 25.8297 45.8417 32.9767 45.8417C33.5667 45.8417 34.1417 45.7887 34.7107 45.7117L42.4067 57.1307C45.7643 55.8155 48.8138 53.8204 51.3636 51.2706C53.9134 48.7207 55.9086 45.6713 57.2237 42.3137L45.8057 34.6177ZM22.6717 32.8837C22.6717 27.2017 27.2937 22.5787 32.9767 22.5787C38.6597 22.5787 43.2817 27.2017 43.2817 32.8837C43.2817 38.5657 38.6587 43.1887 32.9767 43.1887C27.2937 43.1887 22.6717 38.5657 22.6717 32.8837Z" fill="white"/>
</svg>
