<svg width="65" height="65" viewBox="0 0 65 65" fill="none" xmlns="http://www.w3.org/2000/svg">
<path d="M61.2557 22.8837C59.9462 19.1945 57.9272 15.7974 55.3127 12.8837C49.8167 6.7507 41.8397 2.8837 32.9767 2.8837C24.1127 2.8837 16.1367 6.7507 10.6407 12.8837C8.02627 15.7974 6.00732 19.1945 4.69775 22.8837C3.58675 26.0127 2.97675 29.3777 2.97675 32.8837C2.97675 36.3897 3.58575 39.7547 4.69675 42.8837C6.00602 46.5728 8.02463 49.97 10.6387 52.8837C16.1357 59.0167 24.1117 62.8837 32.9767 62.8837C41.8417 62.8837 49.8167 59.0167 55.3147 52.8837C57.9271 49.9685 59.9458 46.5718 61.2577 42.8837C62.3677 39.7547 62.9767 36.3897 62.9767 32.8837C62.9767 29.3777 62.3677 26.0127 61.2557 22.8837ZM8.60175 32.8837C8.60175 29.3177 9.39375 25.9387 10.7767 22.8837C12.6008 18.8604 15.4787 15.4052 19.1057 12.8837C22.3207 10.6477 26.0847 9.1477 30.1647 8.6767V31.4817L13.7737 47.8697C12.5733 46.3337 11.5605 44.6598 10.7567 42.8837C9.33405 39.742 8.59931 36.3325 8.60175 32.8837ZM30.1647 57.0927C25.6067 56.566 21.2917 54.7569 17.7207 51.8757L30.1637 39.4347L30.1647 57.0927ZM35.7897 57.0927V39.4347L48.2307 51.8757C44.6607 54.7564 40.3467 56.5654 35.7897 57.0927ZM52.1797 47.8697L35.7897 31.4817V8.6767C39.8697 9.1477 43.6317 10.6477 46.8467 12.8837C50.4746 15.4049 53.3531 18.8602 55.1777 22.8837C56.6072 26.0232 57.3484 29.4322 57.3515 32.8818C57.3546 36.3313 56.6195 39.7417 55.1957 42.8837C54.3923 44.6598 53.3799 46.3336 52.1797 47.8697Z" fill="white"/>
</svg>
