<svg width="67" height="66" viewBox="0 0 67 66" fill="none" xmlns="http://www.w3.org/2000/svg">
<path d="M63.9401 12.7357L63.8706 11.8876L63.0409 11.7895C62.9081 11.7741 59.7415 11.4043 55.9752 11.4043C50.9837 11.4043 47.4196 12.0511 45.3597 13.3273C44.4669 12.7532 43.5451 12.226 42.5977 11.7476C40.546 5.27344 33.1348 3.46076 33.1348 3.46076C33.9543 5.21315 33.6406 8.69546 33.6406 8.69546C31.3712 5.34292 26.7976 6.35451 26.7976 6.35451C28.8995 7.79014 28.7533 9.79083 28.7533 9.79083C26.4155 8.86712 23.2315 10.7728 23.2315 10.7728C23.8236 10.9475 24.3961 11.1827 24.94 11.4748C23.7282 12.0565 22.5561 12.7174 21.4311 13.453C19.1842 12.0143 15.101 11.2857 9.27368 11.2857C6.40956 11.2857 4.24641 11.4696 4.15649 11.4778L3.32372 11.5504L3.22767 12.3954C3.03149 14.1396 1.45076 29.5106 6.4392 32.3001C6.65513 32.42 6.89083 32.5052 7.14628 32.5556C6.39412 35.2038 6.01209 37.9433 6.01106 40.6963C6.01004 60.1074 19.9015 62.7253 33.4904 62.7253C47.0794 62.7253 60.9708 60.1074 60.9708 40.6952C60.9708 37.8935 60.5743 35.107 59.7916 32.3911C59.9728 32.3413 60.1431 32.2732 60.3025 32.1867C65.1796 29.5321 64.0811 14.4462 63.9401 12.7357ZM59.3379 30.3536C59.2041 30.4251 58.9006 30.422 58.6002 30.3618L56.855 30.0092L57.4353 31.7208C58.4207 34.6104 58.925 37.6422 58.9282 40.6952C58.9282 58.2273 46.7023 60.6449 33.4894 60.6449C20.2765 60.6449 8.05262 58.2283 8.05262 40.6952C8.05262 37.685 8.54717 34.686 9.52504 31.7841L10.1391 29.9602L8.30603 30.4394C7.90446 30.5457 7.56318 30.5528 7.42217 30.4752C4.69294 28.9496 4.58054 19.6001 5.16807 13.4898C6.53538 13.4068 7.90487 13.3649 9.2747 13.3641C15.0387 13.3641 19.1167 14.1274 20.7557 15.5119L21.3443 16.0085L21.9778 15.5753C23.5382 14.5035 25.2026 13.5915 26.9458 12.8532C31.4366 16.6962 33.4802 23.7885 33.4802 23.7885C34.4499 17.6148 38.0507 14.4686 40.4448 13.0177C41.9698 13.6975 43.4326 14.5095 44.8161 15.4445L45.4373 15.8634L46.0187 15.3883C47.5218 14.159 51.0572 13.4826 55.9742 13.4826C58.499 13.4826 60.7889 13.6594 61.967 13.7687C62.3655 19.7646 61.9997 28.9026 59.3379 30.3536Z" fill="white"/>
<path d="M18.2102 17.1978C15.2592 15.6007 8.14131 16.2179 8.14131 16.2179C8.14131 16.2179 6.99893 26.348 9.80684 27.9165C9.85793 27.9451 9.91516 27.9635 9.9734 27.9809C12.015 23.721 14.9435 20.0629 18.2102 17.1978ZM49.0972 17.4921C52.322 20.394 55.1994 24.0694 57.1787 28.3364C57.2511 28.3183 57.3213 28.2923 57.3881 28.2588C60.1327 26.7629 59.3122 16.8207 59.3122 16.8207C59.3122 16.8207 52.178 15.9757 49.0972 17.4921ZM33.4892 38.1386C24.6016 38.1386 18.858 43.2905 18.858 51.2647C18.858 54.653 19.887 56.8907 22.0041 58.1026C23.8117 59.1397 26.2558 59.3512 29.3703 59.3512C30.0079 59.3512 30.6649 59.343 31.3383 59.3349C32.7402 59.3165 34.2392 59.3165 35.6401 59.3349C36.3145 59.3444 36.9708 59.3499 37.6091 59.3512C43.1483 59.3512 48.1214 58.733 48.1214 51.2647C48.1204 43.2905 42.3768 38.1386 33.4892 38.1386ZM37.6081 57.7909C36.9759 57.7902 36.3257 57.7851 35.6575 57.7756C34.9504 57.7654 34.2275 57.7595 33.4892 57.7582C32.3816 57.7562 32.027 57.7664 31.3199 57.7756C30.6523 57.7851 30.0024 57.7902 29.3703 57.7909C26.497 57.7919 24.2736 57.6131 22.7552 56.7446C21.7395 56.1632 20.3907 54.9615 20.3907 51.2657C20.3907 42.7377 27.1571 39.6989 33.4892 39.6989C39.8213 39.6989 46.5877 42.7387 46.5877 51.2657C46.5877 56.8488 43.8176 57.7909 37.6081 57.7909Z" fill="white"/>
<path d="M27.3034 55.8821C29.1792 55.8821 30.6999 53.032 30.6999 49.5163C30.6999 46.0004 29.1792 43.1504 27.3034 43.1504C25.4277 43.1504 23.9069 46.0004 23.9069 49.5163C23.9069 53.032 25.4277 55.8821 27.3034 55.8821Z" fill="white"/>
<path d="M39.6748 55.8821C41.5495 55.8821 43.0692 53.032 43.0692 49.5163C43.0692 46.0004 41.5495 43.1504 39.6748 43.1504C37.8001 43.1504 36.2803 46.0004 36.2803 49.5163C36.2803 53.032 37.8001 55.8821 39.6748 55.8821Z" fill="white"/>
<path d="M17.3248 41.4955C19.0087 41.4955 20.3739 38.9451 20.3739 35.799C20.3739 32.6529 19.0087 30.1024 17.3248 30.1024C15.6408 30.1024 14.2758 32.6529 14.2758 35.799C14.2758 38.9451 15.6408 41.4955 17.3248 41.4955Z" fill="white"/>
<path d="M49.6511 29.9553C47.9693 29.9553 46.6041 32.5037 46.6041 35.6508C46.6041 38.798 47.9693 41.3463 49.6511 41.3463C51.3371 41.3463 52.7022 38.7969 52.7022 35.6508C52.7033 32.5037 51.3381 29.9553 49.6511 29.9553Z" fill="white"/>
</svg>
