<svg width="66" height="66" viewBox="0 0 66 66" fill="none" xmlns="http://www.w3.org/2000/svg">
<path d="M57.9955 35.9092C58.0527 35.649 58.097 35.3861 58.1283 35.1204C58.3133 33.2668 58.1007 31.304 57.3109 29.4872C56.5323 27.6612 55.1385 26.1418 53.5925 25.0015C52.663 24.3222 51.6642 23.743 50.613 23.2736C50.934 22.2459 51.0319 21.1613 50.9001 20.0927C50.6692 18.4221 50.006 16.7719 48.7921 15.4497C47.5864 14.1254 45.9505 13.3335 44.3595 12.8308C41.1317 11.8304 37.8854 11.8723 34.8312 11.6537C33.3128 11.5505 31.7934 11.4687 30.5213 11.1111C29.8867 10.9405 29.3503 10.683 29.0172 10.3866C28.682 10.0924 28.5277 9.75823 28.448 9.25244C28.3714 8.75073 28.4184 8.1162 28.5594 7.46224C28.6279 7.11789 28.7117 6.84201 28.8251 6.42613C28.9365 6.01026 29.0509 5.58621 29.1102 5.04159C29.1286 4.74425 29.1715 4.45303 29.0448 3.94418C28.9588 3.63297 28.8037 3.34517 28.5911 3.10221C28.3525 2.84589 28.052 2.65518 27.7185 2.54839C27.1483 2.38491 26.8305 2.44928 26.5138 2.47687C26.3799 2.49935 26.2205 2.52489 26.1091 2.55146L25.8251 2.61583C24.9576 2.82939 24.1636 3.08178 23.3768 3.43328C20.2614 4.81271 17.5985 7.11483 15.9064 10.0157C15.0635 11.4616 14.4238 13.0443 14.15 14.7078C13.8782 16.3672 13.9466 18.0972 14.4473 19.7014C14.8259 20.8189 15.311 21.8976 15.8962 22.9221C14.4422 23.5127 13.0219 24.2637 11.7467 25.2896C10.2354 26.4923 8.91424 28.0945 8.22862 29.9531C7.54196 31.823 7.39482 33.7246 7.67071 35.6252C7.69217 35.7539 7.72589 35.8786 7.75348 36.0053C3.93909 37.4194 2.22961 40.7965 2.22961 46.6136C2.22961 59.2472 17.9582 63.7472 32.6773 63.7472C52.5779 63.7472 63.5378 57.6624 63.5378 46.6136C63.5378 40.6667 61.8293 37.2652 57.9955 35.9092ZM32.6773 61.3031C19.1435 61.3031 4.68194 57.4447 4.68194 46.6136C4.68194 41.5302 6.07977 39.228 8.60873 38.2686C9.0645 39.1005 9.64905 39.855 10.3407 40.5043C11.666 41.7601 13.2303 42.6378 14.853 43.2631C13.4378 42.2577 12.1258 41.1235 11.1581 39.789C10.1915 38.4607 9.59783 36.9453 9.58863 35.4208C9.56718 33.8942 9.89722 32.2747 10.5869 30.979C11.2767 29.665 12.2985 28.5727 13.5696 27.742C14.8959 26.8928 16.401 26.2685 17.993 25.7954C18.5487 26.4027 19.1574 26.9594 19.8118 27.4589C17.817 25.1386 16.4521 22.3445 15.8482 19.3448C15.2985 16.5072 16.2334 13.5849 17.8489 11.2398C19.5001 8.90298 21.8063 7.00243 24.4467 5.99596C24.9838 5.79324 25.5312 5.61895 26.0867 5.47381C26.0713 5.52695 26.0611 5.57702 26.0458 5.62913C25.9497 5.96121 25.8046 6.42716 25.7178 6.84507C25.5257 7.70339 25.3969 8.63731 25.54 9.67751C25.6759 10.7014 26.2358 11.8601 27.1064 12.5672C27.9596 13.2855 28.8997 13.6421 29.7641 13.87C31.5114 14.3083 33.1299 14.3768 34.7158 14.4176C37.866 14.4708 40.9304 14.4044 43.7475 15.0256C45.1443 15.3465 46.4307 15.9105 47.4362 16.8005C48.4406 17.6711 49.1395 18.9728 49.4859 20.34C49.8476 21.7051 49.7117 23.1847 49.1446 24.555C48.5745 25.9242 47.6191 27.1708 46.4859 28.2416C47.3983 27.6718 48.2233 26.9727 48.9352 26.1663C49.9692 26.5352 50.9583 26.9705 51.8729 27.509C53.1838 28.2968 54.2618 29.3462 55.019 30.6224C55.7812 31.8966 56.1542 33.4395 56.2135 35.0213C56.2891 36.5499 55.7915 38.0938 54.8841 39.461C53.9808 40.8353 52.7015 42.0084 51.3098 43.0434C52.9151 42.3813 54.459 41.4556 55.7271 40.1364C56.296 39.5505 56.7784 38.8865 57.1597 38.1643C59.7213 39.0523 61.0834 41.3237 61.0834 46.6116C61.0854 59.3943 43.2877 61.3031 32.6773 61.3031Z" fill="white"/>
<path d="M30.5253 35.4595C30.5253 31.1731 27.0277 27.6846 22.7259 27.6846C18.4231 27.6846 14.9224 31.1731 14.9224 35.4595C14.9224 39.748 18.4231 43.2375 22.7259 43.2375C27.0287 43.2385 30.5253 39.7491 30.5253 35.4595ZM22.7269 41.7712C19.2354 41.7712 16.3958 38.9398 16.3958 35.4595C16.3958 31.9813 19.2354 29.1509 22.7269 29.1509C26.2184 29.1509 29.0549 31.9813 29.0549 35.4595C29.0549 38.9408 26.2174 41.7712 22.7269 41.7712Z" fill="white"/>
<path d="M24.6764 38.9868C26.6289 38.9868 28.2118 37.4098 28.2118 35.4646C28.2118 33.5194 26.6289 31.9425 24.6764 31.9425C22.7238 31.9425 21.1409 33.5194 21.1409 35.4646C21.1409 37.4098 22.7238 38.9868 24.6764 38.9868Z" fill="white"/>
<path d="M43.0441 27.6846C38.7413 27.6846 35.2426 31.1731 35.2426 35.4595C35.2426 39.748 38.7413 43.2375 43.0441 43.2375C47.3459 43.2375 50.8455 39.748 50.8455 35.4595C50.8455 31.1731 47.3459 27.6846 43.0441 27.6846ZM43.0441 41.7712C39.5536 41.7712 36.714 38.9398 36.714 35.4595C36.714 31.9813 39.5536 29.1509 43.0441 29.1509C46.5346 29.1509 49.3741 31.9813 49.3741 35.4595C49.3752 38.9408 46.5346 41.7712 43.0441 41.7712Z" fill="white"/>
<path d="M41.0931 31.9425C40.6298 31.9414 40.1707 32.0315 39.7422 32.2078C39.3137 32.3842 38.9242 32.6433 38.5959 32.9703C38.2676 33.2974 38.007 33.6859 37.8292 34.1137C37.6512 34.5415 37.5593 35.0003 37.5587 35.4636C37.5594 35.9271 37.6514 36.3858 37.8294 36.8137C38.0074 37.2415 38.2679 37.6302 38.5961 37.9574C38.9243 38.2846 39.3137 38.5438 39.7422 38.7205C40.1706 38.8972 40.6297 38.9876 41.0931 38.9868C42.0288 38.9876 42.9264 38.617 43.5889 37.9564C44.2514 37.2958 44.6246 36.3993 44.6265 35.4636C44.6241 34.5285 44.2507 33.6323 43.5881 32.9722C42.9257 32.3121 42.0283 31.9417 41.0931 31.9425ZM32.8839 45.5437C29.6305 45.5437 26.9984 48.1728 26.9984 51.4099C26.9984 54.652 29.6305 57.276 32.8839 57.276C36.1333 57.276 38.7695 54.652 38.7695 51.4099C38.7695 48.1728 36.1333 45.5437 32.8839 45.5437Z" fill="white"/>
</svg>
