<svg width="67" height="66" viewBox="0 0 67 66" fill="none" xmlns="http://www.w3.org/2000/svg">
<path d="M61.824 27.6796C61.9377 27.5808 62.0426 27.4814 62.1387 27.3812C64.6758 24.7072 65.0406 20.8274 63.0685 17.4933C61.0086 14.012 54.6591 5.91523 40.2057 5.91523C39.4567 5.91523 38.6873 5.93668 37.9117 5.9796C36.4843 5.41091 34.9626 5.11558 33.426 5.10902C31.7779 5.10902 30.1338 5.46359 28.552 6.15126L28.5602 6.04091L27.9298 6.44248C27.0255 6.89003 26.1457 7.44793 25.3007 8.11312C24.332 8.7354 23.3204 9.56613 22.2496 10.4439C20.302 12.0409 18.0949 13.8516 15.6804 14.7947C12.8786 15.888 6.84691 16.6329 4.75733 16.8291L3.02026 16.9916V50.3228L5.06285 50.1889C5.0792 50.1889 6.65175 50.0857 8.86804 50.0857C15.522 50.0857 20.4502 50.9461 22.4263 52.4481C23.1406 53.1838 23.9427 53.8112 24.8071 54.3466L25.2537 54.7042L25.2629 54.6184C29.0415 56.7744 33.8583 57.2945 37.6236 57.2945C37.9574 57.2945 38.2911 57.2904 38.625 57.2823C39.5231 58.6995 40.9363 59.5895 42.6039 59.7346L48.281 60.268L48.3219 60.272L48.3617 60.2741C48.5034 60.2823 48.6417 60.2863 48.7766 60.2863C50.2418 60.2863 51.3863 59.7959 52.4888 58.6944L56.8171 54.4621C58.9057 52.397 58.9609 49.6719 58.0688 47.5108L59.203 46.4001C61.8066 43.8272 61.6789 40.2038 60.0695 37.5104L60.5324 37.0587C63.3046 34.3203 63.2923 30.5958 61.824 27.6796ZM40.2057 7.82497C53.9704 7.82497 59.6567 15.4854 61.4183 18.4619C62.1009 19.6166 62.3911 20.763 62.4054 21.841C62.1995 22.9734 61.6446 24.0131 60.8185 24.8145L54.8491 30.6541C54.0051 31.496 53.2735 31.8721 52.4285 32.0059C52.4615 31.3994 52.4086 30.7911 52.2711 30.1994C51.2616 25.871 50.8733 23.2113 50.6025 21.4558C50.7323 21.1043 51.5467 19.1067 53.8968 17.5157C52.2732 17.7405 50.9867 18.9187 50.2929 19.7044C50.1785 19.2017 50.0457 18.8145 49.8495 18.4865C47.9142 15.2443 38.3194 8.41251 37.595 7.91285C38.464 7.85429 39.3347 7.82497 40.2057 7.82497ZM57.9054 43.6586L52.7943 48.6572C51.7408 49.7127 50.8937 49.9273 49.6441 49.8629L42.9472 49.2345C40.4908 49.0189 39.2554 46.8496 39.1154 44.5383C38.7609 47.29 39.941 50.3555 42.8869 50.615L49.5858 51.2434C50.8345 51.3078 51.6795 51.0922 52.734 50.0387L55.735 47.2103C56.25 47.9552 56.5852 48.8483 56.6659 49.7618C56.5162 50.5863 56.1129 51.3436 55.5123 51.928L51.1707 56.1705C50.2766 57.0677 49.5562 57.2506 48.4966 57.1954L42.8082 56.663C40.7227 56.4771 39.6733 54.6358 39.5558 52.6739C39.5035 53.0795 39.4919 53.4892 39.5211 53.897C30.0296 53.5772 23.6709 50.4822 20.6096 45.927C20.6617 46.5656 20.815 47.1736 21.0254 47.7621C17.5809 46.9825 11.0056 45.7032 4.93716 45.7032V18.7296C4.93716 18.7296 12.7141 18.0031 16.3793 16.5706C20.4767 14.9715 23.7864 11.343 26.3776 9.69181L26.3766 9.69896C28.457 8.0324 30.8613 7.01979 33.425 7.01979C34.7748 7.01979 36.1706 7.29875 37.5858 7.91387H37.5899C37.9741 8.32872 47.8018 17.1234 48.6672 19.0433C49.6226 21.1636 49.734 24.5304 50.626 28.4266C51.9299 34.1149 49.5766 37.4777 45.8736 37.5574C41.3777 37.6524 39.6754 26.668 39.6754 26.668C39.6754 26.668 37.7585 25.9885 35.3613 23.4861C36.8695 27.0686 38.5626 27.417 38.5626 27.417C38.5626 27.417 38.6393 28.0475 38.8355 28.9967C37.6726 31.5144 35.1028 36.135 28.9291 36.6388C28.4113 36.6746 27.8916 36.6746 27.3739 36.6388C28.7533 37.2999 30.2758 37.5564 31.8749 37.4899C34.2803 37.3929 36.0143 36.6429 37.2425 35.7416C37.0718 38.7805 38.484 41.9338 41.7037 42.2158L49.5256 42.9484C50.9837 43.022 51.9717 42.7727 53.204 41.5404L57.5855 37.3929C58.496 38.3564 59.1407 39.6776 59.2766 41.0489C59.098 42.0388 58.6193 42.9498 57.9054 43.6586ZM59.2419 34.0863L53.2725 39.9259C52.0412 41.1551 51.0511 41.4065 49.593 41.3319L41.7721 40.5972C39.0919 40.3622 37.6716 38.1337 37.363 35.6415C38.9009 34.4695 39.613 33.0788 39.8481 32.5291C40.8453 35.1469 43.0892 37.8598 45.8614 37.8169C48.4445 37.7198 51.3004 35.9644 52.1138 33.6561C53.0661 33.5601 53.8549 33.1892 54.7807 32.2655L59.5505 27.5999C60.2668 28.6222 60.7113 29.8101 60.842 31.0516C60.6316 32.203 60.0731 33.2622 59.2419 34.0863Z" fill="white"/>
</svg>
