<svg width="67" height="67" viewBox="0 0 67 67" fill="none" xmlns="http://www.w3.org/2000/svg">
<path d="M64.3233 4.75222L64.2599 2.90787L62.4084 2.83737C62.4084 2.83737 62.3083 2.8343 62.1172 2.8343C59.4227 2.8343 45.329 3.48621 32.4645 16.3466C29.02 19.788 26.0026 23.396 23.5595 26.9284C14.2029 23.1396 3.02026 34.314 3.02026 34.314C3.02026 34.314 11.6187 30.7326 17.8252 38.1641C17.3674 39.7387 17.162 41.1018 17.1395 42.284L15.4474 43.9772C14.9519 44.4727 14.9917 45.3188 15.4873 45.8154L15.895 46.2221L14.7281 47.39C14.443 47.6751 14.3572 48.1104 14.5615 48.4333C13.7369 48.2749 12.5435 48.8215 10.0973 49.7299C7.00427 50.8774 6.43411 53.4871 6.43411 53.4871C6.43411 53.4871 7.43139 53.9765 8.89256 54.1247C7.02471 56.8263 7.45284 59.6915 7.45284 59.6915C7.45284 59.6915 10.32 60.1186 13.0206 58.2528C13.1688 59.7139 13.6582 60.7102 13.6582 60.7102C13.6582 60.7102 16.271 60.139 17.4175 57.045C18.3391 54.562 18.8889 53.3696 18.706 52.546C19.0421 52.7136 19.4958 52.6819 19.7574 52.4203L20.9253 51.2514L21.4148 51.7408C21.9124 52.2364 22.6767 52.1965 23.1712 51.6989L24.8879 49.9854C26.1314 49.9598 27.4986 49.7269 28.9628 49.3028C36.4608 55.5103 32.8589 64.1424 32.8589 64.1424C32.8589 64.1424 44.0671 52.9384 40.2364 43.5756C43.734 41.1642 47.3379 38.1529 50.8089 34.6849C64.7106 20.7904 64.3468 5.40005 64.3233 4.75222ZM17.3306 54.3975C16.694 56.1141 15.2472 56.4309 15.2472 56.4309C15.2472 56.4309 14.8722 55.6553 14.8752 54.5988C13.3139 55.8383 11.5513 55.593 11.5513 55.593C11.5513 55.593 11.3071 53.8304 12.5465 52.2691C11.4879 52.2711 10.7134 51.8972 10.7134 51.8972C10.7134 51.8972 11.0302 50.4503 12.7468 49.8137C14.067 49.3243 14.723 49.033 15.1787 49.0984L18.0489 51.9677C18.1133 52.4224 17.8211 53.0784 17.3306 54.3975ZM24.6406 48.0153C24.0359 48.0151 23.4336 47.9382 22.8483 47.7864L19.3333 44.2715C17.9519 38.6004 23.9263 27.6866 33.8675 17.7485C39.2575 12.3606 44.8988 9.2175 49.7269 7.38132L59.7773 17.4318C57.9411 22.2567 54.7981 27.895 49.407 33.283C40.4193 42.2667 30.6283 48.0153 24.6406 48.0153Z" fill="white"/>
<path d="M44.1583 18.0386C42.843 18.0386 41.5816 18.5611 40.6516 19.4911C39.7215 20.4212 39.199 21.6827 39.199 22.9979C39.199 24.3132 39.7215 25.5746 40.6516 26.5047C41.5816 27.4347 42.843 27.9573 44.1583 27.9573C45.4736 27.957 46.7349 27.4345 47.6651 26.5047C48.5954 25.5748 49.1183 24.3137 49.1192 22.9984C49.1186 21.683 48.5958 20.4216 47.6655 19.4915C46.7353 18.5615 45.4738 18.0388 44.1583 18.0386ZM44.1583 26.303C43.7242 26.3031 43.2944 26.2177 42.8933 26.0517C42.4922 25.8858 42.1277 25.6424 41.8206 25.3355C41.5136 25.0287 41.27 24.6643 41.1037 24.2633C40.9376 23.8624 40.8519 23.4325 40.8518 22.9984C40.8517 22.5644 40.937 22.1345 41.103 21.7334C41.269 21.3323 41.5124 20.9678 41.8192 20.6608C42.126 20.3537 42.4904 20.1101 42.8914 19.9439C43.2923 19.7776 43.7222 19.692 44.1563 19.6919C45.033 19.6916 45.8738 20.0396 46.4939 20.6593C47.1141 21.2791 47.4625 22.1197 47.4628 22.9964C47.4631 23.8731 47.1151 24.714 46.4954 25.3341C45.8757 25.9541 45.035 26.3027 44.1583 26.303ZM34.2366 27.9552C32.9212 27.9557 31.6599 28.4785 30.7297 29.4084C29.7995 30.3385 29.2766 31.5997 29.2758 32.915C29.3021 34.213 29.8362 35.449 30.7635 36.3576C31.6908 37.2663 32.9374 37.7751 34.2356 37.7751C35.5339 37.7751 36.7804 37.2663 37.7077 36.3576C38.635 35.449 39.1691 34.213 39.1954 32.915C39.1951 31.5999 38.6727 30.3386 37.7428 29.4085C36.8129 28.4785 35.5518 27.9557 34.2366 27.9552ZM34.2356 36.2196C33.7967 36.2272 33.3606 36.1475 32.9529 35.9848C32.5451 35.8222 32.1739 35.58 31.8607 35.2723C31.5476 34.9647 31.2989 34.5977 31.1292 34.1929C30.9594 33.7881 30.8719 33.3535 30.8719 32.9145C30.8719 32.4756 30.9594 32.041 31.1292 31.6362C31.2989 31.2313 31.5476 30.8644 31.8607 30.5567C32.1739 30.2491 32.5451 30.0068 32.9529 29.8442C33.3606 29.6815 33.7967 29.6017 34.2356 29.6095C34.6699 29.6092 35.1 29.6945 35.5013 29.8607C35.9026 30.0267 36.2672 30.2703 36.5743 30.5774C36.8813 30.8844 37.1249 31.2491 37.291 31.6504C37.4571 32.0516 37.5424 32.4818 37.5421 32.9161C37.5425 33.3502 37.4573 33.7802 37.2912 34.1815C37.1251 34.5826 36.8815 34.9471 36.5744 35.2539C36.2672 35.5608 35.9026 35.8041 35.5012 35.9698C35.0998 36.1355 34.6698 36.2204 34.2356 36.2196Z" fill="white"/>
<path d="M48.904 9.72831C49.3605 9.72831 49.7306 9.3582 49.7306 8.90167C49.7306 8.44513 49.3605 8.07504 48.904 8.07504C48.4474 8.07504 48.0773 8.44513 48.0773 8.90167C48.0773 9.3582 48.4474 9.72831 48.904 9.72831Z" fill="white"/>
<path d="M51.2439 12.0642C51.7 12.0642 52.0696 11.6946 52.0696 11.2386C52.0696 10.7826 51.7 10.413 51.2439 10.413C50.788 10.413 50.4183 10.7826 50.4183 11.2386C50.4183 11.6946 50.788 12.0642 51.2439 12.0642Z" fill="white"/>
<path d="M53.5829 14.4043C54.0401 14.4043 54.4106 14.0338 54.4106 13.5766C54.4106 13.1196 54.0401 12.749 53.5829 12.749C53.1259 12.749 52.7552 13.1196 52.7552 13.5766C52.7552 14.0338 53.1259 14.4043 53.5829 14.4043Z" fill="white"/>
<path d="M55.9199 16.7412C56.377 16.7412 56.7475 16.3707 56.7475 15.9136C56.7475 15.4565 56.377 15.0859 55.9199 15.0859C55.4628 15.0859 55.0922 15.4565 55.0922 15.9136C55.0922 16.3707 55.4628 16.7412 55.9199 16.7412Z" fill="white"/>
<path d="M58.8463 17.6666C58.7695 17.5896 58.6783 17.5286 58.5778 17.487C58.4774 17.4454 58.3697 17.4239 58.2608 17.4239C58.1521 17.4239 58.0444 17.4454 57.944 17.487C57.8435 17.5286 57.7523 17.5896 57.6754 17.6666C57.5203 17.8218 57.4333 18.0322 57.4333 18.2516C57.4333 18.471 57.5203 18.6813 57.6754 18.8366C57.8312 18.9909 58.0416 19.0775 58.2608 19.0775C58.4802 19.0775 58.6906 18.9909 58.8463 18.8366C59.0014 18.6813 59.0885 18.471 59.0885 18.2516C59.0885 18.0322 59.0014 17.8218 58.8463 17.6666Z" fill="white"/>
</svg>
