<svg width="66" height="67" viewBox="0 0 66 67" fill="none" xmlns="http://www.w3.org/2000/svg">
<path d="M61.1924 27.1982C60.6406 26.5299 60.0704 25.8381 59.9386 25.4386C59.8047 25.0411 59.8487 24.1573 59.8896 23.303C59.9836 21.3974 60.099 19.0248 58.6981 17.5575C57.3494 16.1443 55.0554 15.9675 51.5946 17.0649C50.5314 17.4024 49.4845 17.7894 48.4576 18.2247C50.2018 14.8701 51.5711 11.1957 49.9627 10.0595C48.5997 9.09489 46.1146 10.6766 43.7216 12.7948C43.7338 12.429 43.7522 12.0663 43.7522 11.6933C43.7522 7.17083 42.2573 4.87791 39.3084 4.87791C37.9014 4.87791 36.4269 5.42151 35.1241 5.89971C34.2965 6.20523 33.4402 6.51994 32.9978 6.51994C32.5563 6.51994 31.7001 6.20421 30.8724 5.89971C29.5717 5.42151 28.0962 4.87791 26.6892 4.87791C23.7402 4.87791 22.2453 7.17083 22.2453 11.6923C22.2453 12.0213 22.2637 12.3422 22.2719 12.6661C19.9228 10.6123 17.5113 9.11328 16.1748 10.0584C14.5277 11.2233 16.0021 15.0479 17.8046 18.4658C16.738 18.0089 15.6499 17.6041 14.544 17.253C11.0832 16.1566 8.79124 16.3313 7.44042 17.7455C6.03953 19.2138 6.15499 21.5844 6.24798 23.49C6.28885 24.3443 6.33279 25.2281 6.19893 25.6256C6.06712 26.0251 5.49593 26.7169 4.94416 27.3872C3.59231 29.0303 1.90634 31.0749 2.55825 33.2707C3.05382 34.9393 4.80417 36.2288 7.91045 37.2098C8.1567 37.2874 8.40296 37.3426 8.65126 37.4152C6.68122 38.7139 5.32529 40.1005 5.73503 41.3307C6.34198 43.1434 10.2463 43.0422 14.0106 42.4864C12.9264 43.5922 11.9174 44.7692 10.9902 46.0095C9.08654 48.5589 8.43872 50.5903 9.00889 52.2211C9.77217 54.4077 12.389 55.1026 14.4909 55.6615C15.3451 55.8894 16.2279 56.1233 16.5835 56.3757C16.9371 56.625 17.4378 57.3669 17.9221 58.0852C19.1299 59.8734 20.6309 62.0988 23.0107 62.0988C24.7447 62.0988 26.5001 60.8757 28.3772 58.3621C28.9326 57.6161 29.4579 56.8481 29.9518 56.06C30.6159 58.6206 31.605 60.6622 33.0713 60.6622C34.604 60.6622 35.6126 58.4306 36.2767 55.7116C36.8107 56.5807 37.3828 57.4258 37.9913 58.2446C39.8694 60.7603 41.6248 61.9813 43.3588 61.9813C45.7407 61.9813 47.2407 59.7559 48.4464 57.9677C48.9307 57.2514 49.4294 56.5096 49.7819 56.2603C50.1375 56.0089 51.0213 55.7729 51.8756 55.547C53.9794 54.9871 56.5953 54.2913 57.3575 52.1066C57.9267 50.4738 57.2788 48.4425 55.3773 45.8931C54.5006 44.7184 53.5505 43.6003 52.5326 42.5456C56.1692 43.0484 59.8221 43.08 60.4045 41.3317C60.8306 40.0596 59.3643 38.6178 57.284 37.2813C57.5997 37.1924 57.9154 37.1188 58.2291 37.0197C61.3354 36.0378 63.0858 34.7493 63.5823 33.0807C64.2312 30.8848 62.5462 28.8402 61.1924 27.1982ZM26.6902 6.85101C27.7426 6.85101 29.0424 7.33023 30.1888 7.75224C31.2699 8.15074 32.2048 8.49509 32.9988 8.49509C33.7937 8.49509 34.7287 8.15074 35.8098 7.75224C36.9552 7.33023 38.2549 6.85101 39.3084 6.85101C40.0462 6.85101 41.774 6.85101 41.774 11.6923C41.774 20.8763 37.7553 28.6358 32.9988 28.6358C28.2423 28.6358 24.2235 20.8763 24.2235 11.6923C24.2235 6.85101 25.9524 6.85101 26.6902 6.85101ZM8.51025 35.3297C6.1458 34.5827 4.74388 33.6764 4.45778 32.7108C4.10424 31.5194 5.41827 29.9233 6.47482 28.642C7.20234 27.7591 7.82973 26.9969 8.077 26.2509C8.32735 25.504 8.28034 24.5261 8.22517 23.396C8.15057 21.8664 8.05759 19.9638 8.87503 19.1085C9.2531 18.7111 9.84983 18.5179 10.6979 18.5179C11.5603 18.5179 12.6537 18.7254 13.9483 19.1351C20.2722 21.1348 25.3864 24.7009 27.2961 28.4396C28.042 29.9008 28.2157 31.2537 27.8121 32.4615C26.9088 35.1672 23.071 36.8491 17.7985 36.8491C14.8628 36.8481 11.6523 36.3229 8.51025 35.3297ZM26.7913 57.1819C25.3547 59.108 24.0458 60.1257 23.0107 60.1257C21.6844 60.1257 20.5093 58.3846 19.5662 56.9847C18.9286 56.0406 18.3788 55.2242 17.73 54.7664C17.0842 54.3096 16.1207 54.0532 15.0028 53.7568C13.3526 53.3175 11.2988 52.7718 10.8798 51.5743C10.5518 50.6332 11.1394 49.1189 12.5791 47.1897C16.8492 41.4666 22.6275 37.6226 26.9558 37.6226C28.1299 37.6226 29.1343 37.9128 29.9426 38.4829C31.0308 39.2544 31.7174 40.4928 31.9821 42.1645C32.634 46.266 30.6435 52.0208 26.7913 57.1819ZM33.0703 37.8045C32.55 37.805 32.0346 37.703 31.5537 37.5044C31.0728 37.3057 30.6358 37.0143 30.2675 36.6467C29.8992 36.2791 29.607 35.8426 29.4075 35.3621C29.208 34.8815 29.1051 34.3663 29.1047 33.846C29.1052 33.3258 29.2082 32.8107 29.4078 32.3303C29.6073 31.8499 29.8997 31.4135 30.2679 31.046C30.6361 30.6785 31.0731 30.3871 31.554 30.1886C32.0348 29.9899 32.55 29.8881 33.0703 29.8886C33.5906 29.8878 34.106 29.9897 34.587 30.1883C35.0678 30.3868 35.5051 30.6781 35.8733 31.0457C36.2417 31.4131 36.534 31.8496 36.7337 32.3301C36.9333 32.8106 37.0364 33.3257 37.0369 33.846C37.0353 34.8967 36.6166 35.9039 35.8728 36.6462C35.129 37.3884 34.121 37.805 33.0703 37.8045ZM53.7894 47.0722C55.2291 49.0014 55.8156 50.5177 55.4887 51.4568C55.0707 52.6543 53.0159 53.2 51.3647 53.6404C50.2458 53.9367 49.2822 54.1942 48.6354 54.6519C47.9886 55.1097 47.4399 55.9231 46.8044 56.8662C45.8592 58.2661 44.6862 60.0082 43.3578 60.0082C42.3217 60.0082 41.0138 58.9905 39.5761 57.0644C35.7229 51.9002 33.7335 46.1444 34.3854 42.0449C34.651 40.3743 35.3377 39.1369 36.4259 38.3665C37.2342 37.7953 38.2376 37.5061 39.4126 37.5061C43.74 37.5071 49.5193 41.3511 53.7894 47.0722ZM61.6838 32.5207C61.3977 33.4853 59.9958 34.3916 57.6293 35.1396C54.4863 36.1338 51.2737 36.66 48.336 36.66C43.0656 36.66 39.2308 34.9782 38.3275 32.2724C37.9228 31.0647 38.0976 29.7108 38.8445 28.2496C40.7532 24.5108 45.8674 20.9457 52.1923 18.9461C53.4869 18.5363 54.5803 18.3289 55.4427 18.3289C56.2908 18.3289 56.8875 18.522 57.2666 18.9185C58.083 19.7748 57.99 21.6784 57.9165 23.207C57.8592 24.3381 57.8122 25.315 58.0636 26.064C58.3109 26.8089 58.9383 27.5711 59.6648 28.4509C60.7233 29.7333 62.0374 31.3293 61.6838 32.5207Z" fill="white"/>
</svg>
