<svg width="66" height="66" viewBox="0 0 66 66" fill="none" xmlns="http://www.w3.org/2000/svg">
<path d="M35.4724 42.0869C36.0374 42.0869 36.4942 41.1489 36.4942 39.9851C36.4942 38.8274 36.0374 37.8812 35.4724 37.8812C34.9073 37.8812 34.4506 38.8274 34.4506 39.9851C34.4506 41.1489 34.9083 42.0869 35.4724 42.0869ZM31.0878 37.8822C30.5227 37.8822 30.066 38.8284 30.066 39.9861C30.066 41.1499 30.5227 42.0879 31.0878 42.0879C31.6529 42.0879 32.1096 41.1499 32.1096 39.9861C32.1096 38.8274 31.6529 37.8822 31.0878 37.8822ZM25.2411 31.3314C23.4049 32.6271 21.8977 33.8461 21.8977 33.8461C21.8977 33.8461 23.4243 32.7865 25.2411 31.3314ZM20.6021 28.3263C19.6518 29.0671 19.0397 29.5831 19.0397 29.5831C19.0397 29.5831 19.6865 29.0784 20.6021 28.3263Z" fill="white"/>
<path d="M63.9331 34.0823C63.9331 30.2128 61.3091 26.9675 57.744 25.9876C57.6725 25.6637 57.6224 25.3613 57.5427 25.0292C57.2832 23.9348 56.7978 21.9229 55.5625 21.1014C53.6762 16.6872 50.0805 13.4634 44.903 11.4096C46.073 10.7924 46.8291 10.4818 46.8291 10.4818C43.5226 9.321 40.6523 8.64048 38.1673 8.33087C39.4742 7.34892 40.3468 6.97494 40.3468 6.97494C22.7524 4.49298 12.9359 12.7052 10.2915 21.7788C9.55889 22.7506 9.21863 24.1739 9.01427 25.0302C8.93559 25.3592 8.88552 25.6607 8.81502 25.9825C5.24893 26.9604 2.62596 30.2118 2.62596 34.0834C2.62596 37.7138 4.93319 40.7966 8.16004 41.9768L2.62494 63.7463H14.8345C14.4033 61.6128 14.5146 55.2776 14.8917 53.1267C19.2629 57.1168 25.8761 59.6591 33.279 59.6591C40.682 59.6591 47.2971 57.1179 51.6684 53.1267C52.0454 55.2766 52.1578 61.6128 51.7246 63.7463H63.9331L58.399 41.9727C61.6258 40.7956 63.9331 37.7128 63.9331 34.0823ZM5.56671 34.0823C5.56671 32.1184 6.62019 30.4284 8.18252 29.4689C7.64608 33.2853 7.75439 36.457 8.54015 38.9277C6.77857 38.0132 5.56671 36.1995 5.56671 34.0823ZM33.279 22.9365C33.279 22.9365 46.8322 15.6378 51.8738 22.257C51.6837 22.4849 51.4988 22.7271 51.3169 22.9641C51.0635 23.2972 50.6445 23.8439 50.3268 24.1504C48.8084 22.9314 45.0318 20.2574 41.0927 20.2574C40.7596 20.2574 40.4265 20.2778 40.1026 20.3176C39.2862 20.4106 38.6741 20.9062 38.4606 21.6347C38.4203 21.7639 38.3929 21.8966 38.3788 22.0312C37.7821 21.8562 37.2453 21.7686 36.7685 21.7686C35.4677 21.7686 34.7249 22.3684 34.3335 22.8732C33.4905 23.9563 33.5702 25.253 34.6584 26.9052C34.2804 27.0432 34.0137 27.2608 33.8359 27.4529C33.5723 27.7431 33.2954 28.2479 33.2811 29.003C33.2667 28.2489 32.9898 27.7441 32.7252 27.4529C32.4984 27.2071 32.2159 27.0194 31.9016 26.9052C32.9888 25.253 33.0695 23.9553 32.2276 22.8732C31.8352 22.3684 31.0954 21.7686 29.7916 21.7686C29.3147 21.7686 28.778 21.8562 28.1812 22.0312C28.1671 21.8966 28.1398 21.7639 28.0995 21.6347C27.8859 20.9062 27.2708 20.4106 26.4564 20.3176C26.1276 20.2775 25.7966 20.2574 25.4653 20.2574C21.5262 20.2574 17.7527 22.9304 16.2343 24.1525C15.9145 23.8439 15.4966 23.2972 15.2422 22.9641C15.0603 22.725 14.8753 22.4839 14.6863 22.257C19.7268 15.6378 33.279 22.9365 33.279 22.9365ZM10.5061 25.3837C11.0599 23.0581 11.6188 22.2652 12.2002 22.2652C13.4417 22.2652 14.7875 25.8834 16.408 25.8834C16.4639 25.8834 16.5204 25.8786 16.5776 25.8691C16.5776 25.8691 21.0092 21.7921 25.4663 21.7921C25.7374 21.7908 26.0076 21.8061 26.2766 21.8381C28.0014 22.0414 23.2112 26.1869 20.6025 28.3265C22.9639 26.4924 27.4139 23.3013 29.7926 23.3013C30.3168 23.3013 30.7409 23.4566 31.0178 23.8143C32.1877 25.3194 28.3018 28.8834 25.2415 31.3317C27.3239 29.8613 29.8304 28.2908 31.0423 28.2908C31.5368 28.2908 31.8148 28.5534 31.7586 29.192C31.4112 33.1413 23.7078 42.3334 19.0024 43.2694C18.2319 43.4226 17.4809 43.5044 16.7606 43.5044C11.1345 43.5054 7.35895 38.6069 10.5061 25.3837ZM33.279 58.2316C25.0085 58.2316 18.3055 53.1952 18.3055 46.9785C18.3055 46.2622 18.4036 45.5633 18.5773 44.8859C18.8185 44.8491 19.0565 44.8225 19.3018 44.7745C24.7132 43.6996 32.8417 34.0323 33.2811 29.3555C33.7174 34.0323 41.8448 43.6975 47.2573 44.7765C47.5025 44.8235 47.7406 44.8491 47.9817 44.8859C48.1554 45.5633 48.2535 46.2622 48.2535 46.9785C48.2525 53.1952 41.5495 58.2316 33.279 58.2316ZM49.7995 43.5054C49.0791 43.5054 48.3271 43.4237 47.5567 43.2704C42.8513 42.3344 35.1469 33.1423 34.8025 29.193C34.7463 28.5544 35.0242 28.2918 35.5188 28.2918C36.7307 28.2918 39.2371 29.8613 41.3206 31.3327C38.2613 28.8844 34.3734 25.3194 35.5433 23.8153C35.8223 23.4576 36.2463 23.3023 36.7685 23.3023C39.1472 23.3023 43.5982 26.4934 45.9565 28.3276C43.3499 26.1859 38.5607 22.0435 40.2824 21.8391C40.5529 21.8071 40.823 21.7918 41.0927 21.7931C45.5509 21.7931 49.9834 25.8701 49.9834 25.8701C50.0407 25.8803 50.0972 25.8851 50.1531 25.8844C51.7716 25.8844 53.1163 22.2662 54.3578 22.2662C54.9402 22.2662 55.4991 23.0581 56.0519 25.3848C59.2011 38.6069 55.4235 43.5054 49.7995 43.5054ZM58.3775 29.4689C59.9378 30.4274 60.9923 32.1184 60.9923 34.0823C60.9923 36.1995 59.7805 38.0142 58.0209 38.9257C58.8057 36.457 58.914 33.2843 58.3775 29.4689Z" fill="white"/>
<path d="M45.9556 28.3263C46.8712 29.0784 47.518 29.5831 47.518 29.5831C47.518 29.5831 46.9079 29.0671 45.9556 28.3263ZM41.3197 31.3314C43.1375 32.7865 44.662 33.8461 44.662 33.8461C44.662 33.8461 43.1559 32.6271 41.3197 31.3314Z" fill="white"/>
<path d="M42.8072 48.2138C42.3824 46.7393 40.0598 46.1142 37.6197 46.8173C35.1795 47.5205 33.5457 49.2857 33.9706 50.7601C34.3955 52.2346 36.718 52.8598 39.1582 52.1566C41.5983 51.4534 43.2321 49.6881 42.8072 48.2138Z" fill="white"/>
</svg>
