<svg width="66" height="66" viewBox="0 0 66 66" fill="none" xmlns="http://www.w3.org/2000/svg">
<path d="M51.4814 2.09857C48.7491 1.70313 45.6858 3.43611 45.086 7.49573C44.5863 10.8861 43.2978 19.2455 42.6418 23.489C41.6517 22.6634 40.3428 22.2036 38.9316 22.2036C36.9677 22.2036 34.9262 23.1314 33.7828 24.8889C33.6016 24.6625 33.3994 24.4538 33.1789 24.2656C32.2082 23.4635 30.9033 23.0231 29.5076 23.0231C27.2749 23.0231 25.028 24.1614 24.1676 26.3521L21.6918 13.8667C21.091 11.7567 19.637 10.2669 17.7006 9.78048C15.7592 9.29206 13.6185 9.89185 12.2452 11.3071C10.9118 12.6814 10.4755 14.6392 11.0416 16.6858C11.2173 17.7005 13.8719 33.0796 14.3164 35.8538C14.5422 37.2466 14.4809 38.6444 14.4063 40.4152C14.3031 42.8072 14.1775 45.7847 14.7466 49.9751C15.7878 57.6479 22.7054 62.8877 32.3707 63.326C32.7658 63.343 33.163 63.3516 33.5621 63.3516C41.8458 63.3516 51.1953 59.4973 53.2154 50.6853C54.4293 45.4026 53.4954 41.9009 51.5744 39.2605C51.9668 36.2646 54.6102 15.9747 55.6831 8.32441C56.2124 4.53761 53.8775 2.44292 51.4814 2.09857ZM46.681 7.50697C47.5475 1.63671 53.8714 3.11628 53.242 7.696L49.3101 36.8215C47.8734 35.5698 46.2324 34.503 44.6067 33.4516L44.4841 33.3729C44.4841 33.3729 44.5046 29.2571 44.5904 27.8327C44.6292 27.1532 44.477 26.0445 44.0948 25.3896C44.0948 25.3896 46.0424 11.8445 46.681 7.50697ZM41.386 26.7925V31.8514C40.0842 31.5899 38.9521 31.8944 37.7126 32.2397C36.9248 32.4604 36.0267 32.7057 34.9129 32.8548L34.5788 27.4332C34.5777 22.8534 41.4054 23.3766 41.386 26.7925ZM25.2865 28.0074C24.9667 23.7281 31.7044 23.8558 31.8046 27.8756V32.9529C30.0389 33.1154 28.2416 34.1362 27.6591 36.1185C27.466 36.8023 27.4177 37.5188 27.5171 38.2224C27.0039 37.9194 26.5794 37.487 26.2858 36.9684C25.9923 36.4498 25.84 35.8632 25.8444 35.2673L25.2865 28.0074ZM15.8338 35.6709C15.373 32.8058 12.3208 16.1923 12.3208 16.1923C11.0078 11.5748 18.1012 9.75085 19.218 14.1497C19.218 14.1497 22.5 31.0708 23.8151 36.6611C24.3199 38.8017 26.3727 40.4019 28.5961 40.688C29.0222 41.2071 29.5801 41.6883 30.3056 42.097C30.3199 42.1052 30.3301 42.1185 30.3465 42.1267L30.3669 42.1359C31.2906 42.564 32.3155 42.9717 33.4047 43.1812C31.121 44.4574 29.2777 46.9465 30.3955 51.0133C30.3046 44.3021 35.807 42.937 38.5648 42.7755C38.6139 42.8266 41.4882 46.0249 41.7794 46.5746C42.0553 47.0947 41.8438 48.4138 41.8438 48.4138C41.8438 48.4138 42.4436 47.1642 42.1881 46.453C41.9541 45.8052 39.9351 42.1277 38.526 41.5116C37.8036 41.1938 36.5222 41.8947 34.8557 41.5678C33.7205 41.345 32.01 40.4867 31.1455 39.9656C28.2559 38.2214 28.7719 34.2772 31.3846 34.457C34.5542 34.6767 36.5897 33.938 38.0917 33.5211C39.8451 33.0306 41.3022 32.7966 42.9116 33.8501C42.9116 33.8501 50.4811 39.2145 51.5673 42.8869C52.8752 48.8992 49.5533 59.8366 33.6632 60.7684C27.4221 60.7684 23.4513 58.9966 21.0818 57.327C18.8624 55.5164 16.7953 53.0467 16.3427 49.7207C15.7991 45.7101 16.0913 37.2701 15.8338 35.6709Z" fill="white"/>
</svg>
