<svg width="66" height="66" viewBox="0 0 66 66" fill="none" xmlns="http://www.w3.org/2000/svg">
<path d="M60.9832 44.7396C60.9838 42.4826 60.1543 40.3041 58.6525 38.619C60.1813 35.3541 60.9762 31.7937 60.9812 28.1885C60.9812 13.7729 48.3762 2.04362 32.8816 2.04362C17.3891 2.04362 4.78412 13.7729 4.78412 28.1885C4.78412 31.7811 5.58419 35.3472 7.11076 38.619C5.61055 40.3047 4.78248 42.4831 4.78412 44.7396C4.78412 49.2315 8.07126 53.0142 12.4957 54.0503C12.4737 54.1422 12.4537 54.2345 12.4354 54.3272C12.0798 56.1542 12.5733 58.0098 13.824 59.5425C15.3863 61.4563 17.9695 62.6549 20.5853 62.6835C20.7406 62.6958 21.04 62.7111 21.3792 62.7111C22.2631 62.7111 23.2593 62.6222 24.0676 62.005L24.0717 62.0081C25.2805 63.1188 27.1616 63.3518 28.5288 63.3518C29.8602 63.3518 31.678 63.1311 32.8837 62.099C34.0915 63.1321 35.9072 63.3518 37.2366 63.3518C38.6037 63.3518 40.4859 63.1188 41.6886 62.0112L41.6947 62.005C42.5029 62.6222 43.5012 62.7111 44.3831 62.7111C44.7243 62.7111 45.0258 62.6947 45.1811 62.6835C47.7938 62.6549 50.3739 61.4584 51.9362 59.5456C53.19 58.0118 53.6845 56.1573 53.3289 54.3211C53.3139 54.2441 53.2939 54.1538 53.2686 54.0503C57.6941 53.0152 60.9832 49.2325 60.9832 44.7396ZM50.8214 51.7564C50.425 51.7564 50.0349 51.7274 49.6515 51.6695C50.1307 52.7669 50.6896 54.129 50.8214 54.8136C51.3783 57.692 48.2526 60.1096 45.082 60.1096C45.082 60.1096 44.7621 60.1351 44.3831 60.1351C43.9324 60.1351 43.395 60.0983 43.2151 59.9328C42.0278 58.8405 43.2151 53.9226 43.2151 53.9226C43.2151 53.0939 42.4886 52.4236 41.5884 52.4236C40.6943 52.4236 39.9638 53.0939 39.9638 53.9226C39.9638 53.9226 41.149 59.0152 39.9638 60.1096C39.4825 60.5541 38.3595 60.7748 37.2355 60.7748C36.1116 60.7748 34.9886 60.553 34.5053 60.1096C33.322 59.0163 34.5053 53.9226 34.5053 53.9226C34.5053 53.0939 33.7808 52.4236 32.8806 52.4236C31.9845 52.4236 31.258 53.0939 31.258 53.9226C31.258 53.9226 32.4433 59.0152 31.258 60.1096C30.7747 60.5541 29.6517 60.7748 28.5277 60.7748C27.4038 60.7748 26.2808 60.553 25.7975 60.1096C24.6142 59.0163 25.7975 53.9226 25.7975 53.9226C25.7975 53.0939 25.073 52.4236 24.1749 52.4236C23.2747 52.4236 22.5461 53.0939 22.5461 53.9226C22.5461 53.9226 23.7314 58.8405 22.5461 59.9328C22.3663 60.0983 21.8319 60.1351 21.3782 60.1351C21.0011 60.1351 20.6813 60.1096 20.6813 60.1096C17.5117 60.1096 14.3809 57.693 14.9419 54.8136C15.0716 54.129 15.6306 52.7669 16.1098 51.6695C15.7232 51.7278 15.3328 51.7569 14.9419 51.7564C10.7433 51.7564 7.33863 48.6164 7.33863 44.7396C7.33863 42.4835 8.49224 40.4736 10.2906 39.1902C8.35645 35.8463 7.33823 32.0515 7.33863 28.1885C7.33863 15.1707 18.7716 4.61959 32.8816 4.61959C46.9917 4.61959 58.4267 15.1707 58.4267 28.1885C58.4267 32.1623 57.3589 35.9072 55.4747 39.1902C57.269 40.4736 58.4267 42.4835 58.4287 44.7396C58.4287 48.6164 55.0221 51.7564 50.8214 51.7564Z" fill="white"/>
<path d="M14.7834 30.0973C8.62697 30.4376 16.0708 38.5701 18.9421 40.5146C21.8103 42.4529 28.7054 38.8409 28.308 36.4846C27.7194 33.0227 18.5732 29.8868 14.7834 30.0973ZM32.8846 41.2513C31.7708 41.2513 31.3141 42.6849 30.4078 44.2697C29.6251 45.6318 27.3679 46.6025 28.7392 47.8726C30.2024 49.2224 35.5607 49.2224 37.0229 47.8726C38.3645 46.6352 36.137 45.6318 35.3563 44.2676C34.451 42.6839 33.9963 41.2513 32.8846 41.2513ZM50.9858 30.0973C47.1939 29.8868 38.0498 33.0237 37.4613 36.4836C37.0617 38.8409 43.9589 42.4529 46.8291 40.5135C49.6963 38.5701 57.1402 30.4365 50.9858 30.0973Z" fill="white"/>
</svg>
