<svg width="67" height="67" viewBox="0 0 67 67" fill="none" xmlns="http://www.w3.org/2000/svg">
<path d="M62.5869 31.9557H55.5405L59.7871 27.7081C59.9335 27.5666 60.0502 27.3975 60.1306 27.2105C60.211 27.0235 60.2532 26.8225 60.255 26.6189C60.2567 26.4154 60.218 26.2136 60.1409 26.0252C60.0638 25.8368 59.95 25.6657 59.8061 25.5218C59.6623 25.3779 59.4911 25.2641 59.3027 25.1871C59.1144 25.1099 58.9126 25.0712 58.709 25.0729C58.5055 25.0748 58.3044 25.117 58.1174 25.1973C57.9304 25.2777 57.7613 25.3944 57.6199 25.5408L51.205 31.9557H46.3995L48.9499 29.4073C49.0963 29.2659 49.213 29.0968 49.2934 28.9098C49.3737 28.7228 49.4159 28.5217 49.4178 28.3182C49.4195 28.1146 49.3808 27.9128 49.3036 27.7245C49.2266 27.5361 49.1128 27.3649 48.9689 27.2211C48.825 27.0772 48.6539 26.9634 48.4654 26.8863C48.2771 26.8092 48.0753 26.7704 47.8718 26.7722C47.6682 26.774 47.4671 26.8162 47.2802 26.8965C47.0932 26.9769 46.9241 27.0936 46.7826 27.2401L42.065 31.9557H37.1654L46.4076 22.7145H55.4802C55.8867 22.7145 56.2766 22.5531 56.5641 22.2656C56.8515 21.9782 57.0129 21.5883 57.0129 21.1818C57.0129 20.7753 56.8515 20.3854 56.5641 20.098C56.2766 19.8105 55.8867 19.6491 55.4802 19.6491H49.473L55.141 13.9801C55.2874 13.8387 55.4041 13.6696 55.4845 13.4826C55.5648 13.2956 55.607 13.0945 55.6089 12.891C55.6106 12.6875 55.5719 12.4856 55.4947 12.2973C55.4177 12.1089 55.3039 11.9378 55.16 11.7939C55.0161 11.65 54.845 11.5362 54.6565 11.4591C54.4682 11.382 54.2664 11.3433 54.0629 11.345C53.8593 11.3468 53.6582 11.389 53.4713 11.4694C53.2843 11.5498 53.1152 11.6665 52.9737 11.8129L47.3058 17.4819V11.4747C47.3058 11.0682 47.1444 10.6783 46.8569 10.3909C46.5695 10.1035 46.1796 9.94197 45.7731 9.94197C45.3666 9.94197 44.9767 10.1035 44.6893 10.3909C44.4018 10.6783 44.2404 11.0682 44.2404 11.4747V20.5473L34.9982 29.7884V24.8889L39.7138 20.1723C39.8602 20.0308 39.9769 19.8617 40.0573 19.6747C40.1377 19.4878 40.1799 19.2867 40.1817 19.0831C40.1834 18.8796 40.1447 18.6778 40.0676 18.4895C39.9905 18.301 39.8767 18.1299 39.7328 17.986C39.589 17.8421 39.4178 17.7283 39.2294 17.6513C39.0411 17.5741 38.8393 17.5354 38.6357 17.5371C38.4322 17.539 38.2311 17.5812 38.0441 17.6615C37.8571 17.7419 37.688 17.8586 37.5466 18.005L34.9982 20.5544V15.7489L41.4141 9.334C41.5605 9.19261 41.6772 9.02349 41.7576 8.8365C41.8379 8.6495 41.8801 8.44837 41.882 8.24486C41.8837 8.04135 41.845 7.83952 41.7678 7.65116C41.6908 7.46279 41.577 7.29167 41.4331 7.14776C41.2892 7.00385 41.1181 6.89004 40.9297 6.81298C40.7413 6.73592 40.5395 6.69713 40.336 6.6989C40.1324 6.70067 39.9314 6.74295 39.7444 6.82328C39.5574 6.9036 39.3883 7.02036 39.2469 7.16676L34.9982 11.4134V4.36702C34.9982 3.96053 34.8368 3.57067 34.5493 3.28323C34.2619 2.9958 33.872 2.83432 33.4655 2.83432C33.059 2.83432 32.6691 2.9958 32.3817 3.28323C32.0942 3.57067 31.9328 3.96053 31.9328 4.36702V11.4134L27.6862 7.16574C27.5448 7.01934 27.3757 6.90258 27.1887 6.82226C27.0017 6.74192 26.8006 6.69964 26.597 6.69787C26.3935 6.69611 26.1917 6.73489 26.0034 6.81196C25.815 6.88902 25.6438 7.00283 25.4999 7.14674C25.3561 7.29065 25.2422 7.46177 25.1652 7.65014C25.088 7.8385 25.0493 8.04033 25.0511 8.24384C25.0529 8.44735 25.0951 8.64847 25.1754 8.83547C25.2558 9.02246 25.3725 9.19159 25.5189 9.33298L31.9328 15.7479V20.5534L29.3844 18.004C29.243 17.8576 29.0739 17.7409 28.8869 17.6605C28.6999 17.5801 28.4988 17.5379 28.2953 17.5361C28.0917 17.5344 27.8899 17.5731 27.7016 17.6502C27.5132 17.7273 27.342 17.8411 27.1982 17.985C27.0543 18.1289 26.9405 18.3 26.8634 18.4884C26.7863 18.6767 26.7476 18.8786 26.7493 19.0821C26.7511 19.2856 26.7933 19.4867 26.8736 19.6737C26.9541 19.8607 27.0707 20.0298 27.2172 20.1712L31.9328 24.8879V29.7874L22.6926 20.5462V11.4737C22.6926 11.0672 22.5312 10.6773 22.2438 10.3899C21.9563 10.1024 21.5664 9.94095 21.1599 9.94095C20.7535 9.94095 20.3635 10.1024 20.0761 10.3899C19.7887 10.6773 19.6272 11.0672 19.6272 11.4737V17.4808L13.9572 11.8119C13.8158 11.6654 13.6467 11.5488 13.4597 11.4683C13.2727 11.388 13.0716 11.3458 12.8681 11.344C12.6646 11.3423 12.4628 11.381 12.2744 11.4581C12.086 11.5352 11.9149 11.649 11.771 11.7929C11.6271 11.9367 11.5133 12.1079 11.4363 12.2963C11.3591 12.4846 11.3204 12.6864 11.3221 12.89C11.324 13.0935 11.3662 13.2946 11.4465 13.4816C11.5269 13.6686 11.6436 13.8377 11.79 13.9791L17.46 19.6481H11.4528C11.0463 19.6481 10.6565 19.8095 10.369 20.097C10.0816 20.3844 9.9201 20.7743 9.9201 21.1808C9.9201 21.5872 10.0816 21.9772 10.369 22.2646C10.6565 22.552 11.0463 22.7135 11.4528 22.7135H20.5254L29.7655 31.9547H24.866L20.1504 27.239C20.009 27.0926 19.8399 26.9759 19.6529 26.8955C19.4659 26.8152 19.2648 26.773 19.0612 26.7712C18.8577 26.7694 18.6559 26.8081 18.4676 26.8853C18.2792 26.9623 18.108 27.0762 17.9641 27.22C17.8203 27.3639 17.7064 27.5351 17.6294 27.7235C17.5523 27.9118 17.5135 28.1136 17.5153 28.3171C17.5171 28.5207 17.5593 28.7218 17.6396 28.9088C17.72 29.0958 17.8367 29.2649 17.9831 29.4063L20.5315 31.9547H15.726L9.31213 25.5398C9.17074 25.3934 9.00161 25.2767 8.81462 25.1963C8.62762 25.1159 8.4265 25.0737 8.22299 25.0719C8.01948 25.0702 7.81765 25.1089 7.62929 25.186C7.44092 25.2631 7.2698 25.3769 7.12589 25.5208C6.98198 25.6646 6.86817 25.8358 6.79111 26.0242C6.71404 26.2125 6.67526 26.4143 6.67702 26.6179C6.6788 26.8214 6.72107 27.0225 6.80141 27.2095C6.88173 27.3965 6.99849 27.5656 7.14489 27.707L11.3915 31.9547H4.34413C3.93749 31.9547 3.54751 32.1162 3.25999 32.4037C2.97245 32.6913 2.81091 33.0812 2.81091 33.4879C2.81091 33.8946 2.97245 34.2845 3.25999 34.572C3.54751 34.8595 3.93749 35.0211 4.34413 35.0211H11.3905L7.14387 39.2687C7.00156 39.4111 6.88869 39.5801 6.81171 39.7661C6.73472 39.9521 6.69512 40.1515 6.69516 40.3528C6.69521 40.554 6.73491 40.7533 6.81198 40.9393C6.88906 41.1252 7.00201 41.2941 7.14438 41.4365C7.28674 41.5788 7.45575 41.6916 7.64174 41.7687C7.82773 41.8456 8.02706 41.8853 8.22836 41.8851C8.42965 41.8851 8.62896 41.8454 8.81492 41.7684C9.00088 41.6913 9.16982 41.5783 9.31213 41.436L15.726 35.0211H20.5315L17.9831 37.5695C17.6957 37.857 17.5344 38.2469 17.5345 38.6535C17.5346 39.06 17.6961 39.4498 17.9837 39.7372C18.2712 40.0247 18.6611 40.186 19.0677 40.1859C19.4742 40.1858 19.864 40.0242 20.1514 39.7367L24.867 35.0211H29.7666L20.5264 44.2623H11.4538C11.0474 44.2623 10.6575 44.4237 10.37 44.7111C10.0826 44.9986 9.92112 45.3885 9.92112 45.795C9.92112 46.2014 10.0826 46.5914 10.37 46.8788C10.6575 47.1662 11.0474 47.3277 11.4538 47.3277H17.461L11.791 52.9966C11.6487 53.139 11.5359 53.308 11.4588 53.494C11.3819 53.68 11.3422 53.8794 11.3423 54.0807C11.3425 54.4871 11.504 54.877 11.7915 55.1644C12.0791 55.4518 12.469 55.6132 12.8756 55.6131C13.282 55.613 13.6719 55.4514 13.9593 55.1639L19.6293 49.4949V55.5021C19.6293 55.9086 19.7907 56.2985 20.0781 56.5859C20.3656 56.8734 20.7555 57.0348 21.162 57.0348C21.5684 57.0348 21.9584 56.8734 22.2458 56.5859C22.5332 56.2985 22.6947 55.9086 22.6947 55.5021V46.4295L31.9348 37.1883V42.0879L27.2192 46.8045C26.9318 47.092 26.7704 47.482 26.7705 47.8885C26.7706 48.295 26.9322 48.6848 27.2197 48.9723C27.5073 49.2597 27.8972 49.421 28.3038 49.4209C28.7102 49.4208 29.1 49.2593 29.3875 48.9718L31.9359 46.4224V51.2279L25.522 57.6417C25.3797 57.7841 25.2669 57.9531 25.1898 58.1392C25.1129 58.3251 25.0732 58.5245 25.0733 58.7258C25.0733 58.9271 25.1131 59.1263 25.1901 59.3123C25.2672 59.4983 25.3802 59.6672 25.5225 59.8095C25.6648 59.9518 25.8339 60.0646 26.0199 60.1417C26.2059 60.2186 26.4052 60.2583 26.6065 60.2582C26.8078 60.2582 27.0071 60.2184 27.1931 60.1414C27.379 60.0643 27.5479 59.9513 27.6903 59.809L31.9369 55.5624V62.6098C31.9369 63.0162 32.0983 63.4061 32.3858 63.6936C32.6732 63.981 33.0631 64.1425 33.4696 64.1425C33.8761 64.1425 34.266 63.981 34.5534 63.6936C34.8408 63.4061 35.0023 63.0162 35.0023 62.6098V55.5634L39.2509 59.81C39.5503 60.1094 39.9417 60.2586 40.3351 60.2586C40.6381 60.2585 40.9344 60.1687 41.1862 60.0003C41.4382 59.8319 41.6346 59.5927 41.7507 59.3127C41.8666 59.0327 41.8971 58.7248 41.8381 58.4275C41.7791 58.1303 41.6334 57.8571 41.4192 57.6428L34.9982 51.2279V46.4224L37.5466 48.9718C37.846 49.2711 38.2394 49.4203 38.6307 49.4203C38.9338 49.4202 39.23 49.3304 39.4819 49.162C39.7338 48.9936 39.9302 48.7544 40.0463 48.4744C40.1623 48.1945 40.1927 47.8865 40.1338 47.5893C40.0747 47.292 39.929 47.0189 39.7148 46.8045L34.9982 42.0879V37.1883L44.2404 46.4295V55.5021C44.2404 55.9086 44.4018 56.2985 44.6893 56.5859C44.9767 56.8734 45.3666 57.0348 45.7731 57.0348C46.1796 57.0348 46.5695 56.8734 46.8569 56.5859C47.1444 56.2985 47.3058 55.9086 47.3058 55.5021V49.4949L52.9737 55.1639C53.2731 55.4633 53.6665 55.6124 54.0579 55.6124C54.3609 55.6123 54.6572 55.5225 54.909 55.3541C55.161 55.1857 55.3574 54.9465 55.4735 54.6666C55.5895 54.3866 55.6199 54.0786 55.5609 53.7814C55.5019 53.4841 55.3562 53.211 55.142 52.9966L49.4741 47.3277H55.4812C55.8877 47.3277 56.2776 47.1662 56.5651 46.8788C56.8525 46.5914 57.014 46.2014 57.014 45.795C57.014 45.3885 56.8525 44.9986 56.5651 44.7111C56.2776 44.4237 55.8877 44.2623 55.4812 44.2623H46.4087L37.1654 35.0211H42.065L46.7826 39.7367C47.082 40.0361 47.4734 40.1853 47.8668 40.1853C48.1698 40.1852 48.4661 40.0954 48.7179 39.927C48.9699 39.7586 49.1663 39.5194 49.2824 39.2394C49.3984 38.9594 49.4288 38.6515 49.3698 38.3542C49.3108 38.057 49.1651 37.7838 48.9509 37.5695L46.3995 35.0211H51.205L57.6189 41.436C57.9182 41.7354 58.3116 41.8845 58.703 41.8845C59.0061 41.8844 59.3023 41.7946 59.5542 41.6262C59.8061 41.4578 60.0025 41.2186 60.1186 40.9387C60.2346 40.6587 60.265 40.3507 60.2061 40.0535C60.147 39.7562 60.0013 39.4831 59.7871 39.2687L55.5405 35.0211H62.5869C62.9933 35.0211 63.3833 34.8596 63.6707 34.5722C63.9581 34.2848 64.1196 33.8949 64.1196 33.4884C64.1196 33.0819 63.9581 32.692 63.6707 32.4046C63.3833 32.1171 62.9933 31.9557 62.5869 31.9557Z" fill="white"/>
</svg>
