<svg width="66" height="67" viewBox="0 0 66 67" fill="none" xmlns="http://www.w3.org/2000/svg">
<path d="M63.4468 33.4802C63.4683 32.7517 63.6604 22.3385 57.4979 15.5598C57.224 14.9539 55.9253 12.5118 51.7339 9.52712C49.8755 8.08593 47.9019 6.79992 45.833 5.68208L45.8248 5.67799C45.5632 5.53801 40.4522 2.83432 34.2488 2.83432C33.7777 2.83432 33.3118 2.86191 32.851 2.89358V2.88541C28.121 2.7822 23.4228 3.99917 20.5914 5.27745C18.0798 6.41165 15.2913 8.31322 15.09 8.46036C11.6118 10.4059 5.016 18.2135 4.49386 22.3507C2.38588 25.0452 0.6243 37.1485 4.49795 44.5208C7.2139 54.7664 17.4381 59.8938 18.2515 60.2872C18.746 60.6029 24.3179 64.0474 31.163 64.0474C31.4501 64.0474 33.1861 64.1435 33.8053 64.1435C41.2042 64.1435 52.1681 58.9282 54.4631 54.843C60.7687 50.2306 64.0374 38.344 63.4468 33.4802ZM18.3077 48.8716C15.3761 44.1294 13.7055 37.9332 13.3478 36.5099C14.2756 35.1192 18.8523 28.3712 21.4599 26.3409C22.9364 26.6127 29.102 27.7448 34.9171 28.7973C35.6476 30.6907 38.853 39.0449 39.7706 42.2698C38.759 43.4694 34.7852 48.0961 30.8728 51.7194C26.7191 51.7388 19.6544 49.3427 18.3077 48.8716ZM55.16 15.6886C55.1477 16.1484 55.0384 17.7833 54.2557 19.6603C52.7015 18.8664 48.7952 17.1661 43.4409 16.879C42.6306 15.6825 39.5816 11.5104 34.7658 8.6167C35.4249 7.32718 36.3425 5.75463 36.8789 5.2754C37.0526 5.22636 37.3224 5.1814 37.7331 5.1814C40.3152 5.1814 44.7764 6.87248 45.1647 7.02268C45.5765 7.24033 53.5956 11.5585 55.16 15.6886ZM12.1922 35.5443C8.69449 34.9475 6.61512 33.8603 5.99387 33.4925C4.69311 28.7748 5.74046 23.676 5.9019 22.9454C7.18529 20.6505 10.8393 14.8006 13.2497 13.6899C15.748 13.1801 18.8635 13.8136 20.1326 14.1232C20.013 15.7734 19.7831 20.3838 20.4657 25.222C17.7007 27.4475 13.3243 33.8532 12.1922 35.5443ZM32.5383 4.39767C33.323 4.45592 34.4746 4.62758 35.2634 4.86157C34.4767 5.9079 33.6705 7.45899 33.2893 8.22535C31.6851 8.48795 25.5921 9.6528 20.8121 12.7519C19.8485 12.4965 16.9384 11.8149 14.1826 12.05C14.8652 10.7288 15.885 9.75192 15.9943 9.65178C16.3734 9.37998 23.6711 4.27404 32.5383 4.38439V4.39767ZM52.0506 43.3212C50.8551 43.2721 46.2488 43.0095 41.1981 41.8232C40.2304 38.4492 37.0353 30.1297 36.3047 28.2373C38.6292 24.9241 40.989 21.6358 43.3837 18.3729C49.1957 18.6917 53.2768 20.8119 54.0667 21.2543C57.4335 26.6689 58.1723 32.1989 58.2734 33.1226C56.4853 38.6873 52.9488 42.4343 52.0506 43.3212ZM3.89713 29.9315C3.98296 31.2251 4.19039 32.5872 4.56539 33.9339C4.22792 34.8064 3.99403 35.7156 3.86852 36.6427C3.65486 34.4103 3.66444 32.1621 3.89713 29.9315ZM13.7514 53.7998C15.2923 52.3151 17.1918 50.8703 17.9286 50.3246C19.5941 50.9111 26.4341 53.2235 30.7941 53.2235C31.5369 54.2197 33.9658 57.3393 36.9433 59.7242C35.0897 61.5379 32.4126 62.3942 31.9395 62.5362C23.6353 62.7589 15.5478 58.0913 13.7514 53.7998ZM35.6824 62.5239C36.6245 61.9752 37.6064 61.2528 38.4188 60.3383C39.7441 60.1554 45.4314 59.1765 50.5711 55.4009C50.9103 55.4377 51.4692 55.4827 52.0936 55.4653C49.0098 58.4868 41.4852 61.8618 35.6824 62.5239ZM51.4427 53.9653C53.2891 49.1547 53.2104 45.5273 53.1194 44.3685C54.1331 43.3753 57.6113 39.6693 59.5415 34.035C60.5817 34.2088 61.2581 34.4734 61.5789 34.6216C61.6903 35.0303 61.8763 35.9744 61.771 37.406C60.9843 42.5589 58.2683 50.2807 53.5108 53.6945C53.0326 53.9387 52.1906 53.9919 51.4427 53.9653Z" fill="white"/>
</svg>
