<svg width="67" height="67" viewBox="0 0 67 67" fill="none" xmlns="http://www.w3.org/2000/svg">
<path d="M53.2582 17.0496C49.8535 13.6297 45.7684 12.1491 41.5095 12.1491C41.1427 12.1491 40.7728 12.1654 40.406 12.1879C39.3474 7.42425 37.877 2.83432 37.877 2.83432C37.877 2.83432 31.4488 6.91233 27.6896 10.7185C23.3419 7.31901 18.3412 4.1882 18.3412 4.1882C18.3412 4.1882 17.2744 12.0009 17.6484 17.724C11.9498 17.3551 4.17285 18.4311 4.17285 18.4311C4.17285 18.4311 7.29037 23.4502 10.6797 27.8164C6.89085 31.594 2.83429 38.0558 2.83429 38.0558C2.83429 38.0558 7.58158 39.5855 12.4208 40.6492C12.2584 45.1666 13.7093 49.5194 17.301 53.1284C24.9042 60.7623 38.0803 64.1425 48.1747 64.1425C54.0286 64.1414 58.8475 63.0052 60.9391 60.9033C66.5815 55.2334 65.2143 29.063 53.2582 17.0496ZM59.4646 59.436C58.2017 60.7051 54.5712 62.0621 48.1747 62.0631C38.6975 62.0631 25.9301 58.8475 18.7765 51.6611C10.5428 43.3886 15.3401 31.0381 23.2826 23.064C28.7891 17.5329 35.6025 14.2295 41.5095 14.2295C45.4945 14.2305 48.9513 15.6712 51.7837 18.519C56.7987 23.5565 60.3914 31.9782 61.637 41.6219C62.809 50.7068 61.4326 57.4588 59.4646 59.436Z" fill="white"/>
<path d="M41.838 19.5111C42.4286 19.9228 43.0795 20.1303 43.6476 20.1313C44.2004 20.1313 44.6756 19.9371 44.9463 19.5458C45.5032 18.7539 45.0107 17.4491 43.851 16.6357C43.2583 16.2219 42.6095 16.0155 42.0393 16.0155C41.4886 16.0155 41.0114 16.2096 40.7386 16.5999C40.1837 17.3929 40.6742 18.6987 41.838 19.5111ZM45.8251 34.2332C45.4932 34.2249 45.1697 34.3375 44.9147 34.5499C44.1841 35.1845 44.3455 36.569 45.2743 37.6409C45.8915 38.351 46.6936 38.7455 47.3762 38.7444C47.7236 38.7455 48.0404 38.6433 48.2866 38.4287C49.0192 37.7942 48.8558 36.4106 47.9269 35.3388C47.3098 34.6276 46.5097 34.2342 45.8251 34.2332ZM36.8526 25.2444C36.5314 25.2343 36.2173 25.341 35.9688 25.5448C35.2259 26.1671 35.3639 27.5557 36.2784 28.6419C36.8935 29.3725 37.6997 29.7802 38.3874 29.7812C38.7246 29.7812 39.0301 29.6821 39.2733 29.4798C40.0161 28.8565 39.8762 27.4709 38.9637 26.3806C38.3496 25.6511 37.5413 25.2434 36.8526 25.2444ZM54.3367 27.8367C53.8074 26.8711 52.9379 26.2733 52.1797 26.2733C51.9645 26.2714 51.7524 26.3234 51.5625 26.4246C50.7124 26.8905 50.5744 28.2771 51.2549 29.5227C51.7863 30.4883 52.6518 31.085 53.412 31.085C53.6296 31.085 53.8391 31.037 54.0291 30.9338C54.8803 30.4689 55.0172 29.0823 54.3367 27.8367ZM56.9433 40.0207C56.8391 40.0207 56.7359 40.034 56.6337 40.0605C55.6957 40.3058 55.2247 41.6147 55.5843 42.989C55.9041 44.2131 56.7717 45.0704 57.6218 45.0714C57.726 45.0714 57.8292 45.0585 57.9314 45.0326C58.8694 44.7884 59.3405 43.4764 58.9808 42.1021C58.662 40.88 57.7914 40.0207 56.9433 40.0207ZM55.7223 52.924C55.3605 52.925 55.0336 53.0313 54.7843 53.2581C54.0659 53.908 54.255 55.2884 55.2073 56.3429C55.8275 57.0286 56.6184 57.4036 57.2928 57.4046C57.6545 57.4036 57.9835 57.2963 58.2349 57.0684C58.9512 56.4186 58.7621 55.0381 57.8078 53.9856C57.1886 53.3021 56.3987 52.924 55.7223 52.924ZM34.431 51.9236C33.8496 51.5313 33.2161 51.3382 32.6571 51.3392C32.0859 51.3392 31.5934 51.5415 31.3196 51.9502C30.7811 52.7554 31.2991 54.049 32.4793 54.8368C33.0618 55.2282 33.6963 55.4223 34.2532 55.4223C34.8264 55.4223 35.3179 55.2179 35.5907 54.8092C36.1302 54.0061 35.6112 52.7115 34.431 51.9236ZM22.4166 48.4914C21.8352 48.1011 21.2017 47.908 20.6438 47.908C20.0706 47.908 19.5791 48.1113 19.3063 48.518C18.7678 49.3221 19.2858 50.6178 20.465 51.4046C21.0474 51.7949 21.6819 51.9911 22.2409 51.9901C22.8121 51.9901 23.3046 51.7867 23.5764 51.377C24.1138 50.5738 23.5968 49.2802 22.4166 48.4914ZM44.2648 56.6035C43.8516 56.4322 43.4092 56.3424 42.962 56.3389C42.1476 56.3378 41.4671 56.672 41.2239 57.2687C40.8622 58.1648 41.6367 59.3256 42.9518 59.8549C43.3952 60.0337 43.8418 60.1185 44.2546 60.1175C45.069 60.1175 45.7515 59.7864 45.9906 59.1897C46.3544 58.2925 45.5819 57.1338 44.2648 56.6035ZM46.9389 46.4611C46.384 46.131 45.7955 45.9696 45.2703 45.9696C44.6398 45.9686 44.1023 46.2036 43.8336 46.6563C43.337 47.488 43.9256 48.754 45.1446 49.4795C45.6994 49.8085 46.288 49.97 46.8152 49.97C47.4436 49.97 47.9811 49.736 48.2498 49.2833C48.7454 48.4495 48.1579 47.1845 46.9389 46.4611ZM36.1118 39.3667C35.4967 38.8558 34.7886 38.5922 34.1755 38.5932C33.7004 38.5922 33.2835 38.7516 33.0127 39.0775C32.3955 39.8224 32.7787 41.1641 33.87 42.0694C34.4862 42.5782 35.1953 42.8439 35.8084 42.8439C36.2835 42.8439 36.6984 42.6845 36.9702 42.3586C37.5873 41.6126 37.2062 40.271 36.1118 39.3667ZM25.1775 24.5199C24.7841 24.521 24.4316 24.6415 24.1741 24.896C23.4834 25.5755 23.7307 26.9477 24.7249 27.9583C25.3492 28.5898 26.1186 28.9321 26.7777 28.9331C27.17 28.9321 27.5226 28.8115 27.7801 28.5571C28.4708 27.8765 28.2245 26.5053 27.2293 25.4958C26.604 24.8612 25.8356 24.521 25.1775 24.5199ZM24.0995 36.5271C23.4885 36.0438 22.7967 35.7955 22.1959 35.7965C21.7014 35.7965 21.2671 35.9631 20.9953 36.3074C20.3935 37.0646 20.8073 38.398 21.919 39.2768C22.53 39.7611 23.2228 40.0074 23.8236 40.0074C24.3182 40.0074 24.7514 39.8429 25.0232 39.4975C25.623 38.7393 25.2113 37.4079 24.0995 36.5271Z" fill="white"/>
</svg>
