<svg width="64" height="65" viewBox="0 0 64 65" fill="none" xmlns="http://www.w3.org/2000/svg">
<path d="M20.519 59.9961L27.546 52.7961C25.0909 52.2621 22.7521 51.2899 20.642 49.9261L20.519 59.9961ZM43.481 4.56305L36.454 11.7621C38.9092 12.2963 41.248 13.2688 43.358 14.6331L43.481 4.56305ZM11.484 36.7331L4.283 43.7581L14.353 43.6361C12.9896 41.5262 12.0177 39.1878 11.484 36.7331ZM52.516 27.8261L59.715 20.7991L49.645 20.9221C51.0092 23.0321 51.9818 25.3709 52.516 27.8261ZM14.355 20.9211L4.285 20.7981L11.484 27.8251C12.0182 25.3698 12.9908 23.0311 14.355 20.9211ZM49.645 43.6371L59.715 43.7591L52.516 36.7331C51.9818 39.1883 51.0092 41.527 49.645 43.6371ZM27.546 11.7621L20.521 4.56205L20.642 14.6321C22.7521 13.2682 25.0909 12.296 27.546 11.7621ZM36.454 52.7961L43.481 59.9951L43.358 49.9261C41.2479 51.2899 38.9091 52.2621 36.454 52.7961ZM14.751 44.2411L10.786 53.4921L20.038 49.5271C17.9764 48.0922 16.1863 46.3023 14.751 44.2411ZM49.248 20.3181L53.213 11.0661L43.962 15.0311C46.0233 16.4663 47.8131 18.2565 49.248 20.3181ZM11 32.2791C11 31.0011 11.133 29.7551 11.352 28.5381L2 32.2781L11.351 36.0181C11.1226 34.7847 11.0051 33.5334 11 32.2791ZM62 32.2791L52.646 28.5381C52.865 29.7551 52.998 31.0011 52.998 32.2791C52.998 33.5571 52.865 34.8041 52.646 36.0201L62 32.2791ZM20.039 15.0301L10.787 11.0651L14.752 20.3171C16.1855 18.254 17.976 16.4636 20.039 15.0301ZM43.962 49.5271L53.213 53.4921L49.248 44.2411C47.8147 46.3036 46.0246 48.0937 43.962 49.5271ZM35.741 11.6311L32.001 2.27905L28.259 11.6311C29.4926 11.4022 30.7443 11.2844 31.999 11.2791C33.278 11.2791 34.524 11.4121 35.741 11.6311ZM28.259 52.9271L32.001 62.2791L35.741 52.9271C34.5067 53.156 33.2543 53.2738 31.999 53.2791C30.722 53.2791 29.476 53.1461 28.259 52.9271Z" fill="white"/>
<path d="M31.999 13.2791C21.507 13.2791 12.999 21.7871 12.999 32.2791C12.999 42.7711 21.507 51.2791 31.999 51.2791C42.493 51.2791 50.998 42.7721 50.998 32.2791C50.998 21.7861 42.493 13.2791 31.999 13.2791ZM31.999 49.2791C22.625 49.2791 14.999 41.6531 14.999 32.2791C14.999 22.9051 22.625 15.2791 31.999 15.2791C41.373 15.2791 48.998 22.9051 48.998 32.2791C48.998 41.6531 41.373 49.2791 31.999 49.2791Z" fill="white"/>
<path d="M39.971 37.5221C34.834 41.1051 29.137 41.0841 24.032 37.5221C23.417 37.0941 22.864 37.8361 23.28 38.5221C24.836 41.0851 27.977 43.3671 32.002 43.3671C36.025 43.3671 39.166 41.0851 40.723 38.5221C41.139 37.8371 40.586 37.0941 39.971 37.5221ZM29.004 31.6151C29.309 31.9331 29.916 31.3471 29.799 31.0211C28.621 27.7831 26.848 26.1641 25.074 26.1641C23.3 26.1641 21.526 27.7831 20.35 31.0211C20.233 31.3471 20.84 31.9331 21.145 31.6151C22.286 30.4101 23.651 29.9311 25.074 29.9311C26.497 29.9311 27.865 30.4101 29.004 31.6151ZM38.924 26.1641C37.153 26.1641 35.377 27.7831 34.199 31.0211C34.082 31.3471 34.691 31.9331 34.994 31.6151C36.135 30.4101 37.5 29.9311 38.924 29.9311C40.35 29.9311 41.715 30.4101 42.856 31.6151C43.161 31.9331 43.766 31.3471 43.651 31.0211C42.473 27.7831 40.699 26.1641 38.924 26.1641Z" fill="white"/>
</svg>
