<svg width="66" height="67" viewBox="0 0 66 67" fill="none" xmlns="http://www.w3.org/2000/svg">
<path d="M26.9625 42.0958L22.0864 43.2975C22.0139 43.3159 21.9505 43.3077 21.8862 43.3015L24.4345 55.7348C24.4918 55.697 24.549 55.6592 24.6266 55.6388L29.4945 54.4412L26.9625 42.0958ZM21.036 13.2973C21.0442 13.2953 21.0503 13.2984 21.0575 13.2973L20.0837 8.54801L15.0084 9.76497L15.9883 14.5419L21.036 13.2973ZM24.972 56.9937C24.8812 57.0144 24.7871 57.0172 24.6951 57.0019L25.6668 61.7441L30.7421 60.5291L29.7755 55.8115C28.1733 56.2046 26.5721 56.5986 24.972 56.9937ZM21.3385 14.6635L16.3143 15.8999C16.2969 15.904 16.2846 15.8989 16.2673 15.9009L16.9253 19.1063C15.3558 18.4391 10.7403 17.0719 2.60168 19.4108C2.60168 19.4108 8.81629 20.1659 14.1664 22.0746C11.663 22.3331 8.45457 23.1751 4.87622 25.3454C4.87622 25.3454 11.6651 24.3165 18.4907 26.7483L18.8024 28.2688C18.8228 28.2627 18.833 28.2484 18.8545 28.2432L23.8685 27.0089L21.3385 14.6635ZM31.6168 53.9702C31.5061 53.9908 31.392 53.9805 31.2867 53.9406L32.9186 64.1422L38.0419 63.1838L36.4182 53.0332L31.6168 53.9702ZM29.4679 10.14C29.4996 10.1338 29.5272 10.143 29.5579 10.142L28.4247 3.05582L23.3014 4.01325L24.4376 11.1199L29.4679 10.14Z" fill="white"/>
<path d="M49.3828 38.9407C45.8801 37.2966 42.1822 32.0292 39.1055 27.1563L36.0504 33.3923C35.2407 32.9252 34.5089 32.3347 33.8811 31.642C42.546 20.2499 45.6175 2.8343 45.6175 2.8343C45.6175 2.8343 43.2786 8.03119 35.4812 14.7751C33.8371 16.1974 32.3821 17.9468 31.1059 19.8187L29.7755 11.5023L24.6981 12.4924C24.6828 12.4954 24.6726 12.4903 24.6573 12.4914L26.7264 25.4151L27.0309 27.3198C26.2796 29.0376 25.6049 30.788 25.0088 32.5657L24.1504 28.3794L19.1998 29.5963C19.1549 29.6076 19.1181 29.5974 19.0762 29.5994L21.6184 42.001C21.6593 41.9806 21.691 41.953 21.74 41.9407L26.6814 40.7238L26.2686 38.7077C27.0748 38.2306 27.8463 37.6859 28.5932 37.1035L28.8701 38.8293C28.9028 38.8171 28.9274 38.7956 28.9652 38.7874L33.9833 37.8096L33.1965 32.8906C33.8691 33.5825 34.6362 34.1755 35.4751 34.6522L33.3324 39.3576L29.3085 40.1424C29.2317 40.1557 29.153 40.1544 29.0766 40.1383L31.0854 52.6931C31.1416 52.6615 31.1947 52.6278 31.2704 52.6134C32.9121 52.2926 34.5538 51.9728 36.1954 51.654L34.8232 43.0749C36.8147 46.0903 41.0756 51.3985 47.9544 54.5068C57.9609 59.0293 60.17 63.1022 60.17 63.1022L63.9098 49.0709C63.9098 49.0709 61.0498 44.4165 49.3828 38.9407ZM59.1645 58.9333C57.1955 57.2034 53.9646 54.9442 48.7841 52.6053C41.3116 49.2282 37.0997 42.9615 35.7755 40.7125L39.6992 32.0108C42.5551 36.2258 45.2956 39.3116 48.5286 40.83C56.8471 44.7354 60.452 48.1727 61.6669 49.5429L59.1645 58.9333Z" fill="white"/>
</svg>
