<svg width="66" height="66" viewBox="0 0 66 66" fill="none" xmlns="http://www.w3.org/2000/svg">
<path d="M45.9025 23.4013C47.1113 21.5835 48.2516 18.5815 45.4376 15.747C42.6092 12.9013 44.4893 8.75581 44.4893 8.75581C44.4893 8.75581 38.5486 14.2357 42.3006 18.0144C44.4801 20.2082 45.0217 21.9851 45.0217 23.2113C42.0677 22.5992 38.7826 22.2078 35.2819 22.0832C36.7063 19.5552 37.6831 15.8011 34.2509 12.2391C30.4804 8.32666 32.99 2.625 32.99 2.625C32.99 2.625 25.0679 10.1598 30.0717 15.3546C32.7314 18.1155 33.5571 20.389 33.6776 22.0474C33.414 22.0433 33.1494 22.0406 32.8837 22.0392C29.7028 22.0392 26.6691 22.26 23.8642 22.6646C24.8523 20.8335 25.4174 18.2259 22.9559 15.747C20.1275 12.9023 22.0087 8.75581 22.0087 8.75581C22.0087 8.75581 16.0679 14.2357 19.8189 18.0144C21.8084 20.0171 22.4286 21.6683 22.5226 22.8751C12.9146 24.5089 6.31479 28.3785 6.31683 33.0257C6.3199 33.2689 6.34238 33.511 6.37303 33.6919C6.64585 36.4262 7.99361 45.9188 13.8812 53.9716L12.839 56.8326L20.0366 59.4515C20.0785 59.476 20.1244 59.4985 20.1663 59.522C20.7733 60.3027 21.6827 61.1722 23.0519 61.9743C24.4252 62.7775 27.6929 63.9331 32.8816 63.9331C38.0724 63.9331 41.3422 62.7775 42.7134 61.9754C44.0806 61.1743 44.989 60.3047 45.5949 59.5271C48.2884 57.9587 50.3739 56.0264 51.7625 54.1494C57.7523 46.0639 59.1174 36.4467 59.3862 33.744C59.423 33.5069 59.4454 33.2668 59.4506 32.9797C59.4506 28.8066 54.0473 25.2508 45.9025 23.4013ZM21.4988 49.821V49.2703C21.7794 49.3969 22.002 49.6243 22.1226 49.9076C22.2432 50.1907 22.2529 50.5089 22.1497 50.7989C22.0287 51.0947 21.7978 51.3322 21.5055 51.4614C21.2133 51.5907 20.8822 51.6018 20.582 51.4924C20.2817 51.383 20.0354 51.1615 19.895 50.8745C19.7544 50.5875 19.7304 50.2571 19.8281 49.9528C19.8841 49.799 19.9704 49.6577 20.0818 49.5377C20.1932 49.4177 20.3276 49.3212 20.477 49.2539V49.821H21.4988ZM57.4049 33.0042C57.3996 33.1664 57.3846 33.3281 57.3599 33.4885C57.0973 36.1105 55.8007 45.2669 50.1205 52.9324C47.3013 56.7427 41.2931 60.8136 32.8837 60.8136C29.3656 60.8136 26.2737 60.0952 23.6538 58.9876L25.3786 54.2454L21.884 47.9154L21.4988 48.0635V40.0005C24.838 40.7147 28.725 41.1286 32.8816 41.1286C43.723 41.1286 52.771 38.339 54.8902 34.6248C52.771 30.9126 43.723 28.121 32.8816 28.121C22.0403 28.121 12.9943 30.9126 10.87 34.6248C12.0951 36.7665 15.6316 38.5975 20.477 39.7665V48.459L15.136 50.5189L14.7324 51.6266C9.82366 44.2532 8.65267 35.9613 8.39927 33.4323C8.37446 33.2826 8.3608 33.1314 8.3584 32.9797C8.3584 29.856 13.5849 26.5801 22.0669 25.0198C22.0342 25.072 22.0087 25.1047 22.0087 25.1047L22.1037 25.0127C25.2794 24.4323 28.8966 24.0828 32.8837 24.0828C47.5527 24.0828 57.4069 28.682 57.41 32.899L57.4049 33.0042Z" fill="white"/>
</svg>
