<svg width="66" height="67" viewBox="0 0 66 67" fill="none" xmlns="http://www.w3.org/2000/svg">
<path d="M45.7165 23.7967C46.9252 21.9789 48.0656 18.9768 45.2515 16.1423C42.4232 13.2966 44.3033 9.15117 44.3033 9.15117C44.3033 9.15117 38.3625 14.6311 42.1146 18.4097C44.2941 20.6035 44.8357 22.3804 44.8357 23.6066C41.8816 22.9945 38.5965 22.6032 35.0958 22.4785C36.5202 19.9506 37.4971 16.1965 34.0648 12.6345C30.2944 8.72201 32.8039 3.02036 32.8039 3.02036C32.8039 3.02036 24.8819 10.5551 29.8857 15.75C32.5454 18.5109 33.371 20.7844 33.4916 22.4428C33.228 22.4387 32.9633 22.4359 32.6977 22.4346C29.5168 22.4346 26.4831 22.6553 23.6782 23.0599C24.6663 21.2289 25.2314 18.6212 22.7698 16.1423C19.9415 13.2976 21.8226 9.15117 21.8226 9.15117C21.8226 9.15117 15.8819 14.6311 19.6329 18.4097C21.6224 20.4125 22.2426 22.0637 22.3366 23.2704C12.7286 24.9043 6.12877 28.7739 6.13081 33.421C6.13388 33.6642 6.15636 33.9064 6.18701 34.0872C6.45983 36.8216 7.80759 46.3141 13.6952 54.3669L12.653 57.228L19.8506 59.8469C19.8924 59.8714 19.9384 59.8939 19.9803 59.9174C20.5873 60.698 21.4967 61.5676 22.8659 62.3697C24.2392 63.1728 27.5069 64.3285 32.6956 64.3285C37.8864 64.3285 41.1562 63.1728 42.5274 62.3707C43.8946 61.5696 44.803 60.7001 45.4089 59.9225C48.1024 58.354 50.1879 56.4218 51.5765 54.5447C57.5663 46.4592 58.9314 36.842 59.2002 34.1393C59.2369 33.9023 59.2594 33.6622 59.2645 33.375C59.2645 29.202 53.8612 25.6461 45.7165 23.7967ZM21.3128 50.2164V49.6656C21.5933 49.7922 21.816 50.0197 21.9366 50.3029C22.0571 50.5861 22.0668 50.9043 21.9636 51.1942C21.8427 51.4901 21.6117 51.7275 21.3195 51.8568C21.0273 51.986 20.6962 51.9972 20.396 51.8877C20.0957 51.7783 19.8494 51.5569 19.7089 51.2699C19.5683 50.9828 19.5444 50.6525 19.6421 50.3482C19.6981 50.1943 19.7843 50.0531 19.8958 49.933C20.0072 49.8131 20.1416 49.7165 20.2909 49.6493V50.2164H21.3128ZM57.2189 33.3996C57.2136 33.5617 57.1985 33.7235 57.1739 33.8839C56.9113 36.5058 55.6147 45.6622 49.9345 53.3278C47.1153 57.1381 41.1071 61.2089 32.6977 61.2089C29.1796 61.2089 26.0876 60.4906 23.4677 59.383L25.1925 54.6408L21.698 48.3107L21.3128 48.4589V40.3958C24.652 41.1101 28.5389 41.5239 32.6956 41.5239C43.537 41.5239 52.585 38.7344 54.7042 35.0201C52.585 31.3079 43.537 28.5164 32.6956 28.5164C21.8543 28.5164 12.8083 31.3079 10.684 35.0201C11.9091 37.1618 15.4456 38.9929 20.2909 40.1618V48.8543L14.95 50.9143L14.5464 52.0219C9.63764 44.6486 8.46665 36.3567 8.21325 33.8277C8.18844 33.678 8.17478 33.5268 8.17238 33.375C8.17238 30.2514 13.3989 26.9755 21.8809 25.4152C21.8482 25.4673 21.8226 25.5 21.8226 25.5L21.9177 25.408C25.0934 24.8277 28.7106 24.4782 32.6977 24.4782C47.3667 24.4782 57.2209 29.0773 57.224 33.2943L57.2189 33.3996Z" fill="#D6FF00"/>
</svg>
