<svg width="66" height="66" viewBox="0 0 66 66" fill="none" xmlns="http://www.w3.org/2000/svg">
<path d="M32.6977 2.22964C15.7664 2.22964 2.04361 15.9545 2.04361 32.8847C2.04361 49.817 15.7664 63.5378 32.6977 63.5378C49.6269 63.5378 63.3517 49.817 63.3517 32.8847C63.3517 15.9545 49.6269 2.22964 32.6977 2.22964ZM61.2642 31.3173C56.6559 26.6354 46.7096 19.3459 29.2287 19.0546C29.1244 16.0332 29.5301 13.2007 30.1258 10.7433C43.0291 11.0304 52.9059 16.5206 58.5554 20.6517C60.1449 23.9964 61.0651 27.6195 61.2642 31.3173ZM32.3748 4.28142C32.4821 4.2804 32.5904 4.27325 32.6977 4.27325C42.6184 4.27325 51.3711 9.34956 56.5057 17.0386C50.5036 13.2518 41.6456 9.2576 30.6285 8.90712C31.1032 7.32678 31.6867 5.78119 32.3748 4.28142ZM19.6155 7.45208C22.9451 5.73202 26.582 4.68777 30.3169 4.37952C27.9156 10.0178 24.5151 21.835 31.7055 32.9277C29.9177 36.46 27.3094 39.5126 24.0992 41.8296C15.0532 25.4133 17.8764 12.4671 19.6155 7.45208ZM9.3076 16.4378C11.4301 13.4279 14.11 10.8528 17.202 8.85195C15.4343 15.1442 14.0161 27.4774 22.5655 42.8698C20.0008 44.4689 17.3492 45.5367 14.9214 46.2489C8.64854 34.8037 8.52899 23.3769 9.3076 16.4378ZM4.08721 32.8847C4.08721 28.2294 5.21221 23.8357 7.19247 19.9467C6.87469 27.0666 7.79738 36.8749 13.0821 46.7342C11.4555 47.1184 9.804 47.3882 8.13968 47.5415C5.48196 43.1149 4.08093 38.0478 4.08721 32.8847ZM9.26468 49.2693C15.3342 48.5377 27.3138 45.5919 33.3414 33.7849C37.2935 33.5668 41.2404 34.3005 44.85 35.9246C35.1582 51.9679 22.5287 55.9938 17.3206 56.9921C14.1577 54.9674 11.4211 52.3439 9.26468 49.2693ZM30.3394 61.3889C26.6461 61.0871 23.0474 60.0655 19.7463 58.3818C26.0795 56.7663 37.4674 51.8279 46.5196 36.7318C49.1855 38.1531 51.4375 39.9168 53.2676 41.6641C46.5196 52.7721 36.7409 58.582 30.3394 61.3889ZM34.494 61.4318C40.7965 58.1355 48.7543 52.4512 54.6092 43.0169C55.7212 44.2002 56.7524 45.4568 57.6961 46.7782C53.0775 55.0548 44.4719 60.8106 34.494 61.4318ZM33.2658 31.9396C31.1005 28.6261 29.7622 24.8412 29.3635 20.9031C47.9338 21.272 57.7247 30.036 61.2785 34.1007C61.1226 37.8549 60.2234 41.5408 58.6331 44.9451C54.9219 40.0353 46.4031 31.2652 33.2658 31.9396Z" fill="white"/>
</svg>
