<svg width="66" height="66" viewBox="0 0 66 66" fill="none" xmlns="http://www.w3.org/2000/svg">
<path d="M32.3143 27.4519C32.3143 26.3667 31.4601 25.4931 30.4066 25.4931C29.3531 25.4931 28.5009 26.3667 28.5009 27.4519C28.5009 27.9138 28.6634 28.3347 28.926 28.6709C29.9223 28.3245 31.3743 27.879 32.2724 27.8576C32.2996 27.726 32.3136 27.5909 32.3143 27.4519ZM30.4066 29.4301C31.223 29.6702 32.4441 29.6467 32.6975 31.3848C33.1808 30.0115 32.58 28.6392 30.4066 29.4301Z" fill="white"/>
<path d="M61.334 7.33864C60.3664 7.33864 59.6766 7.88735 58.8776 8.52291C57.7771 9.39757 56.2689 10.5961 54.1262 10.5961C52.9368 10.5961 51.634 9.74396 50.5857 9.05935C49.5863 8.4054 48.7239 7.84239 47.7103 7.84239C46.7662 7.84239 45.541 8.40744 45.1957 10.0004C44.7266 12.1615 46.194 14.3891 47.1085 15.5243C47.463 15.9647 47.8748 16.4112 48.3275 16.8332C43.2624 18.511 31.7334 21.0574 8.41994 21.0574C4.32762 21.0574 2.84805 25.024 2.63245 27.1463C2.58851 27.5131 2.21249 30.7972 2.64471 33.5489C4.13859 43.1058 11.6867 53.3197 28.3901 53.3197C29.0267 53.3197 29.6295 53.3136 30.2099 53.3024C31.1827 55.2203 32.4855 56.5865 33.6943 56.3136C34.7263 56.0796 35.4824 54.6951 35.9116 52.9151C36.4378 52.8429 36.9616 52.7537 37.4821 52.6474C38.8799 55.7547 41.0451 58.4288 43.7294 58.4288C44.0175 58.4288 44.3012 58.3971 44.5805 58.3337C48.5533 57.4366 49.8919 50.7458 49.4545 45.6583C56.1851 39.0196 57.9631 23.9113 58.3514 19.3366C63.1017 17.1101 63.7465 13.4643 63.7465 10.4633C63.7465 7.56446 61.9001 7.33864 61.334 7.33864ZM28.3901 51.2761C11.8042 51.2761 5.8685 40.9427 4.66277 33.2321C4.25405 30.6286 4.66277 27.3731 4.66277 27.3731V27.3711C5.11578 27.3601 5.56809 27.3503 6.01973 27.3414C6.04629 30.4467 6.57661 33.6276 7.72512 36.5397C8.87566 39.507 10.6853 42.2097 12.9905 44.3453C15.2855 46.4961 18.028 48.082 20.9084 49.1733C23.794 50.2727 26.8175 50.9144 29.8523 51.2649C29.3792 51.27 28.903 51.2761 28.3901 51.2761ZM29.8533 51.2629C26.838 50.7632 23.8645 49.9754 21.0781 48.7533C18.2936 47.5394 15.7075 45.8606 13.6128 43.6954C11.513 41.5361 9.93002 38.9289 8.98295 36.0697C8.0337 33.2577 7.6822 30.3016 7.80175 27.3139C8.82842 27.3035 9.85517 27.3131 10.8815 27.3425C10.7619 30.8697 11.5855 34.3755 13.1519 37.4644C14.7581 40.618 17.1091 43.3323 20.0011 45.3722C22.8509 47.3953 26.1278 48.7155 29.4926 49.4011C31.806 49.8814 34.1582 50.0479 36.5042 50.0163C36.5737 50.2459 36.6476 50.4761 36.7259 50.707C34.9449 51.037 32.7624 51.2189 29.8533 51.2629ZM18.6686 37.5993C20.4425 40.6361 22.9939 43.1477 25.9418 44.9287C28.8897 46.7148 32.2464 47.7754 35.6449 47.9767C35.7644 47.9839 35.884 47.9798 36.0056 47.9849C36.1221 48.5939 36.2743 49.2285 36.4623 49.8753C34.1408 49.8017 31.8315 49.5309 29.5897 48.9618C26.3087 48.1402 23.1799 46.7066 20.5304 44.6436C17.8768 42.5908 15.731 39.9045 14.3577 36.8718C13.015 33.9106 12.406 30.6255 12.6564 27.4263C13.7967 27.4968 14.9319 27.602 16.059 27.7553C16.015 31.2132 16.9175 34.6173 18.6686 37.5993ZM17.8236 28.0465C18.0075 28.0802 18.1925 28.1078 18.3754 28.1466C19.295 28.3285 20.1942 28.5788 21.0821 28.8649C21.0964 33.5836 23.9258 38.6691 28.478 42.1423C30.6357 43.7958 33.1018 45.0023 35.7317 45.691C35.7542 46.1804 35.7961 46.6913 35.8768 47.2421C35.8911 47.3412 35.9126 47.4454 35.9289 47.5466C35.8472 47.5384 35.7634 47.5374 35.6806 47.5282C32.3668 47.1716 29.1887 46.0177 26.418 44.1654C23.6704 42.3313 21.3652 39.835 19.8386 36.9362C18.3876 34.2051 17.6919 31.1362 17.8236 28.0465ZM56.4038 17.9327C56.3159 20.4514 54.912 35.8244 49.0335 43.068C48.5185 43.7129 47.9395 44.3031 47.3057 44.8316C47.9882 49.5135 46.7294 55.7537 44.132 56.3412C43.9991 56.3705 43.8649 56.3852 43.7294 56.3852C41.2372 56.3852 38.5468 51.3865 37.8979 46.9447C37.7958 46.2509 37.7559 45.6154 37.76 45.0248C37.3288 44.9829 36.9436 44.9226 36.6033 44.8572C33.8775 44.2328 31.3175 43.0299 29.0972 41.3299C24.9068 38.1317 22.2664 33.5244 22.1172 29.2164C23.0456 29.5544 23.9639 29.9338 24.872 30.3547C25.9306 30.8084 26.9984 31.4 28.2419 31.5124C29.5049 31.5901 30.6237 30.9545 31.4994 30.2076C30.5052 30.7962 29.3863 31.2897 28.2899 31.072C27.2017 30.8953 26.2044 30.2699 25.1745 29.7304C23.1045 28.5797 20.8726 27.7484 18.5542 27.2648C16.2446 26.8038 13.8906 26.6043 11.5365 26.6701C9.22614 26.7192 6.92709 26.946 4.66277 27.3598C4.68014 27.1984 5.14098 23.104 8.41688 23.104C44.7369 23.104 52.9532 17.0427 52.9532 17.0427C50.5448 17.0427 46.6987 12.6959 47.1882 10.4367C47.273 10.0454 47.4508 9.88804 47.7062 9.88804C48.7781 9.88804 51.2304 12.6418 54.1221 12.6418C58.2553 12.6418 60.5063 9.38429 61.3309 9.38429C61.5854 9.38224 61.7029 9.68265 61.7029 10.4643C61.7029 13.7719 60.8211 16.3254 56.4038 17.9327Z" fill="white"/>
</svg>
