<svg width="67" height="66" viewBox="0 0 67 66" fill="none" xmlns="http://www.w3.org/2000/svg">
<path d="M59.6784 33.0647C63.1525 30.2016 64.0752 27.1617 64.1426 24.8749C64.1458 24.7264 64.1148 24.5792 64.0521 24.4446C63.9894 24.31 63.8966 24.1915 63.7809 24.0983C63.6635 24.0039 63.5262 23.9373 63.3794 23.9033C63.2325 23.8694 63.0799 23.8689 62.9328 23.9022C61.5043 24.2169 60.0258 23.472 59.3831 22.1232C58.7199 20.7233 59.0725 19.0568 60.2404 18.0687C60.3502 17.9753 60.4378 17.8586 60.4967 17.7271C60.5558 17.5956 60.5848 17.4526 60.5817 17.3085C60.5786 17.1642 60.5426 17.0225 60.4766 16.8941C60.4106 16.7658 60.3162 16.6541 60.2005 16.5677C59.0714 15.7104 57.7737 15.1545 56.3463 14.8888C56.5782 12.5653 56.0612 10.7362 55.3654 9.39158C55.2948 9.25721 55.1941 9.14104 55.0711 9.05222C54.9479 8.96338 54.806 8.90431 54.6562 8.87966C54.5061 8.85326 54.3519 8.86115 54.2052 8.90273C54.0586 8.94431 53.9232 9.01851 53.8091 9.11978C52.7383 10.0874 51.0758 10.2039 49.8916 9.37421C48.6542 8.50568 48.1719 6.89634 48.7144 5.4556C48.7657 5.32105 48.7849 5.17644 48.7707 5.03316C48.7566 4.8899 48.7093 4.75188 48.6327 4.62998C48.5543 4.50609 48.4494 4.40114 48.3255 4.32268C48.2017 4.24423 48.0619 4.19423 47.9164 4.1763C47.5483 4.13078 47.1778 4.10757 46.8067 4.10682C45.3772 4.10682 43.5554 4.46956 41.5567 5.70185C40.5022 4.02507 39.2188 2.98692 38.0356 2.35136C37.9023 2.28022 37.7547 2.24024 37.6038 2.23443C37.4529 2.22862 37.3025 2.25714 37.1643 2.31784C37.0259 2.37854 36.9032 2.46983 36.8052 2.58484C36.7073 2.69986 36.6368 2.83558 36.5989 2.98181C36.2403 4.47875 34.964 5.52508 33.4886 5.52508C32.0121 5.52508 30.7348 4.47978 30.3802 2.98079C30.3457 2.83388 30.2769 2.69718 30.1797 2.58179C30.0824 2.4664 29.9593 2.37555 29.8203 2.31662C29.6809 2.25501 29.5293 2.22602 29.377 2.23186C29.2248 2.2377 29.0758 2.27822 28.9415 2.35034C27.7583 2.98386 26.4739 4.02303 25.4194 5.70083C23.4207 4.4716 21.6019 4.10784 20.1724 4.10784C19.8022 4.10869 19.4323 4.13188 19.0648 4.17732C18.919 4.19497 18.7788 4.24483 18.6546 4.3233C18.5304 4.40176 18.4252 4.50686 18.3465 4.631C18.2703 4.75304 18.2231 4.89093 18.2085 5.03406C18.194 5.17721 18.2126 5.32177 18.2627 5.45662C18.8063 6.89532 18.323 8.50772 17.0866 9.37523C15.9023 10.208 14.2399 10.0864 13.169 9.1208C13.0551 9.01953 12.9197 8.94533 12.773 8.90375C12.6263 8.86217 12.4721 8.85428 12.3219 8.88068C12.172 8.90519 12.0299 8.96419 11.9066 9.05303C11.7833 9.14186 11.6825 9.25811 11.6118 9.3926C10.9149 10.7362 10.3979 12.5653 10.6309 14.8878C9.20138 15.1555 7.90573 15.7114 6.77766 16.5687C6.66222 16.6554 6.56781 16.7671 6.50147 16.8953C6.43513 17.0236 6.39856 17.1652 6.39449 17.3095C6.39124 17.4536 6.42008 17.5965 6.47894 17.728C6.53779 17.8595 6.62518 17.9762 6.73475 18.0697C7.30532 18.5556 7.69898 19.2167 7.85425 19.9497C8.00953 20.6829 7.91769 21.4468 7.59306 22.1222C6.95239 23.475 5.46056 24.2169 4.04434 23.9022C3.89729 23.8697 3.74484 23.8705 3.59811 23.9044C3.45139 23.9383 3.31409 24.0046 3.19625 24.0983C3.08042 24.1916 2.98757 24.3103 2.92486 24.445C2.86215 24.5799 2.83124 24.7274 2.83453 24.8759C2.90197 27.1617 3.82465 30.2005 7.29878 33.0636C3.82465 35.895 2.90299 38.8971 2.83453 41.1594C2.83157 41.3063 2.8627 41.4518 2.92547 41.5845C2.98823 41.7174 3.08091 41.8338 3.19625 41.9247C3.43126 42.1137 3.74495 42.1853 4.04434 42.1188C5.47384 41.8062 6.95137 42.5439 7.59408 43.8784C7.91715 44.5462 8.00835 45.3027 7.85327 46.0281C7.69819 46.7535 7.30568 47.4066 6.73781 47.8839C6.62755 47.975 6.53948 48.0901 6.48028 48.2202C6.42108 48.3505 6.39232 48.4924 6.39615 48.6354C6.39999 48.7784 6.43635 48.9186 6.50245 49.0455C6.56855 49.1723 6.66267 49.2825 6.77766 49.3675C7.91902 50.2228 9.23714 50.7612 10.684 51.0177C10.3386 53.5773 10.8761 55.5729 11.6138 57.0157C11.6834 57.1516 11.7837 57.2694 11.9069 57.3597C12.03 57.45 12.1724 57.5104 12.323 57.5358C12.4735 57.5625 12.6281 57.5543 12.7748 57.512C12.9216 57.4696 13.0568 57.3943 13.17 57.2916C14.2399 56.3127 15.9023 56.1952 17.0866 57.0351C18.323 57.9118 18.8063 59.5416 18.2637 60.9997C18.2126 61.1361 18.1934 61.2823 18.2078 61.4273C18.2221 61.5722 18.2696 61.7119 18.3465 61.8355C18.5038 62.0879 18.7654 62.2565 19.0628 62.2933C19.4309 62.3389 19.8015 62.3621 20.1724 62.3628C21.6776 62.3628 23.6118 61.9653 25.7331 60.5583C26.7242 61.95 27.8738 62.8481 28.9436 63.4173C29.0779 63.4884 29.2263 63.5284 29.3782 63.5342C29.5299 63.54 29.681 63.5116 29.8203 63.451C29.958 63.3922 30.0802 63.3022 30.1773 63.1882C30.2745 63.0743 30.344 62.9393 30.3802 62.794C30.7369 61.3144 32.0121 60.2814 33.4886 60.2814C34.9651 60.2814 36.2423 61.3165 36.5969 62.796C36.6325 62.9416 36.7017 63.0769 36.7989 63.1911C36.8962 63.3051 37.0188 63.3949 37.1568 63.4531C37.2966 63.5132 37.448 63.5414 37.6001 63.5356C37.752 63.5298 37.9009 63.49 38.0356 63.4193C39.1054 62.8502 40.2549 61.952 41.2451 60.5603C43.3674 61.9653 45.3016 62.3628 46.8047 62.3628C47.1736 62.3628 47.5496 62.3403 47.9123 62.2933C48.0585 62.2752 48.1989 62.2247 48.3232 62.1456C48.4474 62.0664 48.5525 61.9605 48.6307 61.8355C48.7071 61.7117 48.7543 61.5721 48.7688 61.4273C48.7833 61.2825 48.7647 61.1363 48.7144 60.9997C48.1708 59.5436 48.6542 57.9128 49.8895 57.0351C51.0738 56.1932 52.7363 56.3147 53.8071 57.2916C53.9203 57.3943 54.0555 57.4696 54.2023 57.512C54.3492 57.5543 54.5038 57.5625 54.6542 57.5358C54.8047 57.5104 54.9472 57.45 55.0704 57.3597C55.1934 57.2694 55.2937 57.1516 55.3633 57.0157C56.1031 55.5729 56.6395 53.5773 56.2932 51.0187C57.7421 50.7612 59.0592 50.2228 60.1975 49.3675C60.3122 49.2824 60.406 49.1723 60.4721 49.0456C60.5381 48.9189 60.5745 48.779 60.5787 48.6361C60.5828 48.4934 60.5545 48.3514 60.4959 48.2212C60.4374 48.0909 60.35 47.9756 60.2404 47.8839C59.6716 47.4075 59.2782 46.7548 59.1226 46.0294C58.9669 45.3039 59.0579 44.5473 59.381 43.8794C60.0227 42.5439 61.5146 41.8072 62.9308 42.1188C63.0777 42.1509 63.23 42.1501 63.3766 42.1166C63.5231 42.083 63.6605 42.0175 63.7789 41.9247C63.8942 41.8338 63.9869 41.7174 64.0497 41.5845C64.1125 41.4518 64.1436 41.3063 64.1406 41.1594C64.0742 38.8971 63.1525 35.894 59.6784 33.0647ZM46.5564 6.02985C46.4407 6.96661 46.5816 7.9172 46.964 8.78013C47.3465 9.64305 47.9561 10.3859 48.7277 10.9294C49.4957 11.4685 50.3964 11.7875 51.3325 11.8518C52.2686 11.9163 53.2044 11.7239 54.0391 11.2952C54.3916 12.3486 54.4815 13.4951 54.3548 14.708C51.9628 14.708 49.2775 15.413 46.4011 16.8507C45.3787 17.3582 44.3602 18.0299 43.3459 18.8657C43.6381 17.5506 43.7853 16.303 43.7853 15.132C43.7853 11.8428 43.2539 9.34662 42.4508 7.43891C43.7975 6.56834 45.1759 6.08094 46.5564 6.02985ZM12.9371 11.2962C14.5903 12.1422 16.6983 12.0206 18.2494 10.9283C19.0212 10.3853 19.631 9.64289 20.0138 8.78035C20.3965 7.91779 20.5379 6.9675 20.4228 6.03087C21.8032 6.08196 23.1776 6.56936 24.5253 7.43687C23.7212 9.34458 23.1888 11.8418 23.1888 15.132C23.1888 16.303 23.338 17.5506 23.6302 18.8657C22.6145 18.0306 21.5962 17.3589 20.575 16.8507C17.7007 15.414 15.0154 14.708 12.6234 14.708C12.4956 13.4961 12.5856 12.3497 12.9371 11.2962ZM11.0774 49.1488C10.3125 49.026 9.57218 48.7814 8.88462 48.4244C9.44658 47.6617 9.79045 46.7605 9.87936 45.8173C9.96828 44.8741 9.79891 43.9245 9.38939 43.0701C8.98581 42.2185 8.3558 41.4942 7.56827 40.9764C6.78075 40.4586 5.86602 40.1674 4.92411 40.1345C5.31035 37.9816 6.68161 36.0013 8.93775 34.2653C9.71126 34.7762 10.5706 35.2789 11.5423 35.7643C13.7668 36.875 16.5808 37.5003 19.9149 37.6311C17.3022 39.3416 15.3076 41.1992 13.9762 43.1754C12.4783 45.3927 11.576 47.3811 11.0774 49.1488ZM38.055 61.1193C37.6162 60.2889 36.9594 59.5939 36.1551 59.1092C35.3507 58.6243 34.4294 58.368 33.4902 58.3677C32.5511 58.3675 31.6296 58.6235 30.8251 59.1079C30.0206 59.5924 29.3633 60.2871 28.9242 61.1172C28.2876 60.6236 27.7351 60.0301 27.2883 59.3597C28.4797 58.3165 29.7069 56.937 30.9341 55.1172C32.01 53.5201 32.8642 51.5419 33.4886 49.1948C34.1119 51.5399 34.964 53.5201 36.04 55.1192C37.2692 56.9411 38.4964 58.3205 39.6878 59.3638C39.2404 60.0321 38.6892 60.6247 38.055 61.1193ZM54.0401 55.0896C52.3868 54.2354 50.2788 54.358 48.7287 55.4626C47.9546 56.0174 47.3442 56.7705 46.9615 57.6427C46.579 58.5149 46.4383 59.4741 46.5544 60.4193C43.4869 60.3049 40.4286 58.108 37.6882 54.0484C36.0216 51.5736 34.9395 47.9973 34.4715 43.4196C34.4448 43.1784 34.3294 42.9555 34.1478 42.7944C33.9663 42.6331 33.7313 42.545 33.4886 42.547C33.246 42.545 33.0112 42.633 32.8296 42.7939C32.6481 42.955 32.5327 43.1775 32.5056 43.4186C32.0366 47.9983 30.9535 51.5756 29.2869 54.0474C26.5485 58.1101 23.4882 60.3059 20.4207 60.4203C20.5372 59.4754 20.397 58.5164 20.015 57.6442C19.6328 56.772 19.023 56.0188 18.2494 55.4636C17.4846 54.9183 16.5839 54.595 15.6468 54.5291C14.7098 54.4633 13.7727 54.6576 12.9391 55.0906C11.9398 52.0732 12.8584 48.3518 15.6264 44.2452C17.2726 41.797 20.1173 39.5194 24.0706 37.4727C24.2698 37.3721 24.4275 37.2053 24.517 37.0009C24.6065 36.7966 24.6222 36.5674 24.5611 36.3528C24.4948 36.1392 24.3591 35.9537 24.1756 35.8258C23.9919 35.6979 23.7709 35.6349 23.5475 35.6468C18.9146 35.9247 15.1288 35.378 12.4354 34.0354C8.05185 31.8477 5.47793 29.0582 4.92309 25.9131C6.8451 25.8364 8.54538 24.7114 9.38837 22.9396C9.79798 22.0746 9.96725 21.1152 9.87844 20.1622C9.78963 19.2091 9.446 18.2976 8.8836 17.523C11.6036 16.0557 15.3444 16.4175 19.683 18.5806C21.4221 19.4491 23.197 20.897 24.9616 22.8834C25.1157 23.0557 25.3247 23.1693 25.553 23.2051C25.7813 23.2408 26.015 23.1965 26.2144 23.0796C26.4117 22.9644 26.5617 22.7832 26.638 22.5679C26.7143 22.3526 26.712 22.1173 26.6312 21.9035C25.6595 19.4042 25.166 17.1245 25.166 15.132C25.166 10.1569 26.4627 6.57651 28.9221 4.67698C29.8091 6.36704 31.541 7.46446 33.4886 7.46446C35.4392 7.46446 37.1691 6.36704 38.053 4.68107C40.5145 6.57651 41.8091 10.1569 41.8091 15.132C41.8091 17.1266 41.3166 19.4052 40.3438 21.9035C40.262 22.1171 40.2586 22.3528 40.3344 22.5686C40.4103 22.7844 40.5603 22.9663 40.7577 23.0816C40.958 23.1977 41.192 23.2416 41.4208 23.2059C41.6495 23.1701 41.8591 23.0571 42.0145 22.8855C43.7771 20.8991 45.552 19.4491 47.2931 18.5806C51.6256 16.4175 55.3705 16.0557 58.0915 17.523C57.5288 18.2978 57.185 19.2097 57.0961 20.1632C57.0073 21.1166 57.1768 22.0764 57.5868 22.9417C58.4287 24.7114 60.127 25.8364 62.0531 25.9131C61.4941 29.0582 58.9233 31.8477 54.5387 34.0354C51.8422 35.378 48.0564 35.9257 43.4287 35.6468C43.2051 35.6342 42.9838 35.6969 42.8 35.825C42.6163 35.9529 42.4807 36.1387 42.415 36.3528C42.3539 36.5672 42.3692 36.7962 42.4583 37.0004C42.5474 37.2048 42.7048 37.3718 42.9035 37.4727C46.8599 39.5173 49.7035 41.796 51.3527 44.2452C54.1188 48.3518 55.0374 52.0722 54.0401 55.0896ZM57.5878 43.0712C57.1784 43.9254 57.0092 44.8747 57.0981 45.8178C57.187 46.7608 57.5308 47.6618 58.0925 48.4244C57.405 48.7814 56.6647 49.026 55.8998 49.1488C55.4021 47.3811 54.4989 45.3927 53.0019 43.1744C51.6685 41.1982 49.679 39.3406 47.0632 37.6301C50.3973 37.4993 53.2094 36.8739 55.4359 35.7632C56.3346 35.3174 57.2051 34.8168 58.0425 34.2643C60.2976 35.9982 61.6689 37.9805 62.0541 40.1335C61.1121 40.1675 60.1975 40.4594 59.41 40.9775C58.6223 41.4954 57.9921 42.2197 57.5878 43.0712Z" fill="white"/>
</svg>
