<svg width="66" height="66" viewBox="0 0 66 66" fill="none" xmlns="http://www.w3.org/2000/svg">
<path d="M22.1087 14.1436C16.0514 14.1436 11.1243 19.0707 11.1243 25.1279C11.1243 31.1852 16.0514 36.1123 22.1087 36.1123C28.1659 36.1123 33.093 31.1852 33.093 25.1279C33.093 19.0707 28.1659 14.1436 22.1087 14.1436ZM22.1087 34.5796C16.8964 34.5796 12.657 30.3402 12.657 25.1279C12.657 19.9157 16.8964 15.6763 22.1087 15.6763C27.3198 15.6763 31.5603 19.9157 31.5603 25.1279C31.5603 30.3402 27.3198 34.5796 22.1087 34.5796Z" fill="white"/>
<path d="M22.1087 29.7261C24.6481 29.7261 26.7068 27.6675 26.7068 25.128C26.7068 22.5885 24.6481 20.5299 22.1087 20.5299C19.5692 20.5299 17.5105 22.5885 17.5105 25.128C17.5105 27.6675 19.5692 29.7261 22.1087 29.7261Z" fill="white"/>
<path d="M44.8444 23.5014C41.9762 23.5014 39.109 25.591 37.2044 29.7682C37.0143 30.1891 37.9962 30.9473 38.4877 30.5345C40.3341 28.9814 42.5392 28.3622 44.8444 28.3622C47.1475 28.3622 49.3526 28.9814 51.201 30.5345C51.6904 30.9473 52.6714 30.1891 52.4844 29.7682C50.5797 25.591 47.7126 23.5014 44.8444 23.5014Z" fill="white"/>
<path d="M33.093 2.04359C16.1628 2.04359 2.43896 15.7684 2.43896 32.6977C2.43896 49.6269 16.1628 63.3517 33.093 63.3517C50.0223 63.3517 63.7471 49.6269 63.7471 32.6977C63.7471 15.7684 50.0223 2.04359 33.093 2.04359ZM33.0951 61.3081C27.4537 61.304 22.8771 56.8142 22.8771 47.8653V43.7832C22.8771 43.2406 22.9925 42.9157 23.717 42.9157H31.5603L33.0951 57.0053L34.6257 42.9157H42.4732C43.1966 42.9157 43.3131 43.2396 43.3131 43.7832V47.8653C43.3131 56.8142 38.7364 61.304 33.0951 61.3081ZM41.7661 59.4117C43.449 57.4753 44.7099 54.739 45.1667 51.0298C48.6346 48.0594 50.4667 43.8966 50.4667 39.8513C50.4667 39.3476 50.0662 38.8295 49.3172 38.8295H16.8719C16.1229 38.8285 15.7224 39.3465 15.7224 39.8503C15.7224 43.8936 17.5535 48.0543 21.0184 51.0257C21.4741 54.743 22.7452 57.4764 24.4333 59.4157C13.1658 55.7536 4.99347 45.1688 4.99347 32.6977C4.99347 17.2031 17.5984 4.5981 33.093 4.5981C48.5876 4.5981 61.1926 17.2031 61.1926 32.6977C61.1926 45.1647 53.0264 55.7465 41.7661 59.4117Z" fill="white"/>
</svg>
