<svg width="67" height="66" viewBox="0 0 67 66" fill="none" xmlns="http://www.w3.org/2000/svg">
<path d="M33.4904 2.04361C16.5591 2.04361 2.83426 15.7685 2.83426 32.6967C2.83426 49.6269 16.5591 63.3517 33.4904 63.3517C50.4175 63.3517 64.1424 49.6269 64.1424 32.6967C64.1424 15.7685 50.4175 2.04361 33.4904 2.04361ZM33.4904 60.7972C17.9947 60.7972 5.38876 48.1913 5.38876 32.6967C5.38876 17.2031 17.9947 4.59812 33.4904 4.59812C48.9829 4.59812 61.5879 17.2031 61.5879 32.6967C61.5879 48.1913 48.9829 60.7972 33.4904 60.7972Z" fill="white"/>
<path d="M23.5279 37.3886C26.3495 37.3886 28.6369 35.1011 28.6369 32.2795C28.6369 29.4579 26.3495 27.1705 23.5279 27.1705C20.7062 27.1705 18.4189 29.4579 18.4189 32.2795C18.4189 35.1011 20.7062 37.3886 23.5279 37.3886Z" fill="white"/>
<path d="M54.5556 26.4373C52.6706 24.846 50.4577 23.6899 48.0749 23.0514C45.692 22.4129 43.1976 22.3078 40.7694 22.7435C40.0511 22.8814 40.5722 25.063 41.1649 24.9465C45.4237 24.1822 49.8062 25.3552 53.1108 28.1478C53.5655 28.5432 55.1084 26.9165 54.5556 26.4373ZM25.8133 19.2173C26.4059 19.3327 26.9291 17.1522 26.2108 17.0142C23.7827 16.5785 21.2883 16.6837 18.9054 17.3221C16.5225 17.9606 14.3096 19.1167 12.4246 20.7081C11.8698 21.1873 13.4148 22.816 13.8674 22.4186C15.5009 21.0396 17.4183 20.0379 19.483 19.4845C21.5478 18.9311 23.7092 18.8399 25.8133 19.2173ZM44.9251 29.6325C42.248 29.6325 39.5719 31.4237 37.7939 35.0041C37.6182 35.3648 38.5358 36.0147 38.9925 35.6611C40.7163 34.3297 42.7742 33.7994 44.9251 33.7994C47.076 33.7994 49.1339 34.3307 50.8577 35.6611C51.3154 36.0157 52.232 35.3648 52.0562 35.0041C50.2793 31.4237 47.6032 29.6325 44.9251 29.6325ZM45.8846 43.1346C38.7953 46.857 29.1699 46.0927 26.3365 46.0927C25.5773 46.0927 25.1328 46.4095 25.3147 47.044C27.3583 54.1557 42.6853 54.1557 46.9023 44.2514C47.3733 43.1448 46.5355 42.7923 45.8846 43.1346Z" fill="white"/>
</svg>
