<svg width="66" height="66" viewBox="0 0 66 66" fill="none" xmlns="http://www.w3.org/2000/svg">
<path d="M18.6858 9.27293C25.2836 9.27293 31.8691 13.4194 33.271 18.2444C34.3051 13.6503 41.0469 9.31891 47.8378 9.31891C53.1205 9.31891 58.4319 11.9388 61.111 19.0945C67.6965 36.6889 35.566 53.5834 33.27 55.674C30.974 53.0429 -1.15452 36.9914 5.43508 19.1047C8.07133 11.949 13.3826 9.2719 18.6858 9.27293ZM18.6858 7.33865H18.6838C11.7212 7.33865 6.2372 11.3819 3.63978 18.4303C-2.27441 34.4828 19.1998 48.552 28.3674 54.5572C29.8439 55.5248 31.5166 56.6212 31.8456 56.9625L33.1269 58.4288L34.5534 57.1086C34.7904 56.9002 35.8868 56.1982 36.9474 55.5197C45.739 49.8916 69.0913 34.9396 62.9022 18.4099C60.2803 11.4024 54.7891 7.38361 47.8388 7.38361C41.9696 7.38361 36.1637 10.2069 33.2148 14.0805C30.1678 10.1486 24.4355 7.33968 18.6858 7.33865Z" fill="white"/>
</svg>
