<svg width="66" height="66" viewBox="0 0 66 66" fill="none" xmlns="http://www.w3.org/2000/svg">
<path d="M43.3708 48.9319C46.4425 48.9319 48.9325 46.4419 48.9325 43.3703C48.9325 40.2986 46.4425 37.8086 43.3708 37.8086C40.2992 37.8086 37.8091 40.2986 37.8091 43.3703C37.8091 46.4419 40.2992 48.9319 43.3708 48.9319Z" fill="white"/>
<path d="M32.8837 2.22963C15.9811 2.22963 2.22964 15.981 2.22964 32.8837C2.22964 49.7864 15.9811 63.5378 32.8837 63.5378C49.7864 63.5378 63.5378 49.7864 63.5378 32.8837C63.5378 15.981 49.7864 2.22963 32.8837 2.22963ZM26.3278 26.3278C25.8112 26.8443 25.1979 27.2541 24.5229 27.5336C23.848 27.8131 23.1246 27.957 22.394 27.957C21.6635 27.9569 20.9401 27.813 20.2652 27.5333C19.5903 27.2538 18.977 26.8439 18.4605 26.3273C17.9439 25.8107 17.5342 25.1974 17.2546 24.5224C16.9752 23.8475 16.8313 23.1241 16.8313 22.3935C16.8314 21.663 16.9753 20.9395 17.2549 20.2646C17.5345 19.5897 17.9444 18.9765 18.461 18.4599C19.5043 17.4167 20.9193 16.8307 22.3948 16.8308C23.8702 16.8309 25.2851 17.4171 26.3283 18.4604C27.3716 19.5038 27.9576 20.9188 27.9575 22.3943C27.9574 23.8697 27.3712 25.2846 26.3278 26.3278ZM47.2758 57.6716C42.3109 59.0214 36.7819 57.7595 32.8827 53.8613C27.0911 48.0697 27.0911 38.6773 32.8827 32.8847C38.6743 27.0921 38.6753 17.7007 32.8827 11.9092C28.9845 8.00996 23.4566 6.74702 18.4916 8.09784C22.859 5.54752 27.8262 4.20495 32.8837 4.20784C48.6971 4.20784 61.5596 17.0713 61.5596 32.8837C61.5596 43.4532 55.8089 52.6975 47.2758 57.6716Z" fill="white"/>
</svg>
