<svg width="78" height="12" viewBox="0 0 78 12" fill="none" xmlns="http://www.w3.org/2000/svg">
<path d="M1 4V4C5.45602 0.482086 11.744 0.482087 16.2 4V4C20.656 7.51791 26.944 7.51791 31.4 4V4C35.856 0.482089 42.144 0.48209 46.6 4V4C51.056 7.51791 57.344 7.51791 61.8 4V4C66.256 0.482091 72.544 0.482092 77 4V4" stroke="white" stroke-width="2"/>
<path d="M1 8V8C5.45602 4.48209 11.744 4.48209 16.2 8V8C20.656 11.5179 26.944 11.5179 31.4 8V8C35.856 4.48209 42.144 4.48209 46.6 8V8C51.056 11.5179 57.344 11.5179 61.8 8V8C66.256 4.48209 72.544 4.48209 77 8V8" stroke="#D6FF00" stroke-width="2"/>
</svg>
