<svg width="63" height="102" viewBox="0 0 63 102" fill="none" xmlns="http://www.w3.org/2000/svg">
<path fill-rule="evenodd" clip-rule="evenodd" d="M9.584 0C9.57132 13.7995 18.1637 27.6071 35.3611 30.4921C58.6032 34.3911 58.6032 67.7919 35.3611 71.6909C18.2397 74.5631 9.64745 88.2616 9.58434 102H19.5845C19.6475 92.7261 25.4579 83.492 37.0156 81.5531C71.3851 75.7874 71.3851 26.3956 37.0156 20.6299C25.3818 18.6783 19.5713 9.3351 19.584 0H9.584Z" fill="#D6FF00"/>
<path fill-rule="evenodd" clip-rule="evenodd" d="M3.584 0C3.57132 13.7995 12.1637 27.6071 29.3611 30.4921C52.6032 34.3911 52.6032 67.7919 29.3611 71.6909C12.2397 74.5631 3.64746 88.2616 3.58434 102H13.5845C13.6475 92.7261 19.4579 83.492 31.0156 81.5531C65.3851 75.7874 65.3851 26.3956 31.0156 20.6299C19.3818 18.6783 13.5713 9.3351 13.584 0H3.584Z" fill="#060606"/>
<path fill-rule="evenodd" clip-rule="evenodd" d="M0.583998 0C0.571323 13.7995 9.16369 27.6071 26.3611 30.4921C49.6032 34.3911 49.6032 67.7919 26.3611 71.6909C9.23972 74.5631 0.647454 88.2616 0.584338 102H10.5845C10.6475 92.7261 16.4579 83.492 28.0156 81.5531C62.3851 75.7874 62.3851 26.3956 28.0156 20.6299C16.3818 18.6783 10.5713 9.3351 10.584 0H0.583998Z" fill="white"/>
</svg>
