<svg width="461" height="21" viewBox="0 0 461 21" fill="none" xmlns="http://www.w3.org/2000/svg">
<path d="M115.75 8.00001V8.00001C111.922 3.73008 105.234 3.73008 101.406 8.00001V8.00001C97.5783 12.2699 90.8904 12.2699 87.0625 8V8C83.2346 3.73007 76.5467 3.73007 72.7187 8V8C68.8908 12.2699 62.2029 12.2699 58.375 8V8C54.5471 3.73007 47.8592 3.73007 44.0312 8V8C40.2033 12.2699 33.5154 12.2699 29.6875 8V8C25.8596 3.73007 19.1717 3.73007 15.3437 8V8C11.5158 12.2699 4.82793 12.2699 0.999998 8V8" stroke="#D6FF00" stroke-width="2" stroke-linecap="round"/>
<path d="M230.5 8.00001V8.00001C226.672 3.73008 219.984 3.73008 216.156 8.00001V8.00001C212.328 12.2699 205.64 12.2699 201.812 8V8C197.985 3.73007 191.297 3.73007 187.469 8V8C183.641 12.2699 176.953 12.2699 173.125 8V8C169.297 3.73007 162.609 3.73007 158.781 8V8C154.953 12.2699 148.265 12.2699 144.437 8V8C140.61 3.73007 133.922 3.73007 130.094 8V8C126.266 12.2699 119.578 12.2699 115.75 8V8" stroke="#D6FF00" stroke-width="2" stroke-linecap="round"/>
<path d="M345.25 8.00001V8.00001C341.422 3.73008 334.734 3.73008 330.906 8.00001V8.00001C327.078 12.2699 320.39 12.2699 316.562 8V8C312.735 3.73007 306.047 3.73007 302.219 8V8C298.391 12.2699 291.703 12.2699 287.875 8V8C284.047 3.73007 277.359 3.73007 273.531 8V8C269.703 12.2699 263.015 12.2699 259.187 8V8C255.36 3.73007 248.672 3.73007 244.844 8V8C241.016 12.2699 234.328 12.2699 230.5 8V8" stroke="#D6FF00" stroke-width="2" stroke-linecap="round"/>
<path d="M460 8.00001V8.00001C456.172 3.73008 449.484 3.73008 445.656 8.00001V8.00001C441.828 12.2699 435.14 12.2699 431.312 8V8C427.485 3.73007 420.797 3.73007 416.969 8V8C413.141 12.2699 406.453 12.2699 402.625 8V8C398.797 3.73007 392.109 3.73007 388.281 8V8C384.453 12.2699 377.765 12.2699 373.937 8V8C370.11 3.73007 363.422 3.73007 359.594 8V8C355.766 12.2699 349.078 12.2699 345.25 8V8" stroke="#D6FF00" stroke-width="2" stroke-linecap="round"/>
<path d="M115.75 13V13C111.922 8.73008 105.234 8.73008 101.406 13V13C97.5783 17.2699 90.8904 17.2699 87.0625 13V13C83.2346 8.73007 76.5467 8.73007 72.7187 13V13C68.8908 17.2699 62.2029 17.2699 58.375 13V13C54.5471 8.73007 47.8592 8.73007 44.0312 13V13C40.2033 17.2699 33.5154 17.2699 29.6875 13V13C25.8596 8.73007 19.1717 8.73007 15.3437 13V13C11.5158 17.2699 4.82793 17.2699 0.999998 13V13" stroke="white" stroke-width="2" stroke-linecap="round"/>
<path d="M230.5 13V13C226.672 8.73008 219.984 8.73008 216.156 13V13C212.328 17.2699 205.64 17.2699 201.812 13V13C197.985 8.73007 191.297 8.73007 187.469 13V13C183.641 17.2699 176.953 17.2699 173.125 13V13C169.297 8.73007 162.609 8.73007 158.781 13V13C154.953 17.2699 148.265 17.2699 144.437 13V13C140.61 8.73007 133.922 8.73007 130.094 13V13C126.266 17.2699 119.578 17.2699 115.75 13V13" stroke="white" stroke-width="2" stroke-linecap="round"/>
<path d="M345.25 13V13C341.422 8.73008 334.734 8.73008 330.906 13V13C327.078 17.2699 320.39 17.2699 316.562 13V13C312.735 8.73007 306.047 8.73007 302.219 13V13C298.391 17.2699 291.703 17.2699 287.875 13V13C284.047 8.73007 277.359 8.73007 273.531 13V13C269.703 17.2699 263.015 17.2699 259.187 13V13C255.36 8.73007 248.672 8.73007 244.844 13V13C241.016 17.2699 234.328 17.2699 230.5 13V13" stroke="white" stroke-width="2" stroke-linecap="round"/>
<path d="M460 13V13C456.172 8.73008 449.484 8.73008 445.656 13V13C441.828 17.2699 435.14 17.2699 431.312 13V13C427.485 8.73007 420.797 8.73007 416.969 13V13C413.141 17.2699 406.453 17.2699 402.625 13V13C398.797 8.73007 392.109 8.73007 388.281 13V13C384.453 17.2699 377.765 17.2699 373.937 13V13C370.11 8.73007 363.422 8.73007 359.594 13V13C355.766 17.2699 349.078 17.2699 345.25 13V13" stroke="white" stroke-width="2" stroke-linecap="round"/>
</svg>
