<svg width="223" height="223" viewBox="0 0 223 223" fill="none" xmlns="http://www.w3.org/2000/svg">
<path d="M122.169 32.4353C120.654 32.2418 119.377 31.7208 118.336 30.8724C117.295 30.0241 116.548 28.9204 116.092 27.5614C115.64 26.1811 115.524 24.6271 115.745 22.8992C115.974 21.1073 116.493 19.5909 117.302 18.3501C118.132 17.112 119.191 16.2066 120.478 15.6339C121.765 15.0612 123.209 14.8771 124.809 15.0815C125.939 15.2259 126.929 15.5367 127.779 16.0138C128.631 16.4696 129.274 17.0395 129.707 17.7235C130.164 18.3889 130.342 19.1163 130.241 19.9056C130.154 20.5882 129.868 21.1262 129.385 21.5197C128.901 21.9132 128.328 22.0677 127.667 21.9832C127.134 21.9151 126.725 21.7219 126.44 21.4037C126.158 21.0642 126.047 20.6598 126.107 20.1905C126.162 19.7638 126.305 19.4028 126.538 19.1073C126.792 18.8146 127.044 18.5432 127.293 18.2931C127.541 18.0431 127.685 17.7687 127.723 17.4701C127.769 17.1074 127.573 16.7788 127.134 16.4842C126.716 16.1923 126.155 16.0014 125.451 15.9115C123.872 15.7098 122.56 16.2251 121.513 17.4572C120.488 18.6922 119.821 20.5255 119.51 22.9574C119.199 25.3892 119.397 27.3223 120.102 28.7566C120.811 30.1696 121.986 30.981 123.629 31.1909C124.674 31.3244 125.639 31.155 126.523 30.6826C127.431 30.1915 128.206 29.3907 128.846 28.2802L129.409 28.7098C128.712 30.095 127.725 31.1179 126.448 31.7787C125.195 32.4208 123.769 32.6397 122.169 32.4353Z" fill="white"/>
<path d="M133.745 34.0837L133.991 33.4525C135.069 33.8263 135.866 33.9411 136.384 33.7967C136.902 33.6524 137.317 33.1794 137.63 32.3779L141.308 22.9404C141.667 22.0187 141.711 21.2855 141.438 20.7408C141.174 20.176 140.542 19.6645 139.544 19.2061L139.79 18.5749C140.203 18.7589 140.586 18.9313 140.939 19.0919C141.311 19.2603 141.698 19.4226 142.099 19.5788C143.482 20.1177 144.779 20.4616 145.99 20.6106L140.999 33.4144C140.664 34.276 140.696 34.9926 141.096 35.5641C141.525 36.1234 142.412 36.6886 143.759 37.2598L143.513 37.8909C143.16 37.7303 142.693 37.5368 142.112 37.3103C141.539 37.0638 140.916 36.7977 140.242 36.5122C139.589 36.2344 138.941 35.9706 138.3 35.7206C137.379 35.3614 136.489 35.0378 135.632 34.7499C134.803 34.4497 134.174 34.2276 133.745 34.0837ZM149.51 27.8338C149.049 27.6542 148.73 27.3795 148.551 27.0097C148.392 26.6477 148.39 26.2663 148.546 25.8655C148.656 25.585 148.803 25.3541 148.99 25.1727C149.196 24.9992 149.388 24.8317 149.566 24.6704C149.772 24.4969 149.914 24.3099 149.993 24.1095C150.164 23.6687 149.94 23.3272 149.319 23.0851C148.858 22.9055 148.338 22.8183 147.759 22.8234C147.2 22.8363 146.636 22.9512 146.066 23.1679C145.505 23.3645 145.011 23.6564 144.583 24.0436L144.822 23.3406C145.674 22.6342 146.619 22.1945 147.656 22.0216C148.713 21.8565 149.692 21.9496 150.594 22.3011C151.515 22.6603 152.139 23.192 152.465 23.8959C152.79 24.5999 152.785 25.3827 152.45 26.2443C152.176 26.9456 151.763 27.4425 151.211 27.7349C150.678 28.0352 150.111 28.0681 149.51 27.8338Z" fill="white"/>
<path d="M158.143 46.8749C156.924 45.9904 156.011 44.942 155.403 43.7298C154.813 42.5302 154.618 41.2062 154.819 39.7577C155.02 38.3093 155.709 36.7759 156.884 35.1575C158.071 33.5217 159.323 32.3839 160.638 31.7441C161.953 31.1043 163.272 30.8796 164.595 31.0698C165.949 31.2554 167.235 31.7904 168.453 32.6748C169.689 33.5719 170.595 34.629 171.173 35.846C171.764 37.0456 171.959 38.3696 171.758 39.8181C171.556 41.2665 170.862 42.8086 169.674 44.4444C168.499 46.0628 167.254 47.1919 165.939 47.8317C164.624 48.4715 163.305 48.6962 161.981 48.506C160.658 48.3157 159.378 47.772 158.143 46.8749ZM158.541 46.3267C159.515 47.0343 160.695 47.0934 162.079 46.5042C163.481 45.9276 165.004 44.5081 166.646 42.2459C168.301 39.9662 169.186 38.0706 169.3 36.559C169.445 35.0426 169.03 33.9306 168.055 33.223C167.08 32.5154 165.886 32.4586 164.471 33.0526C163.087 33.6419 161.567 35.0764 159.912 37.356C158.269 39.6183 157.382 41.4989 157.25 42.9979C157.119 44.4969 157.549 45.6065 158.541 46.3267Z" fill="white"/>
<path d="M168.18 54.6449L168.69 54.1986C169.459 55.0115 170.098 55.4805 170.608 55.6057C171.148 55.7329 171.75 55.506 172.414 54.9251L186.245 42.8104C186.973 42.1728 187.357 41.5505 187.398 40.9435C187.468 40.3386 187.137 39.5852 186.404 38.6833L186.938 38.2157C187.191 38.5372 187.444 38.8588 187.697 39.1803C187.95 39.5018 188.211 39.8163 188.481 40.1237C188.976 40.6899 189.475 41.2106 189.977 41.6858C190.51 42.1629 191.017 42.5622 191.498 42.8837L174.73 57.5701C174.067 58.1511 173.763 58.7177 173.818 59.2699C173.889 59.808 174.269 60.5038 174.96 61.3572L174.45 61.8035C174.268 61.5628 174.007 61.2484 173.667 60.8601C173.343 60.4577 172.983 60.0148 172.589 59.5315C172.208 59.0644 171.82 58.6043 171.423 58.1513C170.842 57.488 170.231 56.8228 169.589 56.1555C168.963 55.474 168.494 54.9705 168.18 54.6449Z" fill="white"/>
<path d="M176.947 65.0607L177.524 64.7067C178.145 65.6377 178.697 66.2079 179.178 66.4173C179.689 66.6338 180.32 66.5118 181.072 66.051L196.75 56.4436C197.575 55.938 198.058 55.3894 198.2 54.798C198.372 54.2136 198.173 53.4151 197.603 52.4025L198.208 52.0317C198.403 52.3913 198.598 52.7509 198.793 53.1105C198.988 53.4702 199.193 53.8242 199.406 54.1726C199.799 54.8143 200.203 55.4117 200.618 55.9648C201.062 56.5249 201.494 57.004 201.915 57.4021L182.909 69.049C182.158 69.5097 181.762 70.0169 181.723 70.5705C181.702 71.1129 181.96 71.8629 182.497 72.8205L181.919 73.1744C181.78 72.9065 181.576 72.5525 181.306 72.1124C181.055 71.6611 180.775 71.164 180.468 70.621C180.171 70.0963 179.866 69.5773 179.551 69.0639C179.091 68.3121 178.6 67.5532 178.08 66.7872C177.579 66.01 177.201 65.4345 176.947 65.0607Z" fill="white"/>
<path d="M190.167 98.8645L211.503 94.6799C212.473 94.4895 213.128 94.1419 213.468 93.637C213.807 93.1322 213.89 92.3269 213.717 91.2213L214.414 91.0847C214.471 91.4898 214.529 91.8949 214.586 92.3C214.644 92.7051 214.712 93.1081 214.79 93.5091C214.935 94.2477 215.104 94.9379 215.295 95.5797C215.512 96.2385 215.75 96.8382 216.01 97.3791L194.643 101.57C193.693 101.756 193.038 102.104 192.678 102.613C192.342 103.139 192.261 103.954 192.434 105.06L191.77 105.191C191.712 104.785 191.644 104.382 191.565 103.981C191.508 103.576 191.44 103.173 191.361 102.772C191.216 102.034 191.046 101.333 190.85 100.67C190.659 100.028 190.431 99.4264 190.167 98.8645ZM189.122 94.0399C188.857 92.6893 188.963 91.4413 189.44 90.2959C189.942 89.1675 190.772 88.2047 191.931 87.4077C193.114 86.6276 194.582 86.0658 196.334 85.7223C198.128 85.3705 199.737 85.3617 201.161 85.6959C202.585 86.0302 203.753 86.6777 204.665 87.6385C205.581 88.6204 206.185 89.8605 206.479 91.3589C206.711 92.5406 206.652 93.5822 206.303 94.4834C205.954 95.3847 205.473 96.005 204.86 96.3443L204.297 96.3233C204.804 96.0046 205.197 95.4894 205.473 94.7777C205.775 94.0829 205.844 93.3134 205.678 92.4693C205.388 90.9921 204.511 89.9808 203.045 89.4355C201.583 88.9113 199.629 88.8893 197.181 89.3694C194.796 89.8371 193.022 90.5686 191.858 91.5638C190.72 92.5761 190.285 93.768 190.554 95.1397C190.724 96.005 191.158 96.7088 191.856 97.2512C192.579 97.8107 193.5 98.1452 194.617 98.2548L194.003 98.4739C192.712 98.3763 191.641 97.94 190.787 97.165C189.938 96.4111 189.383 95.3694 189.122 94.0399Z" fill="white"/>
<path d="M190.604 118.953C190.745 117.454 191.182 116.135 191.916 114.994C192.648 113.875 193.688 113.033 195.037 112.468C196.386 111.904 198.056 111.715 200.047 111.902C202.06 112.092 203.677 112.589 204.897 113.395C206.117 114.201 206.982 115.222 207.493 116.458C208.022 117.717 208.217 119.096 208.076 120.595C207.933 122.115 207.485 123.434 206.732 124.551C206 125.67 204.96 126.512 203.611 127.077C202.262 127.641 200.581 127.829 198.569 127.64C196.577 127.452 194.972 126.956 193.751 126.15C192.531 125.344 191.666 124.323 191.155 123.087C190.645 121.851 190.462 120.473 190.604 118.953ZM191.279 119.016C191.166 120.215 191.716 121.261 192.928 122.152C194.138 123.065 196.135 123.652 198.919 123.914C201.723 124.178 203.805 123.974 205.165 123.302C206.543 122.654 207.289 121.731 207.401 120.532C207.514 119.333 206.955 118.276 205.723 117.361C204.511 116.469 202.502 115.892 199.697 115.628C196.914 115.366 194.844 115.561 193.487 116.211C192.129 116.861 191.394 117.796 191.279 119.016Z" fill="white"/>
<path d="M186.11 139.573L201.417 140.613C202.332 140.687 202.998 140.561 203.413 140.234C203.82 139.926 204.152 139.524 204.41 139.027L205.022 139.315C204.783 139.773 204.516 140.289 204.222 140.864C203.928 141.438 203.602 142.105 203.244 142.864C202.823 143.759 202.457 144.561 202.147 145.271C201.836 145.98 201.553 146.632 201.298 147.224L200.685 146.936C201.149 145.799 201.271 145.036 201.05 144.647C200.839 144.287 200.17 144.067 199.043 143.987L189.662 143.314L189.286 142.673L199.08 152.313L198.424 152.646L185.836 140.157L186.11 139.573ZM181.603 149.146L195.506 149.453L199.08 152.313L198.778 152.955L184.903 152.661L184.497 151.935L189.83 157.192C190.706 158.056 191.518 158.628 192.266 158.909C193.004 159.209 193.659 159.232 194.23 158.978C194.82 158.733 195.318 158.231 195.724 157.471L196.337 157.76C196.079 158.257 195.858 158.675 195.674 159.016C195.5 159.386 195.344 159.717 195.206 160.009C195.06 160.32 194.909 160.641 194.753 160.972C194.506 161.497 194.263 162.013 194.025 162.519C193.806 163.034 193.601 163.519 193.409 163.976L192.797 163.687C192.99 162.923 192.94 162.198 192.644 161.512C192.349 160.826 191.739 160.028 190.813 159.116L181.328 149.729L181.603 149.146Z" fill="white"/>
<path d="M166.043 169.727L166.512 170.216C165.905 170.857 165.604 171.398 165.61 171.839C165.615 172.311 165.907 172.85 166.487 173.455L172.378 179.606C173.375 180.646 174.313 181.237 175.192 181.377C176.07 181.548 176.882 181.277 177.628 180.563C178.202 180.013 178.582 179.336 178.767 178.534C178.966 177.748 178.97 176.881 178.777 175.933L179.313 176.493C179.563 177.563 179.533 178.619 179.221 179.662C178.894 180.72 178.311 181.65 177.473 182.453C176.246 183.628 174.942 184.133 173.562 183.966C172.18 183.83 170.806 183.047 169.437 181.618L163.948 175.887C163.368 175.282 162.804 175.003 162.255 175.052C161.721 175.117 161.028 175.528 160.175 176.285L159.706 175.796C159.923 175.618 160.226 175.343 160.614 174.971C161.002 174.63 161.428 174.251 161.893 173.835C162.343 173.434 162.77 173.041 163.174 172.654C163.748 172.103 164.3 171.545 164.83 170.978C165.374 170.427 165.778 170.01 166.043 169.727ZM174.22 161.895L174.689 162.384C173.895 163.204 173.455 163.879 173.367 164.409C173.28 164.94 173.534 165.516 174.129 166.137L181.135 173.452C181.834 174.182 182.488 174.538 183.097 174.521C183.705 174.503 184.428 174.139 185.265 173.427L185.733 173.916C185.424 174.183 185.114 174.45 184.804 174.717C184.494 174.984 184.183 175.267 183.873 175.564C183.329 176.085 182.839 176.599 182.402 177.107C181.98 177.63 181.604 178.154 181.273 178.679L171.589 168.569C170.994 167.948 170.469 167.632 170.013 167.622C169.557 167.612 169.003 167.889 168.352 168.453L167.883 167.964C168.271 167.623 168.729 167.214 169.256 166.739C169.783 166.294 170.326 165.804 170.885 165.268C171.475 164.703 172.066 164.107 172.657 163.481C173.248 162.886 173.769 162.357 174.22 161.895Z" fill="white"/>
<path d="M146.615 190.392C147.281 190.091 147.918 190.04 148.527 190.237C149.115 190.443 149.546 190.85 149.821 191.458C150.104 192.085 150.128 192.688 149.893 193.266C149.639 193.852 149.179 194.296 148.512 194.597C147.865 194.889 147.248 194.931 146.659 194.725C146.051 194.528 145.605 194.116 145.322 193.488C145.048 192.881 145.028 192.288 145.263 191.71C145.498 191.132 145.948 190.693 146.615 190.392Z" fill="white"/>
<path d="M121.01 190.241C121.906 190.133 122.676 190.137 123.318 190.254C123.939 190.374 124.463 190.495 124.889 190.616C125.318 190.759 125.693 190.812 126.013 190.773C126.568 190.706 126.932 190.315 127.106 189.601L127.778 189.519C127.806 190.101 127.847 190.713 127.903 191.356C127.938 192.002 128.002 192.709 128.095 193.478C128.191 194.267 128.308 195.142 128.445 196.1L127.773 196.181C127.207 194.192 126.406 192.761 125.369 191.891C124.334 191.041 123.027 190.712 121.447 190.903C120.294 191.043 119.439 191.406 118.882 191.994C118.306 192.605 118.073 193.359 118.181 194.255C118.287 195.131 118.693 195.797 119.398 196.253C120.084 196.733 121.214 197.116 122.787 197.402C124.738 197.772 126.204 198.342 127.185 199.112C128.145 199.884 128.703 200.91 128.858 202.191C129.031 203.621 128.7 204.82 127.864 205.788C127.006 206.759 125.788 207.339 124.208 207.531C123.375 207.631 122.67 207.619 122.091 207.494C121.494 207.393 120.981 207.271 120.552 207.128C120.123 206.985 119.749 206.933 119.429 206.972C119.194 207 119.011 207.098 118.879 207.266C118.729 207.457 118.612 207.742 118.528 208.121L117.855 208.202C117.836 207.685 117.815 207.156 117.794 206.618C117.753 206.103 117.694 205.525 117.616 204.884C117.539 204.244 117.436 203.487 117.309 202.615L117.981 202.533C118.424 204.039 119.157 205.174 120.181 205.939C121.207 206.724 122.372 207.038 123.674 206.88C124.635 206.764 125.364 206.437 125.863 205.901C126.34 205.366 126.528 204.683 126.427 203.85C126.326 203.017 125.91 202.353 125.178 201.857C124.428 201.384 123.188 200.982 121.458 200.65C119.621 200.331 118.257 199.803 117.367 199.066C116.457 198.353 115.923 197.345 115.766 196.043C115.575 194.463 115.946 193.151 116.881 192.106C117.819 191.082 119.195 190.461 121.01 190.241Z" fill="white"/>
<path d="M100.554 190.078C102.068 190.274 103.345 190.797 104.384 191.647C105.424 192.497 106.17 193.602 106.623 194.962C107.073 196.343 107.186 197.897 106.963 199.625C106.731 201.416 106.21 202.932 105.399 204.171C104.567 205.408 103.507 206.312 102.219 206.882C100.93 207.453 99.4865 207.635 97.887 207.428C96.7566 207.282 95.767 206.97 94.9181 206.491C94.0665 206.034 93.4247 205.463 92.9929 204.778C92.5369 204.112 92.36 203.385 92.4621 202.595C92.5504 201.913 92.8368 201.375 93.3212 200.983C93.8057 200.59 94.3786 200.436 95.0397 200.522C95.5729 200.591 95.9815 200.785 96.2656 201.103C96.5469 201.443 96.6572 201.848 96.5965 202.317C96.5413 202.744 96.397 203.104 96.1637 203.4C95.9091 203.692 95.6572 203.963 95.408 204.213C95.1589 204.462 95.015 204.736 94.9764 205.035C94.9295 205.397 95.1254 205.726 95.5643 206.022C95.9818 206.314 96.5425 206.506 97.2463 206.597C98.8246 206.801 100.138 206.288 101.186 205.058C102.213 203.824 102.884 201.992 103.198 199.561C103.513 197.129 103.318 195.196 102.615 193.76C101.909 192.346 100.735 191.533 99.0923 191.321C98.0473 191.185 97.0823 191.353 96.1973 191.824C95.2883 192.314 94.5126 193.113 93.8704 194.223L93.308 193.793C94.0075 192.408 94.9962 191.387 96.274 190.728C97.5278 190.088 98.9545 189.872 100.554 190.078Z" fill="white"/>
<path d="M88.979 188.412L88.732 189.043C87.655 188.667 86.8575 188.551 86.3393 188.695C85.8212 188.838 85.4053 189.311 85.0917 190.112L81.3983 199.543C81.0376 200.465 80.993 201.198 81.2646 201.743C81.5283 202.308 82.159 202.821 83.1567 203.281L82.9097 203.911C82.497 203.727 82.1144 203.554 81.7618 203.393C81.3892 203.224 81.0026 203.061 80.6021 202.904C79.2204 202.363 77.924 202.017 76.7128 201.866L81.7235 189.07C82.0607 188.209 82.0295 187.492 81.63 186.92C81.2026 186.36 80.3159 185.793 78.9699 185.22L79.2169 184.589C79.5695 184.751 80.0362 184.945 80.6169 185.172C81.1898 185.42 81.8127 185.687 82.4857 185.973C83.1387 186.252 83.7856 186.517 84.4264 186.768C85.3475 187.129 86.2365 187.454 87.0932 187.743C87.9221 188.044 88.5507 188.268 88.979 188.412ZM73.2038 194.637C73.6644 194.817 73.9839 195.093 74.1623 195.463C74.3207 195.825 74.3215 196.206 74.1646 196.607C74.0548 196.887 73.9068 197.118 73.7204 197.299C73.514 197.472 73.3215 197.639 73.143 197.8C72.9366 197.974 72.7942 198.16 72.7157 198.361C72.5432 198.801 72.7674 199.143 73.3881 199.386C73.8487 199.566 74.3685 199.654 74.9475 199.65C75.5065 199.638 76.0708 199.524 76.6403 199.308C77.202 199.113 77.6971 198.822 78.1256 198.435L77.8851 199.138C77.0316 199.843 76.0863 200.281 75.0492 200.452C73.9921 200.616 73.013 200.521 72.1119 200.168C71.1907 199.807 70.5679 199.275 70.2433 198.57C69.9187 197.866 69.9249 197.083 70.2621 196.222C70.5366 195.521 70.9503 195.025 71.5033 194.733C72.0362 194.434 72.6031 194.402 73.2038 194.637Z" fill="white"/>
<path d="M64.6022 175.582C65.819 176.468 66.7304 177.518 67.3366 178.731C67.9254 179.932 68.118 181.256 67.9145 182.704C67.7109 184.152 67.0203 185.684 65.8427 187.301C64.6524 188.935 63.3992 190.071 62.0832 190.708C60.7672 191.346 59.4476 191.569 58.1244 191.376C56.7711 191.189 55.4861 190.652 54.2693 189.765C53.0352 188.866 52.1301 187.808 51.554 186.59C50.9652 185.389 50.7726 184.065 50.9761 182.617C51.1797 181.169 51.8766 179.628 53.0669 177.994C54.2446 176.377 55.4914 175.25 56.8074 174.612C58.1234 173.975 59.443 173.752 60.7662 173.944C62.0894 174.137 63.3681 174.683 64.6022 175.582ZM64.2034 176.129C63.23 175.42 62.0505 175.359 60.665 175.946C59.2621 176.52 57.7375 177.937 56.0914 180.197C54.4325 182.474 53.5448 184.368 53.4282 185.88C53.2815 187.396 53.6948 188.509 54.6682 189.218C55.6416 189.927 56.8361 189.986 58.2517 189.394C59.6372 188.807 61.1594 187.375 62.8182 185.098C64.4644 182.838 65.3545 180.959 65.4885 179.46C65.6225 177.961 65.1941 176.851 64.2034 176.129Z" fill="white"/>
<path d="M54.5776 167.796L54.0673 168.241C53.2994 167.427 52.6606 166.957 52.151 166.831C51.6109 166.703 51.0088 166.929 50.3446 167.509L36.4938 179.602C35.7648 180.238 35.3797 180.86 35.3386 181.467C35.2671 182.072 35.5971 182.826 36.3284 183.729L35.7938 184.195C35.5413 183.874 35.2888 183.552 35.0362 183.23C34.7837 182.908 34.5231 182.593 34.2543 182.285C33.7593 181.718 33.2612 181.197 32.76 180.721C32.2285 180.243 31.7221 179.842 31.241 179.52L48.0321 164.86C48.6963 164.28 49.0014 163.714 48.9474 163.162C48.8772 162.624 48.4976 161.927 47.8087 161.073L48.319 160.627C48.5008 160.868 48.7614 161.183 49.1009 161.572C49.4241 161.975 49.7827 162.418 50.1767 162.902C50.5565 163.37 50.9444 163.831 51.3405 164.284C51.9204 164.948 52.5306 165.615 53.1712 166.283C53.7956 166.965 54.2644 167.47 54.5776 167.796Z" fill="white"/>
<path d="M45.826 157.367L45.2478 157.72C44.6283 156.788 44.078 156.217 43.5969 156.006C43.0862 155.789 42.4546 155.91 41.7021 156.37L26.0095 165.952C25.1836 166.457 24.6991 167.005 24.5562 167.596C24.3837 168.18 24.5817 168.979 25.1503 169.992L24.5446 170.362C24.35 170.002 24.1554 169.642 23.9608 169.282C23.7662 168.922 23.5624 168.568 23.3495 168.219C22.9572 167.577 22.5542 166.979 22.1405 166.425C21.6972 165.864 21.2657 165.385 20.8458 164.986L39.8696 153.369C40.6222 152.909 41.0184 152.403 41.0583 151.849C41.0799 151.307 40.8233 150.557 40.2884 149.598L40.8665 149.245C41.0051 149.513 41.2089 149.868 41.4778 150.308C41.7285 150.76 42.0071 151.257 42.3138 151.801C42.6093 152.326 42.9139 152.845 43.2277 153.359C43.6872 154.112 44.1763 154.872 44.695 155.638C45.1953 156.416 45.5723 156.992 45.826 157.367Z" fill="white"/>
<path d="M32.6602 123.543L11.3182 127.695C10.3471 127.883 9.69158 128.23 9.3515 128.734C9.01143 129.239 8.92704 130.044 9.09833 131.15L8.40171 131.285C8.3448 130.88 8.2879 130.475 8.23099 130.07C8.17409 129.664 8.10663 129.261 8.02862 128.86C7.88491 128.121 7.71774 127.431 7.52713 126.789C7.3113 126.13 7.07407 125.53 6.81544 124.988L28.1891 120.831C29.139 120.646 29.7946 120.3 30.1558 119.791C30.4917 119.266 30.5741 118.45 30.4028 117.344L31.0677 117.215C31.1246 117.62 31.1921 118.023 31.2701 118.424C31.327 118.829 31.3945 119.233 31.4725 119.634C31.6162 120.373 31.7854 121.074 31.9801 121.737C32.1707 122.379 32.3974 122.981 32.6602 123.543ZM33.6975 128.37C33.9603 129.721 33.8524 130.968 33.374 132.113C32.8704 133.241 32.0386 134.202 30.8788 134.997C29.6938 135.776 28.2252 136.335 26.4731 136.676C24.6787 137.025 23.0697 137.031 21.6459 136.695C20.2222 136.358 19.0552 135.709 18.1451 134.747C17.2308 133.763 16.6279 132.522 16.3364 131.023C16.1065 129.841 16.1668 128.8 16.5174 127.899C16.868 126.998 17.35 126.379 17.9633 126.041L18.5263 126.062C18.0185 126.38 17.6256 126.895 17.3477 127.606C17.0446 128.301 16.9752 129.07 17.1394 129.914C17.4268 131.392 18.303 132.405 19.7678 132.952C21.2285 133.479 23.1832 133.504 25.632 133.027C28.0174 132.563 29.7926 131.835 30.9577 130.841C32.0976 129.831 32.5341 128.64 32.2672 127.268C32.0989 126.402 31.6661 125.698 30.9688 125.154C30.2463 124.593 29.3266 124.257 28.2095 124.146L28.8243 123.928C30.1144 124.028 31.1854 124.466 32.0375 125.242C32.8855 125.997 33.4388 127.04 33.6975 128.37Z" fill="white"/>
<path d="M32.2542 103.452C32.111 104.951 31.6717 106.27 30.9363 107.409C30.2029 108.528 29.1613 109.368 27.8113 109.93C26.4614 110.492 24.7909 110.678 22.8 110.488C20.7877 110.296 19.172 109.796 17.953 108.988C16.734 108.18 15.8704 107.158 15.3621 105.921C14.8344 104.661 14.6422 103.281 14.7854 101.783C14.9307 100.263 15.3807 98.9449 16.1354 97.8289C16.8688 96.7108 17.9104 95.8706 19.2604 95.3083C20.6103 94.746 22.2915 94.561 24.3038 94.7533C26.2947 94.9436 27.8997 95.4426 29.1187 96.2504C30.3377 97.0583 31.2013 98.0805 31.7096 99.3173C32.2179 100.554 32.3995 101.932 32.2542 103.452ZM31.5798 103.388C31.6944 102.189 31.1463 101.143 29.9355 100.25C28.7267 99.3347 26.7308 98.7443 23.9478 98.4783C21.1434 98.2103 19.0611 98.4109 17.7009 99.0803C16.3214 99.7261 15.5743 100.648 15.4597 101.847C15.3452 103.046 15.903 104.104 17.1332 105.021C18.344 105.914 20.3516 106.495 23.156 106.763C25.939 107.029 28.0096 106.838 29.3677 106.19C30.7259 105.542 31.4632 104.608 31.5798 103.388Z" fill="white"/>
<path d="M36.7809 82.8389L21.4765 81.7751C20.561 81.6989 19.8951 81.8242 19.479 82.1508C19.0721 82.4579 18.7394 82.8596 18.481 83.3559L17.8686 83.0663C18.1086 82.6089 18.3763 82.0932 18.6715 81.5192C18.9668 80.9451 19.2936 80.279 19.6522 79.5208C20.0751 78.6265 20.4423 77.8248 20.7538 77.1157C21.0653 76.4066 21.3492 75.7558 21.6056 75.1634L22.218 75.453C21.7523 76.5887 21.6295 77.3514 21.8497 77.741C22.0597 78.1019 22.7283 78.3229 23.8556 78.404L33.2356 79.0928L33.6104 79.7339L23.8316 70.0786L24.4881 69.7467L37.0567 82.2556L36.7809 82.8389ZM41.304 73.2737L27.4009 72.9439L23.8316 70.0786L24.135 69.437L38.0089 69.753L38.4144 70.48L33.0897 65.2146C32.2146 64.3488 31.4035 63.775 30.6566 63.4931C29.9189 63.1919 29.2642 63.1678 28.6926 63.4208C28.1015 63.6647 27.6027 64.1662 27.1961 64.9255L26.5837 64.6359C26.8421 64.1396 27.0638 63.7211 27.2487 63.3803C27.4234 63.011 27.5797 62.6805 27.7176 62.3888C27.8647 62.0778 28.0164 61.757 28.1726 61.4265C28.4209 60.9016 28.6645 60.3864 28.9035 59.8809C29.1231 59.3662 29.3289 58.8807 29.5209 58.4244L30.1333 58.714C29.9384 59.4782 29.988 60.2034 30.282 60.8896C30.5761 61.5758 31.1852 62.3753 32.1095 63.2881L41.5797 72.6905L41.304 73.2737Z" fill="white"/>
<path d="M56.896 52.7174L56.4282 52.2275C57.0363 51.5875 57.3378 51.0469 57.3328 50.6056C57.3285 50.134 57.0367 49.5949 56.4576 48.9883L50.5767 42.8288C49.5817 41.7866 48.6447 41.1945 47.7658 41.0525C46.8875 40.8801 46.0751 41.1503 45.3285 41.8631C44.753 42.4126 44.3723 43.0883 44.1864 43.8901C43.9857 44.6764 43.9809 45.5433 44.1719 46.4908L43.6373 45.9309C43.3882 44.8604 43.4203 43.804 43.7334 42.7617C44.0621 41.7045 44.6464 40.775 45.4863 39.973C46.7151 38.7998 48.0196 38.2976 49.3999 38.4665C50.7809 38.6049 52.1545 39.3896 53.5208 40.8206L59.0007 46.5602C59.5799 47.1668 60.1438 47.446 60.6925 47.3979C61.2264 47.3342 61.9203 46.9243 62.7744 46.1683L63.2422 46.6583C63.0251 46.8358 62.7222 47.1102 62.3333 47.4815C61.9452 47.8223 61.5181 48.2003 61.0522 48.6154C60.6018 49.0157 60.1744 49.4089 59.77 49.795C59.1945 50.3445 58.6416 50.9021 58.1114 51.4678C57.5663 52.018 57.1612 52.4345 56.896 52.7174ZM48.7067 60.5363L48.2389 60.0464C49.0336 59.2282 49.4751 58.5539 49.5634 58.0236C49.6517 57.4932 49.3989 56.917 48.8048 56.2948L41.8101 48.9687C41.1122 48.2377 40.4588 47.8803 39.85 47.8967C39.2412 47.913 38.5178 48.2765 37.68 48.9873L37.2122 48.4973C37.5226 48.2307 37.833 47.9641 38.1434 47.6975C38.4537 47.4309 38.7645 47.149 39.0756 46.852C39.62 46.3323 40.111 45.8188 40.5486 45.3118C40.9714 44.7892 41.3486 44.2656 41.6801 43.7409L51.348 53.8667C51.942 54.4889 52.4671 54.8053 52.9231 54.8158C53.3792 54.8264 53.9332 54.5502 54.5851 53.9873L55.0529 54.4772C54.6647 54.8181 54.2066 55.2258 53.6784 55.7003C53.151 56.1444 52.6073 56.6338 52.0473 57.1684C51.4563 57.7327 50.8645 58.3275 50.272 58.9526C49.6802 59.5473 49.1585 60.0753 48.7067 60.5363Z" fill="white"/>
<path d="M76.3587 32.0826C75.6918 32.3823 75.0544 32.433 74.4465 32.2346C73.8583 32.0274 73.4276 31.6198 73.1543 31.0117C72.8722 30.384 72.849 29.7814 73.0846 29.204C73.3398 28.6177 73.8009 28.1748 74.4678 27.875C75.1151 27.5841 75.7329 27.5423 76.3211 27.7495C76.929 27.9478 77.374 28.3609 77.6561 28.9886C77.9293 29.5967 77.9482 30.1894 77.7125 30.7669C77.4769 31.3443 77.0256 31.7829 76.3587 32.0826Z" fill="white"/>
<path d="M101.977 32.2729C101.08 32.3784 100.31 32.3714 99.6683 32.252C99.0477 32.1301 98.5244 32.0076 98.0985 31.8845C97.6701 31.74 97.2957 31.6866 96.9753 31.7243C96.42 31.7896 96.0544 32.179 95.8785 32.8926L95.2057 32.9718C95.1806 32.3901 95.141 31.7776 95.087 31.1343C95.0544 30.4886 94.9929 29.7812 94.9024 29.0123C94.8095 28.2221 94.6958 27.3477 94.5614 26.3891L95.2342 26.3099C95.7932 28.3013 96.5897 29.7342 97.6236 30.6086C98.6551 31.4617 99.9611 31.7954 101.542 31.6095C102.695 31.4738 103.551 31.1133 104.11 30.5278C104.688 29.9185 104.924 29.1654 104.819 28.2683C104.716 27.3926 104.313 26.7255 103.609 26.2669C102.924 25.7844 101.796 25.3974 100.225 25.1059C98.2747 24.7289 96.8104 24.1541 95.8317 23.3814C94.8744 22.6062 94.3204 21.5778 94.1697 20.2963C94.0014 18.8653 94.3369 17.6674 95.1762 16.7026C96.0368 15.7352 97.2574 15.1586 98.8379 14.9727C99.6708 14.8747 100.376 14.8892 100.954 15.0161C101.551 15.1192 102.064 15.2429 102.492 15.3874C102.92 15.5319 103.295 15.5853 103.615 15.5477C103.85 15.52 104.034 15.4227 104.165 15.2556C104.316 15.0646 104.434 14.78 104.52 14.4019L105.193 14.3228C105.21 14.8404 105.229 15.3687 105.249 15.9077C105.288 16.4228 105.345 17.0007 105.42 17.6414C105.496 18.2822 105.596 19.0391 105.72 19.9123L105.047 19.9914C104.61 18.4838 103.881 17.3461 102.859 16.5785C101.836 15.7894 100.672 15.4715 99.3693 15.6248C98.4082 15.7378 97.6776 16.0619 97.1775 16.5971C96.6988 17.1298 96.5085 17.8126 96.6064 18.6456C96.7044 19.4785 97.1184 20.1444 97.8483 20.6432C98.5971 21.1182 99.8358 21.5246 101.565 21.8627C103.4 22.1881 104.762 22.7209 105.65 23.4609C106.557 24.1771 107.087 25.1866 107.241 26.4894C107.426 28.0699 107.05 29.3809 106.112 30.4224C105.171 31.4425 103.792 32.0593 101.977 32.2729Z" fill="white"/>
<path d="M98.7109 79.5566L95.7626 93.6044" stroke="white" stroke-width="3.91468" stroke-linecap="round"/>
<path d="M117.867 83.5771L114.919 97.6249" stroke="white" stroke-width="3.91468" stroke-linecap="round"/>
<mask id="path-25-inside-1_1984_3461" fill="white">
<path d="M76.3313 95.3042C76.5286 94.3638 75.918 93.4397 74.9674 93.2402C74.0167 93.0406 73.0861 93.6413 72.8887 94.5817C68.3492 116.211 82.3938 137.465 104.258 142.054C126.123 146.643 147.527 132.829 152.067 111.199C152.264 110.259 151.654 109.335 150.703 109.135C149.752 108.936 148.822 109.537 148.624 110.477C144.48 130.225 124.936 142.838 104.973 138.648C85.0098 134.459 72.1865 115.053 76.3313 95.3042Z"/>
</mask>
<path d="M74.1633 97.0714C73.0371 96.835 72.2452 95.7145 72.5 94.5001L80.1625 96.1083C80.8121 93.013 78.7988 90.0443 75.7714 89.409L74.1633 97.0714ZM76.7199 95.3858C76.465 96.6002 75.2894 97.3077 74.1633 97.0714L75.7714 89.409C72.7441 88.7736 69.7071 90.6823 69.0575 93.7776L76.7199 95.3858ZM105.062 138.223C85.2747 134.07 72.6327 114.86 76.7199 95.3858L69.0575 93.7776C64.0657 117.562 79.513 140.86 103.454 145.885L105.062 138.223ZM148.236 110.395C144.149 129.87 124.85 142.376 105.062 138.223L103.454 145.885C127.395 150.91 150.906 135.788 155.898 112.004L148.236 110.395ZM149.899 112.967C148.773 112.73 147.981 111.61 148.236 110.395L155.898 112.004C156.548 108.908 154.535 105.94 151.507 105.304L149.899 112.967ZM152.456 111.281C152.201 112.495 151.025 113.203 149.899 112.967L151.507 105.304C148.48 104.669 145.443 106.578 144.793 109.673L152.456 111.281ZM104.169 142.48C126.209 147.105 147.859 133.184 152.456 111.281L144.793 109.673C141.101 127.267 123.664 138.571 105.777 134.817L104.169 142.48ZM72.5 94.5001C67.903 116.404 82.129 137.854 104.169 142.48L105.777 134.817C87.8907 131.063 76.4699 113.702 80.1625 96.1083L72.5 94.5001Z" fill="white" mask="url(#path-25-inside-1_1984_3461)"/>
<path d="M146.041 108.157L154.98 110.033" stroke="white" stroke-width="3.91468" stroke-linecap="round"/>
</svg>
