<svg width="110" height="110" viewBox="0 0 110 110" fill="none" xmlns="http://www.w3.org/2000/svg">
<path d="M60.9663 14.713L61.404 13.85C62.4773 14.5024 63.3308 14.9009 63.9645 15.0455C64.5981 15.1901 65.1159 15.1663 65.5178 14.9741C65.9341 14.7728 66.1945 14.4434 66.2989 13.9857C66.4034 13.5281 66.3389 13.1615 66.1055 12.886C65.8865 12.6015 65.3656 12.2604 64.5428 11.8627C63.7199 11.465 63.1343 11.0289 62.7858 10.5543C62.432 10.1031 62.3355 9.52554 62.4961 8.82147C62.6568 8.11741 63.0427 7.64376 63.6538 7.40051C64.2793 7.14821 65.0145 7.11848 65.8594 7.31132C66.7042 7.50415 67.5767 7.90081 68.4766 8.50129L68.0414 9.27232C67.119 8.7161 66.3527 8.36836 65.7425 8.22909C65.1323 8.08982 64.6271 8.08562 64.2268 8.21649C63.8212 8.37083 63.5729 8.64748 63.4818 9.04645C63.3908 9.44542 63.4723 9.7912 63.7266 10.0838C63.9925 10.3791 64.5459 10.7399 65.3869 11.1664C66.2278 11.5929 66.7958 12.0251 67.091 12.4628C67.3888 12.8888 67.4534 13.4714 67.2846 14.2107C67.1159 14.95 66.7297 15.4791 66.126 15.7981C65.5341 16.1198 64.7805 16.1762 63.8652 15.9673C62.9499 15.7584 61.9836 15.3403 60.9663 14.713Z" fill="white"/>
<path d="M78.5562 12.5508L77.9537 13.3026C77.3963 12.7403 76.8302 12.3207 76.2554 12.0439C75.4746 11.6679 74.7559 11.6624 74.0992 12.0275C73.4585 12.3869 72.9032 13.0546 72.4331 14.0306C71.9631 15.0066 71.7849 15.8759 71.8985 16.6387C72.0174 17.3906 72.4618 17.9519 73.2317 18.3227C73.7522 18.5734 74.4708 18.7457 75.3873 18.8398L75.2559 19.7784C74.3181 19.7009 73.513 19.5002 72.8406 19.1764C71.7779 18.6646 71.1343 17.9205 70.9099 16.9441C70.6906 15.9568 70.8865 14.8288 71.4975 13.56C72.1085 12.2912 72.8525 11.4538 73.7293 11.0478C74.6114 10.631 75.5892 10.6811 76.6628 11.1981C77.3459 11.5271 77.9771 11.978 78.5562 12.5508Z" fill="white"/>
<path d="M77.6196 21.6616L78.1824 20.9558L79.7916 22.2391L84.0128 16.9458L82.4037 15.6625L82.9665 14.9568L85.3238 16.8366L84.6991 17.6778C85.1503 17.7298 85.7239 17.8793 86.4198 18.1263C87.1156 18.3734 87.6856 18.6432 88.1297 18.9357L88.285 19.0595L87.6208 19.8923L87.4655 19.7685C87.0572 19.4891 86.5022 19.2004 85.8006 18.9027C85.1084 18.6124 84.5537 18.4393 84.1363 18.3836L80.5679 22.8582L82.8264 24.6592L82.2636 25.365L77.6196 21.6616Z" fill="white"/>
<path d="M87.5468 24.5711C89.8523 22.7325 91.7217 22.7119 93.1551 24.5093C94.5884 26.3066 94.1523 28.1246 91.8468 29.9632C89.5413 31.8018 87.6719 31.8224 86.2385 30.025C84.8052 28.2276 85.2413 26.4097 87.5468 24.5711ZM92.4211 25.0946C91.4155 23.8336 90.0046 23.9273 88.1884 25.3757C86.3722 26.824 85.9669 28.1787 86.9725 29.4397C87.9781 30.7006 89.389 30.607 91.2052 29.1586C93.0214 27.7103 93.4267 26.3556 92.4211 25.0946Z" fill="white"/>
<path d="M89.9353 35.0173L90.7486 34.6257L91.9471 37.1144L101.154 32.6807L99.9704 30.2648L100.76 29.8647L102.366 33.1589L92.3623 37.9765L93.6 40.5466L92.7867 40.9383L89.9353 35.0173Z" fill="white"/>
<path d="M93.4983 43.2994L94.3784 43.0985L94.993 45.7916L104.956 43.5177L104.339 40.8991L105.198 40.6846L106.031 44.2537L95.206 46.7245L95.8407 49.5055L94.9606 49.7064L93.4983 43.2994Z" fill="white"/>
<path d="M105.092 69.7022L94.8659 67.3681L93.2944 67.1946L93.3937 66.2728L94.3667 66.3097C93.9574 65.2904 93.8371 64.4111 94.0059 63.6718C94.2442 62.6274 94.8176 61.9003 95.726 61.4903C96.6317 61.0921 97.7475 61.0443 99.0735 61.347C100.411 61.6523 101.388 62.2147 102.003 63.0342C102.63 63.8563 102.817 64.8248 102.562 65.9396C102.412 66.5967 102.095 67.2587 101.609 67.9257L105.305 68.7693L105.092 69.7022ZM98.8797 62.3583C97.8471 62.1226 96.9684 62.1319 96.2437 62.3863C95.5281 62.655 95.0832 63.1708 94.9091 63.9335C94.735 64.6962 94.8913 65.5529 95.3781 66.5035L100.659 67.7087C100.832 67.4891 101.021 67.1742 101.226 66.7642C101.44 66.3685 101.577 66.0358 101.639 65.7659C101.829 64.9327 101.673 64.2118 101.17 63.6032C100.676 63.0089 99.9124 62.594 98.8797 62.3583Z" fill="white"/>
<path d="M96.4858 71.1326C99.1426 72.412 99.9723 74.0874 98.9748 76.1586C97.9774 78.2299 96.1502 78.6258 93.4934 77.3463C90.8366 76.0668 90.0069 74.3915 91.0043 72.3203C92.0018 70.249 93.8289 69.8531 96.4858 71.1326ZM98.129 75.7513C98.8288 74.2982 98.1322 73.0677 96.0393 72.0598C93.9463 71.0519 92.55 71.2745 91.8502 72.7276C91.1504 74.1807 91.847 75.4112 93.9399 76.4191C96.0328 77.427 97.4292 77.2044 98.129 75.7513Z" fill="white"/>
<path d="M91.2352 87.6532L90.6498 88.3872L84.5866 82.2358L85.7798 80.7395L89.2758 82.3498L89.3208 82.2933L86.9843 79.2292L88.1662 77.7471L95.4902 82.3176L94.9048 83.0516L88.2922 78.979L88.0896 79.2331L90.7372 82.8917L90.1519 83.6257L85.9959 81.8586L85.7932 82.1127L91.2352 87.6532Z" fill="white"/>
<path d="M87.0891 91.6854L86.6106 91.1433C86.043 92.3041 85.4581 93.1246 84.8558 93.6049C84.2535 94.0852 83.6179 94.2534 82.949 94.1095C82.2706 93.9731 81.6462 93.5473 81.0759 92.8321L77.5076 88.3575L78.2557 87.7609L81.824 92.2355C82.1917 92.6966 82.6086 92.9877 83.0746 93.1087C83.5331 93.2203 83.9881 93.096 84.4398 92.7358C84.8915 92.3756 85.4275 91.6095 86.0477 90.4375L81.714 85.0031L82.4621 84.4065L87.809 91.1113L87.0891 91.6854Z" fill="white"/>
<path d="M64.9384 98.4205C65.4664 98.3 65.8068 98.5742 65.9595 99.243C66.1121 99.9119 65.9244 100.307 65.3964 100.427C64.8566 100.55 64.5077 100.266 64.3497 99.5734C64.272 99.2331 64.2803 98.972 64.3746 98.79C64.4571 98.6106 64.645 98.4875 64.9384 98.4205Z" fill="white"/>
<path d="M48.9634 95.2162L48.5257 96.0792C47.4524 95.4268 46.5989 95.0283 45.9652 94.8837C45.3316 94.7391 44.8138 94.7629 44.4119 94.9551C43.9956 95.1564 43.7352 95.4858 43.6308 95.9435C43.5263 96.4011 43.5908 96.7677 43.8242 97.0432C44.0432 97.3277 44.5641 97.6688 45.3869 98.0665C46.2097 98.4642 46.7954 98.9003 47.1438 99.3749C47.4977 99.8261 47.5942 100.404 47.4335 101.108C47.2728 101.812 46.887 102.285 46.2759 102.529C45.6504 102.781 44.9152 102.811 44.0703 102.618C43.2255 102.425 42.353 102.028 41.453 101.428L41.8883 100.657C42.8107 101.213 43.577 101.561 44.1872 101.7C44.7974 101.839 45.3026 101.844 45.7029 101.713C46.1085 101.558 46.3568 101.282 46.4478 100.883C46.5389 100.484 46.4573 100.138 46.2031 99.8454C45.9372 99.5501 45.3838 99.1893 44.5428 98.7628C43.7019 98.3363 43.1339 97.9041 42.8387 97.4664C42.5409 97.0404 42.4763 96.4578 42.6451 95.7185C42.8138 94.9792 43.2 94.4501 43.8037 94.1311C44.3956 93.8094 45.1492 93.753 46.0645 93.9619C46.9798 94.1708 47.9461 94.5889 48.9634 95.2162Z" fill="white"/>
<path d="M31.3734 97.3786L31.976 96.6268C32.5334 97.1891 33.0995 97.6087 33.6743 97.8855C34.455 98.2615 35.1738 98.267 35.8305 97.9019C36.4712 97.5425 37.0265 96.8748 37.4965 95.8988C37.9665 94.9228 38.1447 94.0535 38.0311 93.2907C37.9123 92.5388 37.4679 91.9775 36.698 91.6067C36.1775 91.356 35.4589 91.1836 34.5424 91.0896L34.6738 90.1509C35.6116 90.2285 36.4167 90.4292 37.0891 90.753C38.1518 91.2648 38.7954 92.0089 39.0198 92.9853C39.2391 93.9726 39.0432 95.1006 38.4321 96.3694C37.8211 97.6382 37.0772 98.4756 36.2004 98.8816C35.3183 99.2984 34.3405 99.2483 33.2669 98.7313C32.5837 98.4023 31.9526 97.9514 31.3734 97.3786Z" fill="white"/>
<path d="M32.3091 88.2674L31.7463 88.9731L30.1371 87.6899L25.9159 92.9832L27.5251 94.2664L26.9622 94.9722L24.605 93.0923L25.2296 92.2511C24.7784 92.1992 24.2048 92.0497 23.509 91.8026C22.8131 91.5556 22.2431 91.2858 21.799 90.9932L21.6438 90.8694L22.3079 90.0366L22.4632 90.1604C22.8715 90.4399 23.4265 90.7285 24.1281 91.0263C24.8203 91.3166 25.3751 91.4896 25.7924 91.5454L29.3608 87.0708L27.1023 85.2697L27.6651 84.5639L32.3091 88.2674Z" fill="white"/>
<path d="M22.3829 85.3581C20.0774 87.1967 18.208 87.2173 16.7746 85.4199C15.3413 83.6226 15.7774 81.8046 18.0829 79.966C20.3884 78.1274 22.2578 78.1068 23.6912 79.9042C25.1245 81.7016 24.6884 83.5195 22.3829 85.3581ZM17.5086 84.8346C18.5142 86.0956 19.9251 86.0019 21.7413 84.5535C23.5575 83.1052 23.9628 81.7505 22.9572 80.4895C21.9516 79.2286 20.5407 79.3222 18.7245 80.7706C16.9083 82.2189 16.503 83.5736 17.5086 84.8346Z" fill="white"/>
<path d="M19.9934 74.9117L19.1801 75.3034L17.9816 72.8146L8.77484 77.2484L9.95829 79.6642L9.16908 80.0643L7.56262 76.7701L17.5664 71.9525L16.3287 69.3824L17.142 68.9908L19.9934 74.9117Z" fill="white"/>
<path d="M16.4314 66.63L15.5513 66.8309L14.9367 64.1378L4.97415 66.4117L5.59035 69.0303L4.73189 69.2448L3.89875 65.6757L14.7237 63.2049L14.089 60.4239L14.9691 60.223L16.4314 66.63Z" fill="white"/>
<path d="M4.83627 40.2268L15.0628 42.5609L16.6343 42.7344L16.535 43.6562L15.562 43.6193C15.9713 44.6386 16.0916 45.518 15.9228 46.2572C15.6845 47.3016 15.1111 48.0287 14.2027 48.4387C13.297 48.8369 12.1812 48.8847 10.8552 48.582C9.51746 48.2767 8.54089 47.7143 7.92546 46.8948C7.29829 46.0727 7.11193 45.1042 7.36637 43.9895C7.51635 43.3323 7.83412 42.6703 8.31968 42.0033L4.62335 41.1597L4.83627 40.2268ZM11.049 47.5707C12.0816 47.8064 12.9603 47.7971 13.685 47.5427C14.4007 47.274 14.8455 46.7582 15.0196 45.9955C15.1937 45.2328 15.0374 44.3761 14.5506 43.4255L9.27017 42.2203C9.09658 42.4399 8.90743 42.7548 8.70273 43.1648C8.48897 43.5605 8.35128 43.8933 8.28968 44.1632C8.09952 44.9963 8.25597 45.7172 8.75903 46.3258C9.25303 46.9201 10.0163 47.335 11.049 47.5707Z" fill="white"/>
<path d="M13.4439 38.7968C10.7871 37.5173 9.9574 35.842 10.9549 33.7707C11.9523 31.6995 13.7795 31.3036 16.4363 32.5831C19.0931 33.8625 19.9228 35.5379 18.9254 37.6091C17.9279 39.6804 16.1007 40.0763 13.4439 38.7968ZM11.8007 34.1781C11.1009 35.6312 11.7975 36.8617 13.8904 37.8696C15.9834 38.8775 17.3797 38.6549 18.0795 37.2018C18.7793 35.7487 18.0827 34.5182 15.9898 33.5102C13.8969 32.5023 12.5005 32.725 11.8007 34.1781Z" fill="white"/>
<path d="M18.6945 22.276L19.2799 21.542L25.343 27.6934L24.1498 29.1897L20.6539 27.5794L20.6088 27.6359L22.9454 30.7L21.7634 32.1821L14.4395 27.6116L15.0249 26.8776L21.6375 30.9502L21.8401 30.6961L19.1925 27.0375L19.7778 26.3035L23.9338 28.0706L24.1364 27.8165L18.6945 22.276Z" fill="white"/>
<path d="M22.8406 18.244L23.3191 18.7861C23.8867 17.6253 24.4716 16.8048 25.0739 16.3245C25.6761 15.8442 26.3118 15.676 26.9807 15.8199C27.6591 15.9563 28.2834 16.3821 28.8538 17.0973L32.4221 21.5718L31.674 22.1684L28.1057 17.6939C27.7379 17.2327 27.3211 16.9417 26.8551 16.8207C26.3966 16.7091 25.9415 16.8333 25.4898 17.1936C25.0382 17.5538 24.5022 18.3199 23.8819 19.4919L28.2157 24.9263L27.4676 25.5229L22.1207 18.8181L22.8406 18.244Z" fill="white"/>
<path d="M44.9903 11.5083C44.4623 11.6288 44.1219 11.3547 43.9693 10.6858C43.8166 10.0169 44.0043 9.62225 44.5323 9.50172C45.0721 9.37852 45.421 9.66309 45.579 10.3554C45.6567 10.6957 45.6484 10.9569 45.5541 11.1389C45.4716 11.3182 45.2837 11.4413 44.9903 11.5083Z" fill="white"/>
<path d="M57.1406 39.7784L52.7446 44.1745" stroke="white" stroke-width="1.69553" stroke-linecap="round"/>
<path d="M63.1348 45.7728L58.7387 50.1689" stroke="white" stroke-width="1.69553" stroke-linecap="round"/>
<mask id="path-25-inside-1_690_527" fill="white">
<path d="M45.2954 40.1891C45.5897 39.8948 45.5871 39.4151 45.2896 39.1176C44.9921 38.8201 44.5124 38.8175 44.2181 39.1118C37.4495 45.8804 37.5092 56.9141 44.3513 63.7563C51.1935 70.5985 62.2272 70.6581 68.9958 63.8895C69.2901 63.5952 69.2875 63.1155 68.99 62.818C68.6925 62.5205 68.2128 62.5179 67.9185 62.8122C61.7385 68.9922 51.6642 68.9378 45.417 62.6906C39.1698 56.4434 39.1154 46.3691 45.2954 40.1891Z"/>
</mask>
<path d="M44.0907 40.3165C43.7383 39.9641 43.7164 39.3702 44.0965 38.9902L46.4943 41.388C47.463 40.4194 47.4359 38.8661 46.4885 37.9187L44.0907 40.3165ZM45.417 40.3108C45.037 40.6908 44.4431 40.669 44.0907 40.3165L46.4885 37.9187C45.5412 36.9713 43.9878 36.9443 43.0192 37.9129L45.417 40.3108ZM45.5503 62.5574C39.358 56.3651 39.3228 46.405 45.417 40.3108L43.0192 37.9129C35.5763 45.3558 35.6604 57.4632 43.1524 64.9552L45.5503 62.5574ZM67.7969 62.6906C61.7026 68.7849 51.7425 68.7496 45.5503 62.5574L43.1524 64.9552C50.6445 72.4473 62.7518 72.5314 70.1947 65.0884L67.7969 62.6906ZM67.7911 64.0169C67.4387 63.6645 67.4168 63.0706 67.7969 62.6906L70.1947 65.0884C71.1633 64.1198 71.1363 62.5665 70.1889 61.6191L67.7911 64.0169ZM69.1174 64.0111C68.7374 64.3912 68.1435 64.3693 67.7911 64.0169L70.1889 61.6191C69.2415 60.6717 67.6882 60.6447 66.7196 61.6133L69.1174 64.0111ZM44.2181 63.8895C51.1152 70.7866 62.2631 70.8655 69.1174 64.0111L66.7196 61.6133C61.2139 67.119 52.2133 67.089 46.616 61.4917L44.2181 63.8895ZM44.0965 38.9902C37.2421 45.8446 37.321 56.9924 44.2181 63.8895L46.616 61.4917C41.0187 55.8944 40.9886 46.8937 46.4943 41.388L44.0965 38.9902Z" fill="white" mask="url(#path-25-inside-1_690_527)"/>
<path d="M67.5312 61.3588L70.3287 64.1563" stroke="white" stroke-width="1.69553" stroke-linecap="round"/>
</svg>
